<?xml version="1.0" encoding="UTF-8" standalone="no"?>
<!-- Created with Inkscape (http://www.inkscape.org/) -->

<svg
   xmlns:dc="http://purl.org/dc/elements/1.1/"
   xmlns:cc="http://creativecommons.org/ns#"
   xmlns:rdf="http://www.w3.org/1999/02/22-rdf-syntax-ns#"
   xmlns:svg="http://www.w3.org/2000/svg"
   xmlns="http://www.w3.org/2000/svg"
   xmlns:sodipodi="http://sodipodi.sourceforge.net/DTD/sodipodi-0.dtd"
   xmlns:inkscape="http://www.inkscape.org/namespaces/inkscape"
   width="64px"
   height="64px"
   id="svg3959"
   version="1.1"
   inkscape:version="0.48.1 r9760"
   sodipodi:docname="New document 10">
  <defs
     id="defs3961" />
  <sodipodi:namedview
     id="base"
     pagecolor="#ffffff"
     bordercolor="#666666"
     borderopacity="1.0"
     inkscape:pageopacity="0.0"
     inkscape:pageshadow="2"
     inkscape:zoom="7.7781746"
     inkscape:cx="26.884022"
     inkscape:cy="46.854729"
     inkscape:current-layer="layer1"
     showgrid="true"
     inkscape:document-units="px"
     inkscape:grid-bbox="true"
     inkscape:window-width="1680"
     inkscape:window-height="975"
     inkscape:window-x="0"
     inkscape:window-y="25"
     inkscape:window-maximized="1" />
  <metadata
     id="metadata3964">
    <rdf:RDF>
      <cc:Work
         rdf:about="">
        <dc:format>image/svg+xml</dc:format>
        <dc:type
           rdf:resource="http://purl.org/dc/dcmitype/StillImage" />
        <dc:title></dc:title>
      </cc:Work>
    </rdf:RDF>
  </metadata>
  <g
     id="layer1"
     inkscape:label="Layer 1"
     inkscape:groupmode="layer">
    <path
       inkscape:connector-curvature="0"
       id="path3994"
       d="m 30.544569,59.513029 c 0.436505,-0.111644 1.042159,-0.104304 1.345898,0.01629 0.303739,0.120622 -0.0534,0.211966 -0.793645,0.202992 -0.740244,-0.009 -0.988758,-0.107663 -0.552253,-0.219307 z m -4.242509,-0.43599 c 0.323857,-0.127202 0.710802,-0.111561 0.859879,0.03474 0.149077,0.146325 -0.115897,0.250395 -0.58883,0.231275 -0.522631,-0.02114 -0.628938,-0.12547 -0.271049,-0.266036 z m 1.495803,-1.049998 c -3.195634,-0.433044 -3.718438,-1.008645 -1.800371,-1.982185 1.775401,-0.901127 4.192067,-0.886966 7.454651,0.04368 3.570122,1.018377 3.052911,1.536447 -2.131005,2.134548 -0.61687,0.07117 -2.202344,-0.01704 -3.523275,-0.196048 z m 5.975763,-0.827096 c 0.341484,-0.54232 -2.61329,-1.33924 -4.977193,-1.342375 -1.892088,-0.0026 -3.484023,1.001476 -2.316821,1.461152 1.034697,0.407487 7.024051,0.309961 7.294014,-0.118777 z m -13.84055,-7.140564 c -0.428658,-1.036127 -0.550262,-2.818082 -0.412077,-6.038465 0.187599,-4.371949 0.148671,-4.618319 -0.904502,-5.724432 -1.768076,-1.856952 -2.671192,-3.968196 -2.357012,-5.510063 0.260457,-1.278212 0.05295,-1.149461 -3.096777,1.921414 -3.092587,3.015171 -3.3754918,3.44019 -3.3706138,5.063814 0.00452,1.505236 0.5533088,3.965937 1.6473928,7.386731 0.522935,1.635021 -0.801334,0.661722 -2.0969452,-1.541193 C 6.3195608,40.477236 5.1509235,33.756829 6.3370688,28.333806 7.6369477,22.390796 8.742278,20.262381 12.45421,16.554687 c 1.879098,-1.876953 3.640889,-3.412642 3.915091,-3.412642 0.842844,0 5.132728,4.043071 4.990976,4.703826 -0.07336,0.341936 -0.839971,1.029804 -1.703589,1.528595 l -1.570214,0.906893 1.508509,-1.28694 1.508509,-1.28694 -2.119732,-1.831377 c -2.433613,-2.10256 -2.367551,-2.115137 -6.086573,1.158821 -2.787236,2.453681 -4.0337764,4.640151 -5.07039,8.893617 -1.1325297,4.647033 -1.3248428,7.537719 -0.7337551,11.029179 0.8444848,4.988235 1.1921005,4.91315 1.4709863,-0.317733 0.263093,-4.934665 1.2936781,-9.292415 2.2859978,-9.666166 0.311275,-0.11724 1.158334,0.09004 1.882354,0.460613 0.72402,0.370577 1.534967,0.674998 1.802105,0.67649 0.267139,0.0015 1.116187,0.772761 1.886774,1.713931 1.155413,1.411184 1.356913,1.978285 1.149236,3.234398 -0.275579,1.666807 0.499954,3.553059 2.01366,4.897625 0.602333,0.53503 1.021498,1.638279 1.222563,3.21781 0.235912,1.853277 0.455851,2.347183 0.960561,2.157087 0.360025,-0.135601 1.144767,-0.246548 1.743871,-0.246548 0.599104,0 1.440602,-0.423305 1.869996,-0.940677 0.429394,-0.517373 1.335899,-1.441818 2.014456,-2.054322 0.678557,-0.612504 1.23374,-1.433106 1.23374,-1.82356 0,-0.390453 0.33637,-1.181274 0.747489,-1.75738 0.712898,-0.998995 0.700218,-1.085034 -0.274018,-1.859342 -0.561829,-0.446533 -1.287315,-0.811878 -1.612192,-0.811878 -0.324878,0 -0.958637,-0.445845 -1.408355,-0.990767 -0.449718,-0.544922 -1.674622,-1.561918 -2.722008,-2.259993 -1.575492,-1.050052 -2.219122,-1.227785 -3.727229,-1.029244 -1.56788,0.20641 -1.879865,0.106764 -2.230176,-0.712308 -0.73191,-1.7113 -1.641492,-2.506242 -2.732899,-2.388455 -0.787083,0.08494 -1.102379,-0.125944 -1.202163,-0.804071 -0.18431,-1.252559 1.019766,-2.124058 2.863745,-2.072755 1.582605,0.04403 1.979966,-0.574095 0.992262,-1.543543 -1.226263,-1.2036 0.182499,-0.4154 1.61341,0.902699 0.854475,0.787109 2.19124,1.906481 2.970587,2.487491 1.117648,0.833217 1.370075,1.297301 1.194889,2.196792 -0.1812,0.930367 0.189915,1.52815 2.014957,3.245643 1.230387,1.15788 2.927628,2.388439 3.771649,2.734575 1.262226,0.517644 1.534583,0.863169 1.534583,1.946843 0,0.724628 -0.201885,1.43997 -0.448633,1.58965 -0.246748,0.14968 -0.448633,0.63801 -0.448633,1.085178 0,0.447168 -0.656125,1.602676 -1.458056,2.567797 -0.801931,0.965122 -1.962768,2.393689 -2.579638,3.174594 -0.61687,0.780905 -1.579225,1.851506 -2.138568,2.379114 -0.573835,0.541277 -1.163098,1.799352 -1.352296,2.887152 -0.419056,2.40937 -1.268995,2.748908 -2.064973,0.824922 z m 0.620878,-22.950058 c 0,-0.310185 -0.605654,-0.788356 -1.345898,-1.062603 -1.57786,-0.584568 -1.778927,-0.04209 -0.348809,0.941094 1.211795,0.833088 1.694707,0.867712 1.694707,0.121509 z M 4.4385956,35.782906 c 0.021527,-0.512972 0.1278335,-0.617313 0.2710488,-0.266039 0.1295968,0.317871 0.1136586,0.697665 -0.035418,0.843987 C 4.5251493,36.507175 4.4191156,36.247099 4.4385957,35.782906 z M 36.775817,30.607498 c -1.782465,-1.805047 -1.856241,-3.622615 -0.244099,-6.013701 0.747473,-1.108631 1.224921,-2.497159 1.31635,-3.828242 0.08599,-1.251883 0.424902,-2.290639 0.845961,-2.592835 0.8956,-0.642775 0.884006,-1.021574 -0.0627,-2.048334 -0.624688,-0.677514 -0.665877,-0.985993 -0.224316,-1.679976 0.297482,-0.467541 0.540877,-1.5463 0.540877,-2.397243 0,-1.864697 0.804072,-2.008645 3.715881,-0.66523 5.27806,2.435127 9.827828,7.711834 12.005096,13.92321 0.951734,2.715143 0.605686,3.445792 -1.829385,3.862539 -1.312609,0.224645 -1.59121,0.138158 -1.61505,-0.501373 -0.01585,-0.425066 -0.178552,-1.367308 -0.361567,-2.093871 l -0.332755,-1.321022 1.195215,1.431108 c 0.657364,0.787109 1.606814,1.431108 2.109889,1.431108 0.813106,0 0.880176,-0.183367 0.603985,-1.651279 -0.98981,-5.260639 -6.245166,-11.749177 -11.486886,-14.182302 -1.569398,-0.72849 -2.985308,-1.179329 -3.146466,-1.001865 -0.161157,0.177464 -0.413616,1.24493 -0.561019,2.372147 -0.197964,1.513867 -0.09592,2.189669 0.390477,2.585878 0.965857,0.786775 0.802551,2.050227 -0.301632,2.33364 -0.816131,0.209479 -0.922304,0.475124 -0.707987,1.771395 0.204085,1.234381 -0.04714,1.994554 -1.318418,3.9894 -1.847388,2.898854 -1.76527,4.435955 0.32941,6.165936 0.723041,0.597154 1.143957,1.18926 0.93537,1.315792 -0.208588,0.126531 -1.016893,-0.415665 -1.796235,-1.20488 z M 4.4385956,30.939157 c 0.021527,-0.512973 0.1278335,-0.617314 0.2710488,-0.26604 0.1295968,0.317871 0.1136586,0.697665 -0.035418,0.843987 C 4.5251493,31.663425 4.4191156,31.403349 4.4385957,30.939157 z M 43.091987,21.437576 c -1.893261,-1.302678 -2.131998,-2.130759 -0.614302,-2.130759 0.431773,0 1.168469,0.275187 1.637102,0.611527 0.468633,0.336339 1.115444,0.512324 1.437358,0.391077 0.321914,-0.121247 0.835083,-0.02745 1.140376,0.208438 0.305293,0.235888 1.11026,0.559062 1.788817,0.718165 0.678557,0.159102 1.23374,0.582732 1.23374,0.941399 0,0.497957 -0.556811,0.643128 -2.355321,0.614078 -1.850308,-0.02989 -2.765378,-0.320187 -4.26777,-1.353925 z m 3.258346,0.07095 c -0.152499,-0.242188 -0.46724,-0.440341 -0.699426,-0.440341 -0.232186,0 -0.422156,0.198153 -0.422156,0.440341 0,0.242187 0.314742,0.440341 0.699426,0.440341 0.384684,0 0.574655,-0.198154 0.422156,-0.440341 z m -5.437427,-6.804197 c -0.137495,-0.351684 -0.124694,-0.838414 0.02845,-1.081621 0.433496,-0.688448 1.595601,-0.04208 1.595601,0.887475 0,0.976637 -1.25927,1.127175 -1.624049,0.194146 z m -8.883892,-4.168544 c -1.433245,-1.4683357 -1.178872,-2.3929363 0.568574,-2.0666665 0.655066,0.122309 2.04904,0.3494809 3.097719,0.5048261 1.048679,0.1553453 1.906689,0.4470209 1.906689,0.6481678 0,0.4896816 -2.852904,2.1989136 -3.670239,2.1989136 -0.35652,0 -1.212754,-0.578358 -1.902743,-1.285241 z m 3.464256,0.07684 1.435777,-0.7680599 -2.243164,-0.228193 c -1.23374,-0.1255064 -2.326044,-0.177401 -2.427343,-0.1153218 -0.195987,0.1201074 1.322265,1.8796347 1.621889,1.8796347 0.09739,0 0.823163,-0.345627 1.612841,-0.76806 z M 21.909077,8.6875403 C 20.560911,8.1595808 19.208056,7.006963 19.208056,6.3862999 c 0,-0.2499626 0.555183,0.055717 1.23374,0.6792889 1.584952,1.4565189 2.854395,1.8164875 5.095394,1.444871 C 27.329487,8.2132495 27.336463,8.2044991 26.530903,7.2639546 25.922378,6.55346 26.036924,6.5918585 26.989281,7.417613 L 28.258914,8.5184652 26.986072,8.796622 C 25.070745,9.2151823 23.151114,9.1739382 21.909077,8.6875403 z"
       style="fill:#a3cdfa" />
    <path
       inkscape:connector-curvature="0"
       id="path3992"
       d="m 30.664613,58.471077 c 0.143466,-0.227846 0.905057,-0.416964 1.692426,-0.42027 1.84263,-0.0077 3.450426,-0.433512 3.450426,-0.91373 0,-0.518422 -4.315302,-1.705224 -6.505837,-1.789246 -2.091826,-0.08023 -5.061003,1.219564 -4.359268,1.908332 0.249596,0.244979 1.534572,0.616024 2.855503,0.824538 l 2.401693,0.379116 -2.514206,-0.163054 C 25.166946,58.133432 23.922759,57.636684 17.984101,54.423489 11.503644,50.917147 7.2737085,45.40678 5.3369412,37.947939 c -1.1532859,-4.441512 -1.1528861,-4.618178 0.02108,-9.315941 1.443577,-5.776641 3.1494025,-8.917855 6.9324168,-12.765784 1.810237,-1.8413 3.394991,-3.246083 3.521676,-3.12174 0.126685,0.124344 -1.34574,1.800353 -3.272055,3.724467 -3.8050273,3.800677 -4.8952892,5.886093 -6.2029902,11.864865 -1.1861453,5.423023 -0.017508,12.14343 3.005473,17.283381 1.2956112,2.202915 2.6198802,3.176214 2.0969452,1.541193 -1.094084,-3.420794 -1.6428706,-5.881495 -1.6473928,-7.386731 -0.00488,-1.623624 0.2780268,-2.048643 3.3706138,-5.063814 3.149723,-3.070875 3.357234,-3.199626 3.096777,-1.921414 -0.31418,1.541867 0.588936,3.653111 2.357012,5.510063 1.053173,1.106113 1.092101,1.352483 0.904502,5.724432 -0.204142,4.757487 0.431184,7.70106 1.580965,7.324886 0.308427,-0.100909 0.711665,-1.051015 0.896085,-2.111343 0.189198,-1.0878 0.778461,-2.345875 1.352296,-2.887152 0.559343,-0.527608 1.521698,-1.598209 2.138568,-2.379114 0.61687,-0.780905 1.777707,-2.209472 2.579638,-3.174594 0.801931,-0.965121 1.458056,-2.120629 1.458056,-2.567797 0,-0.447168 0.201885,-0.935498 0.448633,-1.085178 0.246748,-0.14968 0.448633,-0.865022 0.448633,-1.58965 0,-1.083674 -0.272357,-1.429199 -1.534583,-1.946843 -0.844021,-0.346136 -2.541262,-1.576695 -3.771649,-2.734575 -1.825042,-1.717493 -2.196157,-2.315276 -2.014957,-3.245643 0.225554,-1.158103 0.125512,-1.27117 -3.445996,-3.894682 -0.61687,-0.453133 -1.020639,-0.914211 -0.897265,-1.024617 0.123374,-0.110407 3.353529,0.662516 7.178123,1.717607 7.856433,2.167355 8.31709,2.223492 9.610277,1.171138 0.512925,-0.417402 0.680235,-0.476848 0.3718,-0.132102 -0.308435,0.344746 -0.560791,1.340922 -0.560791,2.213725 0,1.235527 0.347691,1.917682 1.570215,3.080699 l 1.570214,1.493783 0,6.637516 0,6.637515 -4.26201,4.165845 c -2.344106,2.291213 -4.262011,4.274486 -4.262011,4.407266 0,0.606887 6.237078,1.774786 8.000239,1.498053 2.105598,-0.330471 2.517345,0.28731 0.860257,1.290728 -1.752598,1.061252 -8.688525,2.406388 -8.171123,1.58469 z M 53.30414,29.123371 c 1.951511,-0.332949 2.272059,-1.229769 1.364731,-3.818224 -1.700174,-4.850306 -3.970228,-8.074796 -7.966677,-11.316232 -2.349422,-1.905566 -5.459082,-3.488916 -6.852146,-3.488916 -0.496185,0 -0.902154,-0.198153 -0.902154,-0.440341 0,-1.4853849 5.274144,1.002993 8.841218,4.171348 3.811839,3.385763 6.883407,8.284388 7.925518,12.639843 0.354819,1.48297 -0.672335,2.586582 -2.330378,2.503843 l -1.201694,-0.05997 1.121582,-0.191354 z M 36.706087,23.486555 c 0.246001,-0.635076 0.447276,-1.676798 0.447276,-2.314938 0,-0.848858 0.133403,-1.029317 0.497056,-0.672385 0.538774,0.528816 -0.184785,3.409933 -0.977062,3.890538 -0.236041,0.143185 -0.221948,-0.245744 0.03273,-0.903215 z m 8.522664,-1.978033 c 0,-0.242188 0.18997,-0.440341 0.422156,-0.440341 0.232186,0 0.546927,0.198153 0.699426,0.440341 0.152499,0.242187 -0.03747,0.440341 -0.422156,0.440341 -0.384684,0 -0.699426,-0.198154 -0.699426,-0.440341 z m -7.414409,-3.027344 c 0.129957,-0.817383 0.236286,-1.782874 0.236286,-2.145537 0,-0.536193 0.125727,-0.556971 0.672949,-0.11121 0.76779,0.625432 0.903132,1.761364 0.20986,1.761364 -0.2547,0 -0.663856,0.445845 -0.909236,0.990767 -0.376675,0.83649 -0.409353,0.759351 -0.209859,-0.495384 z m 0.606186,-5.19566 c 0.191444,-0.921616 0.304258,-1.032345 0.434995,-0.426956 0.09708,0.449553 -0.01923,1.0095 -0.258479,1.244325 -0.280905,0.275714 -0.343434,-0.01383 -0.176516,-0.817369 z M 37.528155,9.6468613 C 37.295656,9.0005747 31.714277,8.2356646 31.068626,8.7616039 30.691452,9.0688451 30.445234,8.9880721 30.251949,8.4936899 29.741398,7.1878064 29.523018,7.2100816 34.685883,8.0414193 c 0.493496,0.079464 1.211978,0.169769 1.596626,0.2006778 1.079683,0.086759 2.433379,1.1938369 1.874401,1.5329192 -0.263053,0.1595712 -0.545993,0.1019015 -0.628755,-0.128155 z"
       style="fill:#5e9df8" />
    <path
       inkscape:connector-curvature="0"
       id="path3990"
       d="m 41.181823,41.314041 c -0.380365,-0.693065 -0.610619,-2.736273 -0.631245,-5.6015 -0.01786,-2.480759 -0.171969,-4.511831 -0.342467,-4.513494 -0.454575,-0.0044 -0.910661,0.839864 -1.285886,2.380413 l -0.331118,1.35946 -0.04592,-1.651279 c -0.06309,-2.268604 1.160914,-3.412024 3.655297,-3.414644 1.048679,-0.0011 4.228363,-0.127744 7.065964,-0.281428 5.661193,-0.306608 6.475583,0.159549 1.265275,0.724242 l -3.284122,0.355934 2.915646,-0.03919 c 2.278974,-0.03063 2.944439,0.10757 3.047513,0.632888 0.07253,0.369641 -0.179619,0.925808 -0.560325,1.235925 -1.085287,0.884061 -0.823214,2.259482 0.878024,4.608086 0.863618,1.192246 1.570214,2.350601 1.570214,2.574121 0,0.22352 -1.200617,-0.614488 -2.668036,-1.862241 -2.591424,-2.203495 -2.704147,-2.250525 -3.925537,-1.637796 -0.691624,0.346964 -1.964095,0.76858 -2.827713,0.936923 -3.002476,0.585267 -3.139021,0.67745 -3.171961,2.141452 -0.01734,0.770789 -0.187523,1.793321 -0.378178,2.272295 -0.329883,0.828747 -0.375602,0.8181 -0.945422,-0.220171 z m -2.163092,-3.072565 c 0,-0.605468 0.101827,-0.85316 0.226284,-0.550426 0.124456,0.302735 0.124456,0.798118 0,1.100853 -0.124457,0.302734 -0.226284,0.05504 -0.226284,-0.550427 z M 17.220625,21.558416 c -0.135219,-0.214746 0.105222,-0.660591 0.534314,-0.990767 0.689175,-0.530303 0.715215,-0.518558 0.223269,0.100706 -0.306294,0.385565 -0.42406,0.83141 -0.261702,0.990768 0.162358,0.159357 0.172521,0.28974 0.02258,0.28974 -0.149937,0 -0.383246,-0.175701 -0.518466,-0.390447 z M 4.0253812,17.985795 c 0,-0.605469 0.1018279,-0.853161 0.2262841,-0.550426 0.1244562,0.302734 0.1244562,0.798117 0,1.100852 -0.1244562,0.302734 -0.2262841,0.05504 -0.2262841,-0.550426 z M 31.53744,12.811789 C 29.966997,11.747311 29.289707,11.590869 25.937546,11.518313 19.12789,11.370921 18.711675,11.242112 17.597341,8.9372307 17.00771,7.7176409 16.970448,7.2811098 17.411454,6.759551 c 1.029324,-1.2173368 3.572301,-2.4882657 4.593364,-2.2956717 0.931199,0.1756439 0.918799,0.1967935 -0.147592,0.2517217 -0.640314,0.032982 -1.529614,0.4562733 -1.976221,0.9406483 -0.778132,0.8439344 -0.77877,0.9167376 -0.01528,1.7447869 1.199899,1.3013687 3.547317,1.8985612 6.105397,1.5532379 1.97214,-0.2662261 2.17503,-0.3873577 1.666742,-0.9950995 C 27.319559,7.5785884 26.161593,6.7065825 25.064605,6.0213836 23.967618,5.3361848 23.281202,4.7755675 23.539237,4.7755675 c 0.829928,0 3.890643,2.4448085 6.817437,5.4455665 1.566903,1.606501 3.030568,2.920911 3.252587,2.920911 0.222021,0 0.403673,0.198153 0.403673,0.440341 0,0.700538 -0.564226,0.524901 -2.475494,-0.770597 z m 4.494341,-0.110085 c 0.152499,-0.242188 0.467241,-0.440341 0.699426,-0.440341 0.232186,0 0.422156,0.198153 0.422156,0.440341 0,0.242187 -0.314742,0.440341 -0.699426,0.440341 -0.384684,0 -0.574654,-0.198154 -0.422156,-0.440341 z"
       style="fill:#d6a35f" />
    <path
       inkscape:connector-curvature="0"
       id="path3988"
       d="M 25.488913,58.953206 C 20.270934,57.963566 15.584224,55.361499 11.723458,51.31061 8.370046,47.792057 5.3388052,42.208647 5.0486537,39.015918 l -0.2104422,-2.315635 0.8136112,2.642046 c 1.9902464,6.462941 6.4223143,11.945528 11.9639293,14.799703 1.492637,0.768774 3.03826,1.671891 3.434718,2.00692 1.49941,1.267099 5.85322,2.394768 9.332405,2.417168 3.368549,0.02166 7.62443,-0.881409 8.847035,-1.877328 1.171573,-0.954346 0.666359,-1.394599 -1.254431,-1.093133 -1.763161,0.276733 -8.000239,-0.891166 -8.000239,-1.498053 0,-0.13278 1.917905,-2.116053 4.262011,-4.407266 l 4.26201,-4.165845 0.05797,-5.512958 0.05796,-5.512958 0.727143,6.461929 c 0.399928,3.554061 0.899002,6.625438 1.109053,6.825283 0.21005,0.199844 1.162189,-0.522276 2.115864,-1.604715 l 1.733954,-1.968071 1.338861,1.259002 c 0.736373,0.692452 1.904023,2.336356 2.594778,3.653116 l 1.255919,2.394111 -2.192995,1.964286 c -1.206147,1.080355 -3.885042,2.756939 -5.953099,3.725738 -3.560323,1.667866 -4.027805,1.771161 -8.798506,1.944149 -2.771121,0.100481 -5.946883,0.01039 -7.057249,-0.200201 z M 54.050171,36.51763 c -1.82794,-2.352648 -1.814603,-2.914921 0.109682,-4.624186 1.027104,-0.91234 1.24937,-2.018445 0.40559,-2.018445 -0.293275,0 -0.08987,-0.405413 0.452007,-0.900919 0.741006,-0.677595 0.914565,-1.196076 0.700145,-2.091619 C 55.20798,24.753969 53.627671,21.339611 52.056322,18.97205 48.89884,14.214653 41.743506,9.1667144 39.085601,9.8214767 38.403426,9.9895275 38.08126,9.9269141 38.24992,9.6590605 38.599862,9.1033071 37.233985,8.3816905 35.295446,8.0981598 34.466691,7.9769459 32.897082,7.7437311 31.807428,7.5799046 30.058276,7.3169246 29.860634,7.3700155 30.119917,8.0332073 30.294021,8.4785294 30.233022,8.6748386 29.970101,8.515348 29.72618,8.3673825 29.526607,7.9334521 29.526607,7.5510589 c 0,-0.5991774 0.472049,-0.6532753 3.415756,-0.3914538 11.971245,1.064756 21.777006,9.6117229 24.145136,21.0455519 1.053471,5.08639 0.735601,10.111057 -0.656291,10.374157 -0.382078,0.07222 -1.424063,-0.830007 -2.381037,-2.061684 z M 4.8788025,28.68058 C 4.814503,25.310864 9.0984089,17.700828 13.068155,14.132812 c 2.187276,-1.965929 2.741427,-2.19716 3.266629,-1.363072 0.208772,0.331557 0.12184,0.388105 -0.249937,0.16258 -0.379835,-0.230412 -1.657025,0.759833 -3.827616,2.967671 C 8.7587837,19.45847 7.0314984,22.444228 5.7010203,27.232954 5.0867873,29.443733 4.8996516,29.773211 4.8788025,28.68058 z M 32.218404,26.180277 c 0,-0.0946 0.692434,-0.251338 1.538744,-0.348314 0.84631,-0.09697 1.440049,-0.01958 1.319421,0.171995 -0.217101,0.344784 -2.858165,0.507711 -2.858165,0.176319 z m -2.46748,-0.708687 c -0.565564,-0.238539 -0.648489,-0.378442 -0.224317,-0.378442 0.370122,0 1.076719,0.170299 1.570215,0.378442 0.565564,0.238539 0.648489,0.378442 0.224316,0.378442 -0.370122,0 -1.076718,-0.170299 -1.570214,-0.378442 z m -2.102966,-0.741144 c 0.323857,-0.127202 0.710802,-0.111558 0.85988,0.03477 0.149076,0.146322 -0.115898,0.250396 -0.588831,0.231276 -0.522631,-0.02113 -0.628938,-0.125471 -0.271049,-0.26604 z m -4.934959,-1.321023 c 0.323856,-0.127201 0.710802,-0.111557 0.859879,0.03477 0.149077,0.146322 -0.115897,0.250396 -0.58883,0.231276 -0.522632,-0.02113 -0.628939,-0.125471 -0.271049,-0.266039 z m 14.062568,-1.46056 c 0,-0.605469 0.101828,-0.853161 0.226284,-0.550426 0.124456,0.302734 0.124456,0.798118 0,1.100852 -0.124456,0.302734 -0.226284,0.05504 -0.226284,-0.550426 z m 0.413214,-2.45857 c 0.02153,-0.512972 0.127834,-0.617314 0.271049,-0.266039 0.129597,0.317871 0.113659,0.697665 -0.03542,0.843986 -0.149077,0.146322 -0.255111,-0.113755 -0.235631,-0.577947 z m 0.484052,-2.38518 c 0,-0.605469 0.101827,-0.853161 0.226284,-0.550426 0.124456,0.302734 0.124456,0.798118 0,1.100852 -0.124457,0.302734 -0.226284,0.05504 -0.226284,-0.550426 z"
       style="fill:#356ad3" />
    <path
       inkscape:connector-curvature="0"
       id="path3986"
       d="m 41.672951,59.431887 c -2.70107,-0.74086 -1.085663,-1.798502 2.763615,-1.8094 1.678959,-0.0048 2.412369,-0.259704 3.50072,-1.216948 2.921631,-2.569676 2.397538,-5.851792 -1.620115,-10.145978 l -1.939956,-2.073482 -1.778921,1.981534 c -1.181257,1.315799 -1.928213,1.833592 -2.223284,1.541193 -0.736205,-0.72954 -1.630543,-14.436237 -1.015533,-15.564153 0.284488,-0.521747 0.661562,-0.94727 0.837941,-0.945606 0.17638,0.0017 0.335302,2.032735 0.35316,4.513494 0.02062,2.865227 0.25088,4.908435 0.631245,5.6015 0.56982,1.038271 0.615539,1.048918 0.945422,0.220171 0.190655,-0.478974 0.360835,-1.501506 0.378178,-2.272295 0.03294,-1.464002 0.169485,-1.556185 3.171961,-2.141452 0.863618,-0.168343 2.136089,-0.589959 2.827713,-0.936924 1.22139,-0.612729 1.334113,-0.565699 3.925537,1.637796 1.467419,1.247753 2.668036,2.085761 2.668036,1.862241 0,-0.22352 -0.706596,-1.381874 -1.570214,-2.574121 -1.701238,-2.348604 -1.963311,-3.724025 -0.878024,-4.608086 0.380706,-0.310117 0.632851,-0.866283 0.560325,-1.235925 -0.104994,-0.535107 -0.725843,-0.648281 -3.046396,-0.555324 -4.0591,0.1626 -3.238562,-0.213205 1.23309,-0.564752 4.024616,-0.316402 4.64477,0.07604 2.762402,1.748074 -2.029893,1.803073 -1.981571,2.213588 0.659351,5.601374 2.70451,3.469364 4.292015,6.511551 4.307309,8.254249 0.01382,1.572108 -8.818818,12.371727 -10.91804,13.34946 -1.563278,0.728117 -4.542303,0.880066 -6.535522,0.33336 z"
       style="fill:#d64a2a" />
    <path
       inkscape:connector-curvature="0"
       id="path3984"
       d="m 25.796036,25.510997 c -4.085022,-1.161247 -7.685037,-2.379909 -8.000035,-2.708136 -0.438366,-0.456776 -0.04446,-0.931077 1.6791,-2.0218 1.238501,-0.783764 2.258761,-1.800739 2.267244,-2.259943 0.0158,-0.855479 -5.517018,-6.536704 -6.365952,-6.536704 -1.582161,0 -8.9633275,9.42714 -9.9707355,12.734505 C 4.9278503,26.287582 4.4423142,25.891874 3.806768,23.415841 2.5538335,18.534517 3.5423142,12.655282 6.0053796,10.33905 6.4847193,9.8882862 8.8528895,8.4458958 11.267979,7.133738 13.68307,5.8215803 16.866598,4.0935721 18.342486,3.2937197 c 1.47589,-0.7998525 3.235956,-1.4594032 3.911261,-1.4656683 1.339076,-0.012423 8.274111,4.0063302 8.281566,4.7990489 0.0084,0.893359 4.095747,4.8489257 5.010467,4.8489257 0.494738,0 1.751633,-0.511008 2.793103,-1.135575 1.041468,-0.6245658 2.020615,-1.0032048 2.175881,-0.8414178 0.155266,0.161789 -0.387488,4.0472208 -1.206123,8.6342938 -1.031932,5.782261 -1.735626,8.535037 -2.294445,8.975622 -1.230379,0.970056 -3.142693,0.69766 -11.21816,-1.597952 z M 9.3787823,14.72239 c 2.5436187,-1.105041 4.6468937,-2.709863 4.3056257,-3.285239 -0.153164,-0.258232 -1.010741,-0.469513 -1.905728,-0.469513 -1.7882417,0 -4.6578251,2.318105 -4.6578251,3.762685 0,0.996078 -0.053566,0.996266 2.2579274,-0.008 z M 35.418882,13.509577 c 0,-0.279614 -0.167549,-0.508388 -0.372332,-0.508388 -0.204783,0 -2.345432,-2.022578 -4.756996,-4.4946166 C 24.272014,2.3381313 21.98023,1.6187929 18.371858,4.7658818 l -1.67827,1.4637239 0.837506,1.8390333 c 1.251725,2.748599 1.663531,2.886894 9.105643,3.0579 3.645541,0.08378 4.382108,0.264386 6.089996,1.49336 2.078543,1.495693 2.692149,1.698473 2.692149,0.889678 z m 3.41528,-1.016775 c 0,-0.279614 -0.206596,-0.508388 -0.459103,-0.508388 -0.252506,0 -0.594794,0.228774 -0.760641,0.508388 -0.165844,0.279612 0.04075,0.508387 0.459104,0.508387 0.418351,0 0.76064,-0.228775 0.76064,-0.508387 z"
       style="fill:#edd400" />
    <path
       style="fill:none;stroke:none"
       d="m 4.1189162,39.767047 c 0,-13.212121 0.061708,-20 0.1818182,-20 0.1,0 0.1818182,0.409091 0.1818182,0.909091 0,0.5 0.081818,0.909091 0.1818182,0.909091 0.1,0 0.1818181,0.286364 0.1818181,0.636364 0,0.35 0.081818,0.636363 0.1818182,0.636363 0.1,0 0.1818182,0.327273 0.1818182,0.727273 0,0.525252 0.075758,0.727273 0.2727273,0.727273 0.2020202,0 0.2727272,0.212121 0.2727272,0.818181 0,0.606061 -0.070707,0.818182 -0.2727272,0.818182 -0.1904762,0 -0.2727273,0.19192 -0.2727273,0.636364 0,0.35 -0.081818,0.636364 -0.1818182,0.636364 -0.1010101,0 -0.1818182,0.484848 -0.1818182,1.090909 0,0.60606 -0.080808,1.090909 -0.1818181,1.090909 -0.1157025,0 -0.1818182,1.454545 -0.1818182,4 0,2.545454 0.066116,4 0.1818182,4 0.1010101,0 0.1818181,0.484849 0.1818181,1.090909 0,0.60606 0.080808,1.090909 0.1818182,1.090909 0.1,0 0.1818182,0.409091 0.1818182,0.909091 0,0.686869 0.066667,0.909091 0.2727273,0.909091 0.1904762,0 0.2727272,0.19192 0.2727272,0.636363 0,0.35 0.081818,0.636364 0.1818182,0.636364 0.1,0 0.1818182,0.204545 0.1818182,0.454545 0,0.28283 0.1030304,0.454546 0.2727273,0.454546 0.1696969,0 0.2727273,0.171716 0.2727273,0.454545 0,0.25 0.081818,0.454546 0.1818181,0.454546 0.1,0 0.1818182,0.204545 0.1818182,0.454545 0,0.282829 0.1030304,0.454546 0.2727273,0.454546 0.1696969,0 0.2727273,0.171716 0.2727273,0.454545 0,0.25 0.081818,0.454546 0.1818181,0.454546 0.1,0 0.1818182,0.204545 0.1818182,0.454545 0,0.25 0.087662,0.454546 0.1948053,0.454546 0.3208591,0 0.7142856,0.49357 0.7142856,0.896103 0,0.207144 0.087662,0.376624 0.1948053,0.376624 0.3208591,0 0.7142856,0.493571 0.7142856,0.896103 0,0.213564 0.1180773,0.376624 0.2727272,0.376624 0.15,0 0.272727,0.08766 0.272727,0.194806 0,0.211898 0.447581,0.714285 0.636364,0.714285 0.188783,0 0.636364,0.502387 0.636364,0.714285 0,0.107144 0.08766,0.194806 0.194805,0.194806 0.211899,0 0.714286,0.447582 0.714286,0.636364 0,0.188781 0.502386,0.636363 0.714285,0.636363 0.107143,0 0.194805,0.08766 0.194805,0.194806 0,0.211898 0.447582,0.714285 0.636364,0.714285 0.188783,0 0.636364,0.502387 0.636364,0.714286 0,0.107143 0.204545,0.194805 0.454545,0.194805 0.25,0 0.454546,0.08182 0.454546,0.181818 0,0.1 0.122727,0.181818 0.272727,0.181818 0.15,0 0.272727,0.122728 0.272727,0.272728 0,0.169696 0.171717,0.272727 0.454546,0.272727 0.25,0 0.454545,0.08182 0.454545,0.181818 0,0.1 0.204546,0.181818 0.454546,0.181818 0.25,0 0.454545,0.08766 0.454545,0.194806 0,0.320858 0.493571,0.714285 0.896104,0.714285 0.207143,0 0.376623,0.08182 0.376623,0.181818 0,0.1 0.204546,0.181819 0.454546,0.181819 0.282828,0 0.454545,0.10303 0.454545,0.272727 0,0.190476 0.191919,0.272727 0.636364,0.272727 0.35,0 0.636363,0.08182 0.636363,0.181818 0,0.1 0.327273,0.181818 0.727273,0.181818 0.525253,0 0.727273,0.07576 0.727273,0.272728 0,0.190476 0.19192,0.272727 0.636364,0.272727 0.35,0 0.636363,0.08182 0.636363,0.181818 0,0.1 0.409091,0.181818 0.909091,0.181818 0.5,0 0.909091,0.08182 0.909091,0.181819 0,0.110192 0.787878,0.181818 2,0.181818 1.212122,0 2,0.07163 2,0.181818 0,0.119505 -4.424242,0.181818 -12.909091,0.181818 l -12.9090908,0 0,-20 z"
       id="path3978"
       inkscape:connector-curvature="0" />
  </g>
</svg>
