<?xml version="1.0" encoding="UTF-8" standalone="no"?>
<!-- Created with Inkscape (http://www.inkscape.org/) -->

<svg
   xmlns:dc="http://purl.org/dc/elements/1.1/"
   xmlns:cc="http://creativecommons.org/ns#"
   xmlns:rdf="http://www.w3.org/1999/02/22-rdf-syntax-ns#"
   xmlns:svg="http://www.w3.org/2000/svg"
   xmlns="http://www.w3.org/2000/svg"
   xmlns:sodipodi="http://sodipodi.sourceforge.net/DTD/sodipodi-0.dtd"
   xmlns:inkscape="http://www.inkscape.org/namespaces/inkscape"
   width="64px"
   height="64px"
   id="svg4022"
   version="1.1"
   inkscape:version="0.48.1 r9760"
   sodipodi:docname="New document 13">
  <defs
     id="defs4024" />
  <sodipodi:namedview
     id="base"
     pagecolor="#ffffff"
     bordercolor="#666666"
     borderopacity="1.0"
     inkscape:pageopacity="0.0"
     inkscape:pageshadow="2"
     inkscape:zoom="7.7781746"
     inkscape:cx="41.268315"
     inkscape:cy="36.227431"
     inkscape:current-layer="layer1"
     showgrid="true"
     inkscape:document-units="px"
     inkscape:grid-bbox="true"
     inkscape:window-width="1492"
     inkscape:window-height="900"
     inkscape:window-x="12"
     inkscape:window-y="97"
     inkscape:window-maximized="0" />
  <metadata
     id="metadata4027">
    <rdf:RDF>
      <cc:Work
         rdf:about="">
        <dc:format>image/svg+xml</dc:format>
        <dc:type
           rdf:resource="http://purl.org/dc/dcmitype/StillImage" />
        <dc:title></dc:title>
      </cc:Work>
    </rdf:RDF>
  </metadata>
  <g
     id="layer1"
     inkscape:label="Layer 1"
     inkscape:groupmode="layer">
    <path
       inkscape:connector-curvature="0"
       id="path4055"
       d="M 31.011398,61.383625 C 29.12579,60.968515 27.232573,60.371232 24.586296,59.356595 21.56622,58.198636 18.606637,57.408748 14.382909,56.633404 6.0327385,55.10057 4.4265101,54.440063 2.6549038,51.810667 1.1853689,49.629599 1.2328673,45.955995 2.8193185,39.094534 2.9828741,38.387149 3.7468279,34.408114 4.5169937,30.252231 7.6210459,13.502492 8.7945712,7.5135245 9.2541627,6.0765738 9.7860918,4.4134537 11.581038,2.5135681 13.327735,1.7648468 13.906494,1.516762 15.125009,1.3167832 16.035544,1.3204501 c 1.753786,0.00706 7.754068,0.9471769 10.999112,1.723323 1.066733,0.2551401 3.279384,0.6998607 4.917003,0.9882677 1.637616,0.2884072 3.541642,0.6625133 4.231164,0.8313466 1.35377,0.331478 6.761472,1.416973 8.737648,1.7539185 2.356305,0.4017618 4.499359,1.6302357 5.575002,3.1957916 0.554879,0.8076055 1.109613,1.4683735 1.23274,1.4683735 0.12313,0 1.166918,-0.434077 2.319531,-0.964615 1.152613,-0.5305385 2.442112,-0.964615 2.865558,-0.964615 1.651882,0 3.129649,1.266723 5.407479,4.635226 1.158738,1.713565 1.286263,2.094304 1.286263,3.840263 0,1.916914 -0.01799,1.955917 -1.645453,3.566382 -0.905,0.895548 -2.562207,2.264133 -3.682682,3.041298 -2.462372,1.707909 -5.497627,3.948866 -7.528152,5.558108 -1.989704,1.576892 -2.493999,3.247225 -3.596306,11.911798 -0.959336,7.540768 -2.64587,12.741676 -5.115705,15.775747 -1.916438,2.354248 -2.698809,2.942182 -4.744584,3.565449 -1.861455,0.567112 -4.106919,0.616118 -6.282764,0.137113 z m -5.641553,-6.017006 c 0,-0.42385 -0.669952,-0.618243 -2.877969,-0.835065 -1.931831,-0.189706 -1.95873,-0.181901 -1.104925,0.32048 0.481311,0.283207 1.139376,0.428874 1.462367,0.323706 0.322991,-0.10517 0.677969,-0.04064 0.78884,0.143399 0.24582,0.408051 1.731687,0.448791 1.731687,0.04749 z m 18.036307,-8.555166 0.115625,-1.286153 -0.44279,0.964616 c -0.243534,0.530538 -0.440211,1.471037 -0.437058,2.089998 0.0055,1.078691 0.01905,1.092031 0.327166,0.321538 0.176792,-0.442115 0.373468,-1.382614 0.437057,-2.089999 z M 16.123965,41.184534 c 0.267425,-0.530538 0.346529,-0.964616 0.175787,-0.964616 -0.336095,0 -0.959336,1.03072 -0.959336,1.586555 0,0.597154 0.281795,0.373479 0.783549,-0.621939 z M 11.166642,8.6488764 c -0.100056,-0.2565015 -0.174319,-0.1803115 -0.189357,0.1942615 -0.01361,0.3389561 0.06046,0.5288645 0.164614,0.42202 0.104148,-0.1068476 0.115282,-0.3841709 0.02474,-0.6162815 z M 11.892801,6.155834 c 0,-0.166409 -0.14104,-0.3919868 -0.31342,-0.5012832 -0.172381,-0.1092973 -0.31342,0.026856 -0.31342,0.3025622 0,0.2757053 0.141039,0.5012831 0.31342,0.5012831 0.17238,0 0.31342,-0.1361522 0.31342,-0.3025621 z m 3.362731,-3.4286221 c -0.104147,-0.1068442 -0.374471,-0.1182675 -0.600721,-0.025386 -0.250025,0.1026435 -0.175759,0.1788341 0.189357,0.1942629 0.330396,0.01396 0.515511,-0.062034 0.411364,-0.1688784 z"
       style="fill:#e7e7e7" />
    <path
       inkscape:connector-curvature="0"
       id="path4053"
       d="M 31.152124,61.095314 C 30.462602,61.015733 28.205979,60.463507 26.137409,59.868143 20.151025,58.145172 17.865692,57.561537 14.854302,56.986637 5.8803524,55.273436 4.6325419,54.853715 3.0637653,53.020693 1.0576606,50.676683 0.86867206,49.307299 1.8428414,44.174043 2.1851032,42.370541 3.16592,37.205295 4.0224342,32.69572 4.8789484,28.186145 6.2345175,20.951533 7.0348099,16.618804 7.8351025,12.286076 8.6206055,8.4517317 8.780374,8.0980402 9.3999006,6.7265403 8.8422915,10.155818 5.9309492,25.621877 5.0487745,30.308298 4.1242824,35.227834 3.8765226,36.55418 1.9105129,47.07892 1.8436878,48.567356 3.2399943,50.731974 c 1.4565053,2.257938 1.7977346,2.368509 15.6887637,5.083672 11.965065,2.338712 15.510959,2.443445 19.052236,0.562755 2.226674,-1.182533 3.611468,-2.858043 4.616592,-5.585763 0.749835,-2.034909 3.770772,-16.807434 3.525332,-17.239054 -0.219827,-0.386582 -1.862663,1.317854 -2.231241,2.314909 -0.172099,0.465552 -0.611024,2.582763 -0.975387,4.704915 -0.364363,2.122153 -0.792319,4.178123 -0.951009,4.568825 -0.274803,0.676575 -2.381758,2.022711 -3.165915,2.022711 -0.203463,0 -0.949536,0.27841 -1.65794,0.618687 -1.484058,0.712857 -4.770037,2.034322 -7.71311,3.101845 -1.120475,0.406422 -2.812942,1.050929 -3.761036,1.432234 -4.707317,1.893202 -5.14175,1.923733 -10.812978,0.759859 C 7.4944367,51.567151 7.0250553,51.457037 6.3377328,51.079666 5.1642361,50.435361 4.354744,49.092129 4.354744,47.789188 c 0,-1.225772 0.074002,-1.655875 1.2968549,-7.537317 0.3676934,-1.768461 0.8575984,-4.300575 1.0886771,-5.626921 0.2310788,-1.326345 0.5658623,-2.990306 0.7439623,-3.697691 0.178099,-0.707383 0.5300201,-2.371345 0.7820468,-3.697691 1.4901788,-7.842421 2.5121589,-11.896917 2.9987489,-11.896917 0.156197,0 0.279092,-0.542595 0.273098,-1.205768 -0.03061,-3.386646 0.322916,-5.9125056 1.000682,-7.1496637 0.390544,-0.7128795 0.944718,-1.2907169 1.237857,-1.2907169 0.291911,0 0.706326,-0.2170383 0.920921,-0.4823073 0.484318,-0.5986826 1.822452,-0.6263722 2.482678,-0.051373 0.272145,0.2370136 1.975717,0.605347 3.785715,0.8185186 1.809998,0.2131709 4.066621,0.6064003 5.014714,0.8738424 0.948096,0.2674422 2.711081,0.6108578 3.917746,0.7631447 1.206667,0.1522879 3.463288,0.5000334 5.014715,0.7727688 11.15144,1.9603846 11.784104,2.2008826 12.525265,4.7612926 0.264909,0.915148 0.478717,1.818509 0.475128,2.007469 -0.0036,0.18896 -0.885078,0.948826 -1.958873,1.688593 -2.230531,1.536678 -7.602253,5.436365 -12.984765,9.426505 -2.027739,1.50319 -4.253541,3.141688 -4.946231,3.641106 -0.69269,0.499416 -1.981815,1.439916 -2.864724,2.089998 -0.882908,0.650083 -3.176695,2.315552 -5.097305,3.70104 -3.84858,2.776291 -4.21618,3.189797 -6.749961,7.592874 -2.297105,3.991792 -2.314195,5.672032 -0.06543,6.433413 0.895377,0.303155 1.702662,0.202643 5.175898,-0.644438 l 4.115064,-1.003613 5.56113,-4.083047 c 3.058622,-2.24568 7.394636,-5.441931 9.635587,-7.102786 2.240949,-1.660855 6.965752,-5.140195 10.499558,-7.731869 13.377954,-9.811318 12.643434,-9.218941 13.35147,-10.767723 0.361888,-0.791601 0.749743,-1.345129 0.861904,-1.230062 0.419165,0.430023 0.180659,2.548782 -0.396159,3.519236 -0.478642,0.805283 -5.344784,4.635691 -9.547167,7.515099 -2.613584,1.790789 -4.088509,3.139119 -4.476833,4.092583 -0.471246,1.157068 -1.774529,7.977897 -2.136297,11.180487 -0.958857,8.48837 -3.930304,14.622885 -8.156476,16.838942 -1.304334,0.683944 -4.339772,1.047877 -6.581814,0.789119 z m 1.096969,-6.00173 c 0,-0.1117 0.498579,-0.416808 1.107952,-0.678016 0.609375,-0.261209 1.339112,-0.712073 1.621641,-1.001919 0.354686,-0.363869 0.831949,-0.474012 1.541845,-0.355828 0.739729,0.123149 1.251963,-0.0094 1.825972,-0.472655 1.219553,-0.984151 0.949163,-0.236192 -0.405025,1.120395 -1.10219,1.104135 -1.390703,1.221131 -3.447617,1.398041 -1.234622,0.106182 -2.244768,0.101679 -2.244768,-0.01002 z M 13.127078,48.512916 c -0.995789,-0.827228 -0.604115,-2.29024 1.083222,-4.046141 0.736759,-0.766699 1.730957,-2.214706 2.209331,-3.217796 0.854071,-1.790875 1.413175,-2.38856 3.606096,-3.854928 0.603332,-0.403438 3.212551,-2.303501 5.798263,-4.222362 9.889111,-7.338716 13.857236,-10.247719 17.019762,-12.477066 1.210208,-0.853107 2.446206,-1.829779 2.746665,-2.170384 0.300461,-0.340605 0.827172,-0.619281 1.170469,-0.619281 0.754195,0 3.83579,-2.044612 4.084749,-2.710195 0.09764,-0.26102 1.05897,-1.132582 2.136302,-1.936807 2.78497,-2.078965 3.589775,-2.021701 5.43373,0.38662 1.899671,2.481093 2.434765,3.68071 2.074912,4.651708 -0.365456,0.986121 -3.046385,3.051044 -5.78509,4.455829 -1.368848,0.702135 -2.307164,1.418233 -2.588809,1.975711 -0.24297,0.480924 -1.261943,1.445809 -2.264388,2.144189 -1.002441,0.698379 -3.575005,2.592616 -5.716809,4.209414 -2.141803,1.616797 -4.246786,3.183152 -4.677737,3.480787 -0.430953,0.297632 -2.456882,1.771911 -4.502064,3.276173 -2.045186,1.504262 -4.019729,2.946456 -4.387876,3.204876 -0.368149,0.25842 -2.379827,1.718937 -4.470398,3.245597 -3.663924,2.675615 -3.877676,2.783086 -5.925641,2.979282 -1.344677,0.128821 -2.679759,0.501339 -3.636911,1.014784 -1.795787,0.963316 -2.470233,1.008833 -3.407778,0.22999 z M 49.855969,12.90413 c 0.14175,-0.698417 0.697992,-0.741153 0.825218,-0.06341 0.06607,0.351956 -0.08765,0.562693 -0.410464,0.562693 -0.301111,0 -0.473881,-0.207983 -0.414754,-0.499292 z"
       style="fill:#d9d9d9" />
    <path
       inkscape:connector-curvature="0"
       id="path4051"
       d="m 27.077669,59.401602 c -1.551427,-0.33221 -3.878568,-0.900385 -5.171425,-1.262611 -1.292856,-0.362222 -5.307627,-1.256243 -8.921713,-1.986708 -6.8256686,-1.37958 -8.4340926,-1.95191 -9.5404198,-3.394811 -0.9410773,-1.227375 -0.8098716,-1.679632 0.2054386,-0.70813 1.5966587,1.527767 2.3839009,1.744634 14.9199062,4.110076 9.06121,1.70978 13.275329,2.154905 16.006101,1.690678 5.367112,-0.912394 7.699962,-3.540536 9.627305,-10.845921 1.061879,-4.02494 1.180702,-2.488254 0.139431,1.803161 -1.332082,5.489931 -3.275947,8.569205 -6.50016,10.296903 -1.891839,1.013747 -6.787401,1.148986 -10.764464,0.297363 z M 12.11976,51.165266 c -1.008763,-0.561618 -1.496623,-1.390715 -1.496623,-2.543449 l 0,-0.836173 0.937918,1.095899 c 1.367886,1.598294 2.290666,1.663665 7.031414,0.498122 l 4.097325,-1.007358 9.676715,-7.114832 c 5.322195,-3.913156 10.404989,-7.621256 11.295099,-8.240217 0.890112,-0.618962 2.106625,-1.498217 2.703361,-1.953901 2.776494,-2.120209 14.972597,-10.907631 15.138749,-10.907631 0.810785,0 -1.081154,1.631715 -6.573128,5.669036 -3.519712,2.587449 -6.687604,5.11957 -7.039756,5.626936 -0.352155,0.507369 -0.901388,0.922484 -1.220522,0.922484 -0.319131,0 -1.332059,0.700606 -2.250949,1.556897 -0.918894,0.856295 -4.420969,3.559442 -7.782395,6.006993 -3.361426,2.447546 -7.592591,5.558319 -9.402589,6.912829 -4.175556,3.124767 -3.9996,3.036543 -7.981059,4.001672 -3.784918,0.917484 -5.882124,1.009415 -7.13356,0.312693 z m 1.245799,-2.726152 c -0.940274,-0.585455 -0.496271,-2.507725 0.851317,-3.685708 0.696611,-0.608936 2.674654,-3.850794 2.674654,-4.383552 0,-0.555518 1.399764,-1.888155 3.18992,-3.036944 0.572685,-0.367508 3.156828,-2.239113 5.74254,-4.159124 9.367086,-6.955495 13.465608,-9.961319 16.8183,-12.334408 1.092785,-0.77349 2.365556,-1.768212 2.828387,-2.210492 1.240374,-1.185303 2.124348,-0.808163 3.717288,1.585938 0.728472,1.094859 1.592902,2.286215 1.920952,2.647456 0.6855,0.754856 1.040017,1.921628 0.736806,2.424941 -0.114302,0.189735 -1.229423,1.052199 -2.478053,1.916592 -1.248626,0.86439 -4.518059,3.244862 -7.265402,5.289936 -2.747344,2.045076 -5.549133,4.120854 -6.226198,4.612837 -0.677068,0.491983 -2.131188,1.582582 -3.231378,2.423553 -1.100195,0.84097 -2.379736,1.750827 -2.843428,2.021901 -0.463693,0.271076 -1.351759,0.885235 -1.973481,1.364807 -5.031763,3.881286 -5.331445,4.053466 -7.463673,4.288212 -1.134206,0.124865 -2.696866,0.47005 -3.47258,0.767077 -1.941393,0.743371 -2.881997,0.867945 -3.525971,0.466978 z M 54.957011,20.838393 c -1.433838,-1.650924 -3.589318,-4.97875 -3.589318,-5.541513 0,-0.304298 0.528894,-0.978567 1.175323,-1.498376 2.942364,-2.366034 3.944211,-2.328367 5.855742,0.220161 2.511478,3.3484 2.506357,4.321093 -0.03264,6.200854 -2.185613,1.61813 -2.49281,1.673897 -3.409106,0.618874 z"
       style="fill:#f3d9a2" />
    <path
       inkscape:connector-curvature="0"
       id="path4049"
       d="m 27.077669,59.401602 c -1.551427,-0.33221 -3.878568,-0.900385 -5.171425,-1.262611 -1.292856,-0.362222 -5.307627,-1.256243 -8.921713,-1.986708 -6.8256686,-1.37958 -8.4340926,-1.95191 -9.5404198,-3.394811 -0.9410773,-1.227375 -0.8098716,-1.679632 0.2054386,-0.70813 1.5966587,1.527767 2.3839009,1.744634 14.9199062,4.110076 9.06121,1.70978 13.275329,2.154905 16.006101,1.690678 5.367112,-0.912394 7.699962,-3.540536 9.627305,-10.845921 1.061879,-4.02494 1.180702,-2.488254 0.139431,1.803161 -1.332082,5.489931 -3.275947,8.569205 -6.50016,10.296903 -1.891839,1.013747 -6.787401,1.148986 -10.764464,0.297363 z M 12.11976,51.165266 c -1.008763,-0.561618 -1.496623,-1.390715 -1.496623,-2.543449 l 0,-0.836173 0.937918,1.095899 c 1.367886,1.598294 2.290666,1.663665 7.031414,0.498122 l 4.097325,-1.007358 9.676715,-7.114832 c 5.322195,-3.913156 10.404989,-7.621256 11.295099,-8.240217 0.890112,-0.618962 2.106625,-1.498217 2.703361,-1.953901 2.776494,-2.120209 14.972597,-10.907631 15.138749,-10.907631 0.810785,0 -1.081154,1.631715 -6.573128,5.669036 -3.519712,2.587449 -6.687604,5.11957 -7.039756,5.626936 -0.352155,0.507369 -0.901388,0.922484 -1.220522,0.922484 -0.319131,0 -1.332059,0.700606 -2.250949,1.556897 -0.918894,0.856295 -4.420969,3.559442 -7.782395,6.006993 -3.361426,2.447546 -7.592591,5.558319 -9.402589,6.912829 -4.175556,3.124767 -3.9996,3.036543 -7.981059,4.001672 -3.784918,0.917484 -5.882124,1.009415 -7.13356,0.312693 z m 1.245799,-2.739924 c -0.301667,-0.180254 -0.548485,-0.629026 -0.548485,-0.997271 0,-0.893909 1.19291,-2.835434 1.742145,-2.835434 0.55506,0 1.269732,1.147461 1.538113,2.469566 0.167355,0.824424 0.08619,1.089297 -0.41876,1.366538 -0.776439,0.426301 -1.595908,0.425096 -2.313013,-0.0033 z m 6.782906,-2.682195 c -0.09405,-0.25145 -0.01911,-0.748362 0.166546,-1.104246 0.534106,-1.023837 0.403411,-1.332418 -0.564327,-1.332418 -1.183716,0 -1.704769,-0.698705 -1.736398,-2.328425 l -0.02578,-1.328726 4.544585,-3.330994 c 2.499522,-1.832048 5.108741,-3.735861 5.798264,-4.230698 0.689524,-0.494834 5.0333,-3.671331 9.652836,-7.058882 4.619539,-3.387552 8.639147,-6.153264 8.932461,-6.146028 0.586884,0.01448 4.141913,4.989136 4.126646,5.774533 -0.0051,0.265268 -1.94408,1.900087 -4.308718,3.632928 -2.364636,1.732843 -5.850767,4.304061 -7.746957,5.713824 -13.466314,10.011802 -16.623931,12.19489 -17.639692,12.195596 -0.60046,3.23e-4 -1.099616,-0.189539 -1.199459,-0.456464 z M 53.83584,18.648207 c -2.314296,-3.39621 -2.26026,-3.279243 -1.787711,-3.869614 0.676563,-0.845256 3.149072,-2.339787 3.870878,-2.339787 0.762471,0 1.473809,0.729338 3.070954,3.148666 0.863547,1.308086 1.065469,1.865939 0.872896,2.411538 -0.295226,0.836435 -3.097737,3.117373 -3.833079,3.11971 -0.280937,9.01e-4 -1.264767,-1.106962 -2.193938,-2.470513 z"
       style="fill:#a8a8a8" />
    <path
       inkscape:connector-curvature="0"
       id="path4047"
       d="m 20.148465,45.743147 c -0.09405,-0.25145 -0.01911,-0.748362 0.166546,-1.104246 0.534106,-1.023837 0.403411,-1.332418 -0.564327,-1.332418 -1.183716,0 -1.704769,-0.698705 -1.736398,-2.328425 l -0.02578,-1.328726 4.544585,-3.330994 c 2.499522,-1.832048 5.108741,-3.735861 5.798264,-4.230698 0.689524,-0.494834 5.0333,-3.671331 9.652836,-7.058882 4.619539,-3.387552 8.639147,-6.153264 8.932461,-6.146028 0.586884,0.01448 4.141913,4.989136 4.126646,5.774533 -0.0051,0.265268 -1.94408,1.900087 -4.308718,3.632928 -2.364636,1.732843 -5.850767,4.304061 -7.746957,5.713824 -13.466314,10.011802 -16.623931,12.19489 -17.639692,12.195596 -0.60046,3.23e-4 -1.099616,-0.189539 -1.199459,-0.456464 z M 53.83584,18.648207 c -2.314296,-3.39621 -2.26026,-3.279243 -1.787711,-3.869614 0.676563,-0.845256 3.149072,-2.339787 3.870878,-2.339787 0.762471,0 1.473809,0.729338 3.070954,3.148666 0.863547,1.308086 1.065469,1.865939 0.872896,2.411538 -0.295226,0.836435 -3.097737,3.117373 -3.833079,3.11971 -0.280937,9.01e-4 -1.264767,-1.106962 -2.193938,-2.470513 z"
       style="fill:#fa7c74" />
    <path
       inkscape:connector-curvature="0"
       id="path4045"
       d="m 19.918096,45.930366 c -0.104527,-0.268107 -0.02123,-0.797935 0.185086,-1.177395 0.59711,-1.098192 0.447101,-1.420679 -0.660849,-1.420679 -0.803788,0 -1.159763,-0.235619 -1.588286,-1.051278 -1.235771,-2.352188 -1.149229,-2.436814 11.157787,-10.91073 0.766277,-0.527613 5.593569,-3.914529 10.727318,-7.526479 5.133751,-3.611952 9.60079,-6.560872 9.926753,-6.553156 0.652212,0.01543 4.602959,5.319627 4.585994,6.157052 -0.0056,0.282842 -2.160481,2.026398 -4.788332,3.874572 -2.627849,1.848173 -6.552135,4.625159 -8.720633,6.171079 -14.794118,10.546719 -18.362386,12.911542 -19.491865,12.917973 -0.671702,0.0038 -1.221284,-0.194473 -1.332973,-0.480959 z"
       style="fill:#f9c20d" />
    <path
       inkscape:connector-curvature="0"
       id="path4043"
       d="m 23.549622,44.567086 c -0.393133,-0.10428 -0.502827,-0.318432 -0.351471,-0.686159 0.761678,-1.85054 0.375731,-2.778371 -1.00755,-2.422196 -0.772697,0.198957 -1.36039,-0.618592 -1.36039,-1.892463 0,-0.78246 1.674995,-2.104072 9.930389,-7.835313 1.583146,-1.099084 3.693535,-2.624897 4.689755,-3.390694 0.996217,-0.765798 2.181333,-1.609395 2.633582,-1.874665 0.452251,-0.265269 1.640037,-1.061076 2.639526,-1.768461 0.999489,-0.707384 2.043932,-1.430845 2.320985,-1.607692 0.27705,-0.176846 0.903526,-0.647096 1.392164,-1.044999 1.377284,-1.121544 2.463158,-0.826566 1.310463,0.355988 -0.686006,0.703777 -0.603092,0.783222 0.784731,0.751907 0.690175,-0.01557 1.430629,0.166065 1.645453,0.403642 0.318162,0.351852 0.289766,0.395587 -0.153111,0.235836 -0.35524,-0.128139 -0.659024,0.02494 -0.876397,0.44163 -0.40706,0.780297 -0.155258,1.267533 0.655051,1.267533 0.334587,0 0.608337,0.180866 0.608331,0.401924 -1.3e-5,0.557308 -2.003347,2.14458 -2.879944,2.281824 -0.453992,0.07108 -0.721897,0.334519 -0.722853,0.710807 -9.4e-4,0.332626 -0.408342,0.817794 -0.918514,1.093581 -1.033046,0.558447 -1.662001,1.026394 -3.284955,2.444048 -1.366453,1.193598 -7.685027,6.089366 -9.327587,7.227216 -0.373633,0.258828 -2.082799,1.519612 -3.798149,2.801747 -1.71535,1.282134 -3.172638,2.314368 -3.238416,2.293854 -0.06578,-0.02051 -0.376769,-0.105519 -0.691093,-0.188895 z M 49.194691,24.857904 c 0.106534,-0.176846 0.39694,-0.321538 0.645338,-0.321538 0.248398,0 0.451632,0.144692 0.451632,0.321538 0,0.176846 -0.290403,0.321539 -0.645339,0.321539 -0.354935,0 -0.558169,-0.144693 -0.451631,-0.321539 z m -0.282077,-3.408306 c -0.111544,-0.298207 -0.132288,-0.614542 -0.04609,-0.702965 0.08619,-0.08842 0.247974,0.08322 0.359517,0.381427 0.111544,0.298208 0.132288,0.614542 0.04609,0.702965 -0.08619,0.08842 -0.247974,-0.08322 -0.359517,-0.381427 z"
       style="fill:#fbb403" />
  </g>
</svg>
