<?xml version="1.0" encoding="UTF-8" standalone="no"?>
<!-- Created with Inkscape (http://www.inkscape.org/) -->

<svg
   xmlns:dc="http://purl.org/dc/elements/1.1/"
   xmlns:cc="http://creativecommons.org/ns#"
   xmlns:rdf="http://www.w3.org/1999/02/22-rdf-syntax-ns#"
   xmlns:svg="http://www.w3.org/2000/svg"
   xmlns="http://www.w3.org/2000/svg"
   xmlns:sodipodi="http://sodipodi.sourceforge.net/DTD/sodipodi-0.dtd"
   xmlns:inkscape="http://www.inkscape.org/namespaces/inkscape"
   width="100"
   height="100"
   id="svg4009"
   version="1.1"
   inkscape:version="0.48.4 r9939"
   sodipodi:docname="find.svg">
  <defs
     id="defs4011" />
  <sodipodi:namedview
     id="base"
     pagecolor="#ffffff"
     bordercolor="#666666"
     borderopacity="1.0"
     inkscape:pageopacity="0.0"
     inkscape:pageshadow="2"
     inkscape:zoom="3.959798"
     inkscape:cx="111.00296"
     inkscape:cy="59.074452"
     inkscape:document-units="px"
     inkscape:current-layer="layer1"
     showgrid="false"
     inkscape:window-width="1280"
     inkscape:window-height="924"
     inkscape:window-x="0"
     inkscape:window-y="28"
     inkscape:window-maximized="1"
     fit-margin-top="0"
     fit-margin-left="0"
     fit-margin-right="0"
     fit-margin-bottom="0" />
  <metadata
     id="metadata4014">
    <rdf:RDF>
      <cc:Work
         rdf:about="">
        <dc:format>image/svg+xml</dc:format>
        <dc:type
           rdf:resource="http://purl.org/dc/dcmitype/StillImage" />
        <dc:title />
      </cc:Work>
    </rdf:RDF>
  </metadata>
  <g
     inkscape:label="Layer 1"
     inkscape:groupmode="layer"
     id="layer1"
     transform="translate(-327.14286,-582.36218)">
    <path
       style="fill:#888888;fill-opacity:1;stroke:none"
       d="M 0 0 L 0 100 L 100 100 L 100 0 L 0 0 z M 68.4375 8.53125 C 75.9166 8.5876038 83.337071 11.675944 88.71875 17.6875 C 98.84897 29.00336 97.87837 46.40103 86.5625 56.53125 C 75.723716 66.23438 59.327441 65.751972 49.0625 55.75 L 45.4375 59 L 47.5 61.3125 L 12.3125 92.8125 L 5.15625 84.8125 L 40.34375 53.3125 L 42.90625 56.1875 L 46.5625 52.90625 C 37.738351 41.600832 39.031045 25.27026 49.875 15.5625 C 55.179314 10.813959 61.838294 8.481526 68.4375 8.53125 z M 68.65625 13.3125 C 63.256901 13.271815 57.808639 15.177331 53.46875 19.0625 C 44.21031 27.35087 43.43039 41.55407 51.71875 50.8125 C 60.00711 60.07094 74.24156 60.85086 83.5 52.5625 C 92.75844 44.27413 93.53837 30.07093 85.25 20.8125 C 80.846809 15.893954 74.775512 13.358609 68.65625 13.3125 z M 65.75 23.9375 L 72 23.9375 L 72 33.25 L 81.40625 33.25 L 81.40625 39.65625 L 72 39.65625 L 72 48.9375 L 65.75 48.9375 L 65.75 39.65625 L 56.40625 39.65625 L 56.40625 33.25 L 65.75 33.25 L 65.75 23.9375 z "
       transform="translate(327.14286,582.36218)"
       id="rect2985" />
  </g>
</svg>
