<?xml version="1.0" encoding="UTF-8" standalone="no"?>
<!-- Created with Inkscape (http://www.inkscape.org/) -->

<svg
   xmlns:dc="http://purl.org/dc/elements/1.1/"
   xmlns:cc="http://creativecommons.org/ns#"
   xmlns:rdf="http://www.w3.org/1999/02/22-rdf-syntax-ns#"
   xmlns:svg="http://www.w3.org/2000/svg"
   xmlns="http://www.w3.org/2000/svg"
   xmlns:sodipodi="http://sodipodi.sourceforge.net/DTD/sodipodi-0.dtd"
   xmlns:inkscape="http://www.inkscape.org/namespaces/inkscape"
   width="64px"
   height="64px"
   id="svg5308"
   version="1.1"
   inkscape:version="0.48.2 r9819"
   sodipodi:docname="New document 9">
  <defs
     id="defs5310" />
  <sodipodi:namedview
     id="base"
     pagecolor="#ffffff"
     bordercolor="#666666"
     borderopacity="1.0"
     inkscape:pageopacity="0.0"
     inkscape:pageshadow="2"
     inkscape:zoom="5.5"
     inkscape:cx="-3.0948051"
     inkscape:cy="28.948885"
     inkscape:current-layer="layer1"
     showgrid="true"
     inkscape:document-units="px"
     inkscape:grid-bbox="true"
     inkscape:window-width="1280"
     inkscape:window-height="961"
     inkscape:window-x="-8"
     inkscape:window-y="-8"
     inkscape:window-maximized="1" />
  <metadata
     id="metadata5313">
    <rdf:RDF>
      <cc:Work
         rdf:about="">
        <dc:format>image/svg+xml</dc:format>
        <dc:type
           rdf:resource="http://purl.org/dc/dcmitype/StillImage" />
        <dc:title></dc:title>
      </cc:Work>
    </rdf:RDF>
  </metadata>
  <g
     id="layer1"
     inkscape:label="Layer 1"
     inkscape:groupmode="layer">
    <g
       transform="matrix(0.93698768,0,0,1.0672499,0.54545455,1.0909091)"
       style="font-size:58.61007690000000300px;font-style:normal;font-variant:normal;font-weight:normal;font-stretch:normal;text-align:start;line-height:125%;letter-spacing:0px;word-spacing:0px;writing-mode:lr-tb;text-anchor:start;fill:#7b68ee;fill-opacity:1;stroke:none;font-family:Times New Roman;-inkscape-font-specification:'Times New Roman,'"
       id="text5316">
      <path
         d="m 16.973729,12.375549 c 0,5.0845 0,10.169001 0,15.253501 3.672652,-0.605881 9.182251,1.652893 11.329674,-2.293854 0.353179,-2.662482 2.326054,-3.933713 1.86275,-0.381221 -0.388915,2.846388 0.797975,9.509323 -0.624109,9.862799 -1.219928,-6.476048 -7.758684,-4.717212 -12.568332,-4.812418 0.592914,5.618553 -1.238951,12.123801 1.047721,17.214201 1.837303,0.03117 7.091565,1.932217 2.266937,1.848939 C 15.961455,48.630365 8.845519,49.91788 6.2550945,48.430955 13.682506,48.286309 11.07155,40.073612 11.465675,35.133462 11.289939,27.709169 11.911821,20.201285 11.087486,12.831719 9.9301877,11.452581 2.9846088,10.728682 8.2543359,10.287094 c 8.8490081,-0.07439 17.6989641,-0.0049 26.5485131,-0.02929 0.124012,2.842741 0.248025,5.685483 0.372037,8.528224 -2.491232,-3.395127 -4.783262,-7.617615 -9.956997,-6.409817 -2.747821,-0.07723 -5.496294,0.07068 -8.24416,-6.57e-4 z"
         id="path5829"
         inkscape:connector-curvature="0"
         style="fill:#7b68ee" />
      <path
         d="m 49.684332,24.910321 c 0.14304,7.094687 -0.313615,14.244711 0.287158,21.303839 0.91518,1.989947 8.85265,2.290113 3.286209,2.893365 -4.401163,-0.100461 -8.811861,-0.01538 -13.217705,-0.04344 2.122175,-1.789542 6.213304,-2.268757 4.872867,-6.37424 -0.507435,-5.727082 1.241316,-13.063057 -0.798797,-17.901106 -2.283406,1.521355 -6.664102,-1.550909 -2.476357,-1.97454 5.72421,1.474537 2.113624,-5.747776 4.555023,-8.352073 2.614356,-6.4122416 12.822623,-8.4101768 16.822474,-2.369216 0.503302,4.569817 -5.050529,3.961693 -5.933936,0.284491 -3.074766,-4.2532561 -8.329753,-0.382576 -7.373841,4.068847 -0.0085,3.299582 -1.109572,7.901692 3.839008,6.458243 3.5062,-1.551259 3.829936,3.273716 0.102148,1.965994 -1.320261,0.06987 -2.642861,0.02893 -3.964251,0.03984 z"
         id="path5831"
         inkscape:connector-curvature="0"
         style="fill:#7b68ee" />
    </g>
  </g>
</svg>
