<?xml version="1.0" encoding="UTF-8" standalone="no"?>
<!-- Created with Inkscape (http://www.inkscape.org/) -->
<svg xmlns:dc="http://purl.org/dc/elements/1.1/" xmlns:cc="http://creativecommons.org/ns#" xmlns:rdf="http://www.w3.org/1999/02/22-rdf-syntax-ns#" xmlns:svg="http://www.w3.org/2000/svg" xmlns="http://www.w3.org/2000/svg" xmlns:xlink="http://www.w3.org/1999/xlink" xmlns:sodipodi="http://sodipodi.sourceforge.net/DTD/sodipodi-0.dtd" xmlns:inkscape="http://www.inkscape.org/namespaces/inkscape" width="210mm" height="297mm" id="svg2" version="1.1" inkscape:version="0.48.0 r9654">
  <title id="title3901">function</title>
  <defs id="defs4">
    <linearGradient inkscape:collect="always" id="linearGradient3825">
      <stop style="stop-color:#2e3436;stop-opacity:1;" offset="0" id="stop3827"/>
      <stop style="stop-color:#2e3436;stop-opacity:0;" offset="1" id="stop3829"/>
    </linearGradient>
    <linearGradient inkscape:collect="always" id="linearGradient3805">
      <stop style="stop-color:#eeeeec;stop-opacity:1;" offset="0" id="stop3807"/>
      <stop style="stop-color:#eeeeec;stop-opacity:0;" offset="1" id="stop3809"/>
    </linearGradient>
    <linearGradient inkscape:collect="always" id="linearGradient3785">
      <stop style="stop-color:#eeeeec;stop-opacity:1;" offset="0" id="stop3787"/>
      <stop style="stop-color:#eeeeec;stop-opacity:0;" offset="1" id="stop3789"/>
    </linearGradient>
    <radialGradient inkscape:collect="always" xlink:href="#linearGradient3785" id="radialGradient3819" gradientUnits="userSpaceOnUse" gradientTransform="matrix(1,0,0,1.0348093,0,-14.009585)" cx="102.85496" cy="402.46664" fx="102.85496" fy="402.46664" r="169.61966"/>
    <radialGradient inkscape:collect="always" xlink:href="#linearGradient3805" id="radialGradient3821" gradientUnits="userSpaceOnUse" gradientTransform="matrix(1,0,0,0.97883734,0,5.3928404)" cx="-324.07847" cy="254.82812" fx="-324.07847" fy="254.82812" r="280.323"/>
    <radialGradient inkscape:collect="always" xlink:href="#linearGradient3825" id="radialGradient3834" gradientUnits="userSpaceOnUse" gradientTransform="matrix(1,0,0,0.44592791,145.71429,323.80013)" cx="98.571426" cy="912.36218" fx="98.571426" fy="912.36218" r="214"/>
    <radialGradient inkscape:collect="always" xlink:href="#linearGradient3825" id="radialGradient3838" gradientUnits="userSpaceOnUse" gradientTransform="matrix(0.81250005,0,0,0.36231645,501.33929,458.94122)" cx="98.571426" cy="912.36218" fx="98.571426" fy="912.36218" r="214"/>
    <radialGradient inkscape:collect="always" xlink:href="#linearGradient3825" id="radialGradient34330" gradientUnits="userSpaceOnUse" gradientTransform="matrix(0.81250005,0,0,0.36231645,501.33929,458.94122)" cx="98.571426" cy="912.36218" fx="98.571426" fy="912.36218" r="214"/>
    <radialGradient inkscape:collect="always" xlink:href="#linearGradient3825" id="radialGradient34332" gradientUnits="userSpaceOnUse" gradientTransform="matrix(1,0,0,0.44592791,145.71429,323.80013)" cx="98.571426" cy="912.36218" fx="98.571426" fy="912.36218" r="214"/>
    <radialGradient inkscape:collect="always" xlink:href="#linearGradient3785" id="radialGradient34334" gradientUnits="userSpaceOnUse" gradientTransform="matrix(1,0,0,1.0348093,0,-14.009585)" cx="102.85496" cy="402.46664" fx="102.85496" fy="402.46664" r="169.61966"/>
    <radialGradient inkscape:collect="always" xlink:href="#linearGradient3805" id="radialGradient34336" gradientUnits="userSpaceOnUse" gradientTransform="matrix(1,0,0,0.97883734,0,5.3928404)" cx="-324.07847" cy="254.82812" fx="-324.07847" fy="254.82812" r="280.323"/>
    <radialGradient inkscape:collect="always" xlink:href="#linearGradient3825" id="radialGradient34344" gradientUnits="userSpaceOnUse" gradientTransform="matrix(0.95398391,0,0,0.42540805,142.30023,333.66942)" cx="98.571426" cy="912.36218" fx="98.571426" fy="912.36218" r="214"/>
    <radialGradient inkscape:collect="always" xlink:href="#linearGradient3825" id="radialGradient34347" gradientUnits="userSpaceOnUse" gradientTransform="matrix(0.77511198,0,0,0.34564406,481.56076,462.59184)" cx="98.571426" cy="912.36218" fx="98.571426" fy="912.36218" r="214"/>
    <radialGradient inkscape:collect="always" xlink:href="#linearGradient3785" id="radialGradient34349" gradientUnits="userSpaceOnUse" gradientTransform="matrix(1,0,0,1.0348093,0,-14.009585)" cx="102.85496" cy="402.46664" fx="102.85496" fy="402.46664" r="169.61966"/>
    <radialGradient inkscape:collect="always" xlink:href="#linearGradient3805" id="radialGradient34351" gradientUnits="userSpaceOnUse" gradientTransform="matrix(1,0,0,0.97883734,0,5.3928404)" cx="-324.07847" cy="254.82812" fx="-324.07847" fy="254.82812" r="280.323"/>
    <radialGradient inkscape:collect="always" xlink:href="#linearGradient3805" id="radialGradient34354" gradientUnits="userSpaceOnUse" gradientTransform="matrix(0.76007974,0,0,0.74399443,483.83657,375.38726)" cx="-324.07847" cy="254.82812" fx="-324.07847" fy="254.82812" r="280.323"/>
    <radialGradient inkscape:collect="always" xlink:href="#linearGradient3785" id="radialGradient34357" gradientUnits="userSpaceOnUse" gradientTransform="matrix(0.76007974,0,0,0.78653759,483.83657,360.63987)" cx="102.85496" cy="402.46664" fx="102.85496" fy="402.46664" r="169.61966"/>
  </defs>
  <sodipodi:namedview id="base" pagecolor="#ffffff" bordercolor="#666666" borderopacity="1.0" inkscape:pageopacity="0.0" inkscape:pageshadow="2" inkscape:zoom="0.49497475" inkscape:cx="397.74286" inkscape:cy="377.73758" inkscape:document-units="px" inkscape:current-layer="layer1" showgrid="false" showguides="true" inkscape:guide-bbox="true" inkscape:snap-global="false" inkscape:window-width="1245" inkscape:window-height="689" inkscape:window-x="0" inkscape:window-y="0" inkscape:window-maximized="0">
    <sodipodi:guide orientation="1,0" position="-324.28571,681.42857" id="guide3767"/>
    <sodipodi:guide orientation="0,1" position="-685.71429,797.14286" id="guide3769"/>
  </sodipodi:namedview>
  <metadata id="metadata7">
    <rdf:RDF>
      <cc:Work rdf:about="">
        <dc:format>image/svg+xml</dc:format>
        <dc:type rdf:resource="http://purl.org/dc/dcmitype/StillImage"/>
        <dc:title>function</dc:title>
        <dc:date>Sept 2011</dc:date>
        <dc:creator>
          <cc:Agent>
            <dc:title>Franziska Sponsel</dc:title>
          </cc:Agent>
        </dc:creator>
        <dc:rights>
          <cc:Agent>
            <dc:title>Franziska Sponsel</dc:title>
          </cc:Agent>
        </dc:rights>
        <dc:publisher>
          <cc:Agent>
            <dc:title>RRZE</dc:title>
          </cc:Agent>
        </dc:publisher>
        <dc:subject>
          <rdf:Bag>
            <rdf:li>function</rdf:li>
            <rdf:li>gearwheels</rdf:li>
            <rdf:li>run</rdf:li>
          </rdf:Bag>
        </dc:subject>
        <dc:contributor>
          <cc:Agent>
            <dc:title>Martin Fischer, Hendrik Eggers</dc:title>
          </cc:Agent>
        </dc:contributor>
        <cc:license rdf:resource="http://creativecommons.org/licenses/by-sa/3.0/"/>
      </cc:Work>
      <cc:License rdf:about="http://creativecommons.org/licenses/by-sa/3.0/">
        <cc:permits rdf:resource="http://creativecommons.org/ns#Reproduction"/>
        <cc:permits rdf:resource="http://creativecommons.org/ns#Distribution"/>
        <cc:requires rdf:resource="http://creativecommons.org/ns#Notice"/>
        <cc:requires rdf:resource="http://creativecommons.org/ns#Attribution"/>
        <cc:permits rdf:resource="http://creativecommons.org/ns#DerivativeWorks"/>
        <cc:requires rdf:resource="http://creativecommons.org/ns#ShareAlike"/>
      </cc:License>
    </rdf:RDF>
  </metadata>
  <g inkscape:label="Ebene 1" inkscape:groupmode="layer" id="layer1">
    <g id="g34869">
      <path style="fill:url(#radialGradient34347);fill-opacity:1;stroke:none" d="m 720.73817,777.94441 c 0,39.13898 -72.87619,70.86742 -162.77352,70.86742 -89.89733,0 -162.77351,-31.72844 -162.77351,-70.86742 0,-39.13897 72.87618,-70.86737 162.77351,-70.86737 89.89733,0 162.77352,31.7284 162.77352,70.86737 z" id="path3836" inkscape:connector-curvature="0"/>
      <path inkscape:connector-curvature="0" id="path3823" d="m 436.67241,721.79564 c 0,48.17104 -89.69376,87.22143 -200.33663,87.22143 -110.64286,0 -200.336618,-39.05039 -200.336618,-87.22143 0,-48.17104 89.693758,-87.22139 200.336618,-87.22139 110.64287,0 200.33663,39.05035 200.33663,87.22139 z" style="fill:url(#radialGradient34344);fill-opacity:1;stroke:none"/>
      <path id="path2996" d="m 196.55018,351.52619 c -22.81842,1.94337 -36.13125,8.15497 -55.17705,18.71697 -1.73913,0.96445 15.54609,58.97178 13.84771,59.99879 -9.42829,5.7013 -16.04638,7.46836 -24.06128,14.94032 -1.86319,1.73698 -45.565424,-23.62969 -48.45508,-22.77864 -21.063269,6.20344 -26.225541,23.85082 -33.918558,41.02055 -0.689636,1.53917 42.089735,41.09483 41.448098,42.65947 -4.445691,10.84088 -6.658466,15.76199 -8.622154,27.64791 -1.403115,8.49279 -60.212568,0.94314 -60.212568,9.83353 0,12.19263 -2.979497,38.16623 -0.38004,49.57145 0.27464,1.20499 61.929679,11.1094 62.231529,12.3038 1.946352,7.70151 4.433865,15.1671 7.458283,22.37484 0.777387,1.85266 -41.337142,42.13835 -40.497999,44.3459 8.229277,21.64899 15.62068,30.4949 29.690615,44.03712 1.811011,1.74308 50.909914,-31.84579 52.801794,-30.18941 5.5953,4.8988 11.51982,9.40663 17.76686,13.49141 1.95931,1.28113 -6.61487,67.11403 -4.44172,68.47844 19.78862,12.4242 25.89385,8.53381 50.4978,10.54611 1.49287,0.1221 28.08887,-59.77622 31.87585,-59.35748 7.19928,0.79603 21.47216,0.64131 24.37005,0.64131 4.72061,0 25.45465,56.88651 30.07065,56.48342 26.11309,-2.28026 23.81492,0.52301 44.77346,-12.85009 1.3458,-0.85871 -4.50065,-60.88251 -3.18284,-61.78023 6.31742,-4.30355 14.61711,-12.88243 20.23713,-18.02814 2.84427,-2.60423 49.0133,28.8829 51.66166,26.08023 12.33181,-13.05023 21.39202,-22.21855 28.76428,-38.85907 0.92749,-2.09354 -40.52898,-44.39122 -39.69042,-46.53114 2.82608,-7.21194 8.13561,-14.57104 6.88822,-22.35109 l 61.02015,-10.09481 c 0,-9.40033 2.99021,-41.40309 1.42515,-50.35529 -0.45137,-2.58183 -57.16793,-7.8662 -57.74231,-10.40358 -1.05186,-4.64687 -3.84766,-13.83066 -5.2968,-18.31317 -0.78961,-2.44249 39.26331,-46.94477 38.36027,-49.33394 -8.80358,-23.29142 -12.0706,-29.29671 -30.02315,-45.88981 -2.17624,-2.01145 -55.38474,28.0639 -57.67105,26.17525 -3.25297,-2.68716 -10.45609,-5.24642 -13.91895,-7.67205 -2.20416,-1.54396 6.39334,-63.83889 4.10918,-65.27185 -18.50631,-11.60992 -29.23884,-14.6351 -51.82795,-17.79062 -3.38334,-0.47263 -31.23054,54.00801 -34.67863,53.75189 -3.94255,-0.29285 -10.66522,1.59239 -16.84051,0.095 -5.19454,-1.25957 -28.15456,-55.727 -32.65968,-55.34331 z m 40.80677,144.46265 c 38.37993,0 69.49979,31.11988 69.49979,69.4998 0,38.37992 -31.11986,69.49979 -69.49979,69.49979 -38.37991,0 -69.49978,-31.11987 -69.49978,-69.49979 0,-38.37992 31.11987,-69.4998 69.49978,-69.4998 z" style="fill:#73d216;fill-opacity:1;stroke:#334343;stroke-width:17;stroke-linecap:round;stroke-linejoin:round;stroke-miterlimit:4;stroke-opacity:1;stroke-dasharray:none;stroke-dashoffset:0" inkscape:connector-curvature="0"/>
      <path inkscape:connector-curvature="0" style="fill:#3465a4;fill-opacity:1;stroke:#334343;stroke-width:14;stroke-linecap:round;stroke-linejoin:round;stroke-miterlimit:4;stroke-opacity:1;stroke-dasharray:none;stroke-dashoffset:0" d="m 441.07969,611.38162 c -8.2829,11.84483 -10.65435,20.80817 -13.23501,34.30878 -0.23564,1.23281 34.86606,16.30592 34.67721,17.54424 -1.04838,6.87437 -2.86744,10.79628 -2.48626,17.70143 0.0886,1.60524 -29.87304,12.53099 -30.62878,14.27554 -5.50866,12.71638 0.95736,22.35261 6.1688,33.0223 0.46717,0.95648 36.93258,-3.78584 37.43151,-2.84232 3.45688,6.53727 4.94739,9.59916 9.91415,15.35598 3.54888,4.11342 -23.88497,29.5639 -19.57615,33.15802 5.90928,4.92909 17.29312,16.87346 23.87166,20.22438 0.69503,0.35405 30.42051,-25.52364 31.12142,-25.18709 4.51946,2.17017 9.14336,3.98269 13.85934,5.43074 1.21219,0.37221 3.71144,37.06968 5.1206,37.55543 13.81923,4.7636 21.0946,4.75743 33.34601,3.41299 1.57694,-0.17304 5.14691,-37.54826 6.71453,-37.79555 4.63627,-0.73139 9.21612,-1.78037 13.72135,-3.15673 1.413,-0.43164 29.85327,30.33808 31.39308,29.83643 14.02144,-4.56804 14.60407,-9.09975 25.52597,-20.21078 0.66273,-0.67416 -17.61567,-37.77921 -15.88176,-39.44534 3.29626,-3.16739 8.99134,-10.14743 10.16287,-11.55192 1.9084,-2.28788 37.86113,10.66061 39.53188,8.26047 9.45156,-13.57781 9.88109,-11.33071 11.87259,-26.89479 0.12788,-0.99941 -31.32677,-22.43164 -31.2291,-23.43324 0.46815,-4.80158 -0.33439,-12.29228 -0.55631,-17.09633 -0.11229,-2.43132 33.81296,-12.07833 33.52527,-14.49491 -1.33957,-11.25254 -2.12031,-19.35012 -7.20493,-29.65041 -0.63971,-1.29586 -37.89925,1.69678 -38.59738,0.42527 -2.35284,-4.28526 -3.77301,-9.83364 -8.04798,-12.37432 l 19.77601,-33.65501 c -4.55597,-3.80027 -18.85758,-18.18723 -23.82904,-21.0478 -1.4338,-0.825 -26.92366,24.52693 -28.38562,23.77951 -2.6774,-1.36877 -8.25866,-3.72649 -11.017,-4.83627 -1.50298,-0.60474 -6.87931,-38.00767 -8.40231,-38.53586 -14.84743,-5.14926 -19.07871,-5.99363 -34.37837,-4.00083 -1.85465,0.24154 -8.78888,38.18813 -10.62851,38.53269 -2.61745,0.49022 -6.76981,2.94669 -9.34534,3.64438 -1.63937,0.44411 -28.35553,-28.90669 -29.97343,-28.37894 -13.10839,4.27573 -18.91339,8.25438 -29.57482,17.92675 -1.59685,1.4487 13.54997,36.96994 12.03187,38.53754 -1.73578,1.79239 -3.53984,5.81276 -6.76205,8.20034 -2.71045,2.00838 -38.39065,-8.88333 -40.02597,-6.54477 z m 86.51215,38.62438 c 15.51581,-18.60122 43.17916,-21.10297 61.78036,-5.58715 18.60122,15.5158 21.10296,43.17915 5.58715,61.78036 -15.51581,18.60121 -43.17915,21.10295 -61.78035,5.58716 -18.60121,-15.51582 -21.10296,-43.17917 -5.58716,-61.78037 z" id="path3775"/>
      <path sodipodi:nodetypes="cccccccccccccccccccccccccccccccccccccccccccccccccccccc" inkscape:connector-curvature="0" id="path3777" d="m 571.55332,546.47387 c -2.79046,0.55723 -9.18425,-0.43359 -11.35695,1.25888 -3.71675,12.17381 -4.90239,23.97798 -9.83353,35.87844 -5.28082,1.07499 -13.45826,8.35498 -18.81523,5.19348 -10.43075,-7.62105 -17.84349,-18.7897 -27.95669,-26.67405 -8.686,3.08652 -11.74246,5.4924 -18.30665,12.15802 3.4341,12.442 8.2235,24.09464 10.48316,36.88762 -3.21751,5.44787 -9.10539,15.94781 -16.78855,14.72594 -11.62093,-0.81113 -22.03719,-5.2467 -33.5308,-6.24305 -5.52968,8.29914 -7.56691,12.64054 -8.9155,22.39209 10.91696,5.79835 22.78277,9.5859 33.27724,16.24285 -0.29912,9.25965 -3.30313,19.99399 -2.73925,27.32573 -5.00156,4.00673 -10.93598,6.16216 -15.54957,9.02595 -5.80791,2.68825 -9.26169,3.44706 -15.70485,5.17092 -0.38981,9.2867 0.91745,15.33283 4.86154,20.43221 12.14706,-0.70937 24.95664,-2.669 37.15661,-2.49014 4.61399,5.44347 7.91868,15.11852 12.88157,20.26412 3.04305,7.12765 -2.75682,12.71156 -6.42535,18.00053 -3.95752,4.86344 -9.46421,9.65723 -12.31537,15.1541 6.25347,5.62262 11.15424,9.59527 15.1155,13.57931 10.25574,-7.99567 19.186,-17.12661 29.92429,-24.48882 6.28035,1.99791 15.7229,5.91925 21.93453,8.13493 3.84207,12.08822 2.78235,25.24531 5.3443,37.2163 8.36856,2.22373 13.91206,1.87844 19.45895,2.32774 2.52285,-12.05228 4.05962,-24.20451 7.75876,-35.98117 5.63053,-2.71168 15.54141,-4.58513 21.50698,-5.73592 5.92602,1.05285 10.09855,9.23835 14.657,12.48532 6.22602,6.20782 9.92662,10.90374 16.5223,16.63523 8.30935,-2.84592 10.48067,-4.55566 15.9032,-11.0859 -5.01156,-12.60213 -13.94589,-26.06533 -16.85596,-39.32581 1.45469,-5.87866 11.03038,-11.03981 13.73992,-16.22235 4.06909,-4.71138 12.10783,-3.18802 17.11829,-1.77107 8.75586,2.20309 15.31813,5.32343 24.23094,6.75138 4.55634,-5.94412 7.50643,-8.02136 6.98383,-15.79276 -6.98753,-5.03209 -12.90426,-9.74941 -20.01177,-14.77018 -3.16249,-2.73753 -9.18994,-6.6063 -11.08409,-10.134 0.80059,-7.12786 -0.92892,-18.83651 1.76926,-25.47751 7.94492,-6.20804 15.73706,-5.40733 24.71052,-9.61885 2.23114,-0.65024 7.57683,-3.98807 7.57683,-3.98807 -0.98638,-6.84379 0.26799,-11.20025 -3.61484,-16.9008 -12.285,-0.107 -26.80095,1.62063 -39.07764,0.44372 -4.97712,-4.2931 -7.03822,-14.40669 -13.18109,-20.33492 6.82553,-11.5853 11.75492,-20.07175 18.50764,-31.70247 -6.04823,-5.45627 -6.6731,-7.60941 -13.15622,-12.59774 -9.32534,7.45784 -17.19169,16.6839 -27.22036,23.15868 -5.49977,-2.37786 -14.93248,-4.71852 -18.9815,-9.27505 -3.86623,-11.87248 -5.67674,-25.69595 -8.82375,-37.70678 -6.22624,-2.15539 -4.50674,-2.70253 -11.17765,-2.52608 z m -9.92734,79.71517 c 26.03808,-0.47668 52.81552,24.57443 51.60139,53.72307 -0.25495,24.54202 -24.48359,49.14763 -49.2215,49.72413 -23.9154,1.3 -51.03134,-19.33692 -54.10004,-43.2872 -3.49365,-21.95834 10.36919,-48.47866 31.50352,-55.84923 5.53924,-2.05722 14.23642,-4.33375 20.21663,-4.31077 z" style="opacity:0.6;fill:url(#radialGradient34357);fill-opacity:1;stroke:#eeeeec;stroke-width:5.32055807;stroke-linecap:round;stroke-linejoin:miter;stroke-miterlimit:4;stroke-opacity:1;stroke-dasharray:none;stroke-dashoffset:0"/>
      <path sodipodi:nodetypes="cccccccccccccccccccccccccccccccccccccccccccccccccccccccccccc" inkscape:connector-curvature="0" id="path3793" d="m 192.67852,359.53079 c -15.24745,1.57105 -28.9582,8.13172 -42.27172,15.63685 3.61695,19.29621 12.22115,36.88111 13.329,56.51935 -4.60663,9.06632 -17.62473,9.6985 -24.27283,16.61726 -4.00045,3.60559 -9.29413,7.47985 -14.18631,4.23297 -14.48092,-5.43918 -27.205747,-15.53135 -41.709375,-20.73978 -4.044255,0.10839 -7.248022,2.86795 -10.284829,5.24158 -7.121515,6.99631 -11.823664,16.36568 -14.77405,25.53007 13.255273,13.35528 27.90252,26.31983 40.21683,40.59687 0.549537,10.56084 -7.640466,18.64326 -7.743312,29.1167 -1.026313,6.60842 -7.845665,12.02434 -14.582586,12.25384 -15.670846,3.04999 -31.416073,0.25137 -46.84522,3.59293 0.392239,13.01601 -2.669644,25.78163 -1.286488,38.87897 19.859006,4.23996 41.256923,6.68322 60.936718,11.63872 5.225008,8.54381 6.428701,19.61423 10.379838,28.62947 0.598344,8.00366 -9.134456,11.61088 -13.316832,17.2841 -9.055354,9.65089 -17.803135,19.05907 -26.35369,29.10066 4.964187,12.81699 12.008979,23.7714 22.05835,33.15076 17.141288,-8.88872 31.703646,-22.98804 49.995136,-29.48456 8.15156,0.38602 11.80805,10.27004 18.93074,13.00419 4.75367,2.80919 9.41129,6.19865 7.99256,11.97545 -0.27468,19.9563 -4.36181,41.17491 -4.63575,61.13085 11.54039,6.93421 24.29514,6.62439 37.32349,6.67446 10.54863,-18.92363 17.7414,-40.98466 31.4284,-57.9638 7.36905,-4.02143 12.64367,-0.18999 23.89887,-0.53859 9.45374,-0.67004 14.60345,2.34866 17.01836,8.72103 9.3594,15.1533 12.7608,32.95632 22.2445,47.83752 4.11604,0.65662 9.16821,-1.13161 13.376,-0.96409 7.85514,-0.49991 13.9623,-3.59343 20.1073,-8.10937 -1.39954,-19.91465 -3.31822,-40.07471 -3.25023,-60.16506 7.99563,-7.26794 15.95653,-15.35738 23.96626,-22.40632 8.33892,-3.69797 16.56249,4.1409 23.6376,7.51351 9.97394,5.76023 19.21933,11.42304 29.663,16.31025 8.52177,-8.97225 16.42485,-17.54913 21.9672,-28.73281 -12.08348,-15.66958 -27.8887,-27.49014 -37.85762,-44.62321 -1.05294,-9.41791 6.97801,-16.76112 6.36953,-26.99055 0.14604,-2.32894 4.96045,-6.6962 8.48316,-6.52554 17.75778,-2.92626 34.74775,-5.08473 52.50552,-8.01099 0.45218,-12.74797 1.69232,-24.70143 1.13627,-37.47371 -18.01875,-3.89527 -36.60779,-3.41719 -54.03307,-9.66727 -5.96081,-5.2279 -4.88763,-16.14232 -8.62601,-22.51289 -2.01771,-6.45722 2.71307,-11.56054 6.79707,-16.00147 9.73551,-12.82842 21.04077,-23.65535 30.47444,-36.73739 -4.66632,-13.90389 -11.686,-26.25388 -22.86592,-36.02481 -18.46047,7.93732 -35.51198,19.72365 -54.86826,25.48642 -6.65224,-0.90484 -13.24954,-7.10665 -19.42123,-9.25129 -6.0001,-4.08713 -4.13241,-12.09735 -3.22826,-18.40578 1.06281,-16.61227 2.97572,-32.32414 3.5409,-48.97233 -12.56608,-7.7532 -25.45578,-12.77629 -40.05501,-14.3266 -11.67173,16.44663 -19.11166,36.77457 -32.46966,52.07317 -6.11199,3.47207 -15.50954,1.12596 -22.22787,1.79748 -8.22491,-0.88857 -11.23263,-9.19234 -14.44568,-15.9136 -7.37192,-13.13923 -12.86308,-26.81321 -21.54767,-39.30709 z m 42.56446,128.04196 c 39.79255,-1.98346 77.66863,32.61668 79.52721,72.42906 2.87331,36.22537 -22.87526,73.43951 -58.55022,81.16725 -32.57873,8.19229 -70.82632,-7.37799 -86.75535,-37.24503 -15.3434,-26.90719 -12.9845,-64.24673 7.60444,-87.79351 13.97241,-16.84331 36.07518,-28.21921 58.17392,-28.55777 z" style="opacity:0.6;fill:url(#radialGradient34354);fill-opacity:1;stroke:#eeeeec;stroke-width:6.08063793;stroke-linecap:round;stroke-linejoin:miter;stroke-miterlimit:4;stroke-opacity:1;stroke-dasharray:none;stroke-dashoffset:0"/>
      <path id="rect3849" d="m -2.8571429,255.21933 748.5714129,0 0,748.57137 -748.5714129,0 z" style="fill:none;stroke:none" inkscape:connector-curvature="0"/>
    </g>
  </g>
</svg>
