<?xml version="1.0" encoding="UTF-8" standalone="no"?>
<!-- Created with Inkscape (http://www.inkscape.org/) -->

<svg
   xmlns:dc="http://purl.org/dc/elements/1.1/"
   xmlns:cc="http://creativecommons.org/ns#"
   xmlns:rdf="http://www.w3.org/1999/02/22-rdf-syntax-ns#"
   xmlns:svg="http://www.w3.org/2000/svg"
   xmlns="http://www.w3.org/2000/svg"
   xmlns:sodipodi="http://sodipodi.sourceforge.net/DTD/sodipodi-0.dtd"
   xmlns:inkscape="http://www.inkscape.org/namespaces/inkscape"
   width="64px"
   height="64px"
   id="svg3821"
   version="1.1"
   inkscape:version="0.48.1 r9760"
   sodipodi:docname="New document 6">
  <sodipodi:namedview
     id="base"
     pagecolor="#ffffff"
     bordercolor="#666666"
     borderopacity="1.0"
     inkscape:pageopacity="0.0"
     inkscape:pageshadow="2"
     inkscape:zoom="5.5"
     inkscape:cx="53.849757"
     inkscape:cy="46.042011"
     inkscape:current-layer="layer1"
     showgrid="true"
     inkscape:document-units="px"
     inkscape:grid-bbox="true"
     inkscape:window-width="1680"
     inkscape:window-height="975"
     inkscape:window-x="0"
     inkscape:window-y="25"
     inkscape:window-maximized="1" />
  <defs
     id="defs3823" />
  <metadata
     id="metadata3826">
    <rdf:RDF>
      <cc:Work
         rdf:about="">
        <dc:format>image/svg+xml</dc:format>
        <dc:type
           rdf:resource="http://purl.org/dc/dcmitype/StillImage" />
        <dc:title></dc:title>
      </cc:Work>
    </rdf:RDF>
  </metadata>
  <g
     inkscape:groupmode="layer"
     inkscape:label="Layer 1"
     id="layer1">
    <g
       transform="matrix(0.41637845,0,0,0.43496542,18.708391,17.492665)"
       id="g3900">
      <path
         inkscape:connector-curvature="0"
         id="path3914"
         d="m -17.402459,95.373858 c -4.912993,-2.23133 -9.729785,-7.14005 -12.42962,-12.66685 -1.476597,-3.02273 -1.983694,-6.10115 -1.976717,-12.000004 0.0082,-6.903987 0.383412,-8.586345 2.889781,-12.955871 3.10415,-5.41168 21.208045,-23.448245 26.047912,-25.951037 5.258991,-2.71953 12.224986,-3.721384 17.560793,-2.525604 4.793238,1.074187 4.917475,1.039557 8.259153,-2.302121 3.3044,-3.304399 3.362811,-3.50376 2.243975,-7.658801 -1.309196,-4.861981 -0.62385,-10.66885 1.963327,-16.635079 2.229953,-5.142445 19.875745,-23.64472 25.963452,-27.223654 4.095883,-2.40795 5.533291,-2.679604 14.062223,-2.657604 9.00056,0.02322 9.73996,0.189892 14.0644,3.170345 2.51042,1.730212 5.8785,5.094185 7.48461,7.475495 2.56082,3.796811 2.96486,5.399776 3.28306,13.024984 0.49206,11.791824 -1.15241,14.873794 -15.2706,28.619324 -13.73368,13.371161 -16.212584,14.665253 -27.801886,14.513747 -8.705768,-0.113809 -8.751985,-0.101084 -11.659136,3.209978 -2.705641,3.081554 -2.848529,3.63664 -1.957251,7.603431 2.334693,10.390954 -1.502,17.873507 -17.005246,33.164671 -12.77666,12.60187 -14.828355,13.6955 -25.637951,13.66598 -3.677176,-0.01 -7.581177,-0.7345 -10.084279,-1.87133 z M 5.7884,71.103729 c 4.066381,-3.94295 7.39342,-7.488356 7.39342,-7.87868 0,-0.390324 -1.365252,-1.275186 -3.033894,-1.96636 -3.781811,-1.566478 -6.966106,-5.507163 -6.966106,-8.62082 0,-1.300827 -0.371964,-2.365141 -0.826586,-2.365141 -0.454622,0 -4.279622,3.548323 -8.5,7.885163 -7.019732,7.213443 -7.673414,8.232379 -7.673414,11.961045 0,5.330742 2.87199,8.153792 8.295141,8.153792 3.505473,0 4.696503,-0.75485 11.311439,-7.168999 z M 7.380166,36.594208 c 3.225043,-0.337084 6.101309,-0.997315 6.391701,-1.46718 0.915405,-1.481156 -9.552375,-0.925141 -12.639707,0.67138 -3.140607,1.624071 -4.078247,3.121116 -1.283024,2.048489 0.917023,-0.351895 4.305987,-0.915605 7.53103,-1.252689 z M 74.18182,-1.279838 c 0,-5.25313 -3.09517,-8.447434 -8.185274,-8.447434 -3.415962,0 -4.712635,0.836915 -11.825686,7.632683 -4.393972,4.197976 -7.98904,7.987221 -7.98904,8.420545 0,0.433324 1.293488,1.071959 2.874418,1.41919 3.392175,0.745046 6.54909,3.857898 8.122103,8.008736 l 1.129747,2.981154 7.936862,-8.098171 c 7.11631,-7.260938 7.93687,-8.492953 7.93687,-11.916703 z m -2.71945,-18.295966 c 6.94753,1.347024 8.37789,0.574351 3.07754,-1.662469 -4.98003,-2.101637 -10.819279,-2.088515 -16.129583,0.03625 -6.053255,2.422033 -5.216207,3.444662 1.521493,1.858824 4.506211,-1.060617 7.0004,-1.110932 11.53055,-0.232602 z"
         style="fill:#c9cfd7" />
      <path
         inkscape:connector-curvature="0"
         id="path3912"
         d="m -17.547251,94.177788 c -11.899237,-5.89003 -17.527242,-21.06486 -12.203754,-32.90506 2.173678,-4.834572 22.307498,-26.014485 27.18345,-28.595821 4.456165,-2.359101 11.758858,-3.340565 17.22308,-2.314739 4.906583,0.921137 5.024502,0.882941 8.737745,-2.830301 3.652762,-3.652763 3.731539,-3.881744 2.664706,-7.745495 -1.326001,-4.802381 -0.585933,-12.202249 1.671172,-16.70988 2.317147,-4.62754 23.117463,-25.507238 27.952672,-28.05935 5.691173,-3.003905 16.46204,-3.009782 22.12821,-0.01207 8.55111,4.523992 14.37179,13.82116 14.37179,22.955541 0,8.779949 -2.51383,13.007475 -15.4089,25.9133 C 62.545075,38.11362 58.849764,39.99112 47.292371,38.852284 c -6.513712,-0.641845 -6.729102,-0.587065 -9.63659,2.450854 -2.827793,2.954648 -2.974836,3.534045 -2.991767,11.788484 -0.0147,7.164031 -0.430413,9.467513 -2.378843,13.18111 -3.246949,6.1885 -22.324563,25.41367 -27.748687,27.96331 -5.996224,2.81856 -16.326968,2.79131 -22.083735,-0.0583 z M 6.804005,71.095346 c 4.607798,-4.49756 8.377815,-8.54756 8.377815,-9 0,-0.45244 -1.159615,-0.822618 -2.576923,-0.822618 -3.670654,0 -8.423077,-5.03453 -8.423077,-8.923077 0,-1.884972 -0.512361,-3.076923 -1.322618,-3.076923 -0.72744,0 -5.00244,3.770017 -9.5,8.377815 -7.467495,7.650527 -8.177382,8.723828 -8.177382,12.363636 0,5.522489 3.736062,9.258549 9.258549,9.258549 3.639808,0 4.713109,-0.70989 12.363636,-8.177382 z M -2.659198,42.690515 c 1.563247,-0.808386 5.128345,-1.903339 7.922439,-2.433228 4.94717,-0.938212 10.918579,-4.223647 10.918579,-6.00734 0,-1.661032 -6.93168,-2.193051 -12.222982,-0.938137 -4.572568,1.084456 -6.462481,2.400202 -14.157295,9.856223 -8.593727,8.327038 -14.619723,15.45684 -14.619723,17.297677 0,0.491098 4.346261,-2.976713 9.658358,-7.706248 5.312096,-4.729534 10.937377,-9.260561 12.500624,-10.068947 z M 41.832016,18.582359 c 1.648849,-1.080367 3.777059,-1.408864 6.869392,-1.060313 3.851391,0.434108 4.480412,0.249427 4.480412,-1.315451 0,-2.245197 -3.661248,-4.933867 -6.718605,-4.933867 -1.55432,0 -5.042968,2.869654 -11.027493,9.070876 -4.814646,4.988982 -8.931785,9.572631 -9.149198,10.185887 -0.217412,0.613256 2.653861,-1.471774 6.380608,-4.6334 3.726746,-3.161627 7.850944,-6.452806 9.164884,-7.313732 z M 67.00444,10.894913 c 7.4318,-7.613957 8.17738,-8.736601 8.17738,-12.312908 0,-5.354242 -4.00781,-9.309277 -9.433488,-9.309277 -3.457115,0 -4.675284,0.832978 -12.695281,8.680967 -4.879177,4.774532 -8.871231,9.049532 -8.871231,9.5 0,0.450468 1.0125,0.820715 2.25,0.822771 3.569644,0.0059 8.623935,3.631533 9.361421,6.715243 0.813179,3.400212 1.280269,4.281019 2.270214,4.281019 0.41998,0 4.443423,-3.770017 8.940985,-8.377815 z M 42.272051,-4.69983 c 11.570326,-10.385782 15.537263,-12.452518 23.909769,-12.456759 7.41801,-0.0038 11.45639,1.691769 17.25,7.242449 l 3.75,3.592764 0,-2.625209 c 0,-3.547332 -5.61974,-10.650014 -10.36529,-13.100492 -2.12592,-1.097765 -6.07154,-2.207929 -8.76806,-2.46703 -8.248585,-0.792585 -12.410778,1.538531 -23.729778,13.290318 -9.246831,9.600387 -13.153825,14.496517 -11.567872,14.496517 0.351653,0 4.636206,-3.587651 9.521231,-7.972558 z"
         style="fill:#b6c3cd" />
      <path
         inkscape:connector-curvature="0"
         id="path3910"
         d="m -17.654644,93.716108 c -6.147174,-3.11991 -11.474909,-9.67998 -13.104949,-16.1362 -1.425561,-5.64632 -1.338659,-8.001071 0.527145,-14.283917 1.352502,-4.554368 3.154236,-6.949093 12.25,-16.281749 5.865347,-6.018105 12.689268,-12.134398 15.164268,-13.591762 4.035852,-2.376446 5.503564,-2.649752 14.229736,-2.649752 9.545664,0 9.788364,-0.05861 12.828778,-3.098009 3.027584,-3.026574 3.076042,-3.222572 2.101547,-8.5 -1.181019,-6.395874 -0.06923,-13.694854 2.79093,-18.322693 1.081795,-1.75038 6.830234,-7.925117 12.77431,-13.721638 8.908507,-8.687362 11.85876,-10.934543 16.791055,-12.789595 7.117692,-2.676988 12.069844,-2.324921 19.376284,1.377531 12.1527,6.158241 17.02463,20.281556 11.318,32.809983 -2.17086,4.765948 -22.40997,25.242142 -27.71064,28.035253 -3.147669,1.658617 -5.852354,2.118547 -12.693114,2.158454 -8.435141,0.04921 -8.793314,0.147793 -12.069615,3.322045 -3.372582,3.267534 -3.376089,3.280879 -3.022106,11.5 0.27501,6.385445 -0.0454,9.062233 -1.430385,11.949932 -2.16336,4.510603 -23.139399,26.132577 -27.596341,28.446137 -1.753641,0.9103 -6.338439,1.84169 -10.188439,2.06976 -6.108571,0.36185 -7.679583,0.0697 -12.336464,-2.29378 z M 6.93182,70.984256 c 4.5375,-4.492055 8.25,-8.514807 8.25,-8.93945 0,-0.424643 -0.697347,-0.772078 -1.54966,-0.772078 -4.819813,0 -9.45034,-5.1679 -9.45034,-10.547053 0,-1.349121 -0.347435,-2.452947 -0.772078,-2.452947 -1.544855,0 -17.152249,16.576944 -18.169142,19.297832 -2.292459,6.133908 4.398686,13.549098 10.94122,12.125168 1.375,-0.29925 6.2125,-4.21942 10.75,-8.711472 z M -11.42739,50.44924 c 2.689934,-2.297081 5.814485,-4.176512 6.943446,-4.176512 2.991074,0 15.849484,-6.502208 18.556337,-9.38352 1.27543,-1.357633 2.020261,-2.951737 1.655179,-3.542452 C 14.558883,31.455778 4.17685,32.096721 -0.471192,34.3468 c -4.17376,2.020482 -21.711091,19.852936 -24.202894,24.610187 -2.36514,4.515431 -0.990071,4.593477 3.605906,0.204662 2.6125,-2.494743 6.950855,-6.415327 9.64079,-8.712409 z m 42.60921,0.823488 c 0,-0.55 -0.45,-1 -1,-1 -0.55,0 -1,0.45 -1,1 0,0.55 0.45,1 1,1 0.55,0 1,-0.45 1,-1 z m 5.094391,-27.265813 c 3.009901,-2.289576 4.589643,-2.734187 9.714816,-2.734187 5.134786,0 6.296054,-0.328165 7.211008,-2.037773 1.52806,-2.855206 0.346712,-5.721121 -3.091084,-7.498875 -4.291469,-2.219205 -6.859873,-0.512503 -19.401741,12.892439 -13.959625,14.920263 -15.838393,17.776234 -6.005011,9.128396 4.387692,-3.858697 9.595097,-8.246197 11.572012,-9.75 z M 75.63091,0.619528 C 77.12606,-5.337614 70.14761,-12.662427 64.324116,-11.248469 61.438451,-10.547824 44.18182,5.944643 44.18182,8.001879 c 0,0.779424 1.319042,1.270849 3.411106,1.270849 2.581392,0 4.040827,0.74838 6,3.076725 1.423892,1.692199 2.588894,3.867199 2.588894,4.833334 0,0.966134 0.314266,2.070873 0.698368,2.454976 C 57.898239,20.655813 74.94048,3.370437 75.63091,0.619528 z M 49.68182,-9.650159 c 5.93986,-3.979064 14.665849,-5.428827 23.16364,-3.84848 5.98032,1.112169 7.36854,1.815037 11.08636,5.613143 l 4.25,4.341776 0,-2.776051 c 0,-4.407524 -3.92322,-11.339336 -8.15117,-14.40205 -6.05993,-4.389786 -12.47335,-5.542553 -19.544586,-3.512999 -5.234042,1.50225 -6.776741,2.665076 -15.703563,11.836727 -9.835709,10.105466 -13.589784,14.941154 -13.596943,17.514455 -0.0021,0.738998 3.258762,-1.678248 7.246262,-5.37166 3.9875,-3.693411 9.05,-7.921098 11.25,-9.394861 z"
         style="fill:#aebbc6" />
      <path
         inkscape:connector-curvature="0"
         id="path3908"
         d="m -12.824654,95.396638 c -7.501939,-2.45632 -13.645674,-7.96228 -16.495661,-14.78326 -2.159286,-5.1679 -1.928158,-14.821743 0.473443,-19.774926 1.08422,-2.236148 5.667681,-7.665724 10.185471,-12.065724 l 8.214162,-8 -7.189053,8.13645 c -6.953193,7.869507 -10.222443,13.374396 -10.144341,17.081431 0.0279,1.324208 0.862979,0.824996 3.25,-1.94285 4.041796,-4.686625 9.565946,-8.775031 11.856601,-8.775031 1.771262,0 10.29697,-5.286693 11.397571,-7.067502 0.326688,-0.528593 2.475946,-1.915121 4.77613,-3.081174 5.449806,-2.762719 13.682151,-9.648669 13.682151,-11.444442 0,-0.773785 0.659342,-1.406882 1.465204,-1.406882 0.805862,0 3.074245,-1.412757 5.04085,-3.139459 l 3.575647,-3.13946 -0.660959,-8.14596 C 25.676445,6.433963 27.615992,2.233439 38.90368,-8.79299 l 8.634123,-8.434282 -8.06402,9.139649 c -7.393826,8.38006 -11.478624,15.507024 -9.831721,17.153927 0.362765,0.362764 2.095114,-1.01893 3.849665,-3.070432 4.169126,-4.874735 9.545579,-8.723144 12.186742,-8.723144 1.159449,0 5.150983,-2.336538 8.870077,-5.192308 6.118497,-4.698192 7.248701,-5.192307 11.876504,-5.192307 4.8989,0 5.31057,0.218894 9.76507,5.192307 3.05973,3.416169 5.44085,5.192308 6.96088,5.192308 1.27068,0 2.88577,0.786956 3.58908,1.748792 1.16735,1.596439 1.34004,1.50459 1.98228,-1.054286 1.05366,-4.198134 -0.13597,-9.483028 -3.17046,-14.08468 -1.49059,-2.260404 -1.98046,-3.510332 -1.0886,-2.777617 3.36661,2.765875 6.71941,11.334494 6.69656,17.114135 C 91.12646,6.676589 88.4422,11.292587 76.52549,23.385579 63.331699,36.774543 59.423794,38.780724 48.054717,38.00147 l -7.665551,-0.525409 -3.712989,3.802446 c -3.681206,3.769897 -3.706999,3.854053 -3.013255,9.831395 0.510175,4.395701 0.249433,7.57793 -0.9625,11.746832 -1.473441,5.06846 -2.931822,7.022626 -12.840418,17.205584 -7.199681,7.39904 -12.717548,12.17867 -15.503252,13.42906 -4.879519,2.19022 -13.418982,3.13717 -17.181406,1.90526 z m 11.806134,-16.5506 c 4.070427,-2.15055 17.550173,-16.198251 16.763992,-17.470319 -0.374927,-0.606645 -1.755035,-1.102991 -3.066905,-1.102991 -3.811753,0 -7.598761,-3.956024 -8.00863,-8.36606 C 4.47387,49.797065 4.045323,47.802898 3.717611,47.475186 2.911094,46.668668 -12.600096,62.085131 -14.39086,65.473068 c -2.329773,4.407686 -1.766967,7.66001 1.97268,11.39966 3.739415,3.73942 6.991419,4.30235 11.39966,1.97331 z M 31.995178,52.445716 c 0.230058,-2.329501 -0.09717,-3.172988 -1.230947,-3.172988 -1.699571,0 -3.172553,4.236113 -2.084913,5.995951 1.211937,1.960957 2.993172,0.4445 3.31586,-2.822963 z M 21.81397,37.607551 c 9.948234,-8.757818 12.875446,-10.334823 19.183331,-10.334823 4.918611,0 8.913833,-2.044982 11.898867,-6.090515 0.731333,-0.991155 2.124058,-1.47187 3.501451,-1.208565 1.822087,0.348315 4.065863,-1.380539 11.035651,-8.503087 7.77953,-7.950037 8.74855,-9.346128 8.74855,-12.604248 0,-4.664017 -2.50274,-8.487869 -6.7044,-10.243437 -2.80869,-1.173543 -3.775776,-1.169095 -6.5456,0.0301 -4.643862,2.010566 -20.193912,18.02055 -19.431809,20.006558 0.411175,1.071506 -2.379494,4.52676 -8.883769,10.9994 C 22.84553,31.372396 10.18182,45.322966 10.18182,46.576333 c 0,1.140473 1.198288,0.216552 11.63215,-8.968782 z m 44.18035,-65.017937 c 0.72187,-0.288871 1.58437,-0.253344 1.91667,0.07895 0.33229,0.332292 -0.25834,0.56864 -1.3125,0.525219 -1.164946,-0.04798 -1.401903,-0.28494 -0.60417,-0.604166 z"
         style="fill:#93a2ae" />
      <path
         inkscape:connector-curvature="0"
         id="path3906"
         d="m -14.681103,93.903588 c -4.974896,-1.80034 -10.646241,-6.98548 -13.032841,-11.91554 -2.391388,-4.93995 -2.974625,-12.682568 -0.820697,-10.894967 0.813676,0.675287 1.820363,0.725717 2.75,0.137757 0.806553,-0.510116 2.424074,-0.934375 3.594489,-0.942797 1.170415,-0.0084 2.834312,-1.027813 3.697548,-2.265313 1.564941,-2.243435 1.569673,-2.240373 1.621972,1.04966 0.02885,1.814813 0.707629,4.56663 1.508401,6.11515 1.447478,2.79912 6.844808,6.08519 9.99484,6.08519 2.725736,0 6.81602,-2.59222 11.049211,-7.00243 2.2,-2.292 5.750107,-5.566489 7.889127,-7.276642 3.142987,-2.512827 3.670583,-2.701013 2.75,-0.98089 -1.897409,3.545342 -1.346484,4.259962 3.284148,4.259962 3.299706,0 5.204802,-0.657612 7.5,-2.588894 1.692199,-1.423891 3.076725,-2.159578 3.076725,-1.634858 0,3.427233 -20.104511,23.776592 -26.5,26.822732 -5.558631,2.64756 -12.777366,3.0532 -18.362923,1.03188 z M 17.785868,61.441081 C 17.478021,60.942974 15.448748,60.251215 13.276373,59.903838 8.01897,59.063146 5.155886,55.450522 5.350477,49.902985 c 0.131931,-3.761162 1.118797,-5.57403 3.056592,-5.614944 0.398887,-0.0084 0.303582,1.093756 -0.211789,2.449285 -1.640824,4.315693 0.704416,3.8431 7.0229,-1.415196 5.733489,-4.771459 6.382636,-5.049402 11.79305,-5.049402 3.632956,0 6.561509,-0.585509 8.012751,-1.601999 3.413938,-2.391215 3.492548,-1.212805 0.177751,2.664603 -1.616247,1.890568 -2.956919,3.700021 -2.979271,4.021006 -0.02235,0.320986 -1.899475,2.570986 -4.171384,5 -2.271908,2.429015 -5.38506,6.12054 -6.918115,8.20339 -1.533055,2.08285 -3.039248,3.379459 -3.347094,2.881353 z M 43.885269,37.114239 c -2.088102,-0.584214 -3.663102,-1.379985 -3.5,-1.76838 0.908006,-2.162225 14.843459,-14.073131 16.465201,-14.073131 1.059,0 3.704281,-1.838183 5.878402,-4.084852 2.174122,-2.246668 5.703058,-5.484067 7.842078,-7.19422 3.14298,-2.512827 3.67058,-2.701013 2.75,-0.98089 -1.69349,3.164318 -1.57449,3.259962 4.05615,3.259962 4.29159,0 5.70424,-0.478349 8.12125,-2.75 l 2.92596,-2.75 -1.73616,3.422553 C 84.07203,15.352557 66.56151,32.91051 61.675325,35.275872 56.507564,37.777542 49.021141,38.551165 43.885269,37.114239 z M 27.80682,20.147728 c -1.067794,-5.338972 -0.8262,-7.286871 0.742321,-5.985114 1.040007,0.86313 1.667778,0.772749 2.622445,-0.377555 0.690318,-0.831782 2.314649,-1.512331 3.609626,-1.512331 1.407985,0 3.013008,-1.005007 3.992565,-2.5 1.916827,-2.925449 3.408043,-3.240977 3.408043,-0.721112 0,1.592183 -11.67943,14.221112 -13.151905,14.221112 -0.328952,0 -0.879345,-1.40625 -1.223095,-3.125 z"
         style="fill:#718693" />
      <path
         inkscape:connector-curvature="0"
         id="path3904"
         d="m -16.388921,92.379918 c -3.87583,-1.76037 -10.428772,-8.41091 -10.429691,-10.58503 -2.73e-4,-0.64711 3.393753,-0.89721 9.25,-0.68162 11.182582,0.41167 11.750332,0.41148 23.902443,-0.008 8.340884,-0.28768 9.540235,-0.12914 8.829162,1.1671 -1.650632,3.009 -8.57544,8.94162 -12.199054,10.45117 -5.063905,2.10957 -14.31277,1.94517 -19.35286,-0.34398 z M 8.356134,56.958277 c -2.671733,-2.84393 -2.788372,-4.685549 -0.296759,-4.685549 1.032656,0 2.437756,-0.675 3.122445,-1.5 0.827564,-0.997154 3.069651,-1.5 6.688186,-1.5 2.993813,0 6.313713,-0.465833 7.377555,-1.035184 3.241671,-1.734889 2.304034,0.73462 -2.315741,6.099102 -3.798432,4.41074 -4.683047,4.935152 -8.325686,4.935591 -2.967719,3.58e-4 -4.666769,-0.628688 -6.25,-2.31396 z M 43.93182,36.583402 c -0.9625,-0.251527 -1.75,-0.819372 -1.75,-1.261877 0,-0.442505 2.978171,-3.419244 6.618159,-6.614976 l 6.618159,-5.81042 9.269028,-0.0617 9.269024,-0.0617 -1.91947,2.699713 c -3.13205,4.405186 -9.566168,9.397205 -13.713343,10.639728 -3.803314,1.139501 -10.940124,1.373186 -14.391557,0.471232 z"
         style="fill:#677c89" />
      <path
         inkscape:connector-curvature="0"
         id="path3902"
         d="m -15.31818,92.391998 c -2.2,-1.01025 -4.755816,-2.68786 -5.679591,-3.72804 -1.639526,-1.84612 -1.299618,-1.89123 14.249285,-1.89123 8.760882,0 15.929198,0.26776 15.929591,0.59501 0.0014,1.16588 -3.630295,3.85287 -7.253765,5.36685 -4.92161,2.05638 -12.342325,1.90896 -17.24552,-0.34259 z m 26.5,-33.813251 c -1.52411,-0.544703 -4,-3.197334 -4,-4.285538 0,-0.328493 3.428762,-0.724953 7.619471,-0.881022 l 7.61947,-0.283762 -2.187564,3.072151 c -2.149636,3.018885 -5.094017,3.792495 -9.051377,2.378171 z m 34.25,-21.957783 c -3.142055,-0.680552 -2.825226,-1.743013 1.5,-5.030127 3.507402,-2.665578 4.255014,-2.827508 11.556342,-2.503055 8.845838,0.393087 9.418768,1.36434 2.934396,4.974458 -4.086481,2.275112 -11.685934,3.491123 -15.990738,2.558724 z"
         style="fill:#5e727e" />
    </g>
  </g>
</svg>
