<?xml version="1.0" encoding="UTF-8" standalone="no"?>
<!-- Created with Inkscape (http://www.inkscape.org/) -->

<svg
   xmlns:dc="http://purl.org/dc/elements/1.1/"
   xmlns:cc="http://creativecommons.org/ns#"
   xmlns:rdf="http://www.w3.org/1999/02/22-rdf-syntax-ns#"
   xmlns:svg="http://www.w3.org/2000/svg"
   xmlns="http://www.w3.org/2000/svg"
   xmlns:sodipodi="http://sodipodi.sourceforge.net/DTD/sodipodi-0.dtd"
   xmlns:inkscape="http://www.inkscape.org/namespaces/inkscape"
   width="100"
   height="100"
   id="svg4009"
   version="1.1"
   inkscape:version="0.48.4 r9939"
   sodipodi:docname="view.graph.svg">
  <defs
     id="defs4011" />
  <sodipodi:namedview
     id="base"
     pagecolor="#ffffff"
     bordercolor="#666666"
     borderopacity="1.0"
     inkscape:pageopacity="0.0"
     inkscape:pageshadow="2"
     inkscape:zoom="1.4"
     inkscape:cx="129.28525"
     inkscape:cy="42.756077"
     inkscape:document-units="px"
     inkscape:current-layer="layer1"
     showgrid="false"
     inkscape:window-width="501"
     inkscape:window-height="498"
     inkscape:window-x="722"
     inkscape:window-y="239"
     inkscape:window-maximized="0"
     fit-margin-top="0"
     fit-margin-left="0"
     fit-margin-right="0"
     fit-margin-bottom="0" />
  <metadata
     id="metadata4014">
    <rdf:RDF>
      <cc:Work
         rdf:about="">
        <dc:format>image/svg+xml</dc:format>
        <dc:type
           rdf:resource="http://purl.org/dc/dcmitype/StillImage" />
        <dc:title />
      </cc:Work>
    </rdf:RDF>
  </metadata>
  <g
     inkscape:label="Layer 1"
     inkscape:groupmode="layer"
     id="layer1"
     transform="translate(-51.428572,-283.07647)">
    <path
       style="fill:#ef2995;fill-opacity:1;stroke:none"
       d="m 53.084822,283.07647 6.375,6.8125 c 1.197301,-0.64447 2.591046,-1 4.0625,-1 4.549792,0 8.21875,3.52009 8.21875,7.84375 0,4.32366 -3.668958,7.8125 -8.21875,7.8125 -4.549792,0 -8.25,-3.48884 -8.25,-7.8125 0,-1.65164 0.547754,-3.17181 1.46875,-4.4375 l -5.3125,-5.6875 0,78.53125 9.4375,0 c 0.598793,-3.72315 3.795804,-6.5625 7.625,-6.5625 1.68305,0 3.235623,0.5662 4.5,1.5 l 13,-13.34375 c -2.20868,-2.74239 -3.53125,-6.22342 -3.53125,-10.03125 0,-7.78294 5.533219,-14.235 12.84375,-15.625 l 0,-16.25 c -3.367697,-0.83682 -5.875,-3.91302 -5.875,-7.59375 0,-3.70046 2.53899,-6.78016 5.9375,-7.59375 l 0,-6.5625 -42.28125,0 z m 45.875,0 0,6.5625 c 3.376618,0.82464 5.874998,3.90429 5.874998,7.59375 0,3.70451 -2.53682,6.81211 -5.937498,7.625 l 0,15.9375 c 8.410658,0.34731 15.124998,7.33144 15.124998,15.90625 l 16.75,0 c 0.72953,-3.55245 3.85074,-6.21875 7.5625,-6.21875 3.78606,0 6.91842,2.77594 7.5625,6.4375 l 5.53125,0 0,-53.84375 -52.468748,0 z m 14.656248,57.21875 c -1.61246,7.0709 -7.88225,12.34375 -15.374998,12.34375 -3.655551,0 -7.011932,-1.26705 -9.6875,-3.375 l -13.21875,13.5625 c 0.539749,1.07312 0.84375,2.30648 0.84375,3.59375 0,3.91305 -2.812413,7.14068 -6.5,7.71875 l 0,8.9375 81.749998,0 0,-20.9375 -7.21875,7.71875 c 0.42244,0.96861 0.65625,2.0262 0.65625,3.15625 0,4.32366 -3.43357,7.84375 -7.6875,7.84375 -4.25393,0 -7.71875,-3.52009 -7.71875,-7.84375 0,-4.32366 3.46482,-7.8125 7.71875,-7.8125 1.82052,0 3.49731,0.6488 4.8125,1.71875 l 8.9375,-9.53125 0.5,0.46875 0,-1.71875 -9.96875,-10.6875 c -0.95685,0.43622 -2.00674,0.6875 -3.125,0.6875 -3.57882,0 -6.6039,-2.48178 -7.46875,-5.84375 l -17.25,0 z m 32.09375,0.21875 c -0.29047,1.01035 -0.8017,1.92202 -1.4375,2.71875 l 7.15625,7.625 0,-10.34375 -5.71875,0 z m -94.281248,28.21875 0,14.34375 14.65625,0 0,-9.25 c -2.353987,-0.78707 -4.193855,-2.69239 -4.9375,-5.09375 l -9.71875,0 z"
       id="rect4770-9-44"
       inkscape:connector-curvature="0"
       inkscape:export-filename="/tmp/icons.png"
       inkscape:export-xdpi="266.01999"
       inkscape:export-ydpi="266.01999" />
  </g>
</svg>
