<?xml version="1.0" encoding="UTF-8" standalone="no"?>
<!-- Created with Inkscape (http://www.inkscape.org/) -->

<svg
   xmlns:dc="http://purl.org/dc/elements/1.1/"
   xmlns:cc="http://creativecommons.org/ns#"
   xmlns:rdf="http://www.w3.org/1999/02/22-rdf-syntax-ns#"
   xmlns:svg="http://www.w3.org/2000/svg"
   xmlns="http://www.w3.org/2000/svg"
   xmlns:sodipodi="http://sodipodi.sourceforge.net/DTD/sodipodi-0.dtd"
   xmlns:inkscape="http://www.inkscape.org/namespaces/inkscape"
   width="100"
   height="100"
   id="svg4009"
   version="1.1"
   inkscape:version="0.48.4 r9939"
   sodipodi:docname="view.map.svg">
  <defs
     id="defs4011" />
  <sodipodi:namedview
     id="base"
     pagecolor="#ffffff"
     bordercolor="#666666"
     borderopacity="1.0"
     inkscape:pageopacity="0.0"
     inkscape:pageshadow="2"
     inkscape:zoom="1.4"
     inkscape:cx="124.99954"
     inkscape:cy="23.817657"
     inkscape:document-units="px"
     inkscape:current-layer="layer1"
     showgrid="false"
     inkscape:window-width="501"
     inkscape:window-height="498"
     inkscape:window-x="722"
     inkscape:window-y="239"
     inkscape:window-maximized="0"
     fit-margin-top="0"
     fit-margin-left="0"
     fit-margin-right="0"
     fit-margin-bottom="0" />
  <metadata
     id="metadata4014">
    <rdf:RDF>
      <cc:Work
         rdf:about="">
        <dc:format>image/svg+xml</dc:format>
        <dc:type
           rdf:resource="http://purl.org/dc/dcmitype/StillImage" />
        <dc:title />
      </cc:Work>
    </rdf:RDF>
  </metadata>
  <g
     inkscape:label="Layer 1"
     inkscape:groupmode="layer"
     id="layer1"
     transform="translate(-50,-333.79075)">
    <path
       inkscape:connector-curvature="0"
       style="fill:#888888;fill-opacity:1;stroke:none"
       d="m 50,333.79075 0,100 100,0 0,-100 -100,0 z m 49.875,6.34375 c 5.15081,0.0452 10.38953,0.97872 15.5,2.875 23.36215,8.66871 35.43582,34.42862 26.875,57.5 -8.56082,23.07137 -34.51285,34.76247 -57.875,26.09375 C 61.01285,417.93454 48.90794,392.11212 57.46875,369.04075 64.15689,351.01623 81.47927,339.97316 99.875,340.1345 z m -0.0625,4.8125 c -15.93323,-0.16045 -30.86682,9.07637 -37.21875,24.28125 l 5.90625,2.1875 a 1.1230342,1.1230342 0 0 1 0.75,1.25 1.1230342,1.1230342 0 0 1 -0.0937,0.21875 l -0.125,0.375 a 1.1230342,1.1230342 0 0 1 -1.4375,0.65625 l -5.93755,-2.1875 c -6.89038,20.19641 3.59689,42.38145 23.9375,50.1875 a 1.1230342,1.1230342 0 0 1 0.0937,-0.28125 l 2.375,-6.4375 a 1.1230342,1.1230342 0 0 1 1.4375,-0.65625 l 0.375,0.15625 a 1.1230342,1.1230342 0 0 1 0.65625,1.4375 l -2.375,6.40625 a 1.1230342,1.1230342 0 0 1 -0.0937,0.25 c 19.90168,6.24165 41.22166,-3.51797 49.125,-22.5 a 1.1230342,1.1230342 0 0 1 -0.71875,-0.0312 l -6.375,-2.375 a 1.1230342,1.1230342 0 0 1 -0.65625,-1.46875 l 0.125,-0.375 A 1.1230342,1.1230342 0 0 1 131,395.38455 l 6.40625,2.375 a 1.1230342,1.1230342 0 0 1 0.5625,0.4375 c 6.98727,-19.88184 -2.97,-41.77515 -22.625,-50.03125 a 1.1230342,1.1230342 0 0 1 -0.0625,0.4375 l -2.375,6.40625 a 1.1230342,1.1230342 0 0 1 -1.46875,0.65625 l -0.375,-0.15625 a 1.1230342,1.1230342 0 0 1 -0.65625,-1.43755 l 2.375,-6.375 A 1.1230342,1.1230342 0 0 1 113,347.29075 c -4.36775,-1.53542 -8.80984,-2.29967 -13.1875,-2.34375 z M 85.96875,375.54075 109.5,375.697 l 23.8125,-0.15625 -20.65625,11.75 -20.34375,11.9375 -2.90625,-11.90625 -3.4375,-11.78125 z m 14.03125,4.5 c -2.31566,0 -4.1875,1.88056 -4.1875,4.1875 0,2.30694 1.87184,4.1875 4.1875,4.1875 2.31566,0 4.1875,-1.88056 4.1875,-4.1875 0,-2.30694 -1.87184,-4.1875 -4.1875,-4.1875 z"
       id="rect4770-9-47" />
  </g>
</svg>
