<?xml version="1.0" encoding="UTF-8" standalone="no"?>
<!-- Created with Inkscape (http://www.inkscape.org/) -->

<svg
   xmlns:dc="http://purl.org/dc/elements/1.1/"
   xmlns:cc="http://creativecommons.org/ns#"
   xmlns:rdf="http://www.w3.org/1999/02/22-rdf-syntax-ns#"
   xmlns:svg="http://www.w3.org/2000/svg"
   xmlns="http://www.w3.org/2000/svg"
   xmlns:sodipodi="http://sodipodi.sourceforge.net/DTD/sodipodi-0.dtd"
   xmlns:inkscape="http://www.inkscape.org/namespaces/inkscape"
   width="100"
   height="100"
   id="svg4009"
   version="1.1"
   inkscape:version="0.48.4 r9939"
   sodipodi:docname="view.wiki.svg">
  <defs
     id="defs4011" />
  <sodipodi:namedview
     id="base"
     pagecolor="#ffffff"
     bordercolor="#666666"
     borderopacity="1.0"
     inkscape:pageopacity="0.0"
     inkscape:pageshadow="2"
     inkscape:zoom="1.4"
     inkscape:cx="109.28525"
     inkscape:cy="41.327497"
     inkscape:document-units="px"
     inkscape:current-layer="layer1"
     showgrid="false"
     inkscape:window-width="501"
     inkscape:window-height="498"
     inkscape:window-x="722"
     inkscape:window-y="239"
     inkscape:window-maximized="0"
     fit-margin-top="0"
     fit-margin-left="0"
     fit-margin-right="0"
     fit-margin-bottom="0" />
  <metadata
     id="metadata4014">
    <rdf:RDF>
      <cc:Work
         rdf:about="">
        <dc:format>image/svg+xml</dc:format>
        <dc:type
           rdf:resource="http://purl.org/dc/dcmitype/StillImage" />
        <dc:title />
      </cc:Work>
    </rdf:RDF>
  </metadata>
  <g
     inkscape:label="Layer 1"
     inkscape:groupmode="layer"
     id="layer1"
     transform="translate(-23.571429,-253.79075)">
    <path
       inkscape:connector-curvature="0"
       style="fill:#888888;fill-opacity:1;stroke:none"
       d="m 23.571429,253.79075 0,100 100.000001,0 0,-100 -100.000001,0 z m 7.8125,30.625 10.4375,0 0,1.5625 -2.8125,0 c -1.24828,3e-5 -2.05114,0.1888 -2.4375,0.59375 -0.35666,0.40501 -0.53126,1.31682 -0.53125,2.6875 l 0,29.8125 c -1e-5,0.99688 0.13876,1.62597 0.40625,1.9375 0.2972,0.34267 0.89115,0.53124 1.8125,0.53125 l 3.5625,0 0,1.53125 -10.4375,0 0,-38.65625 z m 14.90625,0 10.4375,0 0,1.5625 -2.8125,0 c -1.24828,3e-5 -2.08239,0.1888 -2.46875,0.59375 -0.35666,0.40501 -0.53126,1.31682 -0.53125,2.6875 l 0,29.8125 c -1e-5,0.99688 0.13876,1.62597 0.40625,1.9375 0.2972,0.34267 0.89115,0.53124 1.8125,0.53125 l 3.59375,0 0,1.53125 -10.4375,0 0,-38.65625 z m 44.59375,0 10.406251,0 0,38.65625 -10.406251,0 0,-1.53125 3.5625,0 c 0.92133,-10e-6 1.51376,-0.15723 1.78125,-0.46875 0.2972,-0.31153 0.43749,-0.97197 0.4375,-2 l 0,-29.8125 c -10e-6,-1.37068 -0.20739,-2.28249 -0.59375,-2.6875 -0.35665,-0.40495 -1.15799,-0.59372 -2.40625,-0.59375 l -2.78125,0 0,-1.5625 z m 14.875001,0 10.4375,0 0,38.65625 -10.4375,0 0,-1.53125 3.5625,0 c 0.92133,-10e-6 1.51376,-0.15723 1.78125,-0.46875 0.2972,-0.31153 0.43749,-0.97197 0.4375,-2 l 0,-29.8125 c -1e-5,-1.37068 -0.17614,-2.28249 -0.5625,-2.6875 -0.35665,-0.40495 -1.15799,-0.59372 -2.40625,-0.59375 l -2.8125,0 0,-1.5625 z m -47.187501,10.15625 9.90625,0 0,1.125 c -1.12939,0.15578 -1.68751,0.59601 -1.6875,1.3125 -10e-6,0.43615 0.34767,1.59981 1.03125,3.53125 0.71329,1.93147 1.26987,3.37804 1.65625,4.34375 l 1.0625,3 3.03125,-8 -0.28125,-0.875 c -0.4161,-1.52645 -0.731,-2.43836 -0.96875,-2.71875 -0.23778,-0.3115 -0.79436,-0.50027 -1.65625,-0.59375 l 0,-1.125 10.4375,0 0,1.125 c -0.8322,0.0623 -1.39031,0.15676 -1.6875,0.3125 -0.29723,0.15578 -0.46877,0.43869 -0.46875,0.8125 -2e-5,0.37385 0.10138,0.84562 0.25,1.4375 0.1783,0.56076 0.4932,1.72423 0.96875,3.46875 0.47551,1.74455 0.96501,3.72578 1.5,5.96875 0.59439,-1.77568 1.18375,-3.34813 1.71875,-4.75 0.53495,-1.433 0.88568,-2.40779 1.09375,-2.90625 0.23774,-0.52958 0.41234,-1.00125 0.53125,-1.40625 0.11886,-0.43612 0.18747,-0.87635 0.1875,-1.3125 -3e-5,-0.52957 -0.14032,-0.90691 -0.4375,-1.125 -0.29723,-0.2492 -0.85535,-0.40652 -1.6875,-0.5 l 0,-1.125 6,0 0,1.125 c -0.59444,0.12463 -1.04657,0.3134 -1.34375,0.59375 -0.26752,0.28039 -0.5481,0.87775 -0.875,1.75 l -6.90625,18.71875 -1.03125,0 -4.5625,-14.46875 -5.5625,14.46875 -1.0625,0 -6.59375,-17.46875 c -0.59442,-1.55761 -1.04502,-2.50105 -1.3125,-2.84375 -0.26749,-0.37381 -0.68531,-0.62537 -1.25,-0.75 l 0,-1.125 z"
       id="rect4770-9-3"
       inkscape:export-filename="/tmp/icons.png"
       inkscape:export-xdpi="266.01999"
       inkscape:export-ydpi="266.01999" />
  </g>
</svg>
