<?xml version="1.0" encoding="UTF-8" standalone="no"?>
<!-- Created with Inkscape (http://www.inkscape.org/) -->

<svg
   xmlns:dc="http://purl.org/dc/elements/1.1/"
   xmlns:cc="http://creativecommons.org/ns#"
   xmlns:rdf="http://www.w3.org/1999/02/22-rdf-syntax-ns#"
   xmlns:svg="http://www.w3.org/2000/svg"
   xmlns="http://www.w3.org/2000/svg"
   xmlns:sodipodi="http://sodipodi.sourceforge.net/DTD/sodipodi-0.dtd"
   xmlns:inkscape="http://www.inkscape.org/namespaces/inkscape"
   width="100"
   height="100"
   id="svg4009"
   version="1.1"
   inkscape:version="0.48.4 r9939"
   sodipodi:docname="view.share.svg">
  <defs
     id="defs4011" />
  <sodipodi:namedview
     id="base"
     pagecolor="#ffffff"
     bordercolor="#666666"
     borderopacity="1.0"
     inkscape:pageopacity="0.0"
     inkscape:pageshadow="2"
     inkscape:zoom="1.4"
     inkscape:cx="127.85668"
     inkscape:cy="26.327507"
     inkscape:document-units="px"
     inkscape:current-layer="layer1"
     showgrid="false"
     inkscape:window-width="501"
     inkscape:window-height="498"
     inkscape:window-x="722"
     inkscape:window-y="239"
     inkscape:window-maximized="0"
     fit-margin-top="0"
     fit-margin-left="0"
     fit-margin-right="0"
     fit-margin-bottom="0" />
  <metadata
     id="metadata4014">
    <rdf:RDF>
      <cc:Work
         rdf:about="">
        <dc:format>image/svg+xml</dc:format>
        <dc:type
           rdf:resource="http://purl.org/dc/dcmitype/StillImage" />
        <dc:title />
      </cc:Work>
    </rdf:RDF>
  </metadata>
  <g
     inkscape:label="Layer 1"
     inkscape:groupmode="layer"
     id="layer1"
     transform="translate(-28.571429,-269.50504)">
    <path
       style="fill:#888888;fill-opacity:1;stroke:none"
       d="m 28.571429,269.50504 0,100 100.000001,0 0,-100 z m 16.15625,11.0625 c 3.73083,0 6.75,2.99341 6.75,6.6875 0,3.69409 -3.01917,6.71875 -6.75,6.71875 -3.73082,0 -6.75,-3.02466 -6.75,-6.71875 0,-3.69409 3.01918,-6.6875 6.75,-6.6875 z m 67.312501,0.5 c 3.73082,0 6.78125,2.99341 6.78125,6.6875 0,3.69409 -3.05043,6.6875 -6.78125,6.6875 -3.73083,0 -6.75,-2.99341 -6.75,-6.6875 0,-3.69409 3.01917,-6.6875 6.75,-6.6875 z m -60.077651,14.25603 8.82765,12.99397 c 5.15662,0.72956 10.71284,-1.1794 15.5625,1.3125 1.98627,4.23282 -3.21978,4.60121 -6.15625,4.15625 l -13.28125,-0.3125 -4.15625,-7.25 0,9.25 15.5625,0 c 0.6135,0 1.09375,0.65281 1.09375,1.46875 l 0,1.625 c 0,0.81595 -0.48025,1.46875 -1.09375,1.46875 l -15.5625,0 0,6.5625 c 0,0.17978 -0.0368,0.33495 -0.0625,0.5 l 0,31.5625 c 0,1.94391 -1.56801,3.5 -3.53125,3.5 -1.96324,0 -3.5625,-1.55609 -3.5625,-3.5 l 0,-30.125 -3.3125,0 0,29.25 c 0,1.94391 -1.56802,3.5 -3.53125,3.5 -1.96324,0 -3.5625,-1.55609 -3.5625,-3.5 l 0,-30.34375 c -0.0723,-0.25914 -0.0937,-0.53455 -0.0937,-0.84375 l 0,-29.4375 c 0,-1.0787 0.48023,-1.9375 1.09375,-1.9375 l 15.4375,0 c 0.10225,0 0.21863,0.0173 0.3125,0.0625 -0.006,-0.18784 0.022,0.22512 0.0161,0.0373 z m 52.850691,0.4214 c -0.006,0.18729 0.0141,-0.17722 0.008,0.0101 0.0971,-0.0486 0.20632,-0.0625 0.3125,-0.0625 l 15.4375,0 c 0.61352,0 1.125,0.8588 1.125,1.9375 l 0,29.4375 c 0,0.30992 -0.0523,0.58416 -0.125,0.84375 l 0,30.34375 c 0,1.94391 -1.56801,3.5 -3.53125,3.5 -1.96323,0 -3.5625,-1.55609 -3.5625,-3.5 l 0,-29.25 -3.3125,0 0,30.125 c 0,1.94391 -1.56801,3.5 -3.53125,3.5 -1.96324,0 -3.5625,-1.55609 -3.5625,-3.5 l 0,-31.6875 c -0.0147,-0.12698 -0.0312,-0.24016 -0.0312,-0.375 l 0,-6.53125 -15.562501,0 c -0.6135,0 -1.125,-0.68405 -1.125,-1.5 l 0,-1.625 c 0,-0.81594 0.5115,-1.46875 1.125,-1.46875 l 15.562501,0 0,-9.28125 -4.156251,7.28125 -13.3125,0.3125 c -2.93647,0.44496 -8.14252,0.10782 -6.15625,-4.125 4.84966,-2.4919 10.43713,-0.61419 15.59375,-1.34375 z"
       id="rect4770-9-09"
       inkscape:export-filename="/tmp/icons.png"
       inkscape:export-xdpi="266.01999"
       inkscape:export-ydpi="266.01999"
       inkscape:connector-curvature="0"
       sodipodi:nodetypes="cccccsssssssssscccccccsssscscsssccssscssssccccsssscsssccssscscssssccccccc" />
  </g>
</svg>
