<?xml version="1.0" encoding="UTF-8" standalone="no"?>
<!-- Created with Inkscape (http://www.inkscape.org/) -->
<svg xmlns:dc="http://purl.org/dc/elements/1.1/" xmlns:cc="http://creativecommons.org/ns#" xmlns:rdf="http://www.w3.org/1999/02/22-rdf-syntax-ns#" xmlns:svg="http://www.w3.org/2000/svg" xmlns="http://www.w3.org/2000/svg" xmlns:xlink="http://www.w3.org/1999/xlink" xmlns:sodipodi="http://sodipodi.sourceforge.net/DTD/sodipodi-0.dtd" xmlns:inkscape="http://www.inkscape.org/namespaces/inkscape" width="210mm" height="297mm" id="svg2" version="1.1" inkscape:version="0.46" sodipodi:version="0.32" inkscape:output_extension="org.inkscape.output.svg.inkscape">
  <title id="title4032">slide audio</title>
  <defs id="defs4">
    <linearGradient inkscape:collect="always" id="linearGradient3877">
      <stop style="stop-color:#000000;stop-opacity:1;" offset="0" id="stop3879"/>
      <stop style="stop-color:#000000;stop-opacity:0;" offset="1" id="stop3881"/>
    </linearGradient>
    <linearGradient id="linearGradient3782">
      <stop style="stop-color:#ffffff;stop-opacity:1;" offset="0" id="stop3784"/>
      <stop style="stop-color:#ffffff;stop-opacity:0;" offset="1" id="stop3786"/>
    </linearGradient>
    <linearGradient inkscape:collect="always" id="linearGradient3718">
      <stop style="stop-color:#ffffff;stop-opacity:1;" offset="0" id="stop3720"/>
      <stop style="stop-color:#ffffff;stop-opacity:0;" offset="1" id="stop3722"/>
    </linearGradient>
    <linearGradient id="linearGradient3632">
      <stop style="stop-color:#555753;stop-opacity:1;" offset="0" id="stop3634"/>
      <stop style="stop-color:#555753;stop-opacity:0;" offset="1" id="stop3636"/>
    </linearGradient>
    <linearGradient id="linearGradient3622">
      <stop style="stop-color:#babdb6;stop-opacity:0.16384181;" offset="0" id="stop3624"/>
      <stop id="stop3630" offset="0.5" style="stop-color:#babdb6;stop-opacity:1;"/>
      <stop style="stop-color:#babdb6;stop-opacity:0.33898309;" offset="1" id="stop3626"/>
    </linearGradient>
    <inkscape:perspective sodipodi:type="inkscape:persp3d" inkscape:vp_x="0 : 526.18109 : 1" inkscape:vp_y="0 : 1000 : 0" inkscape:vp_z="744.09448 : 526.18109 : 1" inkscape:persp3d-origin="372.04724 : 350.78739 : 1" id="perspective10"/>
    <filter inkscape:collect="always" id="filter3897" x="-0.052189089" width="1.1043782" y="-0.43892363" height="1.8778473">
      <feGaussianBlur inkscape:collect="always" stdDeviation="20.378597" id="feGaussianBlur3899"/>
    </filter>
    <linearGradient inkscape:collect="always" xlink:href="#linearGradient3622" id="linearGradient3954" gradientUnits="userSpaceOnUse" x1="360.5" y1="718.79077" x2="383.5" y2="718.79077"/>
    <linearGradient inkscape:collect="always" xlink:href="#linearGradient3622" id="linearGradient3956" gradientUnits="userSpaceOnUse" x1="427.57562" y1="716.20416" x2="465.04242" y2="691.96051"/>
    <linearGradient inkscape:collect="always" xlink:href="#linearGradient3622" id="linearGradient3958" gradientUnits="userSpaceOnUse" gradientTransform="matrix(-1,0,0,1,743.62054,0)" x1="427.57562" y1="716.20416" x2="465.04242" y2="691.96051"/>
    <linearGradient inkscape:collect="always" xlink:href="#linearGradient3622" id="linearGradient3960" gradientUnits="userSpaceOnUse" x1="360.5" y1="718.79077" x2="383.5" y2="718.79077"/>
    <linearGradient inkscape:collect="always" xlink:href="#linearGradient3782" id="linearGradient3962" gradientUnits="userSpaceOnUse" x1="252.44557" y1="377.28876" x2="637.08942" y2="732.86249"/>
    <linearGradient inkscape:collect="always" xlink:href="#linearGradient3718" id="linearGradient3964" gradientUnits="userSpaceOnUse" x1="73.20138" y1="286.6479" x2="669.65576" y2="286.6479"/>
    <linearGradient inkscape:collect="always" xlink:href="#linearGradient3622" id="linearGradient3990" gradientUnits="userSpaceOnUse" x1="360.5" y1="718.79077" x2="383.5" y2="718.79077" gradientTransform="translate(0,-48)"/>
    <filter height="1.2103233" y="-0.10516165" width="1.0759758" x="-0.037987912" id="filter3689" inkscape:collect="always">
      <feGaussianBlur id="feGaussianBlur3691" stdDeviation="7.2590033" inkscape:collect="always"/>
    </filter>
    <radialGradient gradientUnits="userSpaceOnUse" gradientTransform="matrix(1,0,0,0.36262332,0,256.11321)" r="229.80462" fy="401.82394" fx="-17.172595" cy="401.82394" cx="-17.172595" id="radialGradient3679" xlink:href="#linearGradient3673" inkscape:collect="always"/>
    <radialGradient r="266.9534" fy="630.30914" fx="225.84628" cy="630.30914" cx="225.84628" gradientTransform="matrix(0.84100005,0.01828779,-0.01372882,0.63134684,44.562947,287.28151)" gradientUnits="userSpaceOnUse" id="radialGradient3668" xlink:href="#linearGradient3639" inkscape:collect="always"/>
    <radialGradient r="266.9534" fy="630.30914" fx="225.84628" cy="630.30914" cx="225.84628" gradientTransform="matrix(0.84100005,0.01828779,-0.01372882,0.63134684,44.562947,287.28151)" gradientUnits="userSpaceOnUse" id="radialGradient3661" xlink:href="#linearGradient3639" inkscape:collect="always"/>
    <radialGradient r="266.9534" fy="630.30914" fx="225.84628" cy="630.30914" cx="225.84628" gradientTransform="matrix(0.84100005,0.01828779,-0.01372882,0.63134684,44.562947,287.28151)" gradientUnits="userSpaceOnUse" id="radialGradient3657" xlink:href="#linearGradient3639" inkscape:collect="always"/>
    <radialGradient r="266.9534" fy="630.30914" fx="225.84628" cy="630.30914" cx="225.84628" gradientTransform="matrix(0.84100005,0.01828779,-0.01372882,0.63134684,44.562947,287.28151)" gradientUnits="userSpaceOnUse" id="radialGradient3653" xlink:href="#linearGradient3639" inkscape:collect="always"/>
    <radialGradient r="266.9534" fy="630.30914" fx="225.84628" cy="630.30914" cx="225.84628" gradientTransform="matrix(0.84100005,0.01828779,-0.01372882,0.63134684,44.562947,287.28151)" gradientUnits="userSpaceOnUse" id="radialGradient3649" xlink:href="#linearGradient3639" inkscape:collect="always"/>
    <radialGradient gradientUnits="userSpaceOnUse" gradientTransform="matrix(0.84100005,0.01828779,-0.01372882,0.63134684,44.562947,287.28151)" r="266.9534" fy="630.30914" fx="225.84628" cy="630.30914" cx="225.84628" id="radialGradient3645" xlink:href="#linearGradient3639" inkscape:collect="always"/>
    <inkscape:perspective id="perspective10-4" inkscape:persp3d-origin="372.04724 : 350.78739 : 1" inkscape:vp_z="744.09448 : 526.18109 : 1" inkscape:vp_y="0 : 1000 : 0" inkscape:vp_x="0 : 526.18109 : 1" sodipodi:type="inkscape:persp3d"/>
    <linearGradient id="linearGradient3639" inkscape:collect="always">
      <stop id="stop3641" offset="0" style="stop-color:#ffffff;stop-opacity:1;"/>
      <stop id="stop3643" offset="1" style="stop-color:#ffffff;stop-opacity:0;"/>
    </linearGradient>
    <linearGradient id="linearGradient3673" inkscape:collect="always">
      <stop id="stop3675" offset="0" style="stop-color:#000000;stop-opacity:1;"/>
      <stop id="stop3677" offset="1" style="stop-color:#000000;stop-opacity:0;"/>
    </linearGradient>
    <radialGradient inkscape:collect="always" xlink:href="#linearGradient3673" id="radialGradient3540" gradientUnits="userSpaceOnUse" gradientTransform="matrix(1,0,0,0.36262332,0,256.11321)" cx="-17.172595" cy="401.82394" fx="-17.172595" fy="401.82394" r="229.80462"/>
    <radialGradient inkscape:collect="always" xlink:href="#linearGradient3639" id="radialGradient3542" gradientUnits="userSpaceOnUse" gradientTransform="matrix(0.84100005,0.01828779,-0.01372882,0.63134684,44.562947,287.28151)" cx="225.84628" cy="630.30914" fx="225.84628" fy="630.30914" r="266.9534"/>
    <radialGradient gradientUnits="userSpaceOnUse" gradientTransform="matrix(1,0,0,0.21989529,914.28571,730.90034)" r="272.85715" fy="6.647897" fx="-532.85711" cy="6.647897" cx="-532.85711" id="radialGradient4121" xlink:href="#linearGradient4115" inkscape:collect="always"/>
    <linearGradient gradientTransform="translate(-62.857143,25.714286)" y2="708.505" x2="558.13062" y1="601.36212" x1="379.58801" gradientUnits="userSpaceOnUse" id="linearGradient4035" xlink:href="#linearGradient3759" inkscape:collect="always"/>
    <linearGradient gradientTransform="translate(-62.857143,25.714286)" y2="518.75916" x2="529.26917" y1="335.07645" x1="388.15942" gradientUnits="userSpaceOnUse" id="linearGradient3999" xlink:href="#linearGradient3759" inkscape:collect="always"/>
    <linearGradient gradientTransform="translate(-62.857143,25.714286)" y2="276.77927" x2="600.69775" y1="105.21934" x1="398.15942" gradientUnits="userSpaceOnUse" id="linearGradient3955" xlink:href="#linearGradient3759" inkscape:collect="always"/>
    <inkscape:perspective id="perspective10-40" inkscape:persp3d-origin="372.04724 : 350.78739 : 1" inkscape:vp_z="744.09448 : 526.18109 : 1" inkscape:vp_y="0 : 1000 : 0" inkscape:vp_x="0 : 526.18109 : 1" sodipodi:type="inkscape:persp3d"/>
    <linearGradient id="linearGradient3759">
      <stop id="stop3761" offset="0" style="stop-color:#ffffff;stop-opacity:1;"/>
      <stop style="stop-color:#ffffff;stop-opacity:0.49803922;" offset="0.5" id="stop4037"/>
      <stop id="stop3763" offset="1" style="stop-color:#ffffff;stop-opacity:0;"/>
    </linearGradient>
    <linearGradient id="linearGradient4115" inkscape:collect="always">
      <stop id="stop4117" offset="0" style="stop-color:#2e3436;stop-opacity:1;"/>
      <stop id="stop4119" offset="1" style="stop-color:#2e3436;stop-opacity:0;"/>
    </linearGradient>
    <radialGradient inkscape:collect="always" xlink:href="#linearGradient4115" id="radialGradient3085" gradientUnits="userSpaceOnUse" gradientTransform="matrix(1,0,0,0.21989529,914.28571,730.90034)" cx="-532.85711" cy="6.647897" fx="-532.85711" fy="6.647897" r="272.85715"/>
    <linearGradient inkscape:collect="always" xlink:href="#linearGradient3759" id="linearGradient3087" gradientUnits="userSpaceOnUse" gradientTransform="translate(-62.857143,25.714286)" x1="398.15942" y1="105.21934" x2="600.69775" y2="276.77927"/>
    <linearGradient inkscape:collect="always" xlink:href="#linearGradient3759" id="linearGradient3089" gradientUnits="userSpaceOnUse" gradientTransform="translate(-62.857143,25.714286)" x1="388.15942" y1="335.07645" x2="529.26917" y2="518.75916"/>
    <linearGradient inkscape:collect="always" xlink:href="#linearGradient3759" id="linearGradient3091" gradientUnits="userSpaceOnUse" gradientTransform="translate(-62.857143,25.714286)" x1="379.58801" y1="601.36212" x2="558.13062" y2="708.505"/>
    <radialGradient inkscape:collect="always" xlink:href="#linearGradient4115" id="radialGradient3124" gradientUnits="userSpaceOnUse" gradientTransform="matrix(1,0,0,0.21989529,-1105.7143,710.90034)" cx="-532.85711" cy="6.647897" fx="-532.85711" fy="6.647897" r="272.85715"/>
    <radialGradient inkscape:collect="always" xlink:href="#linearGradient4115" id="radialGradient2611" gradientUnits="userSpaceOnUse" gradientTransform="matrix(0.6492147,0,0,0.1427593,537.36722,821.03171)" cx="-532.85711" cy="6.647897" fx="-532.85711" fy="6.647897" r="272.85715"/>
    <radialGradient inkscape:collect="always" xlink:href="#linearGradient3673" id="radialGradient2654" gradientUnits="userSpaceOnUse" gradientTransform="matrix(1,0,0,0.3626233,0,256.11321)" cx="-17.172595" cy="401.82394" fx="-17.172595" fy="401.82394" r="229.80462"/>
    <radialGradient inkscape:collect="always" xlink:href="#linearGradient3877" id="radialGradient2663" gradientUnits="userSpaceOnUse" gradientTransform="matrix(1,0,0,0.1189024,457.14286,801.12313)" cx="-91.428575" cy="-37.637817" fx="-91.428575" fy="-37.637817" r="468.57144"/>
    <linearGradient inkscape:collect="always" xlink:href="#linearGradient3759" id="linearGradient2703" gradientUnits="userSpaceOnUse" gradientTransform="matrix(0.442411,0,0,0.442411,-5.2674925,468.7286)" x1="379.58801" y1="601.36212" x2="558.13062" y2="708.505"/>
    <linearGradient inkscape:collect="always" xlink:href="#linearGradient3759" id="linearGradient2706" gradientUnits="userSpaceOnUse" gradientTransform="matrix(0.442411,0,0,0.442411,-5.2674925,468.7286)" x1="388.15942" y1="335.07645" x2="529.26917" y2="518.75916"/>
    <linearGradient inkscape:collect="always" xlink:href="#linearGradient3759" id="linearGradient2709" gradientUnits="userSpaceOnUse" gradientTransform="matrix(0.442411,0,0,0.442411,-5.2674925,468.7286)" x1="398.15942" y1="105.21934" x2="600.69775" y2="276.77927"/>
    <linearGradient inkscape:collect="always" xlink:href="#linearGradient3718" id="linearGradient2747" gradientUnits="userSpaceOnUse" gradientTransform="translate(0,-48)" x1="73.20138" y1="286.6479" x2="669.65576" y2="286.6479"/>
    <linearGradient inkscape:collect="always" xlink:href="#linearGradient3782" id="linearGradient2752" gradientUnits="userSpaceOnUse" gradientTransform="translate(0,-48)" x1="252.44557" y1="377.28876" x2="637.08942" y2="732.86249"/>
    <linearGradient inkscape:collect="always" xlink:href="#linearGradient3622" id="linearGradient2757" gradientUnits="userSpaceOnUse" gradientTransform="matrix(1,0,0,0.8420755,0,45.31159)" x1="360.5" y1="718.79077" x2="383.5" y2="718.79077"/>
    <linearGradient inkscape:collect="always" xlink:href="#linearGradient3622" id="linearGradient2761" gradientUnits="userSpaceOnUse" gradientTransform="matrix(-1,0,0,1,743.62054,-48)" x1="427.57562" y1="716.20416" x2="465.04242" y2="691.96051"/>
    <linearGradient inkscape:collect="always" xlink:href="#linearGradient3622" id="linearGradient2764" gradientUnits="userSpaceOnUse" gradientTransform="translate(0,-48)" x1="427.57562" y1="716.20416" x2="465.04242" y2="691.96051"/>
    <radialGradient inkscape:collect="always" xlink:href="#linearGradient3639" id="radialGradient2771" gradientUnits="userSpaceOnUse" gradientTransform="matrix(0.4773817,1.0380802e-2,-7.7929684e-3,0.358375,370.75755,492.26465)" cx="225.84628" cy="630.30914" fx="225.84628" fy="630.30914" r="266.9534"/>
  </defs>
  <sodipodi:namedview id="base" pagecolor="#ffffff" bordercolor="#666666" borderopacity="1.0" inkscape:pageopacity="0.0" inkscape:pageshadow="2" inkscape:zoom="0.24748737" inkscape:cx="255.36664" inkscape:cy="463.98523" inkscape:document-units="px" inkscape:current-layer="layer1" showgrid="false" inkscape:snap-to-guides="false" inkscape:snap-grids="false" inkscape:snap-nodes="false" inkscape:snap-global="false" showguides="true" inkscape:guide-bbox="true" inkscape:window-width="1280" inkscape:window-height="750" inkscape:window-x="-8" inkscape:window-y="-8" inkscape:window-maximized="1">
    <sodipodi:guide orientation="0,1" position="-260,911.42857" id="guide3591"/>
    <sodipodi:guide orientation="0,1" position="-165.71429,188.57143" id="guide3593"/>
    <sodipodi:guide orientation="1,0" position="734.28571,82.857143" id="guide3595"/>
    <sodipodi:guide orientation="1,0" position="11.428571,-57.142857" id="guide3597"/>
    <sodipodi:guide orientation="1,0" position="371.42857,380" id="guide3608"/>
    <sodipodi:guide orientation="0,1" position="-765.71429,462.85714" id="guide3618"/>
  </sodipodi:namedview>
  <metadata id="metadata7">
    <rdf:RDF>
      <cc:Work rdf:about="">
        <dc:format>image/svg+xml</dc:format>
        <dc:type rdf:resource="http://purl.org/dc/dcmitype/StillImage"/>
        <dc:title>audio visual slide</dc:title>
        <dc:date>April 2010</dc:date>
        <dc:creator>
          <cc:Agent>
            <dc:title>Franziska Sponsel</dc:title>
          </cc:Agent>
        </dc:creator>
        <dc:rights>
          <cc:Agent>
            <dc:title>Franziska Sponsel</dc:title>
          </cc:Agent>
        </dc:rights>
        <dc:publisher>
          <cc:Agent>
            <dc:title>RRZE</dc:title>
          </cc:Agent>
        </dc:publisher>
        <dc:subject>
          <rdf:Bag>
            <rdf:li>slide</rdf:li>
            <rdf:li>transperancy</rdf:li>
            <rdf:li>flip chart</rdf:li>
            <rdf:li>chart</rdf:li>
            <rdf:li>audio</rdf:li>
            <rdf:li>audiovisual</rdf:li>
          </rdf:Bag>
        </dc:subject>
        <dc:contributor>
          <cc:Agent>
            <dc:title>Beate Kaspar, Hendrik Eggers</dc:title>
          </cc:Agent>
        </dc:contributor>
        <cc:license rdf:resource="http://creativecommons.org/licenses/by-sa/3.0/"/>
      </cc:Work>
      <cc:License rdf:about="http://creativecommons.org/licenses/by-sa/3.0/">
        <cc:permits rdf:resource="http://creativecommons.org/ns#Reproduction"/>
        <cc:permits rdf:resource="http://creativecommons.org/ns#Distribution"/>
        <cc:requires rdf:resource="http://creativecommons.org/ns#Notice"/>
        <cc:requires rdf:resource="http://creativecommons.org/ns#Attribution"/>
        <cc:permits rdf:resource="http://creativecommons.org/ns#DerivativeWorks"/>
        <cc:requires rdf:resource="http://creativecommons.org/ns#ShareAlike"/>
      </cc:License>
    </rdf:RDF>
  </metadata>
  <g inkscape:label="Ebene 1" inkscape:groupmode="layer" id="layer1">
    <g id="g3545">
      <path transform="matrix(0.69357,0,0,0.8361463,124.92298,67.676603)" id="path3870" d="M 834.28573,796.6479 C 834.28573,827.41805 624.49915,852.36218 365.71428,852.36218 C 106.92942,852.36218 -102.85716,827.41805 -102.85716,796.6479 C -102.85716,765.87775 106.92942,740.93361 365.71428,740.93361 C 624.49915,740.93361 834.28573,765.87775 834.28573,796.6479 z" style="opacity:0.67383549;fill:url(#radialGradient2663);fill-opacity:1;fill-rule:evenodd;stroke:none;filter:url(#filter3897)"/>
      <path id="rect2816" d="M 11.428572,140.93361 L 734.28569,140.93361 L 734.28569,863.79073 L 11.428572,863.79073 L 11.428572,140.93361 L 11.428572,140.93361 z" style="fill:none;fill-opacity:1;fill-rule:evenodd;stroke:none;stroke-width:1px;stroke-linecap:butt;stroke-linejoin:miter;marker:none;stroke-miterlimit:4;stroke-dashoffset:0;stroke-opacity:1;visibility:visible;display:inline;overflow:visible;enable-background:accumulate"/>
      <path sodipodi:nodetypes="cc" style="fill:none;stroke:#000000;stroke-width:23;stroke-linecap:butt;stroke-linejoin:miter;stroke-miterlimit:4;stroke-dasharray:none;stroke-opacity:1" d="M 360.57143,556.64789 L 258.72645,717.13089" id="path3612"/>
      <path id="path3616" d="M 383.01216,556.64789 L 484.85714,717.13089" style="fill:none;stroke:#000000;stroke-width:23;stroke-linecap:butt;stroke-linejoin:miter;stroke-miterlimit:4;stroke-dasharray:none;stroke-opacity:1" sodipodi:nodetypes="cc"/>
      <path sodipodi:nodetypes="cc" style="fill:none;stroke:url(#linearGradient2764);stroke-width:23;stroke-linecap:butt;stroke-linejoin:miter;stroke-miterlimit:4;stroke-dasharray:none;stroke-opacity:1" d="M 383.01216,556.64789 L 484.85714,717.13089" id="path3644"/>
      <path id="path3654" d="M 360.60838,556.64789 L 258.7634,717.13089" style="fill:none;stroke:url(#linearGradient2761);stroke-width:23;stroke-linecap:butt;stroke-linejoin:miter;stroke-miterlimit:4;stroke-dasharray:none;stroke-opacity:1" sodipodi:nodetypes="cc"/>
      <path style="fill:none;stroke:#000000;stroke-width:21.10587502;stroke-linecap:butt;stroke-linejoin:miter;stroke-miterlimit:4;stroke-dasharray:none;stroke-opacity:1" d="M 372,552.54605 L 372,748.62936" id="path3658"/>
      <path id="path3660" d="M 372,552.54605 L 372,748.62936" style="fill:none;stroke:url(#linearGradient2757);stroke-width:21.10587502;stroke-linecap:butt;stroke-linejoin:miter;stroke-miterlimit:4;stroke-dasharray:none;stroke-opacity:1"/>
      <path id="rect3603" d="M 621.59375,233.78125 C 453.73803,234.72756 285.81567,233.17496 118,234.65625 C 113.55622,237.64407 116.15637,244.48388 115.16262,249.06249 C 115.65507,352.87983 114.31828,456.82429 115.75,560.5625 C 121.24238,567.00005 130.88492,562.74434 138.125,563.68801 C 301.11452,563.62961 464.18871,564.33038 627.125,563.28125 C 634.11323,557.61636 629.38738,547.4484 630.34702,539.875 C 630.34602,438.75224 631.40212,337.44596 629.75,236.4375 C 627.84869,234.11862 624.42352,233.70601 621.59375,233.78125 L 621.59375,233.78125 z" style="fill:#babdb6;fill-opacity:1;fill-rule:evenodd;stroke:#888a85;stroke-width:27;stroke-linecap:butt;stroke-linejoin:round;marker:none;stroke-miterlimit:4;stroke-dasharray:none;stroke-dashoffset:0;stroke-opacity:1;visibility:visible;display:inline;overflow:visible;enable-background:accumulate"/>
      <path id="path3662" d="M 125.15625,246.0625 C 125.15625,348.63542 125.15625,451.20833 125.15625,553.78125 C 290.29167,553.78125 455.42708,553.78125 620.5625,553.78125 C 620.5625,450.54167 620.5625,347.30208 620.5625,244.0625 C 455.42708,244.0625 290.29167,244.0625 125.15625,244.0625 L 125.15625,245.0625 L 125.15625,246.0625 L 125.15625,246.0625 z" style="opacity:0.74910398;fill:none;stroke:none;stroke-width:14;marker:none;visibility:visible;display:inline;overflow:visible;enable-background:accumulate"/>
      <path id="path3780" d="M 605.75,241.6875 C 445.00145,242.67088 284.24814,241.38127 123.5,242.46875 C 123.13688,346.93694 122.84401,451.40763 123.5625,555.875 C 289.89539,555.35528 456.23169,556.49263 622.5625,555.21875 C 621.80211,450.69944 623.81332,346.16435 621.53125,241.65625 C 616.27086,241.66935 611.01015,241.62535 605.75,241.68745 L 605.75,241.6875 z" style="opacity:0.75627238;fill:url(#linearGradient2752);fill-opacity:1;fill-rule:evenodd;stroke:none;stroke-width:20;marker:none;visibility:visible;display:inline;overflow:visible;enable-background:accumulate"/>
      <path id="path3696" d="M 131.37715,274.63703 C 130.20683,294.20254 131.21199,314.13618 130.87658,333.84297 C 130.87658,404.64268 130.87658,475.44238 130.87658,546.24209 C 134.48692,550.30091 142.53607,547.0306 147.89624,548.08329 C 302.87737,548.08329 457.85851,548.08329 612.83963,548.08329 C 617.25362,544.76346 613.69714,537.36199 614.84195,532.43313 C 614.84195,446.90386 614.84195,361.37459 614.84195,275.84532 C 611.23161,271.7865 603.18246,275.05682 597.82229,274.00412 C 442.84116,274.00412 287.86002,274.00412 132.87889,274.00412 L 131.96878,274.38769 L 131.37715,274.63703 L 131.37715,274.63703 z" style="fill:none;stroke:#ffffff;stroke-width:13.44045448;stroke-linecap:butt;stroke-linejoin:round;marker:none;stroke-miterlimit:4;stroke-dasharray:none;stroke-dashoffset:0;stroke-opacity:1;visibility:visible;display:inline;overflow:visible;enable-background:accumulate"/>
      <path style="fill:#888a85;fill-opacity:1;fill-rule:evenodd;stroke:#555753;stroke-width:13;stroke-linecap:butt;stroke-linejoin:round;marker:none;stroke-miterlimit:4;stroke-dasharray:none;stroke-dashoffset:0;stroke-opacity:1;visibility:visible;display:inline;overflow:visible;enable-background:accumulate" d="M 79.70138,215.49213 L 663.15576,215.49213 L 663.15576,261.80367 L 79.70138,261.80367 L 79.70138,215.49213 L 79.70138,215.49213 z" id="path3606"/>
      <path id="path3716" d="M 89.6875,227.5 C 89.6875,235.60417 89.6875,243.70833 89.6875,251.8125 C 277.51042,251.8125 465.33333,251.8125 653.15625,251.8125 C 653.15625,243.04167 653.15625,234.27083 653.15625,225.5 C 465.33333,225.5 277.51042,225.5 89.6875,225.5 L 89.6875,226.5 L 89.6875,227.5 z" style="opacity:0.69360268;fill:url(#linearGradient2747);fill-opacity:1;fill-rule:evenodd;stroke:#ffffff;stroke-width:7;stroke-linecap:butt;stroke-linejoin:miter;marker:none;stroke-miterlimit:4;stroke-dasharray:none;stroke-dashoffset:0;stroke-opacity:1;visibility:visible;display:inline;overflow:visible;enable-background:accumulate"/>
      <path transform="matrix(0.7844289,-1.960833e-2,1.960833e-2,0.7844289,135.9589,100.42494)" d="M 257.58891,420.0067 L 87.209212,415.33991 L 176.44062,270.12016 L 257.58891,420.0067 z" inkscape:randomized="0" inkscape:rounded="0" inkscape:flatsided="true" sodipodi:arg2="1.59818" sodipodi:arg1="0.55098249" sodipodi:r2="49.202827" sodipodi:r1="98.405655" sodipodi:cy="368.48892" sodipodi:cx="173.74625" sodipodi:sides="3" id="path3757" style="fill:#3465a4;fill-opacity:1;fill-rule:nonzero;stroke:#204a87;stroke-width:7;stroke-linecap:round;stroke-linejoin:miter;stroke-miterlimit:4;stroke-dasharray:none;stroke-dashoffset:0;stroke-opacity:1" sodipodi:type="star"/>
      <path id="rect3759" d="M 421.23359,350.79348 L 525.27932,350.79348 L 525.27932,454.83921 L 421.23359,454.83921 L 421.23359,350.79348 L 421.23359,350.79348 z" style="fill:#edd400;fill-opacity:1;fill-rule:evenodd;stroke:#c4a000;stroke-width:7;stroke-linecap:butt;stroke-linejoin:miter;marker:none;stroke-miterlimit:4;stroke-dasharray:none;stroke-dashoffset:0;stroke-opacity:1;visibility:visible;display:inline;overflow:visible;enable-background:accumulate"/>
      <path id="path3754" d="M 424.78402,451.8236 C 424.78402,482.7866 399.68355,507.88707 368.72055,507.88707 C 337.75756,507.88707 312.65709,482.7866 312.65709,451.8236 C 312.65709,420.86061 337.75756,395.76014 368.72055,395.76014 C 399.68355,395.76014 424.78402,420.86061 424.78402,451.8236 z" style="fill:#cc0000;fill-rule:evenodd;stroke:#a40000;stroke-width:7;stroke-linecap:butt;stroke-linejoin:miter;stroke-miterlimit:4;stroke-dasharray:none;stroke-opacity:1"/>
      <path transform="matrix(0.8218417,0,0,0.5293008,535.79469,593.1516)" id="path3670" d="M 212.13203,401.82394 C 212.13203,447.57108 109.46885,484.65646 -17.172594,484.65646 C -143.81404,484.65646 -246.47722,447.57108 -246.47722,401.82394 C -246.47722,356.07681 -143.81404,318.99143 -17.172594,318.99143 C 109.46885,318.99143 212.13203,356.07681 212.13203,401.82394 z" style="opacity:0.44444442;fill:url(#radialGradient2654);fill-opacity:1;fill-rule:evenodd;stroke:none;filter:url(#filter3689)"/>
      <path id="path3601" d="M 576.57592,389.71757 L 576.57592,677.68625 C 557.70177,659.34512 528.71235,647.60156 496.20225,647.60156 C 439.32503,647.60156 393.22959,683.54917 393.22959,727.88653 C 393.22959,772.22391 439.32503,808.15377 496.20225,808.15377 C 553.07949,808.15377 599.19266,772.22391 599.19266,727.88653 C 599.19266,724.66579 598.93843,721.48249 598.46537,718.3609 L 598.46537,444.40572 C 603.86945,466.63471 646.93333,458.89605 663.58383,483.23555 C 683.42091,512.23316 664.51948,609.54859 661.54389,621.49032 C 662.93743,618.0635 667.43845,607.49419 681.42888,575.67147 C 708.0058,515.21945 698.86074,443.05393 654.67905,432.14834 C 612.69264,421.78461 600.88736,397.76308 598.46537,391.50917 L 598.46537,389.71757 L 576.57592,389.71757 L 576.57592,389.71757 z M 661.54389,621.49032 C 660.49158,624.07802 661.15364,622.71428 661.15364,622.71428 C 661.18736,622.76486 661.33624,622.32365 661.54389,621.49032 z" style="fill:#555753;fill-rule:evenodd;stroke:#2e3436;stroke-width:13;stroke-miterlimit:4;stroke-dasharray:none;stroke-opacity:1"/>
      <path id="path3619" d="M 593.51883,395.25201 C 589.77394,395.63083 586.00797,395.28971 582.25481,395.37618 C 582.33562,489.3518 582.06579,583.356 582.39672,677.31374 C 584.07689,682.02038 577.14654,686.8605 573.68706,682.86593 C 547.42173,656.94545 507.53253,648.66818 471.98644,655.59644 C 444.4282,660.94176 417.06122,676.88807 404.51388,702.73318 C 395.90672,721.05569 397.32003,743.76807 408.71793,760.47237 C 424.51013,784.95922 453.39972,798.37307 481.73008,801.6437 C 513.88039,805.47356 548.40792,796.6348 572.28571,774.37945 C 586.5128,760.91433 595.5665,741.32659 593.23723,721.52057 C 592.27209,693.26822 593.11162,664.99094 592.79502,636.72779 C 592.76374,571.78709 592.79672,506.7965 592.84475,441.88684 C 593.69464,437.28443 601.32986,435.86688 602.92028,440.68061 C 604.38296,447.19913 610.05805,451.92173 616.29092,453.60789 C 632.15025,459.83567 650.9942,461.60114 663.47991,474.33076 C 674.31814,485.04116 676.72136,501.13236 677.72451,515.69607 C 678.9548,536.09372 677.46093,556.59612 674.86811,576.80675 C 685.13311,553.20758 691.6586,527.64421 690.52799,501.70211 C 689.84678,482.96862 685.31707,463.4825 672.65078,449.08871 C 665.59482,441.543 655.79696,437.44339 645.83595,435.62252 C 624.41143,429.15622 603.60546,415.89629 593.80265,395.21654 L 593.51883,395.25201 L 593.51883,395.25201 z" style="opacity:0.4;fill:none;stroke:#ffffff;stroke-width:3.97344995;stroke-miterlimit:4;stroke-dasharray:none;stroke-opacity:1"/>
      <path id="path3637" d="M 594.1929,394.02805 C 589.93847,394.58713 585.45693,394.09001 581.11954,394.25865 C 581.16682,488.59281 581.02492,582.97262 581.19049,677.27826 C 582.81203,681.02166 577.45215,685.35419 574.4853,682.04995 C 549.73514,657.55016 512.76087,648.66981 478.82695,653.30707 C 451.18046,657.05122 423.60224,670.62644 407.90196,694.34281 C 395.94505,712.30433 394.27991,736.83562 404.7045,755.81421 C 416.81538,778.88793 440.65765,793.50613 465.32186,799.76341 C 499.44498,808.52047 537.94907,802.56491 566.20136,781.10238 C 583.1851,768.169 595.90387,747.37803 594.56541,725.26122 C 593.34205,702.96378 594.22126,680.61894 593.94964,658.29795 C 593.87281,586.75512 593.94192,515.18883 593.9623,443.6607 C 593.02705,439.30651 600.0915,436.63465 601.83824,440.9999 C 603.35759,446.94207 607.88018,452.02674 613.84728,453.84266 C 629.72691,460.65366 648.69708,461.87958 661.70607,474.18885 C 672.45443,483.96406 675.18142,499.10042 676.40619,512.96343 C 678.15424,536.84787 675.98844,560.91792 672.70401,584.5053 C 682.66138,562.65127 690.49896,539.53102 691.48223,515.36199 C 692.77739,493.24462 689.61367,469.66045 676.24856,451.52182 C 669.28218,442.61571 658.88459,436.80566 647.73214,435.00796 C 625.84227,428.69764 604.2329,415.33511 594.51219,394.04579 C 594.42623,394.01871 594.3252,393.97913 594.1929,394.02808 L 594.1929,394.02805 z" style="opacity:0.6939057;fill:url(#radialGradient2771);fill-opacity:1;fill-rule:evenodd;stroke:none"/>
      <path id="path4104" d="M 368.5714,821.98076 C 368.5714,843.49384 289.26184,860.93364 191.42856,860.93364 C 93.595216,860.93364 14.285655,843.49384 14.285655,821.98076 C 14.285655,800.46768 93.595216,783.02788 191.42856,783.02788 C 289.26184,783.02788 368.5714,800.46768 368.5714,821.98076 z" style="opacity:0.47594987;fill:url(#radialGradient2611);fill-opacity:1;fill-rule:evenodd;stroke:none"/>
      <path id="rect3600" d="M 80.089018,486.87247 L 292.37752,486.87247 L 292.37752,810.39574 L 80.089018,810.39574 L 80.089018,486.87247 L 80.089018,486.87247 z" style="fill:#ffffff;fill-opacity:1;fill-rule:evenodd;stroke:#000000;stroke-width:11.50826645;stroke-linecap:butt;stroke-linejoin:round;marker:none;stroke-miterlimit:4;stroke-dasharray:none;stroke-dashoffset:0;stroke-opacity:1;visibility:visible;display:inline;overflow:visible;enable-background:accumulate"/>
      <path style="fill:none;stroke:#000000;stroke-width:50.87381744;stroke-linecap:butt;stroke-linejoin:miter;stroke-miterlimit:4;stroke-dasharray:none;stroke-opacity:1" d="M 272.59155,486.99055 L 272.59155,811.86905" id="path3674"/>
      <path style="fill:#ffffff;fill-opacity:1;fill-rule:evenodd;stroke:none;stroke-width:1px;marker:none;visibility:visible;display:inline;overflow:visible;enable-background:accumulate" d="M 256.36824,567.73653 L 288.07167,567.73653 L 288.07167,598.67549 L 256.36824,598.67549 L 256.36824,567.73653 L 256.36824,567.73653 z" id="path3676"/>
      <path id="path3678" d="M 256.69052,519.90295 L 288.39395,519.90295 L 288.39395,550.84191 L 256.69052,550.84191 L 256.69052,519.90295 L 256.69052,519.90295 z" style="fill:#ffffff;fill-opacity:1;fill-rule:evenodd;stroke:none;stroke-width:1px;marker:none;visibility:visible;display:inline;overflow:visible;enable-background:accumulate"/>
      <path style="fill:#ffffff;fill-opacity:1;fill-rule:evenodd;stroke:none;stroke-width:1px;marker:none;visibility:visible;display:inline;overflow:visible;enable-background:accumulate" d="M 256.42776,480.47563 L 288.13119,480.47563 L 288.13119,502.56638 L 256.42776,502.56638 L 256.42776,480.47563 L 256.42776,480.47563 z" id="path3680"/>
      <path id="path3682" d="M 256.73982,615.57293 L 288.44325,615.57293 L 288.44325,646.51189 L 256.73982,646.51189 L 256.73982,615.57293 z" style="fill:#ffffff;fill-opacity:1;fill-rule:evenodd;stroke:none;stroke-width:1px;marker:none;visibility:visible;display:inline;overflow:visible;enable-background:accumulate"/>
      <path style="fill:#ffffff;fill-opacity:1;fill-rule:evenodd;stroke:none;stroke-width:1px;marker:none;visibility:visible;display:inline;overflow:visible;enable-background:accumulate" d="M 256.63099,663.38808 L 288.33442,663.38808 L 288.33442,694.32704 L 256.63099,694.32704 L 256.63099,663.38808 z" id="path3684"/>
      <path id="path3686" d="M 256.17367,711.16638 L 287.87711,711.16638 L 287.87711,742.10535 L 256.17367,742.10535 L 256.17367,711.16638 z" style="fill:#ffffff;fill-opacity:1;fill-rule:evenodd;stroke:none;stroke-width:1px;marker:none;visibility:visible;display:inline;overflow:visible;enable-background:accumulate"/>
      <path style="fill:#ffffff;fill-opacity:1;fill-rule:evenodd;stroke:none;stroke-width:1px;marker:none;visibility:visible;display:inline;overflow:visible;enable-background:accumulate" d="M 256.73982,758.24914 L 288.44325,758.24914 L 288.44325,789.18811 L 256.73982,789.18811 L 256.73982,758.24914 z" id="path3688"/>
      <path id="path3690" d="M 256.21144,806.32352 L 287.91487,806.32352 L 287.91487,817.03799 L 256.21144,817.03799 L 256.21144,806.32352 z" style="fill:#ffffff;fill-opacity:1;fill-rule:evenodd;stroke:none;stroke-width:1px;marker:none;visibility:visible;display:inline;overflow:visible;enable-background:accumulate"/>
      <rect y="491.84537" x="127.15414" height="102.48425" width="118.28465" id="rect3694" style="fill:#3465a4;fill-opacity:1;fill-rule:evenodd;stroke:#000000;stroke-width:6.08139467;stroke-linecap:butt;stroke-linejoin:miter;marker:none;stroke-miterlimit:4;stroke-dasharray:none;stroke-dashoffset:0;stroke-opacity:1;visibility:visible;display:inline;overflow:visible;enable-background:accumulate"/>
      <rect style="fill:#3465a4;fill-opacity:1;fill-rule:evenodd;stroke:#000000;stroke-width:6.06359959;stroke-linecap:butt;stroke-linejoin:miter;marker:none;stroke-miterlimit:4;stroke-dasharray:none;stroke-dashoffset:0;stroke-opacity:1;visibility:visible;display:inline;overflow:visible;enable-background:accumulate" id="rect3696" width="118.30244" height="101.87002" x="127.14525" y="599.53192"/>
      <rect y="706.58002" x="127.76188" height="101.9008" width="117.06919" id="rect3698" style="fill:#3465a4;fill-opacity:1;fill-rule:evenodd;stroke:#000000;stroke-width:6.03282309;stroke-linecap:butt;stroke-linejoin:miter;marker:none;stroke-miterlimit:4;stroke-dasharray:none;stroke-dashoffset:0;stroke-opacity:1;visibility:visible;display:inline;overflow:visible;enable-background:accumulate"/>
      <path id="path3735" d="M 100.05126,485.81162 L 100.05126,811.78394" style="fill:none;stroke:#000000;stroke-width:50.95938492;stroke-linecap:butt;stroke-linejoin:miter;stroke-miterlimit:4;stroke-dasharray:none;stroke-opacity:1"/>
      <path id="path3737" d="M 83.827952,567.73653 L 115.53138,567.73653 L 115.53138,598.67549 L 83.827952,598.67549 L 83.827952,567.73653 L 83.827952,567.73653 z" style="fill:#ffffff;fill-opacity:1;fill-rule:evenodd;stroke:none;stroke-width:1px;marker:none;visibility:visible;display:inline;overflow:visible;enable-background:accumulate"/>
      <path style="fill:#ffffff;fill-opacity:1;fill-rule:evenodd;stroke:none;stroke-width:1px;marker:none;visibility:visible;display:inline;overflow:visible;enable-background:accumulate" d="M 84.150227,519.90295 L 115.85366,519.90295 L 115.85366,550.84191 L 84.150227,550.84191 L 84.150227,519.90295 L 84.150227,519.90295 z" id="path3739"/>
      <path id="path3741" d="M 83.887474,480.15963 L 115.5909,480.15963 L 115.5909,502.56638 L 83.887474,502.56638 L 83.887474,480.15963 L 83.887474,480.15963 z" style="fill:#ffffff;fill-opacity:1;fill-rule:evenodd;stroke:none;stroke-width:1px;marker:none;visibility:visible;display:inline;overflow:visible;enable-background:accumulate"/>
      <path style="fill:#ffffff;fill-opacity:1;fill-rule:evenodd;stroke:none;stroke-width:1px;marker:none;visibility:visible;display:inline;overflow:visible;enable-background:accumulate" d="M 84.199533,615.57293 L 115.90296,615.57293 L 115.90296,646.51189 L 84.199533,646.51189 L 84.199533,615.57293 L 84.199533,615.57293 z" id="path3743"/>
      <path id="path3745" d="M 84.090696,663.38808 L 115.79413,663.38808 L 115.79413,694.32704 L 84.090696,694.32704 L 84.090696,663.38808 L 84.090696,663.38808 z" style="fill:#ffffff;fill-opacity:1;fill-rule:evenodd;stroke:none;stroke-width:1px;marker:none;visibility:visible;display:inline;overflow:visible;enable-background:accumulate"/>
      <path style="fill:#ffffff;fill-opacity:1;fill-rule:evenodd;stroke:none;stroke-width:1px;marker:none;visibility:visible;display:inline;overflow:visible;enable-background:accumulate" d="M 83.633384,711.16638 L 115.33682,711.16638 L 115.33682,742.10535 L 83.633384,742.10535 L 83.633384,711.16638 L 83.633384,711.16638 z" id="path3747"/>
      <path id="path3749" d="M 84.199533,758.24914 L 115.90296,758.24914 L 115.90296,789.18811 L 84.199533,789.18811 L 84.199533,758.24914 L 84.199533,758.24914 z" style="fill:#ffffff;fill-opacity:1;fill-rule:evenodd;stroke:none;stroke-width:1px;marker:none;visibility:visible;display:inline;overflow:visible;enable-background:accumulate"/>
      <path style="fill:#ffffff;fill-opacity:1;fill-rule:evenodd;stroke:none;stroke-width:1px;marker:none;visibility:visible;display:inline;overflow:visible;enable-background:accumulate" d="M 83.671149,806.32352 L 115.37458,806.32352 L 115.37458,816.72198 L 83.671149,816.72198 L 83.671149,806.32352 z" id="path3751"/>
      <path id="rect3753" d="M 133.34541,498.92315 C 133.34541,528.66147 133.34541,558.39978 133.34541,588.1381 C 168.64612,588.1381 203.94683,588.1381 239.24754,588.1381 C 239.24754,558.10484 239.24754,528.07159 239.24754,498.03833 C 203.94683,498.03833 168.64612,498.03833 133.34541,498.03833 L 133.34541,498.48074 L 133.34541,498.92315 L 133.34541,498.92315 z" style="opacity:0.67383554;fill:url(#linearGradient2709);fill-opacity:1;fill-rule:evenodd;stroke:#ffffff;stroke-width:6.08139467;stroke-linecap:butt;stroke-linejoin:miter;marker:none;stroke-miterlimit:3.79999995;stroke-dasharray:none;stroke-dashoffset:0;stroke-opacity:1;visibility:visible;display:inline;overflow:visible;enable-background:accumulate"/>
      <path id="rect3755" d="M 133.34541,606.60876 C 133.34541,636.13969 133.34541,665.67063 133.34541,695.20156 C 168.64612,695.20156 203.94683,695.20156 239.24754,695.20156 C 239.24754,665.37568 239.24754,635.54981 239.24754,605.72394 C 203.94683,605.72394 168.64612,605.72394 133.34541,605.72394 L 133.34541,606.16635 L 133.34541,606.60876 L 133.34541,606.60876 z" style="opacity:0.67383554;fill:url(#linearGradient2706);fill-opacity:1;fill-rule:evenodd;stroke:#ffffff;stroke-width:6.06359959;stroke-linecap:butt;stroke-linejoin:miter;marker:none;stroke-miterlimit:3.79999995;stroke-dasharray:none;stroke-dashoffset:0;stroke-opacity:1;visibility:visible;display:inline;overflow:visible;enable-background:accumulate"/>
      <path id="rect3757" d="M 133.95372,713.65839 C 133.95372,743.20315 133.95372,772.74791 133.95372,802.29267 C 168.84889,802.29267 203.74406,802.29267 238.63922,802.29267 C 238.63922,772.45297 238.63922,742.61327 238.63922,712.77357 C 203.74406,712.77357 168.84889,712.77357 133.95372,712.77357 L 133.95372,713.21598 L 133.95372,713.65839 L 133.95372,713.65839 z" style="opacity:0.67383554;fill:url(#linearGradient2703);fill-opacity:1;fill-rule:evenodd;stroke:#ffffff;stroke-width:6.03282309;stroke-linecap:butt;stroke-linejoin:miter;marker:none;stroke-miterlimit:3.79999995;stroke-dasharray:none;stroke-dashoffset:0;stroke-opacity:1;visibility:visible;display:inline;overflow:visible;enable-background:accumulate"/>
      <path style="opacity:0.67383554;fill:none;stroke:#ffffff;stroke-width:6.08139467;stroke-linecap:butt;stroke-linejoin:miter;marker:none;stroke-miterlimit:3.79999995;stroke-dasharray:none;stroke-dashoffset:0;stroke-opacity:1;visibility:visible;display:inline;overflow:visible;enable-background:accumulate" d="M 133.34541,498.92315 C 133.34541,528.66147 133.34541,558.39978 133.34541,588.1381 C 168.64612,588.1381 203.94683,588.1381 239.24754,588.1381 C 239.24754,558.10484 239.24754,528.07159 239.24754,498.03833 C 203.94683,498.03833 168.64612,498.03833 133.34541,498.03833 L 133.34541,498.48074 L 133.34541,498.92315 L 133.34541,498.92315 z" id="path4047"/>
      <path style="opacity:0.67383554;fill:none;stroke:#ffffff;stroke-width:6.06359959;stroke-linecap:butt;stroke-linejoin:miter;marker:none;stroke-miterlimit:3.79999995;stroke-dasharray:none;stroke-dashoffset:0;stroke-opacity:1;visibility:visible;display:inline;overflow:visible;enable-background:accumulate" d="M 133.34541,606.60876 C 133.34541,636.13969 133.34541,665.67063 133.34541,695.20156 C 168.64612,695.20156 203.94683,695.20156 239.24754,695.20156 C 239.24754,665.37568 239.24754,635.54981 239.24754,605.72394 C 203.94683,605.72394 168.64612,605.72394 133.34541,605.72394 L 133.34541,606.16635 L 133.34541,606.60876 L 133.34541,606.60876 z" id="path4049"/>
      <path style="opacity:0.67383554;fill:none;stroke:#ffffff;stroke-width:6.03282309;stroke-linecap:butt;stroke-linejoin:miter;marker:none;stroke-miterlimit:3.79999995;stroke-dasharray:none;stroke-dashoffset:0;stroke-opacity:1;visibility:visible;display:inline;overflow:visible;enable-background:accumulate" d="M 133.95372,713.65839 C 133.95372,743.20315 133.95372,772.74791 133.95372,802.29267 C 168.84889,802.29267 203.74406,802.29267 238.63922,802.29267 C 238.63922,772.45297 238.63922,742.61327 238.63922,712.77357 C 203.74406,712.77357 168.84889,712.77357 133.95372,712.77357 L 133.95372,713.21598 L 133.95372,713.65839 L 133.95372,713.65839 z" id="path4051"/>
    </g>
  </g>
</svg>
