<?xml version="1.0" encoding="UTF-8" standalone="no"?>
<!-- Created with Inkscape (http://www.inkscape.org/) -->
<svg xmlns:dc="http://purl.org/dc/elements/1.1/" xmlns:cc="http://creativecommons.org/ns#" xmlns:rdf="http://www.w3.org/1999/02/22-rdf-syntax-ns#" xmlns:svg="http://www.w3.org/2000/svg" xmlns="http://www.w3.org/2000/svg" xmlns:sodipodi="http://sodipodi.sourceforge.net/DTD/sodipodi-0.dtd" xmlns:inkscape="http://www.inkscape.org/namespaces/inkscape" width="210mm" height="297mm" id="svg9212" version="1.1" inkscape:version="0.48.0 r9654">
  <defs id="defs3"/>
  <sodipodi:namedview inkscape:document-units="mm" id="base" pagecolor="#ffffff" bordercolor="#666666" borderopacity="1.0" inkscape:pageopacity="0.0" inkscape:pageshadow="2" inkscape:zoom="0.35" inkscape:cx="292.85714" inkscape:cy="520" inkscape:current-layer="layer1" showgrid="false" showguides="true" inkscape:guide-bbox="true" inkscape:window-width="1239" inkscape:window-height="698" inkscape:window-x="-4" inkscape:window-y="0" inkscape:window-maximized="0">
    <sodipodi:guide orientation="0,1" position="-88.571429,902.85714" id="guide9988"/>
    <sodipodi:guide orientation="0,1" position="-74.285714,217.14286" id="guide9990"/>
    <sodipodi:guide orientation="0.70710678,0.70710678" position="-474.28571,-100" id="guide9992"/>
    <sodipodi:guide orientation="1,0" position="714.28571,-88.571429" id="guide9994"/>
    <sodipodi:guide orientation="1,0" position="28.571429,37.142857" id="guide9996"/>
  </sodipodi:namedview>
  <metadata id="metadata4">
    <rdf:RDF>
      <cc:Work rdf:about="">
        <dc:format>image/svg+xml</dc:format>
        <dc:type rdf:resource="http://purl.org/dc/dcmitype/StillImage"/>
        <dc:title>fh</dc:title>
        <dc:date>Nov 2011</dc:date>
        <dc:creator>
          <cc:Agent>
            <dc:title>Franziska Sponsel</dc:title>
          </cc:Agent>
        </dc:creator>
        <dc:rights>
          <cc:Agent>
            <dc:title>Franziska Sponsel</dc:title>
          </cc:Agent>
        </dc:rights>
        <dc:publisher>
          <cc:Agent>
            <dc:title>RRZE</dc:title>
          </cc:Agent>
        </dc:publisher>
        <dc:subject>
          <rdf:Bag>
            <rdf:li>fh</rdf:li>
            <rdf:li>Fachhochschule</rdf:li>
            <rdf:li>university</rdf:li>
          </rdf:Bag>
        </dc:subject>
        <dc:contributor>
          <cc:Agent>
            <dc:title>Beate Kaspar</dc:title>
          </cc:Agent>
        </dc:contributor>
        <cc:license rdf:resource="http://creativecommons.org/licenses/by-sa/3.0/"/>
      </cc:Work>
      <cc:License rdf:about="http://creativecommons.org/licenses/by-sa/3.0/">
        <cc:permits rdf:resource="http://creativecommons.org/ns#Reproduction"/>
        <cc:permits rdf:resource="http://creativecommons.org/ns#Distribution"/>
        <cc:requires rdf:resource="http://creativecommons.org/ns#Notice"/>
        <cc:requires rdf:resource="http://creativecommons.org/ns#Attribution"/>
        <cc:permits rdf:resource="http://creativecommons.org/ns#DerivativeWorks"/>
        <cc:requires rdf:resource="http://creativecommons.org/ns#ShareAlike"/>
      </cc:License>
    </rdf:RDF>
  </metadata>
  <g inkscape:label="Layer 1" inkscape:groupmode="layer" id="layer1">
    <g id="g32853">
      <rect y="149.50504" x="28.571428" height="685.71429" width="685.71429" id="rect9218" style="opacity:0.18404912;fill:none;stroke:none"/>
      <path id="rect9998" d="m 94.285713,232.36218 534.285707,0 0,534.28571 -534.285707,0 z" style="fill:#729fcf;stroke:#204a87;stroke-width:33;stroke-linejoin:round;stroke-miterlimit:4;stroke-dasharray:none" inkscape:connector-curvature="0"/>
      <g id="flowRoot10001" style="font-size:144px;font-style:normal;font-weight:normal;line-height:125%;letter-spacing:0px;word-spacing:0px;fill:#ffffff;fill-opacity:1;stroke:#ffffff;stroke-width:4.7921498;stroke-miterlimit:4;stroke-opacity:1;font-family:Sans;stroke-dasharray:none" transform="matrix(3.5474684,0,0,3.5474684,-448.29924,-942.32783)">
        <path style="stroke-width:4.7921498;stroke-miterlimit:4;stroke-dasharray:none" id="path3001" d="m 213.4375,357.90688 0,10.75781 -12.375,0 c -4.64066,10e-5 -7.87503,0.9376 -9.70313,2.8125 -1.78127,1.8751 -2.6719,5.25009 -2.67187,10.125 l 0,6.96094 21.30469,0 0,10.05469 -21.30469,0 0,68.69531 -13.00781,0 0,-68.69531 -12.375,0 0,-10.05469 12.375,0 0,-5.48438 c -2e-5,-8.76553 2.03904,-15.14052 6.11718,-19.125 4.0781,-4.03114 10.54685,-6.04676 19.40625,-6.04687 l 12.23438,0" inkscape:connector-curvature="0"/>
        <path style="stroke-width:4.7921498;stroke-miterlimit:4;stroke-dasharray:none" id="path3003" d="m 289.65625,419.78188 0,47.53125 -12.9375,0 0,-47.10938 c -7e-5,-7.45307 -1.45319,-13.03119 -4.35938,-16.73437 -2.9063,-3.70306 -7.26567,-5.55462 -13.07812,-5.55469 -6.98442,7e-5 -12.49222,2.22663 -16.52344,6.67969 -4.03128,4.45318 -6.0469,10.52349 -6.04687,18.21094 l 0,44.50781 -13.00782,0 0,-109.40625 13.00782,0 0,42.89062 c 3.09372,-4.7343 6.72653,-8.27336 10.89843,-10.61718 4.21871,-2.34367 9.07027,-3.51555 14.55469,-3.51563 9.04682,8e-5 15.89056,2.81258 20.53125,8.4375 4.64055,5.57819 6.96086,13.80475 6.96094,24.67969" inkscape:connector-curvature="0"/>
      </g>
    </g>
  </g>
</svg>
