<?xml version="1.0" encoding="UTF-8" standalone="no"?>
<!-- Created with Inkscape (http://www.inkscape.org/) -->
<svg xmlns:dc="http://purl.org/dc/elements/1.1/" xmlns:cc="http://creativecommons.org/ns#" xmlns:rdf="http://www.w3.org/1999/02/22-rdf-syntax-ns#" xmlns:svg="http://www.w3.org/2000/svg" xmlns="http://www.w3.org/2000/svg" xmlns:xlink="http://www.w3.org/1999/xlink" xmlns:sodipodi="http://sodipodi.sourceforge.net/DTD/sodipodi-0.dtd" xmlns:inkscape="http://www.inkscape.org/namespaces/inkscape" width="210mm" height="297mm" id="svg2" version="1.1" inkscape:version="0.46" sodipodi:version="0.32" inkscape:output_extension="org.inkscape.output.svg.inkscape">
  <title id="title3701">note</title>
  <defs id="defs4">
    <linearGradient inkscape:collect="always" id="linearGradient3673">
      <stop style="stop-color:#000000;stop-opacity:1;" offset="0" id="stop3675"/>
      <stop style="stop-color:#000000;stop-opacity:0;" offset="1" id="stop3677"/>
    </linearGradient>
    <linearGradient inkscape:collect="always" id="linearGradient3639">
      <stop style="stop-color:#ffffff;stop-opacity:1;" offset="0" id="stop3641"/>
      <stop style="stop-color:#ffffff;stop-opacity:0;" offset="1" id="stop3643"/>
    </linearGradient>
    <inkscape:perspective sodipodi:type="inkscape:persp3d" inkscape:vp_x="0 : 526.18109 : 1" inkscape:vp_y="0 : 1000 : 0" inkscape:vp_z="744.09448 : 526.18109 : 1" inkscape:persp3d-origin="372.04724 : 350.78739 : 1" id="perspective10"/>
    <radialGradient inkscape:collect="always" xlink:href="#linearGradient3639" id="radialGradient3645" cx="225.84628" cy="630.30914" fx="225.84628" fy="630.30914" r="266.9534" gradientTransform="matrix(0.84100005,0.01828779,-0.01372882,0.63134684,44.562947,287.28151)" gradientUnits="userSpaceOnUse"/>
    <radialGradient inkscape:collect="always" xlink:href="#linearGradient3639" id="radialGradient3649" gradientUnits="userSpaceOnUse" gradientTransform="matrix(0.84100005,0.01828779,-0.01372882,0.63134684,44.562947,287.28151)" cx="225.84628" cy="630.30914" fx="225.84628" fy="630.30914" r="266.9534"/>
    <radialGradient inkscape:collect="always" xlink:href="#linearGradient3639" id="radialGradient3653" gradientUnits="userSpaceOnUse" gradientTransform="matrix(0.84100005,0.01828779,-0.01372882,0.63134684,44.562947,287.28151)" cx="225.84628" cy="630.30914" fx="225.84628" fy="630.30914" r="266.9534"/>
    <radialGradient inkscape:collect="always" xlink:href="#linearGradient3639" id="radialGradient3657" gradientUnits="userSpaceOnUse" gradientTransform="matrix(0.84100005,0.01828779,-0.01372882,0.63134684,44.562947,287.28151)" cx="225.84628" cy="630.30914" fx="225.84628" fy="630.30914" r="266.9534"/>
    <radialGradient inkscape:collect="always" xlink:href="#linearGradient3639" id="radialGradient3661" gradientUnits="userSpaceOnUse" gradientTransform="matrix(0.84100005,0.01828779,-0.01372882,0.63134684,44.562947,287.28151)" cx="225.84628" cy="630.30914" fx="225.84628" fy="630.30914" r="266.9534"/>
    <radialGradient inkscape:collect="always" xlink:href="#linearGradient3673" id="radialGradient3679" cx="-17.172595" cy="401.82394" fx="-17.172595" fy="401.82394" r="229.80462" gradientTransform="matrix(1,0,0,0.3626233,0,256.11321)" gradientUnits="userSpaceOnUse"/>
    <filter inkscape:collect="always" id="filter3689" x="-0.037987912" width="1.0759758" y="-0.10516165" height="1.2103233">
      <feGaussianBlur inkscape:collect="always" stdDeviation="7.2590033" id="feGaussianBlur3691"/>
    </filter>
    <radialGradient inkscape:collect="always" xlink:href="#linearGradient3639" id="radialGradient2415" gradientUnits="userSpaceOnUse" gradientTransform="matrix(0.647458,1.4079161e-2,-1.0569361e-2,0.4860529,151.89037,257.35748)" cx="225.84628" cy="630.30914" fx="225.84628" fy="630.30914" r="266.9534"/>
  </defs>
  <sodipodi:namedview id="base" pagecolor="#ffffff" bordercolor="#666666" borderopacity="1.0" inkscape:pageopacity="0.0" inkscape:pageshadow="2" inkscape:zoom="0.49497475" inkscape:cx="-218.3096" inkscape:cy="573.82313" inkscape:document-units="px" inkscape:current-layer="layer1" showgrid="false" showguides="true" inkscape:guide-bbox="true" inkscape:snap-to-guides="false" inkscape:snap-grids="false" inkscape:snap-nodes="false" inkscape:snap-global="false" inkscape:window-width="1280" inkscape:window-height="750" inkscape:window-x="-8" inkscape:window-y="-8" inkscape:window-maximized="1">
    <sodipodi:guide orientation="0,1" position="-448.57143,962.85714" id="guide3592"/>
    <sodipodi:guide orientation="0,1" position="-565.71429,245.71429" id="guide3594"/>
    <sodipodi:guide orientation="1,0" position="17.142857,-62.857143" id="guide3596"/>
    <sodipodi:guide orientation="1,0" position="734.28571,37.142857" id="guide3598"/>
  </sodipodi:namedview>
  <metadata id="metadata7">
    <rdf:RDF>
      <cc:Work rdf:about="">
        <dc:format>image/svg+xml</dc:format>
        <dc:type rdf:resource="http://purl.org/dc/dcmitype/StillImage"/>
        <dc:title>note</dc:title>
        <dc:date>April 2010</dc:date>
        <dc:creator>
          <cc:Agent>
            <dc:title>Franziska Sponsel</dc:title>
          </cc:Agent>
        </dc:creator>
        <dc:rights>
          <cc:Agent>
            <dc:title>Franziska Sponsel</dc:title>
          </cc:Agent>
        </dc:rights>
        <dc:publisher>
          <cc:Agent>
            <dc:title>RRZE</dc:title>
          </cc:Agent>
        </dc:publisher>
        <dc:subject>
          <rdf:Bag>
            <rdf:li>note</rdf:li>
            <rdf:li>tune</rdf:li>
            <rdf:li>music</rdf:li>
            <rdf:li>audio</rdf:li>
          </rdf:Bag>
        </dc:subject>
        <dc:contributor>
          <cc:Agent>
            <dc:title>Beate Kaspar, Hendrik Eggers</dc:title>
          </cc:Agent>
        </dc:contributor>
        <cc:license rdf:resource="http://creativecommons.org/licenses/by-sa/3.0/"/>
      </cc:Work>
      <cc:License rdf:about="http://creativecommons.org/licenses/by-sa/3.0/">
        <cc:permits rdf:resource="http://creativecommons.org/ns#Reproduction"/>
        <cc:permits rdf:resource="http://creativecommons.org/ns#Distribution"/>
        <cc:requires rdf:resource="http://creativecommons.org/ns#Notice"/>
        <cc:requires rdf:resource="http://creativecommons.org/ns#Attribution"/>
        <cc:permits rdf:resource="http://creativecommons.org/ns#DerivativeWorks"/>
        <cc:requires rdf:resource="http://creativecommons.org/ns#ShareAlike"/>
      </cc:License>
    </rdf:RDF>
  </metadata>
  <g inkscape:label="Ebene 1" inkscape:groupmode="layer" id="layer1">
    <g id="g3189">
      <path id="rect2816" d="M 17.142857,89.505043 L 734.28574,89.505043 L 734.28574,806.64793 L 17.142857,806.64793 L 17.142857,89.505043 L 17.142857,89.505043 z" style="fill:none;stroke:none;stroke-width:1px;marker:none;visibility:visible;display:inline;overflow:visible;enable-background:accumulate"/>
      <path transform="matrix(1.1146383,0,0,0.7178742,375.72508,394.18731)" id="path3670" d="M 212.13203,401.82394 C 212.13203,447.57108 109.46885,484.65646 -17.172594,484.65646 C -143.81404,484.65646 -246.47722,447.57108 -246.47722,401.82394 C -246.47722,356.07681 -143.81404,318.99143 -17.172594,318.99143 C 109.46885,318.99143 212.13203,356.07681 212.13203,401.82394 z" style="opacity:0.44444442;fill:url(#radialGradient3679);fill-opacity:1;fill-rule:evenodd;stroke:none;filter:url(#filter3689)"/>
      <path id="path3601" d="M 431.03544,118.27605 L 431.03544,508.83905 C 405.43702,483.96354 366.11957,468.03611 322.02713,468.03611 C 244.88631,468.03611 182.3685,516.79074 182.3685,576.92413 C 182.3685,637.05754 244.88631,685.7881 322.02713,685.7881 C 399.16796,685.7881 461.70982,637.05754 461.70982,576.92413 C 461.70982,572.55593 461.36503,568.23853 460.72343,564.00481 L 460.72343,192.44789 C 468.05281,222.59639 526.45902,212.10068 549.04158,245.11159 C 575.94599,284.44014 550.31056,416.42605 546.27487,432.62224 C 548.16488,427.97456 554.26947,413.63973 573.24426,370.47957 C 609.28972,288.49036 596.88656,190.6145 536.96429,175.82358 C 480.01943,161.76759 464.00829,129.18792 460.72343,120.70594 L 460.72343,118.27605 L 431.03544,118.27605 L 431.03544,118.27605 z M 546.27487,432.62224 C 544.84766,436.13186 545.74558,434.28227 545.74558,434.28227 C 545.79131,434.35087 545.99324,433.75247 546.27487,432.62224 z" style="fill:#555753;fill-rule:evenodd;stroke:#2e3436;stroke-width:23;stroke-miterlimit:4;stroke-dasharray:none;stroke-opacity:1"/>
      <path id="path3619" d="M 454.01459,125.78225 C 448.93551,126.29603 443.82784,125.83337 438.73755,125.95066 C 438.84715,253.40687 438.48119,380.90185 438.93001,508.33382 C 441.20878,514.71729 431.80935,521.2818 427.11737,515.86408 C 391.49452,480.70894 337.39404,469.48273 289.18397,478.87932 C 251.80759,486.12901 214.69061,507.75649 197.67304,542.80942 C 185.99941,567.65967 187.91623,598.46377 203.37486,621.11929 C 224.79332,654.33004 263.97539,672.52284 302.39896,676.95869 C 346.00344,682.15301 392.83206,670.16527 425.21676,639.98103 C 444.51253,621.71871 456.79177,595.15247 453.63266,568.29017 C 452.32367,529.97239 453.4623,491.62079 453.03291,453.28836 C 452.99049,365.2113 453.03522,277.06657 453.10035,189.03161 C 454.25304,182.78951 464.60845,180.86693 466.76548,187.39564 C 468.74927,196.23651 476.44622,202.64163 484.89966,204.92852 C 506.40919,213.37506 531.96666,215.7695 548.90064,233.0343 C 563.60019,247.56049 566.85959,269.38448 568.22014,289.13679 C 569.88875,316.80148 567.86265,344.60825 564.34609,372.0193 C 578.26819,340.01248 587.11852,305.34168 585.5851,270.15721 C 584.6612,244.74956 578.51769,218.32113 561.33879,198.79929 C 551.76902,188.56527 538.48048,183.0051 524.97067,180.53551 C 495.91327,171.76547 467.69477,153.78145 454.39952,125.73413 L 454.01459,125.78225 L 454.01459,125.78225 z" style="opacity:0.4;fill:none;stroke:#ffffff;stroke-width:5.3890667;stroke-miterlimit:4;stroke-dasharray:none;stroke-opacity:1"/>
      <path id="path3637" d="M 454.9288,124.12222 C 449.15866,124.88049 443.08048,124.20626 437.19781,124.43498 C 437.26194,252.37748 437.06948,380.38189 437.29405,508.28571 C 439.49329,513.36275 432.22384,519.23883 428.2,514.7574 C 394.63213,481.52909 344.48507,469.48494 298.46155,475.77432 C 260.96546,480.85239 223.56198,499.26404 202.26818,531.42982 C 186.0514,555.79047 183.79302,589.06151 197.93157,614.80158 C 214.35717,646.09574 246.6937,665.92196 280.14501,674.40851 C 326.42513,686.28545 378.64704,678.2081 416.96475,649.09914 C 439.99927,631.55799 457.24934,603.35985 455.43403,573.3635 C 453.77483,543.12217 454.96727,512.81656 454.59888,482.54329 C 454.49468,385.51198 454.58841,288.44884 454.61605,191.43744 C 453.3476,185.53199 462.9289,181.90823 465.29795,187.82869 C 467.35859,195.88787 473.49245,202.78405 481.58544,205.24693 C 503.12248,214.48447 528.85114,216.14715 546.49483,232.84184 C 561.07249,246.09965 564.77103,266.62862 566.43214,285.43059 C 568.80297,317.82431 565.86556,350.46978 561.41099,382.46062 C 574.91586,352.82067 585.54574,321.46339 586.87931,288.68368 C 588.6359,258.68658 584.34504,226.7001 566.21836,202.09924 C 556.77007,190.02016 542.66813,182.14017 527.54242,179.702 C 497.85386,171.14351 468.54575,153.02033 455.36185,124.14628 C 455.24527,124.10956 455.10825,124.05588 454.9288,124.12226 L 454.9288,124.12222 z" style="opacity:0.6939057;fill:url(#radialGradient2415);fill-opacity:1;fill-rule:evenodd;stroke:none"/>
    </g>
  </g>
</svg>
