<?xml version="1.0" encoding="UTF-8" standalone="no"?>
<!-- Created with Inkscape (http://www.inkscape.org/) -->
<svg xmlns:dc="http://purl.org/dc/elements/1.1/" xmlns:cc="http://creativecommons.org/ns#" xmlns:rdf="http://www.w3.org/1999/02/22-rdf-syntax-ns#" xmlns:svg="http://www.w3.org/2000/svg" xmlns="http://www.w3.org/2000/svg" xmlns:xlink="http://www.w3.org/1999/xlink" xmlns:sodipodi="http://sodipodi.sourceforge.net/DTD/sodipodi-0.dtd" xmlns:inkscape="http://www.inkscape.org/namespaces/inkscape" width="210mm" height="297mm" id="svg2" version="1.1" inkscape:version="0.48.0 r9654">
  <title id="title4032">slide audio</title>
  <defs id="defs4">
    <linearGradient id="linearGradient3782">
      <stop style="stop-color:#ffffff;stop-opacity:1;" offset="0" id="stop3784"/>
      <stop style="stop-color:#ffffff;stop-opacity:0;" offset="1" id="stop3786"/>
    </linearGradient>
    <linearGradient inkscape:collect="always" id="linearGradient3718">
      <stop style="stop-color:#ffffff;stop-opacity:1;" offset="0" id="stop3720"/>
      <stop style="stop-color:#ffffff;stop-opacity:0;" offset="1" id="stop3722"/>
    </linearGradient>
    <linearGradient id="linearGradient3632">
      <stop style="stop-color:#555753;stop-opacity:1;" offset="0" id="stop3634"/>
      <stop style="stop-color:#555753;stop-opacity:0;" offset="1" id="stop3636"/>
    </linearGradient>
    <linearGradient id="linearGradient3622">
      <stop style="stop-color:#babdb6;stop-opacity:0.16384181;" offset="0" id="stop3624"/>
      <stop id="stop3630" offset="0.5" style="stop-color:#babdb6;stop-opacity:1;"/>
      <stop style="stop-color:#babdb6;stop-opacity:0.33898309;" offset="1" id="stop3626"/>
    </linearGradient>
    <inkscape:perspective sodipodi:type="inkscape:persp3d" inkscape:vp_x="0 : 526.18109 : 1" inkscape:vp_y="0 : 1000 : 0" inkscape:vp_z="744.09448 : 526.18109 : 1" inkscape:persp3d-origin="372.04724 : 350.78739 : 1" id="perspective10"/>
    <linearGradient inkscape:collect="always" xlink:href="#linearGradient3622" id="linearGradient3954" gradientUnits="userSpaceOnUse" x1="360.5" y1="718.79077" x2="383.5" y2="718.79077"/>
    <linearGradient inkscape:collect="always" xlink:href="#linearGradient3622" id="linearGradient3956" gradientUnits="userSpaceOnUse" x1="427.57562" y1="716.20416" x2="465.04242" y2="691.96051"/>
    <linearGradient inkscape:collect="always" xlink:href="#linearGradient3622" id="linearGradient3958" gradientUnits="userSpaceOnUse" gradientTransform="matrix(-1,0,0,1,743.62054,0)" x1="427.57562" y1="716.20416" x2="465.04242" y2="691.96051"/>
    <linearGradient inkscape:collect="always" xlink:href="#linearGradient3622" id="linearGradient3960" gradientUnits="userSpaceOnUse" x1="360.5" y1="718.79077" x2="383.5" y2="718.79077"/>
    <linearGradient inkscape:collect="always" xlink:href="#linearGradient3782" id="linearGradient3962" gradientUnits="userSpaceOnUse" x1="252.44557" y1="377.28876" x2="637.08942" y2="732.86249"/>
    <linearGradient inkscape:collect="always" xlink:href="#linearGradient3718" id="linearGradient3964" gradientUnits="userSpaceOnUse" x1="73.20138" y1="286.6479" x2="669.65576" y2="286.6479"/>
    <linearGradient inkscape:collect="always" xlink:href="#linearGradient3622" id="linearGradient3990" gradientUnits="userSpaceOnUse" x1="360.5" y1="718.79077" x2="383.5" y2="718.79077" gradientTransform="translate(0,-48)"/>
    <filter height="1.2103233" y="-0.10516165" width="1.0759758" x="-0.037987912" id="filter3689" inkscape:collect="always">
      <feGaussianBlur id="feGaussianBlur3691" stdDeviation="7.2590033" inkscape:collect="always"/>
    </filter>
    <radialGradient gradientUnits="userSpaceOnUse" gradientTransform="matrix(1,0,0,0.36262332,0,256.11321)" r="229.80462" fy="401.82394" fx="-17.172595" cy="401.82394" cx="-17.172595" id="radialGradient3679" xlink:href="#linearGradient3673" inkscape:collect="always"/>
    <radialGradient r="266.9534" fy="630.30914" fx="225.84628" cy="630.30914" cx="225.84628" gradientTransform="matrix(0.84100005,0.01828779,-0.01372882,0.63134684,44.562947,287.28151)" gradientUnits="userSpaceOnUse" id="radialGradient3668" xlink:href="#linearGradient3639" inkscape:collect="always"/>
    <radialGradient r="266.9534" fy="630.30914" fx="225.84628" cy="630.30914" cx="225.84628" gradientTransform="matrix(0.84100005,0.01828779,-0.01372882,0.63134684,44.562947,287.28151)" gradientUnits="userSpaceOnUse" id="radialGradient3661" xlink:href="#linearGradient3639" inkscape:collect="always"/>
    <radialGradient r="266.9534" fy="630.30914" fx="225.84628" cy="630.30914" cx="225.84628" gradientTransform="matrix(0.84100005,0.01828779,-0.01372882,0.63134684,44.562947,287.28151)" gradientUnits="userSpaceOnUse" id="radialGradient3657" xlink:href="#linearGradient3639" inkscape:collect="always"/>
    <radialGradient r="266.9534" fy="630.30914" fx="225.84628" cy="630.30914" cx="225.84628" gradientTransform="matrix(0.84100005,0.01828779,-0.01372882,0.63134684,44.562947,287.28151)" gradientUnits="userSpaceOnUse" id="radialGradient3653" xlink:href="#linearGradient3639" inkscape:collect="always"/>
    <radialGradient r="266.9534" fy="630.30914" fx="225.84628" cy="630.30914" cx="225.84628" gradientTransform="matrix(0.84100005,0.01828779,-0.01372882,0.63134684,44.562947,287.28151)" gradientUnits="userSpaceOnUse" id="radialGradient3649" xlink:href="#linearGradient3639" inkscape:collect="always"/>
    <radialGradient gradientUnits="userSpaceOnUse" gradientTransform="matrix(0.84100005,0.01828779,-0.01372882,0.63134684,44.562947,287.28151)" r="266.9534" fy="630.30914" fx="225.84628" cy="630.30914" cx="225.84628" id="radialGradient3645" xlink:href="#linearGradient3639" inkscape:collect="always"/>
    <inkscape:perspective id="perspective10-4" inkscape:persp3d-origin="372.04724 : 350.78739 : 1" inkscape:vp_z="744.09448 : 526.18109 : 1" inkscape:vp_y="0 : 1000 : 0" inkscape:vp_x="0 : 526.18109 : 1" sodipodi:type="inkscape:persp3d"/>
    <linearGradient id="linearGradient3639" inkscape:collect="always">
      <stop id="stop3641" offset="0" style="stop-color:#ffffff;stop-opacity:1;"/>
      <stop id="stop3643" offset="1" style="stop-color:#ffffff;stop-opacity:0;"/>
    </linearGradient>
    <linearGradient id="linearGradient3673" inkscape:collect="always">
      <stop id="stop3675" offset="0" style="stop-color:#000000;stop-opacity:1;"/>
      <stop id="stop3677" offset="1" style="stop-color:#000000;stop-opacity:0;"/>
    </linearGradient>
    <radialGradient inkscape:collect="always" xlink:href="#linearGradient3673" id="radialGradient3540" gradientUnits="userSpaceOnUse" gradientTransform="matrix(1,0,0,0.36262332,0,256.11321)" cx="-17.172595" cy="401.82394" fx="-17.172595" fy="401.82394" r="229.80462"/>
    <radialGradient inkscape:collect="always" xlink:href="#linearGradient3639" id="radialGradient3542" gradientUnits="userSpaceOnUse" gradientTransform="matrix(0.84100005,0.01828779,-0.01372882,0.63134684,44.562947,287.28151)" cx="225.84628" cy="630.30914" fx="225.84628" fy="630.30914" r="266.9534"/>
    <linearGradient y2="691.96051" x2="465.04242" y1="716.20416" x1="427.57562" gradientTransform="translate(0,-48)" gradientUnits="userSpaceOnUse" id="linearGradient2485" xlink:href="#linearGradient3622-6" inkscape:collect="always"/>
    <linearGradient y2="691.96051" x2="465.04242" y1="716.20416" x1="427.57562" gradientTransform="matrix(-1,0,0,1,743.62054,-48)" gradientUnits="userSpaceOnUse" id="linearGradient2482" xlink:href="#linearGradient3622-6" inkscape:collect="always"/>
    <linearGradient y2="718.79077" x2="383.5" y1="718.79077" x1="360.5" gradientTransform="matrix(1,0,0,0.8420755,0,45.31159)" gradientUnits="userSpaceOnUse" id="linearGradient2478" xlink:href="#linearGradient3622-6" inkscape:collect="always"/>
    <linearGradient y2="732.86249" x2="637.08942" y1="377.28876" x1="252.44557" gradientTransform="translate(0,-48)" gradientUnits="userSpaceOnUse" id="linearGradient2473" xlink:href="#linearGradient3782-5" inkscape:collect="always"/>
    <linearGradient y2="286.6479" x2="669.65576" y1="286.6479" x1="73.20138" gradientTransform="translate(0,-48)" gradientUnits="userSpaceOnUse" id="linearGradient2468" xlink:href="#linearGradient3718-5" inkscape:collect="always"/>
    <linearGradient gradientTransform="translate(0,-48)" y2="718.79077" x2="383.5" y1="718.79077" x1="360.5" gradientUnits="userSpaceOnUse" id="linearGradient3990-2" xlink:href="#linearGradient3622-6" inkscape:collect="always"/>
    <linearGradient y2="286.6479" x2="669.65576" y1="286.6479" x1="73.20138" gradientUnits="userSpaceOnUse" id="linearGradient3964-9" xlink:href="#linearGradient3718-5" inkscape:collect="always"/>
    <linearGradient y2="732.86249" x2="637.08942" y1="377.28876" x1="252.44557" gradientUnits="userSpaceOnUse" id="linearGradient3962-9" xlink:href="#linearGradient3782-5" inkscape:collect="always"/>
    <linearGradient y2="718.79077" x2="383.5" y1="718.79077" x1="360.5" gradientUnits="userSpaceOnUse" id="linearGradient3960-8" xlink:href="#linearGradient3622-6" inkscape:collect="always"/>
    <linearGradient y2="691.96051" x2="465.04242" y1="716.20416" x1="427.57562" gradientTransform="matrix(-1,0,0,1,743.62054,0)" gradientUnits="userSpaceOnUse" id="linearGradient3958-5" xlink:href="#linearGradient3622-6" inkscape:collect="always"/>
    <linearGradient y2="691.96051" x2="465.04242" y1="716.20416" x1="427.57562" gradientUnits="userSpaceOnUse" id="linearGradient3956-2" xlink:href="#linearGradient3622-6" inkscape:collect="always"/>
    <linearGradient y2="718.79077" x2="383.5" y1="718.79077" x1="360.5" gradientUnits="userSpaceOnUse" id="linearGradient3954-1" xlink:href="#linearGradient3622-6" inkscape:collect="always"/>
    <filter height="1.8778473" y="-0.43892363" width="1.1043782" x="-0.052189089" id="filter3897-3" inkscape:collect="always">
      <feGaussianBlur id="feGaussianBlur3899-4" stdDeviation="20.378597" inkscape:collect="always"/>
    </filter>
    <radialGradient gradientUnits="userSpaceOnUse" gradientTransform="matrix(1,0,0,0.1189024,457.14286,801.12313)" r="468.57144" fy="-37.637817" fx="-91.428575" cy="-37.637817" cx="-91.428575" id="radialGradient3883-1" xlink:href="#linearGradient3877-8" inkscape:collect="always"/>
    <inkscape:perspective id="perspective10-40" inkscape:persp3d-origin="372.04724 : 350.78739 : 1" inkscape:vp_z="744.09448 : 526.18109 : 1" inkscape:vp_y="0 : 1000 : 0" inkscape:vp_x="0 : 526.18109 : 1" sodipodi:type="inkscape:persp3d"/>
    <linearGradient id="linearGradient3622-6">
      <stop id="stop3624-4" offset="0" style="stop-color:#babdb6;stop-opacity:0.16384181;"/>
      <stop style="stop-color:#babdb6;stop-opacity:1;" offset="0.5" id="stop3630-8"/>
      <stop id="stop3626-3" offset="1" style="stop-color:#babdb6;stop-opacity:0.33898309;"/>
    </linearGradient>
    <linearGradient id="linearGradient3632-0">
      <stop id="stop3634-1" offset="0" style="stop-color:#555753;stop-opacity:1;"/>
      <stop id="stop3636-7" offset="1" style="stop-color:#555753;stop-opacity:0;"/>
    </linearGradient>
    <linearGradient id="linearGradient3718-5" inkscape:collect="always">
      <stop id="stop3720-3" offset="0" style="stop-color:#ffffff;stop-opacity:1;"/>
      <stop id="stop3722-6" offset="1" style="stop-color:#ffffff;stop-opacity:0;"/>
    </linearGradient>
    <linearGradient id="linearGradient3782-5">
      <stop id="stop3784-5" offset="0" style="stop-color:#ffffff;stop-opacity:1;"/>
      <stop id="stop3786-9" offset="1" style="stop-color:#ffffff;stop-opacity:0;"/>
    </linearGradient>
    <linearGradient id="linearGradient3877-8" inkscape:collect="always">
      <stop id="stop3879-2" offset="0" style="stop-color:#000000;stop-opacity:1;"/>
      <stop id="stop3881-7" offset="1" style="stop-color:#000000;stop-opacity:0;"/>
    </linearGradient>
    <radialGradient inkscape:collect="always" xlink:href="#linearGradient3673" id="radialGradient39315" gradientUnits="userSpaceOnUse" gradientTransform="matrix(1,0,0,0.36262332,0,256.11321)" cx="-17.172595" cy="401.82394" fx="-17.172595" fy="401.82394" r="229.80462"/>
    <radialGradient inkscape:collect="always" xlink:href="#linearGradient3639" id="radialGradient39317" gradientUnits="userSpaceOnUse" gradientTransform="matrix(0.84100005,0.01828779,-0.01372882,0.63134684,44.562947,287.28151)" cx="225.84628" cy="630.30914" fx="225.84628" fy="630.30914" r="266.9534"/>
    <radialGradient r="266.9534" fy="630.30914" fx="225.84628" cy="630.30914" cx="225.84628" gradientTransform="matrix(0.647458,0.01407916,-0.01056936,0.4860529,151.89037,257.35748)" gradientUnits="userSpaceOnUse" id="radialGradient2415" xlink:href="#linearGradient3639-9" inkscape:collect="always"/>
    <filter height="1.2103233" y="-0.10516165" width="1.0759758" x="-0.037987912" id="filter3689-6" inkscape:collect="always">
      <feGaussianBlur id="feGaussianBlur3691-5" stdDeviation="7.2590033" inkscape:collect="always"/>
    </filter>
    <radialGradient gradientUnits="userSpaceOnUse" gradientTransform="matrix(1,0,0,0.3626233,0,256.11321)" r="229.80462" fy="401.82394" fx="-17.172595" cy="401.82394" cx="-17.172595" id="radialGradient3679-6" xlink:href="#linearGradient3673-5" inkscape:collect="always"/>
    <radialGradient r="266.9534" fy="630.30914" fx="225.84628" cy="630.30914" cx="225.84628" gradientTransform="matrix(0.84100005,0.01828779,-0.01372882,0.63134684,44.562947,287.28151)" gradientUnits="userSpaceOnUse" id="radialGradient3661-2" xlink:href="#linearGradient3639-9" inkscape:collect="always"/>
    <radialGradient r="266.9534" fy="630.30914" fx="225.84628" cy="630.30914" cx="225.84628" gradientTransform="matrix(0.84100005,0.01828779,-0.01372882,0.63134684,44.562947,287.28151)" gradientUnits="userSpaceOnUse" id="radialGradient3657-2" xlink:href="#linearGradient3639-9" inkscape:collect="always"/>
    <radialGradient r="266.9534" fy="630.30914" fx="225.84628" cy="630.30914" cx="225.84628" gradientTransform="matrix(0.84100005,0.01828779,-0.01372882,0.63134684,44.562947,287.28151)" gradientUnits="userSpaceOnUse" id="radialGradient3653-5" xlink:href="#linearGradient3639-9" inkscape:collect="always"/>
    <radialGradient r="266.9534" fy="630.30914" fx="225.84628" cy="630.30914" cx="225.84628" gradientTransform="matrix(0.84100005,0.01828779,-0.01372882,0.63134684,44.562947,287.28151)" gradientUnits="userSpaceOnUse" id="radialGradient3649-4" xlink:href="#linearGradient3639-9" inkscape:collect="always"/>
    <radialGradient gradientUnits="userSpaceOnUse" gradientTransform="matrix(0.84100005,0.01828779,-0.01372882,0.63134684,44.562947,287.28151)" r="266.9534" fy="630.30914" fx="225.84628" cy="630.30914" cx="225.84628" id="radialGradient3645-5" xlink:href="#linearGradient3639-9" inkscape:collect="always"/>
    <inkscape:perspective id="perspective10-3" inkscape:persp3d-origin="372.04724 : 350.78739 : 1" inkscape:vp_z="744.09448 : 526.18109 : 1" inkscape:vp_y="0 : 1000 : 0" inkscape:vp_x="0 : 526.18109 : 1" sodipodi:type="inkscape:persp3d"/>
    <linearGradient id="linearGradient3639-9" inkscape:collect="always">
      <stop id="stop3641-5" offset="0" style="stop-color:#ffffff;stop-opacity:1;"/>
      <stop id="stop3643-1" offset="1" style="stop-color:#ffffff;stop-opacity:0;"/>
    </linearGradient>
    <linearGradient id="linearGradient3673-5" inkscape:collect="always">
      <stop id="stop3675-3" offset="0" style="stop-color:#000000;stop-opacity:1;"/>
      <stop id="stop3677-1" offset="1" style="stop-color:#000000;stop-opacity:0;"/>
    </linearGradient>
    <radialGradient inkscape:collect="always" xlink:href="#linearGradient3673-5" id="radialGradient39482" gradientUnits="userSpaceOnUse" gradientTransform="matrix(1,0,0,0.3626233,0,256.11321)" cx="-17.172595" cy="401.82394" fx="-17.172595" fy="401.82394" r="229.80462"/>
    <radialGradient inkscape:collect="always" xlink:href="#linearGradient3639-9" id="radialGradient39484" gradientUnits="userSpaceOnUse" gradientTransform="matrix(0.647458,0.01407916,-0.01056936,0.4860529,151.89037,257.35748)" cx="225.84628" cy="630.30914" fx="225.84628" fy="630.30914" r="266.9534"/>
    <radialGradient inkscape:collect="always" xlink:href="#linearGradient3639-9" id="radialGradient39487" gradientUnits="userSpaceOnUse" gradientTransform="matrix(0.40756322,0.00886258,-0.00665322,0.3059616,-1199.4645,473.73661)" cx="225.84628" cy="630.30914" fx="225.84628" fy="630.30914" r="266.9534"/>
    <radialGradient inkscape:collect="always" xlink:href="#linearGradient3673-5" id="radialGradient39499" gradientUnits="userSpaceOnUse" gradientTransform="matrix(1,0,0,0.3626233,0,256.11321)" cx="-17.172595" cy="401.82394" fx="-17.172595" fy="401.82394" r="229.80462"/>
    <radialGradient inkscape:collect="always" xlink:href="#linearGradient3639-9" id="radialGradient39501" gradientUnits="userSpaceOnUse" gradientTransform="matrix(0.40756322,0.00886258,-0.00665322,0.3059616,-1199.4645,473.73661)" cx="225.84628" cy="630.30914" fx="225.84628" fy="630.30914" r="266.9534"/>
  </defs>
  <sodipodi:namedview id="base" pagecolor="#ffffff" bordercolor="#666666" borderopacity="1.0" inkscape:pageopacity="0.0" inkscape:pageshadow="2" inkscape:zoom="0.35" inkscape:cx="-501.32201" inkscape:cy="331.48128" inkscape:document-units="px" inkscape:current-layer="layer1" showgrid="false" inkscape:snap-to-guides="false" inkscape:snap-grids="false" inkscape:snap-nodes="false" inkscape:snap-global="false" showguides="true" inkscape:guide-bbox="true" inkscape:window-width="1280" inkscape:window-height="712" inkscape:window-x="0" inkscape:window-y="0" inkscape:window-maximized="0">
    <sodipodi:guide orientation="0,1" position="-260,911.42857" id="guide3591"/>
    <sodipodi:guide orientation="0,1" position="-165.71429,188.57143" id="guide3593"/>
    <sodipodi:guide orientation="1,0" position="734.28571,82.857143" id="guide3595"/>
    <sodipodi:guide orientation="1,0" position="11.428571,-57.142857" id="guide3597"/>
    <sodipodi:guide orientation="1,0" position="371.42857,380" id="guide3608"/>
    <sodipodi:guide orientation="0,1" position="662.85714,457.14286" id="guide3618"/>
  </sodipodi:namedview>
  <metadata id="metadata7">
    <rdf:RDF>
      <cc:Work rdf:about="">
        <dc:format>image/svg+xml</dc:format>
        <dc:type rdf:resource="http://purl.org/dc/dcmitype/StillImage"/>
        <dc:title>slide audio</dc:title>
        <dc:date>April 2010</dc:date>
        <dc:creator>
          <cc:Agent>
            <dc:title>Franziska Sponsel</dc:title>
          </cc:Agent>
        </dc:creator>
        <dc:rights>
          <cc:Agent>
            <dc:title>Franziska Sponsel</dc:title>
          </cc:Agent>
        </dc:rights>
        <dc:publisher>
          <cc:Agent>
            <dc:title>RRZE</dc:title>
          </cc:Agent>
        </dc:publisher>
        <dc:subject>
          <rdf:Bag>
            <rdf:li>slide</rdf:li>
            <rdf:li>transperancy</rdf:li>
            <rdf:li>flip chart</rdf:li>
            <rdf:li>chart</rdf:li>
            <rdf:li>audio</rdf:li>
            <rdf:li>audiovisual</rdf:li>
          </rdf:Bag>
        </dc:subject>
        <dc:contributor>
          <cc:Agent>
            <dc:title>Beate Kaspar, Hendrik Eggers</dc:title>
          </cc:Agent>
        </dc:contributor>
        <cc:license rdf:resource="http://creativecommons.org/licenses/by-sa/3.0/"/>
      </cc:Work>
      <cc:License rdf:about="http://creativecommons.org/licenses/by-sa/3.0/">
        <cc:permits rdf:resource="http://creativecommons.org/ns#Reproduction"/>
        <cc:permits rdf:resource="http://creativecommons.org/ns#Distribution"/>
        <cc:requires rdf:resource="http://creativecommons.org/ns#Notice"/>
        <cc:requires rdf:resource="http://creativecommons.org/ns#Attribution"/>
        <cc:permits rdf:resource="http://creativecommons.org/ns#DerivativeWorks"/>
        <cc:requires rdf:resource="http://creativecommons.org/ns#ShareAlike"/>
      </cc:License>
    </rdf:RDF>
  </metadata>
  <g inkscape:label="Ebene 1" inkscape:groupmode="layer" id="layer1">
    <g id="g39503">
      <g transform="matrix(1.0007155,0,0,1,-1.8910912,3.714299)" inkscape:label="Ebene 1" id="layer1-1">
        <g id="g3259">
          <path inkscape:connector-curvature="0" transform="matrix(0.69357,0,0,0.8361463,124.92298,67.676603)" id="path3870-8" d="m 834.28573,796.6479 c 0,30.77015 -209.78658,55.71428 -468.57145,55.71428 -258.78486,0 -468.57144,-24.94413 -468.57144,-55.71428 0,-30.77015 209.78658,-55.71429 468.57144,-55.71429 258.78487,0 468.57145,24.94414 468.57145,55.71429 z" style="opacity:0.67383554;fill:url(#radialGradient3883-1);fill-opacity:1;fill-rule:evenodd;stroke:none;filter:url(#filter3897-3)"/>
          <path inkscape:connector-curvature="0" id="rect2816-3" d="m 11.428572,140.93361 722.857118,0 0,722.85712 -722.857118,0 0,-722.85712 0,0 z" style="fill:none;stroke:none;stroke-width:1px;marker:none;visibility:visible;display:inline;overflow:visible;enable-background:accumulate"/>
          <path inkscape:connector-curvature="0" sodipodi:nodetypes="cc" style="fill:none;stroke:#000000;stroke-width:23;stroke-linecap:butt;stroke-linejoin:miter;stroke-miterlimit:4;stroke-opacity:1;stroke-dasharray:none" d="m 360.57143,556.64789 -101.84498,160.483" id="path3612-2"/>
          <path inkscape:connector-curvature="0" id="path3616-0" d="m 383.01216,556.64789 101.84498,160.483" style="fill:none;stroke:#000000;stroke-width:23;stroke-linecap:butt;stroke-linejoin:miter;stroke-miterlimit:4;stroke-opacity:1;stroke-dasharray:none" sodipodi:nodetypes="cc"/>
          <path inkscape:connector-curvature="0" sodipodi:nodetypes="cc" style="fill:none;stroke:url(#linearGradient2485);stroke-width:23;stroke-linecap:butt;stroke-linejoin:miter;stroke-miterlimit:4;stroke-opacity:1;stroke-dasharray:none" d="m 383.01216,556.64789 101.84498,160.483" id="path3644-2"/>
          <path inkscape:connector-curvature="0" id="path3654-3" d="M 360.60838,556.64789 258.7634,717.13089" style="fill:none;stroke:url(#linearGradient2482);stroke-width:23;stroke-linecap:butt;stroke-linejoin:miter;stroke-miterlimit:4;stroke-opacity:1;stroke-dasharray:none" sodipodi:nodetypes="cc"/>
          <path inkscape:connector-curvature="0" style="fill:none;stroke:#000000;stroke-width:21.10587502;stroke-linecap:butt;stroke-linejoin:miter;stroke-miterlimit:4;stroke-opacity:1;stroke-dasharray:none" d="m 372,552.54605 0,196.08331" id="path3658-8"/>
          <path inkscape:connector-curvature="0" id="path3660-1" d="m 372,552.54605 0,196.08331" style="fill:none;stroke:url(#linearGradient2478);stroke-width:21.10587502;stroke-linecap:butt;stroke-linejoin:miter;stroke-miterlimit:4;stroke-opacity:1;stroke-dasharray:none"/>
          <path inkscape:connector-curvature="0" id="rect3603-6" d="m 621.59375,233.78125 c -167.85572,0.94631 -335.77808,-0.60629 -503.59375,0.875 -4.44378,2.98782 -1.84363,9.82763 -2.83738,14.40624 0.49245,103.81734 -0.84434,207.7618 0.58738,311.50001 5.49238,6.43755 15.13492,2.18184 22.375,3.12551 162.98952,-0.0584 326.06371,0.64237 489,-0.40676 6.98823,-5.66489 2.26238,-15.83285 3.22202,-23.40625 -0.001,-101.12276 1.0551,-202.42904 -0.59702,-303.4375 -1.90131,-2.31888 -5.32648,-2.73149 -8.15625,-2.65625 l 0,0 z" style="fill:#babdb6;fill-opacity:1;fill-rule:evenodd;stroke:#2e3436;stroke-width:30;stroke-linecap:butt;stroke-linejoin:round;stroke-miterlimit:4;stroke-opacity:1;stroke-dasharray:none;stroke-dashoffset:0;marker:none;visibility:visible;display:inline;overflow:visible;enable-background:accumulate"/>
          <path inkscape:connector-curvature="0" id="path3662-1" d="m 125.15625,246.0625 c 0,102.57292 0,205.14583 0,307.71875 165.13542,0 330.27083,0 495.40625,0 0,-103.23958 0,-206.47917 0,-309.71875 -165.13542,0 -330.27083,0 -495.40625,0 l 0,1 0,1 0,0 z" style="opacity:0.74910398;fill:none;stroke:none;stroke-width:14;marker:none;visibility:visible;display:inline;overflow:visible;enable-background:accumulate"/>
          <path inkscape:connector-curvature="0" id="path3780-5" d="m 605.75,241.6875 c -160.74855,0.98338 -321.50186,-0.30623 -482.25,0.78125 -0.36312,104.46819 -0.65599,208.93888 0.0625,313.40625 166.33289,-0.51972 332.66919,0.61763 499,-0.65625 -0.76039,-104.51931 1.25082,-209.0544 -1.03125,-313.5625 -5.26039,0.0131 -10.5211,-0.0309 -15.78125,0.0312 l 0,5e-5 z" style="opacity:0.75627238;fill:url(#linearGradient2473);fill-opacity:1;fill-rule:evenodd;stroke:none;stroke-width:20;marker:none;visibility:visible;display:inline;overflow:visible;enable-background:accumulate"/>
          <path inkscape:connector-curvature="0" id="path3696-7" d="m 131.37715,274.63703 c -1.17032,19.56551 -0.16516,39.49915 -0.50057,59.20594 0,70.79971 0,141.59941 0,212.39912 3.61034,4.05882 11.65949,0.78851 17.01966,1.8412 154.98113,0 309.96227,0 464.94339,0 4.41399,-3.31983 0.85751,-10.7213 2.00232,-15.65016 0,-85.52927 0,-171.05854 0,-256.58781 -3.61034,-4.05882 -11.65949,-0.7885 -17.01966,-1.8412 -154.98113,0 -309.96227,0 -464.9434,0 l -0.91011,0.38357 -0.59163,0.24934 0,0 z" style="fill:none;stroke:#ffffff;stroke-width:13.44045448;stroke-linecap:butt;stroke-linejoin:round;stroke-miterlimit:4;stroke-opacity:1;stroke-dasharray:none;stroke-dashoffset:0;marker:none;visibility:visible;display:inline;overflow:visible;enable-background:accumulate"/>
          <path inkscape:connector-curvature="0" style="fill:#888a85;fill-opacity:1;fill-rule:evenodd;stroke:#555753;stroke-width:20;stroke-linecap:butt;stroke-linejoin:round;stroke-miterlimit:4;stroke-opacity:1;stroke-dasharray:none;stroke-dashoffset:0;marker:none;visibility:visible;display:inline;overflow:visible;enable-background:accumulate" d="m 79.70138,215.49213 583.45438,0 0,46.31154 -583.45438,0 0,-46.31154 0,0 z" id="path3606-7"/>
          <path inkscape:connector-curvature="0" id="path3716-4" d="m 89.6875,227.5 c 0,8.10417 0,16.20833 0,24.3125 187.82292,0 375.64583,0 563.46875,0 0,-8.77083 0,-17.54167 0,-26.3125 -187.82292,0 -375.64583,0 -563.46875,0 l 0,1 0,1 z" style="opacity:0.69360268;fill:url(#linearGradient2468);fill-opacity:1;fill-rule:evenodd;stroke:#ffffff;stroke-width:7;stroke-linecap:butt;stroke-linejoin:miter;stroke-miterlimit:4;stroke-opacity:1;stroke-dasharray:none;stroke-dashoffset:0;marker:none;visibility:visible;display:inline;overflow:visible;enable-background:accumulate"/>
          <path transform="matrix(0.7844289,-0.01960833,0.01960833,0.7844289,135.9589,100.42494)" d="M 257.58891,420.0067 87.209212,415.33991 176.44062,270.12016 z" inkscape:randomized="0" inkscape:rounded="0" inkscape:flatsided="true" sodipodi:arg2="1.59818" sodipodi:arg1="0.55098249" sodipodi:r2="49.202827" sodipodi:r1="98.405655" sodipodi:cy="368.48892" sodipodi:cx="173.74625" sodipodi:sides="3" id="path3757-7" style="fill:#3465a4;fill-opacity:1;fill-rule:nonzero;stroke:#204a87;stroke-width:7;stroke-linecap:round;stroke-linejoin:miter;stroke-miterlimit:4;stroke-opacity:1;stroke-dasharray:none;stroke-dashoffset:0" sodipodi:type="star"/>
          <path inkscape:connector-curvature="0" id="rect3759-2" d="m 421.23359,350.79348 104.04573,0 0,104.04573 -104.04573,0 0,-104.04573 0,0 z" style="fill:#edd400;fill-opacity:1;fill-rule:evenodd;stroke:#c4a000;stroke-width:7;stroke-linecap:butt;stroke-linejoin:miter;stroke-miterlimit:4;stroke-opacity:1;stroke-dasharray:none;stroke-dashoffset:0;marker:none;visibility:visible;display:inline;overflow:visible;enable-background:accumulate"/>
          <path inkscape:connector-curvature="0" id="path3754-7" d="m 424.78402,451.8236 c 0,30.963 -25.10047,56.06347 -56.06347,56.06347 -30.96299,0 -56.06346,-25.10047 -56.06346,-56.06347 0,-30.96299 25.10047,-56.06346 56.06346,-56.06346 30.963,0 56.06347,25.10047 56.06347,56.06346 z" style="fill:#cc0000;fill-rule:evenodd;stroke:#a40000;stroke-width:7;stroke-linecap:butt;stroke-linejoin:miter;stroke-miterlimit:4;stroke-opacity:1;stroke-dasharray:none"/>
        </g>
      </g>
      <path inkscape:connector-curvature="0" id="rect2816" d="m 11.429919,140.93361 723.374311,0 0,722.85712 -723.374311,0 0,-722.85712 z" style="color:#000000;fill:none;stroke:none;stroke-width:1px;marker:none;visibility:visible;display:inline;overflow:visible;enable-background:accumulate"/>
      <g transform="matrix(1.1576193,0,0,1.1567916,1759.1142,-58.784711)" id="g39493">
        <path style="opacity:0.44444442;fill:url(#radialGradient39499);fill-opacity:1;fill-rule:evenodd;stroke:none;filter:url(#filter3689-6)" d="m 212.13203,401.82394 c 0,45.74714 -102.66318,82.83252 -229.304624,82.83252 -126.641446,0 -229.304626,-37.08538 -229.304626,-82.83252 0,-45.74713 102.66318,-82.83251 229.304626,-82.83251 126.641444,0 229.304624,37.08538 229.304624,82.83251 z" id="path3670-8" transform="matrix(0.70164485,0,0,0.45188895,-1058.5646,559.86854)" inkscape:connector-curvature="0"/>
        <path style="fill:#555753;fill-rule:evenodd;stroke:#2e3436;stroke-width:14.47808838;stroke-miterlimit:4;stroke-opacity:1;stroke-dasharray:none" d="m -1023.7477,386.18735 0,245.85241 c -16.1138,-15.65869 -40.8634,-25.68472 -68.6188,-25.68472 -48.5588,0 -87.9126,30.69017 -87.9126,68.54306 0,37.8529 39.3538,68.52792 87.9126,68.52792 48.5588,0 87.9278,-30.67502 87.9278,-68.52792 0,-2.74971 -0.2171,-5.46743 -0.621,-8.13248 l 0,-233.88843 c 4.6138,18.97794 41.37942,12.37108 55.59474,33.15086 16.93585,24.75661 0.7988,107.83938 -1.74159,118.03459 1.18972,-2.92563 5.03245,-11.94915 16.97674,-39.1177 22.68998,-51.61074 14.88241,-113.22184 -22.83759,-122.53246 -35.84577,-8.84799 -45.9245,-29.35631 -47.9923,-34.69556 l 0,-1.52957 -18.688,0 0,0 z m 72.54115,197.87529 c -0.89841,2.20924 -0.33318,1.04496 -0.33318,1.04496 0.0288,0.0432 0.1559,-0.3335 0.33318,-1.04496 z" id="path3601-6" inkscape:connector-curvature="0"/>
        <path style="opacity:0.4;fill:none;stroke:#ffffff;stroke-width:3.39232087;stroke-miterlimit:4;stroke-opacity:1;stroke-dasharray:none" d="m -1009.2827,390.91236 c -3.1972,0.32342 -6.4124,0.0322 -9.6167,0.10601 0.069,80.23141 -0.1613,160.48721 0.1212,240.70336 1.4344,4.01828 -4.4823,8.15052 -7.4359,4.74016 -22.4239,-22.12953 -56.4792,-29.19623 -86.8266,-23.28124 -23.5277,4.56355 -46.8922,18.17766 -57.6045,40.24285 -7.3483,15.64279 -6.1417,35.03341 3.5892,49.29466 13.4826,20.90557 38.147,32.35761 62.3339,35.1499 27.4483,3.26973 56.926,-4.27634 77.3116,-23.27677 12.1464,-11.49581 19.8759,-28.21878 17.8873,-45.12812 -0.824,-24.12035 -0.1072,-48.262 -0.3775,-72.39158 -0.027,-55.44293 0,-110.92846 0.042,-166.34489 0.7256,-3.92929 7.2442,-5.13952 8.602,-1.02981 1.2487,5.56517 6.09384,9.59708 11.41513,11.03663 13.53986,5.31695 29.62783,6.82421 40.28747,17.69209 9.2531,9.14397 11.30483,22.88179 12.16128,35.31551 1.05036,17.41443 -0.22504,34.91829 -2.43865,52.17306 8.76371,-20.14772 14.33484,-41.97237 13.36958,-64.12036 -0.58158,-15.99367 -4.44881,-32.62989 -15.26262,-44.91854 -6.024,-6.44213 -14.3889,-9.94216 -22.89308,-11.49672 -18.29111,-5.52058 -36.05411,-16.8412 -44.42331,-34.49649 l -0.2423,0.0303 0,0 z" id="path3619-0" inkscape:connector-curvature="0"/>
        <path style="opacity:0.6939057;fill:url(#radialGradient39501);fill-opacity:1;fill-rule:evenodd;stroke:none" d="m -1008.7073,389.8674 c -3.6322,0.47732 -7.4583,0.0529 -11.1613,0.19688 0.04,80.53751 -0.081,161.114 0.061,241.62716 1.3844,3.19591 -3.1916,6.89479 -5.7245,4.07381 -21.1304,-20.91662 -52.697,-28.4982 -81.668,-24.53915 -23.6031,3.19656 -47.148,14.78636 -60.552,35.03414 -10.2082,15.3346 -11.6298,36.27812 -2.7298,52.48103 10.3396,19.69912 30.6948,32.17937 51.7518,37.5215 29.1325,7.47632 62.0053,2.39177 86.1256,-15.9318 14.4998,-11.04184 25.3584,-28.79206 24.2157,-47.67423 -1.0444,-19.03637 -0.2938,-38.11321 -0.5257,-57.16969 -0.066,-61.07947 -0.01,-122.17898 0.011,-183.24592 -0.7985,-3.71738 5.2327,-5.99847 6.724,-2.27164 1.2972,5.07311 5.15831,9.41413 10.2527,10.96447 13.55718,5.81486 29.75291,6.86149 40.8593,17.3705 9.17638,8.34555 11.50454,21.26817 12.55018,33.10367 1.4924,20.39127 -0.35665,40.94101 -3.16072,61.07867 8.50107,-18.65782 15.19239,-38.39666 16.03185,-59.0309 1.10574,-18.88264 -1.59528,-39.01756 -13.0057,-54.50336 -5.94753,-7.60356 -14.82445,-12.56388 -24.34581,-14.09866 -18.68842,-5.38742 -37.1373,-16.79563 -45.4364,-34.97133 -0.073,-0.0231 -0.1596,-0.0569 -0.2726,-0.0151 l 0,-2e-5 z" id="path3637-1" inkscape:connector-curvature="0"/>
      </g>
    </g>
  </g>
</svg>
