<?xml version="1.0" encoding="UTF-8" standalone="no"?>
<!-- Created with Inkscape (http://www.inkscape.org/) -->
<svg xmlns:dc="http://purl.org/dc/elements/1.1/" xmlns:cc="http://creativecommons.org/ns#" xmlns:rdf="http://www.w3.org/1999/02/22-rdf-syntax-ns#" xmlns:svg="http://www.w3.org/2000/svg" xmlns="http://www.w3.org/2000/svg" xmlns:xlink="http://www.w3.org/1999/xlink" xmlns:sodipodi="http://sodipodi.sourceforge.net/DTD/sodipodi-0.dtd" xmlns:inkscape="http://www.inkscape.org/namespaces/inkscape" width="210mm" height="297mm" id="svg3625" version="1.1" inkscape:version="0.46" sodipodi:version="0.32" inkscape:output_extension="org.inkscape.output.svg.inkscape">
  <title id="title2869">film</title>
  <defs id="defs3">
    <linearGradient inkscape:collect="always" id="linearGradient4536">
      <stop style="stop-color:#000000;stop-opacity:1;" offset="0" id="stop4538"/>
      <stop style="stop-color:#000000;stop-opacity:0;" offset="1" id="stop4540"/>
    </linearGradient>
    <linearGradient id="linearGradient4479">
      <stop id="stop4495" offset="0" style="stop-color:#ffffff;stop-opacity:0.54802263;"/>
      <stop id="stop4493" offset="0.0625" style="stop-color:#ffffff;stop-opacity:0.6836158;"/>
      <stop id="stop4491" offset="0.26066756" style="stop-color:#ffffff;stop-opacity:0.96610171;"/>
      <stop id="stop4489" offset="0.42544201" style="stop-color:#ffffff;stop-opacity:0.74901962;"/>
      <stop style="stop-color:#ffffff;stop-opacity:0.62352943;" offset="0.64118212" id="stop4497"/>
      <stop id="stop4487" offset="0.80933452" style="stop-color:#ffffff;stop-opacity:0.49803922;"/>
      <stop style="stop-color:#ffffff;stop-opacity:0;" offset="1" id="stop4483"/>
    </linearGradient>
    <linearGradient id="linearGradient4239">
      <stop style="stop-color:#ffffff;stop-opacity:1;" offset="0" id="stop4241"/>
      <stop style="stop-color:#d3d7cf;stop-opacity:1;" offset="1" id="stop4243"/>
    </linearGradient>
    <linearGradient id="linearGradient4231">
      <stop style="stop-color:#888a85;stop-opacity:1;" offset="0" id="stop4233"/>
      <stop style="stop-color:#888a85;stop-opacity:0;" offset="1" id="stop4235"/>
    </linearGradient>
    <inkscape:perspective sodipodi:type="inkscape:persp3d" inkscape:vp_x="0 : 526.18109 : 1" inkscape:vp_y="0 : 1000 : 0" inkscape:vp_z="744.09448 : 526.18109 : 1" inkscape:persp3d-origin="372.04724 : 350.78739 : 1" id="perspective3631"/>
    <radialGradient inkscape:collect="always" xlink:href="#linearGradient4239" id="radialGradient4448" gradientUnits="userSpaceOnUse" gradientTransform="matrix(0.96474339,0,0,0.9676409,17.417478,19.132295)" cx="291.4241" cy="398.07635" fx="291.4241" fy="398.07635" r="239.51971"/>
    <linearGradient inkscape:collect="always" xlink:href="#linearGradient4479" id="linearGradient4485" x1="25.821878" y1="665.11609" x2="272.74594" y2="551.54468" gradientUnits="userSpaceOnUse"/>
    <linearGradient inkscape:collect="always" xlink:href="#linearGradient4479" id="linearGradient4501" gradientUnits="userSpaceOnUse" x1="25.821878" y1="665.11609" x2="272.74594" y2="551.54468"/>
    <linearGradient inkscape:collect="always" xlink:href="#linearGradient4479" id="linearGradient4505" gradientUnits="userSpaceOnUse" x1="25.821878" y1="665.11609" x2="272.74594" y2="551.54468"/>
    <radialGradient inkscape:collect="always" xlink:href="#linearGradient4536" id="radialGradient2438" gradientUnits="userSpaceOnUse" gradientTransform="matrix(0.6788321,0,0,0.1459854,450.33633,683.25311)" cx="-371.73614" cy="507.88996" fx="-371.73614" fy="507.88996" r="276.7818"/>
    <radialGradient inkscape:collect="always" xlink:href="#linearGradient4239" id="radialGradient2441" gradientUnits="userSpaceOnUse" gradientTransform="matrix(0.9647434,0,0,0.9676409,103.13176,19.132295)" cx="291.4241" cy="398.07635" fx="291.4241" fy="398.07635" r="239.51971"/>
    <radialGradient inkscape:collect="always" xlink:href="#linearGradient4536" id="radialGradient2457" gradientUnits="userSpaceOnUse" gradientTransform="matrix(1.0474452,0,0,0.2372263,828.78962,613.67928)" cx="-371.73614" cy="507.88996" fx="-371.73614" fy="507.88996" r="276.7818"/>
    <linearGradient inkscape:collect="always" xlink:href="#linearGradient4479" id="linearGradient2462" gradientUnits="userSpaceOnUse" x1="25.821878" y1="665.11609" x2="272.74594" y2="551.54468"/>
  </defs>
  <sodipodi:namedview inkscape:document-units="mm" id="base" pagecolor="#ffffff" bordercolor="#666666" borderopacity="1.0" inkscape:pageopacity="0.0" inkscape:pageshadow="2" inkscape:zoom="0.35" inkscape:cx="347.45424" inkscape:cy="546.82519" inkscape:current-layer="layer1" showgrid="false" showguides="true" inkscape:guide-bbox="true" inkscape:snap-to-guides="false" inkscape:snap-grids="false" inkscape:window-width="1280" inkscape:window-height="962" inkscape:window-x="-8" inkscape:window-y="-8" inkscape:window-maximized="1">
    <sodipodi:guide orientation="0,1" position="-220,921.42857" id="guide3635"/>
    <sodipodi:guide orientation="0,1" position="-154.28571,191.42857" id="guide3637"/>
    <sodipodi:guide orientation="1,0" position="5.7142857,442.85714" id="guide3639"/>
    <sodipodi:guide orientation="1,0" position="737.14286,404.28571" id="guide3641"/>
    <sodipodi:guide orientation="-0.8660254,0.5" position="300,412.85714" id="guide4164"/>
    <sodipodi:guide orientation="-0.8660254,-0.5" position="581.42857,217.14286" id="guide4166"/>
    <sodipodi:guide orientation="0,1" position="109.28571,558.57143" id="guide4172"/>
    <sodipodi:guide orientation="0,1" position="-218.19295,636.3961" id="guide4176"/>
  </sodipodi:namedview>
  <metadata id="metadata4">
    <rdf:RDF>
      <cc:Work rdf:about="">
        <dc:format>image/svg+xml</dc:format>
        <dc:type rdf:resource="http://purl.org/dc/dcmitype/StillImage"/>
        <dc:title>video film</dc:title>
        <dc:date>April 2009</dc:date>
        <dc:creator>
          <cc:Agent>
            <dc:title>Franziska Sponsel</dc:title>
          </cc:Agent>
        </dc:creator>
        <dc:rights>
          <cc:Agent>
            <dc:title>Franziska Sponsel</dc:title>
          </cc:Agent>
        </dc:rights>
        <dc:publisher>
          <cc:Agent>
            <dc:title>RRZE</dc:title>
          </cc:Agent>
        </dc:publisher>
        <dc:subject>
          <rdf:Bag>
            <rdf:li>film</rdf:li>
            <rdf:li>movie</rdf:li>
            <rdf:li>role</rdf:li>
          </rdf:Bag>
        </dc:subject>
        <dc:contributor>
          <cc:Agent>
            <dc:title>Beate Kaspar, Hendrik Eggers</dc:title>
          </cc:Agent>
        </dc:contributor>
        <cc:license rdf:resource="http://creativecommons.org/licenses/by-sa/3.0/"/>
      </cc:Work>
      <cc:License rdf:about="http://creativecommons.org/licenses/by-sa/3.0/">
        <cc:permits rdf:resource="http://creativecommons.org/ns#Reproduction"/>
        <cc:permits rdf:resource="http://creativecommons.org/ns#Distribution"/>
        <cc:requires rdf:resource="http://creativecommons.org/ns#Notice"/>
        <cc:requires rdf:resource="http://creativecommons.org/ns#Attribution"/>
        <cc:permits rdf:resource="http://creativecommons.org/ns#DerivativeWorks"/>
        <cc:requires rdf:resource="http://creativecommons.org/ns#ShareAlike"/>
      </cc:License>
    </rdf:RDF>
  </metadata>
  <g inkscape:label="Layer 1" inkscape:groupmode="layer" id="layer1">
    <g id="g3238">
      <rect y="129.50504" x="5.7142859" height="731.42859" width="731.42859" id="rect3633" style="fill:none;fill-opacity:1;fill-rule:evenodd;stroke:none;stroke-width:1px;stroke-linecap:butt;stroke-linejoin:miter;marker:none;stroke-miterlimit:4;stroke-dasharray:none;stroke-dashoffset:0;stroke-opacity:1;visibility:visible;display:inline;overflow:visible;enable-background:accumulate"/>
      <path id="path4216" d="M 400.90179,211.59375 C 313.73477,211.86675 229.82367,265.34682 192.24554,343.59375 C 156.927,414.85936 160.77686,504.67194 203.49204,572.00061 C 243.88091,637.46072 317.59765,681.31785 394.86912,683.63792 C 467.4651,686.67845 540.61636,654.48099 586.37054,598.09375 C 632.59444,542.41476 651.44893,464.86293 634.41274,394.20228 C 618.03062,323.25107 567.30321,261.05008 500.43228,231.98514 C 469.27536,218.1029 435.07502,211.0011 400.90179,211.59375 z M 405.99554,244.25 C 440.14625,244.2137 470.18002,276.99876 466.62054,311.125 C 464.60457,341.68742 437.65086,368.65965 406.58929,368.875 C 377.4371,370.01823 349.04946,348.81727 343.52679,319.96875 C 337.77926,293.88896 350.16197,264.64285 374.02679,252.1875 C 383.82885,246.69395 394.78846,244.0759 405.99554,244.25 L 405.99554,244.25 z M 282.68304,316.96875 C 316.92788,316.00469 347.92376,348.4081 345.01263,382.65522 C 343.66371,414.07895 315.68238,441.88194 283.96429,441.65625 C 254.55458,442.4169 226.23581,420.30859 221.46429,391.03125 C 216.43244,364.89674 229.62708,336.00618 253.68304,324.1875 C 262.66078,319.43898 272.57378,317.06914 282.68304,316.96875 z M 524.27679,317.71875 C 559.13647,316.07495 590.45193,348.57315 587.71429,383.28125 C 586.37157,414.12744 559.37142,441.82865 528.02679,442.3125 C 498.27268,443.68097 469.18445,421.72839 464.23264,391.98904 C 458.93233,365.25186 472.78335,335.52832 497.96429,324.09375 C 506.15302,320.06058 515.14053,317.88211 524.27679,317.71875 z M 403.93304,411.28125 C 413.44451,410.42232 417.7128,425.84697 408.62054,429.46875 C 401.15368,433.69204 390.99782,424.69015 395.52679,416.90625 C 397.02427,413.66123 400.33131,411.26932 403.93304,411.28125 z M 426.99554,425.3125 C 435.30354,425.02855 439.7704,436.54166 433.46429,441.90625 C 427.53298,447.91986 416.4379,442.63945 417.27679,434.3125 C 417.43983,429.43408 421.86115,425.02501 426.99554,425.3125 z M 380.49554,425.3437 C 389.15609,424.19436 394.25398,436.76905 387.40179,442.1562 C 381.54218,447.84879 370.46441,442.36966 371.52679,434.24995 C 371.59049,429.51818 375.86528,425.41508 380.49554,425.3437 z M 427.71429,450.96875 C 436.20303,450.56618 440.43423,462.07576 434.71429,467.75 C 429.05039,473.83707 417.30772,468.41231 418.30804,460 C 418.98134,455.30321 422.8481,451.14507 427.71429,450.96875 z M 380.90179,451.40625 C 389.78846,450.90925 394.16248,464.01564 386.90179,468.9375 C 380.00482,474.24845 368.2679,466.46147 371.99554,458.0625 C 373.29828,454.38961 377.01764,451.44336 380.90179,451.40625 z M 526.65179,455.46875 C 561.50349,454.3731 592.88283,487.75878 588.98844,522.71633 C 586.84855,552.64114 560.69413,579.23823 530.27679,580.0625 C 501.14872,581.79028 472.16151,561.15372 466.15179,532.15625 C 459.85651,505.77009 472.30243,475.95391 496.594,463.33698 C 505.74977,458.25546 516.21208,455.50793 526.65179,455.46875 z M 281.27679,456.84375 C 315.12539,455.90912 345.98166,487.58858 343.65179,521.53125 C 342.85161,552.79621 315.39036,581.19041 283.74554,581.5 C 254.59929,582.84161 225.8445,561.38697 220.33929,532.4375 C 214.43946,505.48347 228.16793,475.21387 253.43304,463.5 C 262.09433,459.13838 271.6074,456.91159 281.27679,456.84375 z M 404.90179,464.90625 C 413.41214,464.53453 417.40992,477.10924 410.52679,481.84375 C 404.09472,487.86654 392.20849,480.31964 395.18304,471.875 C 396.26592,467.60424 400.54249,464.65527 404.90179,464.90625 z M 404.21429,526.09375 C 438.18276,525.00648 469.2326,556.91465 466.74554,591.09375 C 465.71372,621.8336 439.14681,649.82719 408.0281,650.67621 C 379.31039,652.37339 350.85083,632.68355 344.15179,604.40625 C 337.18397,578.30175 348.8013,548.10422 372.58929,534.90625 C 382.14643,529.237 393.15578,526.15878 404.21429,526.09375 z" style="fill:#888a85;fill-rule:evenodd;stroke:#2e3436;stroke-width:23;stroke-linecap:butt;stroke-linejoin:miter;stroke-miterlimit:4;stroke-dasharray:none;stroke-opacity:1"/>
      <path id="path4297" d="M 407.39093,225.42536 C 332.48721,225.66191 259.43761,266.22463 219.02049,328.99119 C 176.54061,393.34009 170.10384,479.98131 203.20742,549.6176 C 231.44599,610.66474 287.5768,658.06205 352.89542,674.6068 C 420.90721,692.33198 496.77669,676.99082 551.72653,632.85262 C 605.8856,590.37801 639.22144,522.42957 638.64164,453.38062 C 638.89754,384.93625 606.23056,317.19048 552.48929,275.02736 C 511.71691,242.45308 459.61133,224.50625 407.39093,225.42536 L 407.39093,225.42536 z M 410.42507,246.08788 C 444.64775,245.29269 475.96462,274.30542 477.90441,308.46986 C 480.78764,339.8201 458.82135,371.1387 428.47823,378.98333 C 398.90469,387.51957 364.68222,372.89225 350.65246,345.57743 C 335.97974,318.62498 342.53213,281.90049 366.30863,262.44192 C 378.4712,251.99906 394.33536,246.04439 410.42507,246.08788 L 410.42507,246.08788 z M 289.69653,318.20946 C 323.86808,317.37319 355.33366,346.47449 357.23655,380.62178 C 360.23132,412.93588 336.74536,445.14118 304.95826,451.80277 C 274.86261,459.07916 240.97403,442.88188 228.52821,414.5435 C 215.0589,387.44771 223.51684,351.97213 247.09716,333.34984 C 258.96533,323.48939 274.2951,318.28453 289.69653,318.20946 z M 530.39509,318.90732 C 564.61777,318.11211 595.93463,347.12485 597.87443,381.28929 C 600.75765,412.63954 578.79136,443.95813 548.44824,451.80277 C 518.8747,460.33901 484.65223,445.71167 470.62247,418.39686 C 455.94975,391.44441 462.50214,354.71992 486.27865,335.26133 C 498.44121,324.81849 514.30537,318.86382 530.39509,318.90732 z M 409.21143,411.72174 C 418.21207,410.53371 425.51639,419.72261 425.8992,427.10485 C 435.61028,422.21094 448.58279,429.88177 448.10913,440.87986 C 448.43758,445.81644 444.80624,450.69761 442.04084,453.56258 C 451.21544,459.26527 451.46384,474.71394 441.55539,479.95962 C 436.89686,482.88624 430.50488,482.30672 425.99023,479.86872 C 426.26598,490.71184 413.76541,499.21391 403.99269,494.09885 C 398.58905,491.72603 395.35833,485.63932 395.01163,480.29349 C 385.93926,485.69119 372.79606,479.41617 371.89146,468.76375 C 371.19553,462.98951 374.52087,457.16083 378.93067,453.95713 C 369.60997,448.09879 369.7148,432.64624 379.65887,427.43873 C 384.28068,424.85791 390.15003,425.26154 394.79924,427.59043 C 394.50375,419.57293 401.15752,412.04107 409.21143,411.72186 L 409.21143,411.72174 z M 402.68802,440.60678 C 402.95207,445.97839 399.29021,451.24821 395.73982,454.10873 C 400.08018,456.7877 402.47813,462.2301 402.77904,466.85212 C 407.49169,464.0709 413.79247,464.44637 418.37453,466.91282 C 418.2445,461.9979 420.77409,457.17359 424.68555,454.23009 C 420.10046,451.35536 417.55247,445.94868 417.34292,440.66748 C 412.89456,443.1682 406.95722,442.76989 402.68802,440.60678 z M 531.7908,455.53477 C 566.01347,454.73957 597.33034,483.75231 599.27014,517.91675 C 602.15336,549.26699 580.18707,580.58559 549.84394,588.43023 C 520.27041,596.96646 486.04794,582.33913 472.01818,555.02432 C 457.34545,528.07187 463.89785,491.34738 487.67436,471.8888 C 499.83692,461.44595 515.70108,455.49128 531.7908,455.53477 L 531.7908,455.53477 z M 288.3615,456.90014 C 322.57215,456.09552 353.87482,485.14304 355.84084,519.25178 C 358.82044,551.79453 335.33247,583.84994 303.435,590.52658 C 273.72127,597.61084 240.50825,581.93624 227.52694,554.32646 C 213.99116,527.20269 221.36516,491.06641 245.38397,472.32748 C 257.36559,462.45055 272.82562,456.81541 288.3615,456.90014 z M 410.42507,525.56279 C 444.63572,524.75817 475.93839,553.8057 477.90441,587.91443 C 480.88401,620.45719 457.39604,652.51259 425.49857,659.18923 C 395.7853,666.26532 362.58726,650.61742 349.59051,622.98912 C 336.04296,595.75973 343.46282,559.70654 367.47788,540.95979 C 379.40767,531.12113 394.8591,525.48997 410.42507,525.56279 L 410.42507,525.56279 z" style="fill:#babdb6;fill-rule:evenodd;stroke:#eeeeec;stroke-width:7.83375216;stroke-linecap:butt;stroke-linejoin:miter;stroke-miterlimit:4;stroke-dasharray:none;stroke-opacity:1"/>
      <path sodipodi:nodetypes="csscccscc" d="M 333.53087,633.67498 C 269.39677,667.75367 221.46498,649.21694 184.10414,634.54307 C 98.244288,600.82068 61.835347,663.30842 52.137252,694.60332 C 51.937716,695.24721 51.686245,695.94089 51.508906,696.55698 L 51.029184,695.96859 L 14.322665,649.83743 C 23.119189,619.2772 59.10209,551.63953 146.7285,586.05575 C 184.08933,600.72962 232.02113,619.26635 296.15523,585.18766 L 333.53087,633.67498" style="fill:#2e3436;stroke:#000000;stroke-width:13;stroke-linecap:butt;stroke-linejoin:round;stroke-miterlimit:4;stroke-dasharray:none;stroke-opacity:1" id="path4371"/>
      <path id="path4477" d="M 98.3125,582.53125 C 67.73337,582.92459 40.63305,604.6181 27.968784,631.75835 C 25.588863,637.26434 21.460459,643.61189 21.653516,649.37656 C 30.89401,661.00104 40.134505,672.62552 49.375,684.25 C 61.875141,651.64868 90.653011,623.07848 126.59375,619.4375 C 157.04802,615.54852 185.853,628.85554 213.65625,639.09375 C 247.53307,650.21914 285.91934,649.86523 318.375,634.34375 C 326.12833,632.97282 323.22339,628.84322 318.83998,624.47276 C 310.60613,614.08839 302.63658,602.88473 294.25,593 C 255.63054,613.27092 208.22296,615.88258 167.42253,600.15828 C 144.94763,592.22349 122.69294,581.33195 98.3125,582.53125 L 98.3125,582.53125 z" style="opacity:0.59139781;fill:url(#linearGradient2462);fill-opacity:1;stroke:#eeeeec;stroke-width:7.00157499;stroke-linecap:butt;stroke-linejoin:round;stroke-miterlimit:4;stroke-dasharray:none;stroke-opacity:1"/>
      <path sodipodi:nodetypes="cc" id="path4375" d="M 42.60333,601.47023 L 79.0319,647.18451" style="fill:none;stroke:#000000;stroke-width:4;stroke-linecap:butt;stroke-linejoin:miter;stroke-miterlimit:4;stroke-dasharray:none;stroke-opacity:1"/>
      <path id="path4218" d="M 642.85714,476.6479 C 642.85714,580.00404 559.07043,663.79075 455.71428,663.79075 C 352.35814,663.79075 268.57143,580.00404 268.57143,476.6479 C 268.57143,373.29175 352.35814,289.50504 455.71428,289.50504 C 559.07043,289.50504 642.85714,373.29175 642.85714,476.6479 z" style="fill:#2e3436;fill-rule:evenodd;stroke:#000000;stroke-width:7;stroke-linecap:butt;stroke-linejoin:miter;stroke-miterlimit:4;stroke-dasharray:none;stroke-opacity:1"/>
      <path id="path4533" d="M 729.33013,734.16412 C 729.33013,770.42709 599.53131,799.82404 439.41635,799.82404 C 279.30139,799.82404 149.50258,770.42709 149.50258,734.16412 C 149.50258,697.90116 279.30139,668.50421 439.41635,668.50421 C 599.53131,668.50421 729.33013,697.90116 729.33013,734.16412 z" style="opacity:0.51612902;fill:url(#radialGradient2457);fill-opacity:1;fill-rule:evenodd;stroke:none"/>
      <path id="path4153" d="M 466.83929,250.78125 C 384.43956,251.00446 304.55966,297.00398 262.24554,367.40625 C 222.03944,432.73364 215.67038,517.69772 245.90179,588.25 C 276.04621,660.3332 342.83805,715.96563 419.46429,731.65625 C 492.32257,747.29496 571.89828,727.39607 628.07706,678.48044 C 685.30804,629.95228 717.91033,553.69738 712.65179,478.5 C 708.10751,398.53535 661.13211,322.69579 591.50456,283.24993 C 553.96621,261.53082 510.35798,250.02431 466.83929,250.78125 z M 468.77679,288.0625 C 501.30572,286.50024 531.50126,314.98174 531.77679,347.75 C 533.0024,376.75928 511.16999,404.86169 482.51993,410.18826 C 454.16693,416.30375 422.8082,399.63085 412.62054,372.34375 C 401.66683,345.26273 412.89246,310.95392 438.68304,296.65625 C 447.73452,291.27753 458.25506,288.27126 468.77679,288.0625 z M 344.43304,362.34375 C 376.89479,360.78876 406.81446,389.01922 407.46429,421.3125 C 409.17119,451.11684 386.23878,480.13951 356.58929,484.78125 C 328.53685,489.98913 298.05005,473.22858 288.21429,446.3125 C 277.34212,418.82945 289.00026,384.565 315.27679,370.40625 C 323.97114,365.42276 334.16497,362.58054 344.43304,362.34375 z M 592.33929,363.0625 C 624.86822,361.50024 655.06376,389.98174 655.33929,422.75 C 656.5649,451.75928 634.73249,479.86169 606.08243,485.18826 C 577.72943,491.30375 546.3707,474.63085 536.18304,447.34375 C 525.22933,420.26273 536.45496,385.95392 562.24554,371.65625 C 571.29702,366.27753 581.81756,363.27126 592.33929,363.0625 z M 469.55804,458.65625 C 477.2911,457.80201 480.69898,470.05326 473.62054,473.375 C 467.29713,477.27418 458.62574,468.83344 463.08929,462.5 C 464.43161,460.2658 466.91627,458.68104 469.55804,458.65625 z M 445.99554,472.9375 C 453.73265,472.08375 457.13427,484.33618 450.05804,487.65625 C 443.62739,491.65256 434.86078,482.84862 439.65179,476.5625 C 441.02091,474.4513 443.43639,472.9709 445.99554,472.9375 z M 492.77679,472.9375 C 500.51381,472.08362 503.91557,484.33627 496.83929,487.65625 C 490.32155,491.66654 481.62192,482.71343 486.52679,476.4375 C 487.90617,474.39305 490.27279,472.95763 492.77679,472.9375 z M 493.87054,499.375 C 501.65737,498.4972 504.89557,510.76848 497.93304,514.09375 C 491.50239,518.09006 482.73578,509.28612 487.52679,503 C 488.89591,500.8888 491.31139,499.4084 493.87054,499.375 z M 445.99554,499.75 C 453.89847,498.86414 457.08967,511.45204 449.80804,514.59375 C 443.32295,518.21388 434.99634,509.50374 439.65179,503.34375 C 441.01608,501.23977 443.45336,499.78641 445.99554,499.75 z M 593.77679,503.78125 C 626.30572,502.21899 656.50126,530.70049 656.77679,563.46875 C 658.0024,592.47803 636.16999,620.58044 607.51993,625.90701 C 579.16693,632.0225 547.8082,615.3496 537.62054,588.0625 C 526.66683,560.98148 537.89246,526.67267 563.68304,512.375 C 572.73452,506.99628 583.25506,503.99001 593.77679,503.78125 z M 342.99554,505.1875 C 375.19532,503.67167 404.95152,531.32145 405.99554,563.53125 C 407.95104,593.43062 385.41458,622.54494 355.74554,627.5 C 327.08811,633.11207 295.93283,615.8494 286.33929,588 C 276.30849,560.87631 287.72479,527.72672 313.24554,513.625 C 322.24878,508.3248 332.57915,505.4089 342.99554,505.1875 z M 469.90179,513.3125 C 477.75223,512.49227 481.08812,524.83344 473.87054,528.0625 C 467.64874,531.71881 459.23045,523.70622 463.24554,517.5 C 464.58502,515.11191 467.17861,513.30976 469.90179,513.3125 z M 468.71429,575.90625 C 500.91407,574.39042 530.67027,602.0402 531.71429,634.25 C 533.66979,664.14937 511.13333,693.26369 481.46429,698.21875 C 452.80686,703.83082 421.65158,686.56815 412.05804,658.71875 C 402.034,631.60389 413.42573,598.45812 438.96429,584.34375 C 447.96753,579.04355 458.2979,576.12765 468.71429,575.90625 z" style="fill:#888a85;fill-opacity:1;fill-rule:evenodd;stroke:#2e3436;stroke-width:23;stroke-linecap:butt;stroke-linejoin:miter;stroke-miterlimit:4;stroke-dasharray:none;stroke-opacity:1"/>
      <path transform="matrix(-0.1068298,0.8303444,-0.8347763,-0.1198793,617.52302,749.12742)" d="M -303.04578,238.17923 C -301.6034,233.72747 -296.33328,237.92718 -295.64667,240.57655 C -293.78598,247.75618 -301.51654,253.01008 -307.84042,252.97745 C -319.15236,252.91909 -326.33623,241.43753 -325.24311,230.98727 C -323.6389,215.65109 -307.97683,206.30654 -293.45649,208.58279 C -274.10317,211.61667 -262.54204,231.59271 -266.05023,250.16583 C -270.46492,273.53822 -294.81136,287.33858 -317.4297,282.57389 C -344.82354,276.80321 -360.87484,248.0574 -354.83955,221.39798 C -347.72717,189.98078 -314.56515,171.67164 -283.86721,178.98635 C -248.42522,187.43147 -227.85376,225.02037 -236.45378,259.75512 C -246.22568,299.22295 -288.24863,322.05979 -327.01899,312.17033 C -370.51347,301.07585 -395.61789,254.61378 -384.43599,211.8087 C -372.02196,164.28694 -321.11706,136.91332 -274.27792,149.38991 C -222.72841,163.1212 -193.08434,218.47173 -206.85734,269.3444 C -221.90415,324.92206 -281.70248,356.83755 -336.60827,341.76677 C -396.21438,325.40583 -430.40207,261.15799 -414.03243,202.21941 C -396.35845,138.58459 -327.65974,102.12408 -264.68864,119.79347 C -197.0249,138.77959 -158.29104,211.9303 -177.2609,278.93369 C -197.55843,350.62653 -275.16206,391.63415 -346.19756,371.36321 C -421.91964,349.7549 -465.20139,267.69757 -443.62887,192.63013 C -420.71028,112.87866 -334.1986,67.322489 -255.09936,90.197025 C -171.3184,114.42545 -123.48754,205.39204 -147.66446,288.52297 C -173.20235,376.3335 -268.62432,426.43929 -355.78684,400.95965 C -447.62703,374.11263 -500.00793,274.23486 -473.22531,183.04085 C -445.06943,87.170915 -340.73551,32.514737 -245.51007,60.600584 C -145.61034,90.065071 -88.67873,198.85547 -118.06802,298.11226 C -148.8409,402.04184 -262.08805,461.24902 -365.37612,430.5561 C -473.33562,398.47502 -534.81848,280.77087 -502.82175,173.45156 C -469.43265,61.462118 -347.27129,-2.2965333 -235.92079,31.004144 C -119.90135,65.70112 -53.866817,192.3199 -88.47158,307.70154 C -95.283981,330.41593 -105.69752,352.0247 -119.19809,371.51946" sodipodi:t0="0" sodipodi:argument="-45.239765" sodipodi:radius="227.1114" sodipodi:revolution="7.3000002" sodipodi:expansion="1" sodipodi:cy="238.17923" sodipodi:cx="-303.04578" id="path4367" style="fill:none;stroke:#000000;stroke-width:6;stroke-linecap:butt;stroke-linejoin:miter;stroke-miterlimit:4;stroke-dasharray:none;stroke-opacity:1" sodipodi:type="spiral"/>
      <path transform="matrix(0.9675325,0,0,0.9675325,111.02273,10.069737)" d="M 432.5,354.14789 A 60,60 0 1 1 312.5,354.14789 A 60,60 0 1 1 432.5,354.14789 z" sodipodi:ry="60" sodipodi:rx="60" sodipodi:cy="354.14789" sodipodi:cx="372.5" id="path4343" style="fill:none;stroke:#555753;stroke-width:12;stroke-linecap:butt;stroke-linejoin:miter;stroke-miterlimit:4;stroke-dasharray:none;stroke-opacity:1" sodipodi:type="arc"/>
      <path sodipodi:type="arc" style="fill:none;stroke:#555753;stroke-width:12;stroke-linecap:butt;stroke-linejoin:miter;stroke-miterlimit:4;stroke-dasharray:none;stroke-opacity:1" id="path4345" sodipodi:cx="372.5" sodipodi:cy="354.14789" sodipodi:rx="60" sodipodi:ry="60" d="M 432.5,354.14789 A 60,60 0 1 1 312.5,354.14789 A 60,60 0 1 1 432.5,354.14789 z" transform="matrix(0.9675325,0,0,0.9675325,-12.191557,83.641165)"/>
      <path sodipodi:nodetypes="cc" id="path4381" d="M 176.17476,596.11308 L 203.67477,640.3988" style="fill:none;stroke:#000000;stroke-width:4;stroke-linecap:butt;stroke-linejoin:miter;stroke-miterlimit:4;stroke-dasharray:none;stroke-opacity:1"/>
      <path sodipodi:nodetypes="cc" id="path4383" d="M 220.46048,602.54166 L 254.74619,652.54166" style="fill:none;stroke:#000000;stroke-width:4;stroke-linecap:butt;stroke-linejoin:miter;stroke-miterlimit:4;stroke-dasharray:none;stroke-opacity:1"/>
      <path id="path4385" d="M 266.88905,598.25594 L 299.03191,646.11308" style="fill:none;stroke:#000000;stroke-width:4;stroke-linecap:butt;stroke-linejoin:miter;stroke-miterlimit:4;stroke-dasharray:none;stroke-opacity:1"/>
      <path sodipodi:nodetypes="cc" id="path4389" d="M 83.317615,580.3988 L 114.0319,627.89879" style="fill:none;stroke:#000000;stroke-width:4;stroke-linecap:butt;stroke-linejoin:miter;stroke-miterlimit:4;stroke-dasharray:none;stroke-opacity:1"/>
      <path sodipodi:nodetypes="cc" id="path4387" d="M 132.60333,582.54165 L 160.10333,626.82738" style="fill:none;stroke:#000000;stroke-width:4;stroke-linecap:butt;stroke-linejoin:miter;stroke-miterlimit:4;stroke-dasharray:none;stroke-opacity:1"/>
      <path transform="matrix(0.9675325,0,0,0.9675325,-13.262985,222.2126)" d="M 432.5,354.14789 A 60,60 0 1 1 312.5,354.14789 A 60,60 0 1 1 432.5,354.14789 z" sodipodi:ry="60" sodipodi:rx="60" sodipodi:cy="354.14789" sodipodi:cx="372.5" id="path4347" style="fill:none;stroke:#555753;stroke-width:12;stroke-linecap:butt;stroke-linejoin:miter;stroke-miterlimit:4;stroke-dasharray:none;stroke-opacity:1" sodipodi:type="arc"/>
      <path sodipodi:type="arc" style="fill:none;stroke:#555753;stroke-width:12;stroke-linecap:butt;stroke-linejoin:miter;stroke-miterlimit:4;stroke-dasharray:none;stroke-opacity:1" id="path4349" sodipodi:cx="372.5" sodipodi:cy="354.14789" sodipodi:rx="60" sodipodi:ry="60" d="M 432.5,354.14789 A 60,60 0 1 1 312.5,354.14789 A 60,60 0 1 1 432.5,354.14789 z" transform="matrix(0.9675325,0,0,0.9675325,108.16559,290.42689)"/>
      <path transform="matrix(0.9675325,0,0,0.9675325,230.66559,222.2126)" d="M 432.5,354.14789 A 60,60 0 1 1 312.5,354.14789 A 60,60 0 1 1 432.5,354.14789 z" sodipodi:ry="60" sodipodi:rx="60" sodipodi:cy="354.14789" sodipodi:cx="372.5" id="path4351" style="fill:none;stroke:#555753;stroke-width:12;stroke-linecap:butt;stroke-linejoin:miter;stroke-miterlimit:4;stroke-dasharray:none;stroke-opacity:1" sodipodi:type="arc"/>
      <path sodipodi:type="arc" style="fill:none;stroke:#555753;stroke-width:12;stroke-linecap:butt;stroke-linejoin:miter;stroke-miterlimit:4;stroke-dasharray:none;stroke-opacity:1" id="path4353" sodipodi:cx="372.5" sodipodi:cy="354.14789" sodipodi:rx="60" sodipodi:ry="60" d="M 432.5,354.14789 A 60,60 0 1 1 312.5,354.14789 A 60,60 0 1 1 432.5,354.14789 z" transform="matrix(0.9675325,0,0,0.9675325,231.73701,83.64117)"/>
      <path id="path4229" d="M 472.92826,263.65612 C 387.49082,262.97236 304.58814,314.45076 266.50488,390.89627 C 230.92751,460.40747 232.96699,548.25507 273.28665,615.2625 C 310.55268,678.92497 378.8794,723.25623 452.44191,729.38542 C 524.13943,736.0841 598.37264,707.72209 646.20212,653.75864 C 693.80605,601.38993 715.94017,526.39266 703.06112,456.35463 C 690.42911,383.74309 641.62401,318.33532 575.15737,286.85291 C 543.44614,271.5348 508.21341,263.34309 472.92826,263.65612 z M 474.03979,295.95819 C 508.09912,294.94998 538.5351,327.49813 535.2661,361.55339 C 533.70081,391.56687 507.07735,418.51523 476.85076,419.08511 C 448.30508,420.57963 419.92023,399.95302 414.07937,371.43294 C 407.93957,344.43643 421.25374,314.33465 446.28262,302.58585 C 454.88847,298.22971 464.39556,295.93157 474.03979,295.95819 L 474.03979,295.95819 z M 354.11896,367.84037 C 387.94727,366.82237 418.43135,399.10727 415.40703,433.0949 C 413.93345,462.85595 388.06893,489.76181 358.07368,490.89596 C 329.89688,492.94285 301.23731,473.1447 294.68344,445.26625 C 287.48211,418.47924 300.2135,387.5173 325.2194,375.05647 C 334.17304,370.29732 344.02611,367.81856 354.11896,367.84037 z M 593.06522,368.49075 C 627.1886,367.45133 657.84376,400.07383 654.47678,434.2408 C 652.60399,464.50267 626.25392,491.28025 595.65877,491.65983 C 567.47965,492.91932 539.69042,472.82924 533.50619,444.83266 C 526.9205,418.16414 539.79983,387.63015 564.78317,375.55199 C 573.4623,370.93293 583.24177,368.59008 593.06522,368.49075 L 593.06522,368.49075 z M 473.60753,460.99919 C 482.52834,460.21152 487.0426,474.89566 478.51675,478.68326 C 471.4496,483.28456 460.89363,474.84971 464.99324,466.97646 C 466.38257,463.58256 469.87502,460.94471 473.60753,460.99919 L 473.60753,460.99919 z M 451.16097,474.8739 C 459.73006,474.51561 463.69551,487.02875 456.78033,491.84565 C 450.74224,496.90076 440.45281,491.50445 441.55866,483.57657 C 441.75522,478.63652 446.29913,474.6307 451.16097,474.8739 L 451.16097,474.8739 z M 496.6716,474.9048 C 505.30942,474.9674 508.67236,487.37784 501.64257,492.03141 C 495.30253,496.98819 485.62311,491.09944 486.66791,483.35971 C 487.06437,478.38122 491.63354,474.36691 496.6716,474.9048 L 496.6716,474.9048 z M 496.6098,500.23855 C 504.6483,499.595 509.13643,509.85808 504.54483,515.97149 C 499.69245,522.62702 487.84773,518.67026 487.625,510.45876 C 487.46492,505.41517 491.54457,500.58245 496.6098,500.23855 L 496.6098,500.23855 z M 450.88304,500.64116 C 459.70166,500.0871 464.10365,513.99207 456.13189,518.20135 C 449.10286,523.23643 437.99617,514.69134 442.26875,506.61844 C 443.70742,503.22081 447.26167,500.67154 450.88304,500.64116 L 450.88304,500.64116 z M 594.60895,504.69833 C 628.71355,503.68548 659.38371,536.43884 655.83526,570.60323 C 653.94107,599.995 628.78447,626.3127 599.17853,627.71256 C 570.4749,629.97377 541.50963,610.05302 535.03494,581.57124 C 528.28592,555.15541 540.54819,524.86939 565.061,512.28606 C 574.10741,507.3453 584.28973,504.68474 594.60895,504.69833 L 594.60895,504.69833 z M 352.76039,506.06102 C 386.69339,505.1029 417.21068,537.44676 414.00145,571.53122 C 412.29966,601.05183 387.28445,627.3613 357.79311,629.04428 C 329.57937,631.49092 300.81214,612.51513 293.60309,584.57979 C 285.78483,557.69395 298.4643,525.72385 323.92258,513.27712 C 332.71549,508.52338 342.72029,506.05387 352.76039,506.06102 L 352.76039,506.06102 z M 474.31762,514.0204 C 483.23638,513.5856 486.76687,526.67376 479.38121,531.27089 C 473.26248,535.59955 463.88145,530.46168 464.56093,522.93987 C 464.63223,517.84541 469.3312,513.55437 474.31762,514.0204 L 474.31762,514.0204 z M 472.80471,574.5055 C 507.19237,572.844 538.3698,605.30636 535.29692,639.79099 C 533.82012,670.56612 506.15146,698.07113 475.12038,697.67458 C 447.15068,698.29767 419.93426,678.03803 414.1102,650.10412 C 407.69392,622.86207 421.69447,592.02 447.36322,580.57569 C 455.37268,576.77148 463.96506,574.66398 472.80471,574.5055 L 472.80471,574.5055 z" style="fill:url(#radialGradient2441);fill-opacity:1;fill-rule:evenodd;stroke:#ffffff;stroke-width:6.76346493;stroke-linecap:butt;stroke-linejoin:miter;stroke-miterlimit:4;stroke-dasharray:none;stroke-opacity:1"/>
      <path style="opacity:0.3010753;fill:url(#radialGradient2438);fill-opacity:1;fill-rule:evenodd;stroke:none" d="M 385.87826,757.39763 C 385.87826,779.7133 301.75777,797.80373 197.98989,797.80373 C 94.222006,797.80373 10.101525,779.7133 10.101525,757.39763 C 10.101525,735.08196 94.222006,716.99153 197.98989,716.99153 C 301.75777,716.99153 385.87826,735.08196 385.87826,757.39763 z" id="path4544"/>
    </g>
  </g>
</svg>
