<?xml version="1.0" encoding="UTF-8" standalone="no"?>
<!-- Created with Inkscape (http://www.inkscape.org/) -->
<svg xmlns:dc="http://purl.org/dc/elements/1.1/" xmlns:cc="http://creativecommons.org/ns#" xmlns:rdf="http://www.w3.org/1999/02/22-rdf-syntax-ns#" xmlns:svg="http://www.w3.org/2000/svg" xmlns="http://www.w3.org/2000/svg" xmlns:xlink="http://www.w3.org/1999/xlink" xmlns:sodipodi="http://sodipodi.sourceforge.net/DTD/sodipodi-0.dtd" xmlns:inkscape="http://www.inkscape.org/namespaces/inkscape" width="210mm" height="297mm" id="svg4034" version="1.1" inkscape:version="0.48.0 r9654" sodipodi:version="0.32" inkscape:output_extension="org.inkscape.output.svg.inkscape">
  <title id="title4197">itunes</title>
  <defs id="defs3">
    <linearGradient inkscape:collect="always" id="linearGradient4161">
      <stop style="stop-color:#000000;stop-opacity:1;" offset="0" id="stop4163"/>
      <stop style="stop-color:#000000;stop-opacity:0;" offset="1" id="stop4165"/>
    </linearGradient>
    <linearGradient inkscape:collect="always" id="linearGradient4138">
      <stop style="stop-color:#000000;stop-opacity:1;" offset="0" id="stop4140"/>
      <stop style="stop-color:#000000;stop-opacity:0;" offset="1" id="stop4142"/>
    </linearGradient>
    <linearGradient inkscape:collect="always" id="linearGradient3984">
      <stop style="stop-color:#ffffff;stop-opacity:1;" offset="0" id="stop3986"/>
      <stop style="stop-color:#ffffff;stop-opacity:0;" offset="1" id="stop3988"/>
    </linearGradient>
    <linearGradient inkscape:collect="always" id="linearGradient3871">
      <stop style="stop-color:#babdb6;stop-opacity:1;" offset="0" id="stop3873"/>
      <stop style="stop-color:#babdb6;stop-opacity:0;" offset="1" id="stop3875"/>
    </linearGradient>
    <linearGradient id="linearGradient5348">
      <stop style="stop-color:#729fcf;stop-opacity:0;" offset="0" id="stop5350"/>
      <stop id="stop5368" offset="0.14182246" style="stop-color:#729fcf;stop-opacity:0.17514125;"/>
      <stop id="stop5366" offset="0.24686332" style="stop-color:#729fcf;stop-opacity:0.42937854;"/>
      <stop style="stop-color:#729fcf;stop-opacity:0.39215686;" offset="0.27796116" id="stop5394"/>
      <stop id="stop5364" offset="0.38030669" style="stop-color:#729fcf;stop-opacity:0.39215687;"/>
      <stop id="stop5362" offset="0.46561956" style="stop-color:#ffffff;stop-opacity:1;"/>
      <stop style="stop-color:#b8cfe7;stop-opacity:0.62352941;" offset="0.54757094" id="stop3727"/>
      <stop id="stop5360" offset="0.62952232" style="stop-color:#729fcf;stop-opacity:0.24858756;"/>
      <stop id="stop5358" offset="0.69749689" style="stop-color:#729fcf;stop-opacity:0.27683616;"/>
      <stop id="stop5356" offset="0.84827983" style="stop-color:#729fcf;stop-opacity:0.16384181;"/>
      <stop style="stop-color:#729fcf;stop-opacity:0;" offset="1" id="stop5352"/>
    </linearGradient>
    <linearGradient id="linearGradient5334">
      <stop style="stop-color:#ffffff;stop-opacity:0;" offset="0" id="stop5336"/>
      <stop id="stop5346" offset="0.125" style="stop-color:#ffffff;stop-opacity:0.8745098;"/>
      <stop id="stop5344" offset="0.25" style="stop-color:#ffffff;stop-opacity:0.74901961;"/>
      <stop id="stop5342" offset="0.5" style="stop-color:#ffffff;stop-opacity:0.49803922;"/>
      <stop style="stop-color:#ffffff;stop-opacity:0;" offset="1" id="stop5338"/>
    </linearGradient>
    <linearGradient id="linearGradient5314">
      <stop style="stop-color:#555753;stop-opacity:1;" offset="0" id="stop5316"/>
      <stop style="stop-color:#555753;stop-opacity:0;" offset="1" id="stop5318"/>
    </linearGradient>
    <linearGradient id="linearGradient5280">
      <stop style="stop-color:#555753;stop-opacity:0.01129944;" offset="0" id="stop5282"/>
      <stop id="stop5310" offset="0.00195313" style="stop-color:#555753;stop-opacity:0.22598869;"/>
      <stop id="stop5306" offset="0.00390625" style="stop-color:#555753;stop-opacity:0.01176471;"/>
      <stop id="stop5304" offset="0.0078125" style="stop-color:#555753;stop-opacity:0.01176471;"/>
      <stop id="stop5302" offset="0.015625" style="stop-color:#555753;stop-opacity:0.07344633;"/>
      <stop id="stop5298" offset="0.03125" style="stop-color:#555753;stop-opacity:0.01568627;"/>
      <stop id="stop5296" offset="0.0625" style="stop-color:#555753;stop-opacity:0.01129944;"/>
      <stop id="stop5294" offset="0.125" style="stop-color:#555753;stop-opacity:0.36723164;"/>
      <stop id="stop5290" offset="0.25" style="stop-color:#555753;stop-opacity:0.00564972;"/>
      <stop id="stop5288" offset="0.5" style="stop-color:#555753;stop-opacity:0.02259887;"/>
      <stop style="stop-color:#555753;stop-opacity:0.19774012;" offset="0.75" id="stop5292"/>
      <stop id="stop5300" offset="0.875" style="stop-color:#555753;stop-opacity:0.18079096;"/>
      <stop style="stop-color:#555753;stop-opacity:0.28813559;" offset="0.9375" id="stop5308"/>
      <stop style="stop-color:#555753;stop-opacity:0.07344633;" offset="1" id="stop5284"/>
    </linearGradient>
    <linearGradient id="linearGradient5210">
      <stop style="stop-color:#ffffff;stop-opacity:0.63973064" offset="0" id="stop5212"/>
      <stop style="stop-color:#ffffff;stop-opacity:0;" offset="1" id="stop5214"/>
    </linearGradient>
    <linearGradient id="linearGradient5170">
      <stop style="stop-color:#ffffff;stop-opacity:0.18039216;" offset="0" id="stop5172"/>
      <stop id="stop5178" offset="0.51451057" style="stop-color:#ffffff;stop-opacity:1;"/>
      <stop style="stop-color:#ffffff;stop-opacity:0;" offset="1" id="stop5174"/>
    </linearGradient>
    <inkscape:perspective sodipodi:type="inkscape:persp3d" inkscape:vp_x="0 : 526.18109 : 1" inkscape:vp_y="0 : 1000 : 0" inkscape:vp_z="744.09448 : 526.18109 : 1" inkscape:persp3d-origin="372.04724 : 350.78739 : 1" id="perspective4040"/>
    <linearGradient inkscape:collect="always" xlink:href="#linearGradient5170" id="linearGradient5176" x1="486.78616" y1="311.95883" x2="190.81146" y2="525.16638" gradientUnits="userSpaceOnUse"/>
    <linearGradient inkscape:collect="always" xlink:href="#linearGradient5210" id="linearGradient5216" x1="353.63306" y1="403.9296" x2="405.62701" y2="455.44739" gradientUnits="userSpaceOnUse"/>
    <linearGradient inkscape:collect="always" xlink:href="#linearGradient5170" id="linearGradient5226" gradientUnits="userSpaceOnUse" x1="486.78616" y1="311.95883" x2="190.81146" y2="525.16638"/>
    <linearGradient inkscape:collect="always" xlink:href="#linearGradient5170" id="linearGradient5230" gradientUnits="userSpaceOnUse" x1="486.78616" y1="311.95883" x2="190.81146" y2="525.16638"/>
    <linearGradient inkscape:collect="always" xlink:href="#linearGradient5170" id="linearGradient5234" gradientUnits="userSpaceOnUse" x1="486.78616" y1="311.95883" x2="190.81146" y2="525.16638"/>
    <linearGradient inkscape:collect="always" xlink:href="#linearGradient5170" id="linearGradient5238" gradientUnits="userSpaceOnUse" x1="486.78616" y1="311.95883" x2="190.81146" y2="525.16638"/>
    <linearGradient inkscape:collect="always" xlink:href="#linearGradient5170" id="linearGradient5242" gradientUnits="userSpaceOnUse" x1="486.78616" y1="311.95883" x2="190.81146" y2="525.16638"/>
    <linearGradient inkscape:collect="always" xlink:href="#linearGradient5170" id="linearGradient5246" gradientUnits="userSpaceOnUse" x1="486.78616" y1="311.95883" x2="190.81146" y2="525.16638"/>
    <radialGradient inkscape:collect="always" xlink:href="#linearGradient3984" id="radialGradient4075" gradientUnits="userSpaceOnUse" gradientTransform="matrix(0.37577722,0.03445303,-0.02757155,0.30072133,605.26915,586.90602)" cx="880.13934" cy="838.99133" fx="880.13934" fy="838.99133" r="365.07972"/>
    <radialGradient inkscape:collect="always" xlink:href="#linearGradient3984" id="radialGradient4077" gradientUnits="userSpaceOnUse" gradientTransform="matrix(0.37577722,0.03445303,-0.02757155,0.30072133,605.26915,586.90602)" cx="1989.9366" cy="503.58002" fx="1989.9366" fy="503.58002" r="365.07972"/>
    <linearGradient inkscape:collect="always" xlink:href="#linearGradient3984" id="linearGradient4079" gradientUnits="userSpaceOnUse" x1="1151.2692" y1="166.46587" x2="1415.8524" y2="463.56967"/>
    <radialGradient inkscape:collect="always" xlink:href="#linearGradient5280" id="radialGradient4098" gradientUnits="userSpaceOnUse" gradientTransform="matrix(0.98531897,0,0,0.98526623,7.6408419,4.688854)" cx="382.84375" cy="455.35938" fx="382.84375" fy="455.35938" r="291.9375"/>
    <linearGradient inkscape:collect="always" xlink:href="#linearGradient5348" id="linearGradient4100" gradientUnits="userSpaceOnUse" gradientTransform="translate(-0.28144371,0.63889057)" x1="175.96233" y1="697.14484" x2="670.4953" y2="207.12437"/>
    <linearGradient inkscape:collect="always" xlink:href="#linearGradient5170" id="linearGradient4102" gradientUnits="userSpaceOnUse" x1="486.78616" y1="311.95883" x2="190.81146" y2="525.16638"/>
    <linearGradient inkscape:collect="always" xlink:href="#linearGradient5210" id="linearGradient4104" gradientUnits="userSpaceOnUse" x1="353.63306" y1="403.9296" x2="405.62701" y2="455.44739"/>
    <linearGradient inkscape:collect="always" xlink:href="#linearGradient3871" id="linearGradient4106" gradientUnits="userSpaceOnUse" x1="313.77914" y1="375.51971" x2="467.50302" y2="556.33704"/>
    <radialGradient inkscape:collect="always" xlink:href="#linearGradient5280" id="radialGradient4125" gradientUnits="userSpaceOnUse" gradientTransform="matrix(0.98531897,0,0,0.98526623,7.6408419,4.688854)" cx="382.84375" cy="455.35938" fx="382.84375" fy="455.35938" r="291.9375"/>
    <linearGradient inkscape:collect="always" xlink:href="#linearGradient5348" id="linearGradient4127" gradientUnits="userSpaceOnUse" gradientTransform="translate(-0.28144371,0.63889057)" x1="54.72831" y1="579.81854" x2="748.02081" y2="355.68408"/>
    <linearGradient inkscape:collect="always" xlink:href="#linearGradient5170" id="linearGradient4129" gradientUnits="userSpaceOnUse" x1="486.78616" y1="311.95883" x2="190.81146" y2="525.16638"/>
    <linearGradient inkscape:collect="always" xlink:href="#linearGradient5210" id="linearGradient4131" gradientUnits="userSpaceOnUse" x1="353.63306" y1="403.9296" x2="405.62701" y2="455.44739"/>
    <linearGradient inkscape:collect="always" xlink:href="#linearGradient3871" id="linearGradient4133" gradientUnits="userSpaceOnUse" x1="313.77914" y1="375.51971" x2="467.50302" y2="556.33704"/>
    <radialGradient inkscape:collect="always" xlink:href="#linearGradient4138" id="radialGradient4144" cx="557.60419" cy="97.768028" fx="557.60419" fy="97.768028" r="319.20819" gradientTransform="matrix(1,0,0,0.10443038,0,87.558075)" gradientUnits="userSpaceOnUse"/>
    <radialGradient inkscape:collect="always" xlink:href="#linearGradient4161" id="radialGradient4167" cx="796.00017" cy="312.93051" fx="796.00017" fy="312.93051" r="254.55843" gradientTransform="matrix(0.91197809,0.59787327,-0.37789262,0.44532814,-337.2858,-25.69204)" gradientUnits="userSpaceOnUse"/>
    <radialGradient inkscape:collect="always" xlink:href="#linearGradient3984" id="radialGradient5160" gradientUnits="userSpaceOnUse" gradientTransform="matrix(0.37577722,0.03445303,-0.02757155,0.30072133,605.26915,586.90602)" cx="880.13934" cy="838.99133" fx="880.13934" fy="838.99133" r="365.07972"/>
    <radialGradient inkscape:collect="always" xlink:href="#linearGradient3984" id="radialGradient5162" gradientUnits="userSpaceOnUse" gradientTransform="matrix(0.37577722,0.03445303,-0.02757155,0.30072133,605.26915,586.90602)" cx="1989.9366" cy="503.58002" fx="1989.9366" fy="503.58002" r="365.07972"/>
    <linearGradient inkscape:collect="always" xlink:href="#linearGradient3984" id="linearGradient5164" gradientUnits="userSpaceOnUse" x1="1151.2692" y1="166.46587" x2="1415.8524" y2="463.56967"/>
    <linearGradient inkscape:collect="always" xlink:href="#linearGradient3984" id="linearGradient5167" gradientUnits="userSpaceOnUse" x1="1151.2692" y1="166.46587" x2="1415.8524" y2="463.56967" gradientTransform="matrix(0.533305,0,0,0.533305,-163.19972,143.42393)"/>
    <radialGradient inkscape:collect="always" xlink:href="#linearGradient3984" id="radialGradient5170" gradientUnits="userSpaceOnUse" gradientTransform="matrix(0.20040387,0.01837397,-0.01470405,0.16037619,159.59334,456.42384)" cx="1989.9366" cy="503.58002" fx="1989.9366" fy="503.58002" r="365.07972"/>
    <radialGradient inkscape:collect="always" xlink:href="#linearGradient3984" id="radialGradient5173" gradientUnits="userSpaceOnUse" gradientTransform="matrix(0.20040387,0.01837397,-0.01470405,0.16037619,159.59334,456.42384)" cx="880.13934" cy="838.99133" fx="880.13934" fy="838.99133" r="365.07972"/>
    <radialGradient inkscape:collect="always" xlink:href="#linearGradient4161" id="radialGradient5177" gradientUnits="userSpaceOnUse" gradientTransform="matrix(0.91197809,0.59787327,-0.37789262,0.44532814,-337.2858,-25.69204)" cx="796.00017" cy="312.93051" fx="796.00017" fy="312.93051" r="254.55843"/>
    <radialGradient inkscape:collect="always" xlink:href="#linearGradient5280" id="radialGradient5179" gradientUnits="userSpaceOnUse" gradientTransform="matrix(0.98531897,0,0,0.98526623,7.6408419,4.688854)" cx="382.84375" cy="455.35938" fx="382.84375" fy="455.35938" r="291.9375"/>
    <linearGradient inkscape:collect="always" xlink:href="#linearGradient5348" id="linearGradient5181" gradientUnits="userSpaceOnUse" gradientTransform="translate(-0.28144371,0.63889057)" x1="54.72831" y1="579.81854" x2="748.02081" y2="355.68408"/>
    <linearGradient inkscape:collect="always" xlink:href="#linearGradient5170" id="linearGradient5183" gradientUnits="userSpaceOnUse" x1="486.78616" y1="311.95883" x2="190.81146" y2="525.16638"/>
    <linearGradient inkscape:collect="always" xlink:href="#linearGradient5210" id="linearGradient5185" gradientUnits="userSpaceOnUse" x1="353.63306" y1="403.9296" x2="405.62701" y2="455.44739"/>
    <linearGradient inkscape:collect="always" xlink:href="#linearGradient3871" id="linearGradient5187" gradientUnits="userSpaceOnUse" x1="313.77914" y1="375.51971" x2="467.50302" y2="556.33704"/>
    <radialGradient inkscape:collect="always" xlink:href="#linearGradient4161" id="radialGradient5206" gradientUnits="userSpaceOnUse" gradientTransform="matrix(0.91197809,0.59787327,-0.37789262,0.44532814,-337.2858,-25.69204)" cx="796.00017" cy="312.93051" fx="796.00017" fy="312.93051" r="254.55843"/>
    <radialGradient inkscape:collect="always" xlink:href="#linearGradient5280" id="radialGradient5208" gradientUnits="userSpaceOnUse" gradientTransform="matrix(0.98531897,0,0,0.98526623,7.6408419,4.688854)" cx="382.84375" cy="455.35938" fx="382.84375" fy="455.35938" r="291.9375"/>
    <linearGradient inkscape:collect="always" xlink:href="#linearGradient5348" id="linearGradient5211" gradientUnits="userSpaceOnUse" gradientTransform="translate(-0.28144371,0.63889057)" x1="54.72831" y1="579.81854" x2="748.02081" y2="355.68408"/>
    <linearGradient inkscape:collect="always" xlink:href="#linearGradient5170" id="linearGradient5213" gradientUnits="userSpaceOnUse" x1="486.78616" y1="311.95883" x2="190.81146" y2="525.16638"/>
    <linearGradient inkscape:collect="always" xlink:href="#linearGradient5210" id="linearGradient5215" gradientUnits="userSpaceOnUse" x1="353.63306" y1="403.9296" x2="405.62701" y2="455.44739"/>
    <linearGradient inkscape:collect="always" xlink:href="#linearGradient3871" id="linearGradient5217" gradientUnits="userSpaceOnUse" x1="313.77914" y1="375.51971" x2="467.50302" y2="556.33704"/>
    <linearGradient inkscape:collect="always" xlink:href="#linearGradient3871" id="linearGradient5220" gradientUnits="userSpaceOnUse" x1="313.77914" y1="375.51971" x2="467.50302" y2="556.33704" gradientTransform="matrix(0.70456468,-0.52550563,0.59787328,0.80159064,-155.10139,315.77948)"/>
    <linearGradient inkscape:collect="always" xlink:href="#linearGradient5348" id="linearGradient5231" gradientUnits="userSpaceOnUse" gradientTransform="matrix(0.70456468,-0.52550563,0.59787328,0.80159064,-154.91771,316.43951)" x1="54.72831" y1="579.81854" x2="748.02081" y2="355.68408"/>
    <radialGradient inkscape:collect="always" xlink:href="#linearGradient5280" id="radialGradient5234" gradientUnits="userSpaceOnUse" gradientTransform="matrix(0.69422094,-0.51779067,0.58906435,0.78978019,-146.91458,315.52272)" cx="382.84375" cy="455.35938" fx="382.84375" fy="455.35938" r="291.9375"/>
    <radialGradient inkscape:collect="always" xlink:href="#linearGradient4161" id="radialGradient5242" gradientUnits="userSpaceOnUse" gradientTransform="matrix(1,0,0,0.55555557,-408.10164,472.43057)" cx="796.00017" cy="312.93051" fx="796.00017" fy="312.93051" r="254.55843"/>
    <linearGradient inkscape:collect="always" xlink:href="#linearGradient5210" id="linearGradient5244" gradientUnits="userSpaceOnUse" x1="353.63306" y1="403.9296" x2="405.62701" y2="455.44739"/>
    <linearGradient inkscape:collect="always" xlink:href="#linearGradient5210" id="linearGradient5247" gradientUnits="userSpaceOnUse" x1="353.63306" y1="403.9296" x2="405.62701" y2="455.44739" gradientTransform="matrix(0.63882174,-0.47647069,0.54208571,0.7267942,-104.53586,331.08159)"/>
    <linearGradient inkscape:collect="always" xlink:href="#linearGradient5170" id="linearGradient5250" gradientUnits="userSpaceOnUse" x1="486.78616" y1="311.95883" x2="190.81146" y2="525.16638"/>
    <linearGradient inkscape:collect="always" xlink:href="#linearGradient5170" id="linearGradient5253" gradientUnits="userSpaceOnUse" x1="486.78616" y1="311.95883" x2="190.81146" y2="525.16638" gradientTransform="matrix(0.70456468,-0.52550563,0.59787328,0.80159064,-155.10139,315.77948)"/>
  </defs>
  <sodipodi:namedview inkscape:document-units="mm" id="base" pagecolor="#ffffff" bordercolor="#666666" borderopacity="1.0" inkscape:pageopacity="0.0" inkscape:pageshadow="2" inkscape:zoom="0.35" inkscape:cx="474.96853" inkscape:cy="534.93109" inkscape:current-layer="g3881" showgrid="false" showguides="true" inkscape:guide-bbox="true" inkscape:snap-grids="false" inkscape:snap-to-guides="false" inkscape:window-width="1280" inkscape:window-height="712" inkscape:window-x="0" inkscape:window-y="0" inkscape:window-maximized="0">
    <sodipodi:guide orientation="0,1" position="-111.42857,942.85714" id="guide4555"/>
    <sodipodi:guide orientation="0,1" position="-117.14286,222.85714" id="guide4557"/>
    <sodipodi:guide orientation="1,0" position="731.42857,-91.428571" id="guide4559"/>
    <sodipodi:guide orientation="1,0" position="11.428571,-22.857143" id="guide4561"/>
    <sodipodi:guide orientation="1,0" position="382.84781,276.7818" id="guide4948"/>
    <sodipodi:guide orientation="0,1" position="28.284271,597.00015" id="guide4950"/>
  </sodipodi:namedview>
  <metadata id="metadata4">
    <rdf:RDF>
      <cc:Work rdf:about="">
        <dc:format>image/svg+xml</dc:format>
        <dc:type rdf:resource="http://purl.org/dc/dcmitype/StillImage"/>
        <dc:title>audio itunes</dc:title>
        <dc:date>April 2010</dc:date>
        <dc:creator>
          <cc:Agent>
            <dc:title>Franziska Sponsel</dc:title>
          </cc:Agent>
        </dc:creator>
        <dc:rights>
          <cc:Agent>
            <dc:title>Franziska Sponsel</dc:title>
          </cc:Agent>
        </dc:rights>
        <dc:publisher>
          <cc:Agent>
            <dc:title>RRZE</dc:title>
          </cc:Agent>
        </dc:publisher>
        <dc:subject>
          <rdf:Bag>
            <rdf:li>music</rdf:li>
            <rdf:li>itunes</rdf:li>
            <rdf:li>apple</rdf:li>
          </rdf:Bag>
        </dc:subject>
        <dc:contributor>
          <cc:Agent>
            <dc:title>Beate Kaspar</dc:title>
          </cc:Agent>
        </dc:contributor>
        <cc:license rdf:resource="http://creativecommons.org/licenses/by-sa/3.0/"/>
      </cc:Work>
      <cc:License rdf:about="http://creativecommons.org/licenses/by-sa/3.0/">
        <cc:permits rdf:resource="http://creativecommons.org/ns#Reproduction"/>
        <cc:permits rdf:resource="http://creativecommons.org/ns#Distribution"/>
        <cc:requires rdf:resource="http://creativecommons.org/ns#Notice"/>
        <cc:requires rdf:resource="http://creativecommons.org/ns#Attribution"/>
        <cc:permits rdf:resource="http://creativecommons.org/ns#DerivativeWorks"/>
        <cc:requires rdf:resource="http://creativecommons.org/ns#ShareAlike"/>
      </cc:License>
    </rdf:RDF>
  </metadata>
  <g inkscape:label="Layer 1" inkscape:groupmode="layer" id="layer1">
    <g id="g3881">
      <g id="g6024">
        <path id="rect4042" d="m 11.428572,109.50504 719.999998,0 0,720 -719.999998,0 0,-720 z" style="color:#000000;fill:none;stroke:none;stroke-width:1px;marker:none;visibility:visible;display:inline;overflow:visible;enable-background:accumulate" inkscape:connector-curvature="0"/>
        <path id="path4158" d="m 642.45697,646.28085 c 1e-5,78.10487 -113.96966,141.42135 -254.55841,141.42136 -140.58875,0 -254.55844,-63.31649 -254.55845,-141.42135 0,-78.10486 113.96971,-141.42136 254.55845,-141.42136 140.58874,0 254.55842,63.31649 254.55841,141.42135 z" style="fill:url(#radialGradient5242);fill-opacity:1;fill-rule:evenodd;stroke:none" inkscape:connector-curvature="0"/>
        <path style="fill:#babdb6;fill-opacity:1;stroke:none" d="m 342.80243,427.18171 c -25.93458,19.90792 -26.8744,66.43291 -0.72446,93.35433 20.76688,22.70077 55.97796,30.72029 78.85059,15.12472 21.90287,-13.68169 31.94347,-44.04715 21.35278,-71.4246 -8.53875,-24.55459 -31.38577,-44.91018 -56.04254,-48.03322 -15.84641,-2.45926 -31.79373,1.22502 -43.43637,10.97877 z m 5.33757,3.60009 c 19.73508,-15.40014 51.57595,-11.67239 71.70083,8.25085 20.58283,19.17855 26.96359,51.70013 14.45668,73.71759 -11.39686,21.84943 -39.23421,31.08368 -63.72495,21.0529 -25.89638,-9.5989 -44.80228,-39.21254 -42.0622,-66.15216 1.12154,-14.97418 8.31941,-28.52306 19.62964,-36.86918 z" id="path5074" inkscape:connector-curvature="0"/>
        <path style="fill:#eeeeec;fill-rule:evenodd;stroke:#555753;stroke-width:27;stroke-linecap:butt;stroke-linejoin:miter;stroke-miterlimit:4;stroke-opacity:1;stroke-dasharray:none" d="M 212.35171,245.6029 C 98.754217,330.33057 84.808936,503.79102 181.20449,633.03207 277.60004,762.27312 447.81879,798.33426 561.41629,713.60659 675.01377,628.87893 688.97774,455.44352 592.58219,326.20247 496.18664,196.96142 325.94919,160.87524 212.35171,245.6029 z m 126.27406,169.6678 c 8.018,-6.14997 17.60033,-10.17277 27.74066,-11.91899 22.08063,-3.76724 46.90483,3.9625 65.28036,20.5864 19.50347,17.49385 31.24478,44.22426 29.77564,69.09442 -1.04228,21.0924 -11.06066,40.40365 -26.98074,51.89659 -16.53121,11.99176 -39.21454,15.15083 -60.28142,8.6274 -24.74638,-7.2034 -46.64628,-28.54794 -56.08226,-53.64479 -12.37404,-31.14217 -3.49556,-67.14009 20.54776,-84.64103 z" id="path4911" inkscape:connector-curvature="0"/>
        <path id="path4952" style="fill:#888a85;fill-opacity:1;stroke:none" d="m 312.74381,382.45609 c -43.40795,31.59436 -51.2315,102.92881 -17.6965,153.77781 30.031,46.52313 89.90868,71.86666 136.82591,56.00178 45.83335,-14.54657 75.61028,-64.79562 66.60704,-116.79369 -7.20422,-46.66581 -42.71441,-91.68989 -87.37198,-106.18371 -34.19027,-11.97402 -72.11083,-7.78201 -98.36447,13.19781 z m 147.82608,42.16415 c 34.55558,46.32994 29.55666,108.50989 -11.16543,138.8828 -40.72207,30.37292 -101.74668,17.43719 -136.30226,-28.89275 -34.55558,-46.32993 -29.55665,-108.50988 11.16542,-138.8828 40.72209,-30.37291 101.74669,-17.43718 136.30227,28.89275 z" inkscape:connector-curvature="0"/>
        <path style="fill:#babdb6;fill-opacity:1;stroke:none" d="m 323.78857,396.88192 c -40.45213,29.16821 -44.07563,98.55851 -7.26503,141.77626 31.66227,38.58126 88.7165,53.1153 126.04011,28.89108 36.1828,-21.75609 51.65512,-73.37137 31.98872,-117.30979 -16.61837,-40.79964 -59.19451,-71.82899 -100.04445,-70.16578 -18.60833,0.0574 -36.67264,5.60152 -50.71935,16.80823 z m 9.40309,11.44474 c 31.04611,-24.5215 83.78442,-15.80338 112.27723,19.15049 26.22256,30.3581 31.89651,77.30928 10.76231,106.6892 -18.93578,28.5151 -58.64501,39.5577 -92.51561,23.92786 -32.97327,-13.91539 -58.90073,-49.94703 -59.14275,-85.69071 -0.84443,-25.57642 9.45967,-50.06836 28.61882,-64.07684 z" id="path5126" inkscape:connector-curvature="0"/>
        <path style="fill:#ffffff;fill-opacity:1;stroke:none" d="m 210.29919,254.25046 c -85.53465,66.30691 -110.612225,200.20452 -62.67356,311.71227 31.40405,74.80688 95.77984,135.48982 167.97139,165.46868 68.69572,29.1988 145.72514,31.04528 206.74726,-0.38154 C 603.57189,690.27222 656.66359,599.7114 651.91436,500.8184 646.94956,392.81328 574.88503,281.81607 475.87704,234.15691 386.76097,190.84129 281.26684,197.01096 210.9483,253.74687 l -0.6491,0.5036 z m 13.51848,6.69399 c 73.67014,-56.40648 185.72643,-56.96144 272.94219,-1.21307 80.11489,49.83927 137.84829,143.40422 141.82431,235.58828 5.51576,86.41471 -32.87948,169.51877 -101.00581,211.46246 -63.6741,40.71328 -150.14478,45.85659 -225.81719,10.61445 C 237.49066,684.10243 174.6595,615.18755 149.57707,535.87381 123.43604,456.97289 133.14497,370.32334 177.04573,309.36602 190.10661,290.7838 205.83714,274.4523 223.81767,260.94445 z" id="path5144" inkscape:connector-curvature="0"/>
        <path style="fill:url(#radialGradient5234);fill-opacity:1;fill-rule:evenodd;stroke:none" d="m 213.74442,249.90508 c -53.75623,40.72195 -87.03117,107.42198 -90.24654,179.60409 -4.04625,73.08391 22.88842,151.16716 72.68057,210.67399 50.18729,61.31291 123.6753,101.79242 196.5623,109.10872 71.363,8.02303 141.43771,-15.99549 189.4015,-64.35984 51.54857,-50.86027 76.46839,-128.7291 67.00429,-207.31953 -8.65557,-79.77954 -53.40431,-158.77802 -117.87857,-210.00212 -64.34891,-51.66565 -146.64972,-74.24818 -220.14473,-60.66857 -35.85167,6.4844 -69.13924,21.24138 -97.37882,42.96326 z m 123.51141,162.83977 c 23.24056,-18.97223 59.71025,-18.0775 86.85684,1.41358 29.23089,20.09656 45.08555,60.14226 35.82716,91.90932 -6.96368,27.27142 -30.47521,47.26101 -58.40262,48.72867 -28.05161,2.50285 -58.51716,-13.83503 -75.14121,-40.0725 -17.09919,-25.41919 -18.96211,-58.91724 -5.46424,-82.74734 4.12823,-7.50009 9.62661,-14.09598 16.32407,-19.23173 z" id="path5270" inkscape:connector-curvature="0"/>
        <path style="fill:url(#linearGradient5231);fill-opacity:1;fill-rule:evenodd;stroke:none" d="m 215.803,253.90554 c -85.47182,63.04059 -115.10319,192.67715 -69.8446,303.32267 39.74568,98.73548 134.48857,178.01171 233.96844,192.44937 88.95615,13.32938 178.28855,-21.87495 226.70055,-93.06612 49.74473,-72.36433 57.17716,-177.12891 15.87432,-266.45094 C 583.4878,305.51646 504.48061,236.62695 418.49445,215.97517 346.27675,198.66222 270.5515,211.26398 215.803,253.90554 z m 120.54476,159.32167 c 34.47258,-26.87388 95.14449,-8.98659 117.92573,35.1007 22.4828,41.51203 5.35963,96.49928 -35.30215,109.07554 -37.78644,12.95826 -88.37401,-13.23629 -103.25922,-55.61015 -11.8579,-32.38609 -4.16141,-69.8701 20.63564,-88.56609 z" id="path3723" inkscape:connector-curvature="0"/>
        <path inkscape:connector-curvature="0" id="path5252" d="m 317.81771,388.84272 c -46.47295,33.13283 -48.17914,114.37584 -3.30959,161.13738 37.59325,40.7686 101.86759,52.01853 140.66689,21.2768 39.20008,-28.86643 49.5748,-92.70928 19.87372,-140.09886 -26.12393,-44.51183 -81.46456,-71.14857 -125.97024,-57.60053 -11.40742,3.00973 -22.16481,8.00161 -31.26078,15.28521 z m 22.09181,26.67902 c 31.34526,-23.96151 86.76024,-9.15444 108.21816,30.74263 21.87532,36.12632 12.10644,86.40647 -22.46916,102.17613 -28.62456,15.20778 -70.47994,5.18845 -92.90173,-24.89738 -21.10781,-26.10914 -25.5741,-64.48037 -9.21343,-89.81086 4.25243,-7.13244 9.87632,-13.24912 16.36616,-18.21052 z" style="fill:#babdb6;fill-opacity:1;stroke:none"/>
        <path inkscape:connector-curvature="0" style="fill:url(#linearGradient5253);fill-opacity:1;stroke:none" d="m 317.81771,388.84272 c -46.47295,33.13283 -48.17914,114.37584 -3.30959,161.13738 37.59325,40.7686 101.86759,52.01853 140.66689,21.2768 39.20008,-28.86643 49.5748,-92.70928 19.87372,-140.09886 -26.12393,-44.51183 -81.46456,-71.14857 -125.97024,-57.60053 -11.40742,3.00973 -22.16481,8.00161 -31.26078,15.28521 z m 22.09181,26.67902 c 31.34526,-23.96151 86.76024,-9.15444 108.21816,30.74263 21.87532,36.12632 12.10644,86.40647 -22.46916,102.17613 -28.62456,15.20778 -70.47994,5.18845 -92.90173,-24.89738 -21.10781,-26.10914 -25.5741,-64.48037 -9.21343,-89.81086 4.25243,-7.13244 9.87632,-13.24912 16.36616,-18.21052 z" id="path5168"/>
        <path inkscape:connector-curvature="0" style="fill:#eeeeec;fill-opacity:1;stroke:none" d="m 339.42288,417.36953 c -32.20968,23.69523 -32.30361,81.08174 0.0974,112.95517 29.65666,29.94814 80.53266,32.25156 104.24382,2.6351 23.85207,-27.98022 18.63817,-79.69674 -13.29387,-106.98776 -26.30996,-23.55105 -66.2434,-28.41757 -91.04732,-8.60251 z m 9.84113,12.331 c 26.9969,-22.15145 77.15334,-3.71326 90.53434,32.84436 14.5134,34.51703 -7.16132,75.4812 -41.64044,76.95708 -34.02658,3.53707 -71.57111,-32.45655 -68.7514,-68.45759 0.3883,-16.62856 7.67466,-32.01285 19.8575,-41.34385 z" id="path5064"/>
        <path inkscape:connector-curvature="0" id="path5208" d="m 339.42288,417.36953 c -32.20968,23.69523 -32.30361,81.08174 0.0974,112.95517 29.65666,29.94814 80.53266,32.25156 104.24382,2.6351 23.85207,-27.98022 18.63817,-79.69674 -13.29387,-106.98776 -26.30996,-23.55105 -66.2434,-28.41757 -91.04732,-8.60251 z m 9.84113,12.331 c 26.9969,-22.15145 77.15334,-3.71326 90.53434,32.84436 14.5134,34.51703 -7.16132,75.4812 -41.64044,76.95708 -34.02658,3.53707 -71.57111,-32.45655 -68.7514,-68.45759 0.3883,-16.62856 7.67466,-32.01285 19.8575,-41.34385 z" style="fill:url(#linearGradient5247);fill-opacity:1;stroke:none"/>
        <path d="m 312.74381,382.45609 c -43.40795,31.59436 -51.2315,102.92881 -17.6965,153.77781 30.031,46.52313 89.90868,71.86666 136.82591,56.00178 45.83335,-14.54657 75.61028,-64.79562 66.60704,-116.79369 -7.20422,-46.66581 -42.71441,-91.68989 -87.37198,-106.18371 -34.19027,-11.97402 -72.11083,-7.78201 -98.36447,13.19781 z m 147.82608,42.16415 c 34.55558,46.32994 29.55666,108.50989 -11.16543,138.8828 -40.72207,30.37292 -101.74668,17.43719 -136.30226,-28.89275 -34.55558,-46.32993 -29.55665,-108.50988 11.16542,-138.8828 40.72209,-30.37291 101.74669,-17.43718 136.30227,28.89275 z" style="fill:#888a85;fill-opacity:1;stroke:none" id="path5180" inkscape:connector-curvature="0"/>
        <path id="path3869" style="fill:url(#linearGradient5220);fill-opacity:1;stroke:none" d="m 312.74381,382.45609 c -43.40795,31.59436 -51.2315,102.92881 -17.6965,153.77781 30.031,46.52313 89.90868,71.86666 136.82591,56.00178 45.83335,-14.54657 75.61028,-64.79562 66.60704,-116.79369 -7.20422,-46.66581 -42.71441,-91.68989 -87.37198,-106.18371 -34.19027,-11.97402 -72.11083,-7.78201 -98.36447,13.19781 z m 147.82608,42.16415 c 34.55558,46.32994 29.55666,108.50989 -11.16543,138.8828 -40.72207,30.37292 -101.74668,17.43719 -136.30226,-28.89275 -34.55558,-46.32993 -29.55665,-108.50988 11.16542,-138.8828 40.72209,-30.37291 101.74669,-17.43718 136.30227,28.89275 z" inkscape:connector-curvature="0"/>
        <path inkscape:connector-curvature="0" id="path3945" d="m 648.94049,262.76759 -256.73638,37.33135 0,0.51664 -0.51662,0 0,269.25236 c -14.84049,-11.24071 -35.42201,-18.2157 -58.18027,-18.2157 -45.22402,0 -81.89564,27.49539 -81.89564,61.41341 0,33.91802 36.67162,61.4134 81.89564,61.4134 45.22406,0 81.87896,-27.49538 81.87896,-61.4134 0,-3.38958 -0.37902,-6.7092 -1.08325,-9.94948 l 0,-216.70515 212.03876,-34.63149 0,183.95689 c -14.84043,-11.24071 -35.42201,-18.2157 -58.18027,-18.2157 -45.22405,0 -81.89564,27.49539 -81.89564,61.41341 0,33.91802 36.67159,61.4134 81.89564,61.4134 45.22406,0 81.87896,-27.49538 81.87896,-61.4134 0,-3.38958 -0.37902,-6.7092 -1.08325,-9.94948 l 0,-302.50059 -0.0165,0 0,-3.71647 z" style="fill:#3465a4;fill-rule:evenodd;stroke:#204a87;stroke-width:14;stroke-linecap:butt;stroke-linejoin:miter;stroke-miterlimit:4;stroke-opacity:1;stroke-dasharray:none"/>
        <path inkscape:connector-curvature="0" id="path3958" d="m 399.30373,306.56526 c -0.32814,93.14474 -0.0611,186.29013 -0.14997,279.43516 -30.62584,-32.28501 -85.99245,-35.9344 -121.14338,-8.89969 -12.60611,10.16833 -21.7001,26.6794 -18.26762,43.08873 3.48931,18.17905 18.64771,31.91916 35.16652,38.87374 28.98056,12.81183 64.74015,10.28163 91.0118,-7.76625 13.26623,-9.39988 23.74663,-25.25665 21.71554,-42.14776 -1.63426,-14.59186 -0.47144,-29.27138 -0.79996,-43.91434 0,-61.70783 0,-123.41566 0,-185.12349 75.65444,-12.37665 151.30855,-24.75553 226.9713,-37.08137 0,69.61297 -5e-5,139.22594 0,208.83891 -30.67613,-32.33966 -86.15542,-35.93515 -121.31025,-8.78287 -12.30137,10.05185 -21.3563,26.21994 -18.19903,42.44774 3.19375,17.7101 17.46873,31.45402 33.46489,38.54796 29.24639,13.79274 66.00391,11.48897 92.81171,-6.9163 13.26623,-9.39988 23.74663,-25.25665 21.71554,-42.14776 -1.63426,-14.59186 -0.47144,-29.27138 -0.79996,-43.91434 -0.005,-86.56762 0.0112,-173.13525 -0.0165,-259.70287 -80.7235,11.72161 -161.447,23.4432 -242.17049,35.1648 z" style="opacity:0.47464647;fill:none;stroke:#ffffff;stroke-width:5.86635494;stroke-linecap:butt;stroke-linejoin:miter;stroke-miterlimit:4;stroke-opacity:1;stroke-dasharray:none"/>
        <path inkscape:connector-curvature="0" style="opacity:0.61279464;fill:url(#radialGradient5173);fill-opacity:1;stroke:none" d="m 399.30373,306.56526 c -0.32814,93.14474 -0.0611,186.29013 -0.14997,279.43516 -30.62584,-32.28501 -85.99245,-35.9344 -121.14338,-8.89969 -12.60611,10.16833 -21.7001,26.6794 -18.26762,43.08873 3.48931,18.17905 18.64771,31.91916 35.16652,38.87374 28.98056,12.81183 64.74015,10.28163 91.0118,-7.76625 13.26623,-9.39988 23.74663,-25.25665 21.71554,-42.14776 -1.63426,-14.59186 -0.47144,-29.27138 -0.79996,-43.91434 0,-61.70783 0,-123.41566 0,-185.12349 75.65444,-12.37665 151.30855,-24.75553 226.9713,-37.08137 0,69.61297 -5e-5,139.22594 0,208.83891 -30.67613,-32.33966 -86.15542,-35.93515 -121.31025,-8.78287 -12.30137,10.05185 -21.3563,26.21994 -18.19903,42.44774 3.19375,17.7101 17.46873,31.45402 33.46489,38.54796 29.24639,13.79274 66.00391,11.48897 92.81171,-6.9163 13.26623,-9.39988 23.74663,-25.25665 21.71554,-42.14776 -1.63426,-14.59186 -0.47144,-29.27138 -0.79996,-43.91434 -0.005,-86.56762 0.0112,-173.13525 -0.0165,-259.70287 -80.7235,11.72161 -161.447,23.4432 -242.17049,35.1648 z" id="path3974"/>
        <path inkscape:connector-curvature="0" id="path3994" d="m 399.30373,306.56526 c -0.32814,93.14474 -0.0611,186.29013 -0.14997,279.43516 -30.62584,-32.28501 -85.99245,-35.9344 -121.14338,-8.89969 -12.60611,10.16833 -21.7001,26.6794 -18.26762,43.08873 3.48931,18.17905 18.64771,31.91916 35.16652,38.87374 28.98056,12.81183 64.74015,10.28163 91.0118,-7.76625 13.26623,-9.39988 23.74663,-25.25665 21.71554,-42.14776 -1.63426,-14.59186 -0.47144,-29.27138 -0.79996,-43.91434 0,-61.70783 0,-123.41566 0,-185.12349 75.65444,-12.37665 151.30855,-24.75553 226.9713,-37.08137 0,69.61297 -5e-5,139.22594 0,208.83891 -30.67613,-32.33966 -86.15542,-35.93515 -121.31025,-8.78287 -12.30137,10.05185 -21.3563,26.21994 -18.19903,42.44774 3.19375,17.7101 17.46873,31.45402 33.46489,38.54796 29.24639,13.79274 66.00391,11.48897 92.81171,-6.9163 13.26623,-9.39988 23.74663,-25.25665 21.71554,-42.14776 -1.63426,-14.59186 -0.47144,-29.27138 -0.79996,-43.91434 -0.005,-86.56762 0.0112,-173.13525 -0.0165,-259.70287 -80.7235,11.72161 -161.447,23.4432 -242.17049,35.1648 z" style="opacity:0.61279464;fill:url(#radialGradient5170);fill-opacity:1;stroke:none"/>
        <path inkscape:connector-curvature="0" id="path4010" d="m 642.37412,269.11725 c -81.72531,11.93487 -163.46609,23.76357 -245.20361,35.61478 -0.0528,26.37634 -0.17989,52.75271 -0.1,79.12913 82.18486,-13.4305 164.36988,-26.8601 246.55357,-40.29786 -0.007,-24.87646 0.0229,-49.75295 -0.0331,-74.62937 -0.40553,0.0611 -0.81105,0.12222 -1.21663,0.18332 z M 566.8448,522.78711 c -25.309,0.16674 -51.79847,10.14849 -67.09345,30.91302 -12.06949,16.42338 -10.34409,41.47869 4.34969,55.76562 16.23071,18.11163 41.29322,25.60505 65.07697,25.66539 25.20335,-0.21892 51.26261,-10.2086 67.01313,-30.38172 7.98379,-11.13517 9.71751,-25.61871 7.98289,-38.98126 -0.64872,-9.75383 -9.14144,-16.13087 -15.92822,-22.05367 -17.12288,-13.95174 -39.32826,-21.26183 -61.40101,-20.92738 z m -235.38747,34.14818 c -25.37498,0.31922 -51.87242,10.49768 -66.87978,31.63166 -10.92015,15.63513 -9.94347,38.83063 3.14984,53.01385 13.6751,16.89057 35.39924,25.17205 56.53033,27.21522 27.67541,2.74603 57.47313,-6.54019 75.7793,-27.99851 9.05243,-11.0659 11.38825,-26.29725 9.48281,-40.16454 -0.18053,-9.82404 -8.64664,-16.51805 -15.44916,-22.43214 -17.38227,-14.36893 -40.09619,-21.66584 -62.61334,-21.26554 z" style="opacity:0.61279464;fill:url(#linearGradient5167);fill-opacity:1;stroke:none"/>
      </g>
    </g>
  </g>
</svg>
