<?xml version="1.0" encoding="UTF-8" standalone="no"?>
<!-- Created with Inkscape (http://www.inkscape.org/) -->

<svg
   xmlns:dc="http://purl.org/dc/elements/1.1/"
   xmlns:cc="http://creativecommons.org/ns#"
   xmlns:rdf="http://www.w3.org/1999/02/22-rdf-syntax-ns#"
   xmlns:svg="http://www.w3.org/2000/svg"
   xmlns="http://www.w3.org/2000/svg"
   xmlns:sodipodi="http://sodipodi.sourceforge.net/DTD/sodipodi-0.dtd"
   xmlns:inkscape="http://www.inkscape.org/namespaces/inkscape"
   width="744.09448819"
   height="1052.3622047"
   id="svg2"
   version="1.1"
   inkscape:version="0.48.4 r9939"
   sodipodi:docname="netention_logo_6.svg"
   inkscape:export-filename="/home/me/netjs2/doc/netention_logo_6.png"
   inkscape:export-xdpi="356.38"
   inkscape:export-ydpi="356.38">
  <defs
     id="defs4">
    <filter
       inkscape:collect="always"
       id="filter4000">
      <feGaussianBlur
         inkscape:collect="always"
         stdDeviation="0.2809321"
         id="feGaussianBlur4002" />
    </filter>
  </defs>
  <sodipodi:namedview
     id="base"
     pagecolor="#ffffff"
     bordercolor="#666666"
     borderopacity="1.0"
     inkscape:pageopacity="0"
     inkscape:pageshadow="2"
     inkscape:zoom="0.98994949"
     inkscape:cx="442.92748"
     inkscape:cy="620.19639"
     inkscape:document-units="px"
     inkscape:current-layer="layer1"
     showgrid="false"
     inkscape:window-width="1280"
     inkscape:window-height="991"
     inkscape:window-x="1280"
     inkscape:window-y="0"
     inkscape:window-maximized="1"
     showborder="false" />
  <metadata
     id="metadata7">
    <rdf:RDF>
      <cc:Work
         rdf:about="">
        <dc:format>image/svg+xml</dc:format>
        <dc:type
           rdf:resource="http://purl.org/dc/dcmitype/StillImage" />
        <dc:title></dc:title>
      </cc:Work>
    </rdf:RDF>
  </metadata>
  <g
     inkscape:label="Layer 1"
     inkscape:groupmode="layer"
     id="layer1">
    <rect
       style="opacity:1;fill:#ffffff;fill-opacity:1;stroke:none;stroke-width:0.30000000999999998;stroke-linecap:round;stroke-linejoin:bevel;stroke-miterlimit:4;stroke-opacity:1;stroke-dasharray:none;stroke-dashoffset:0"
       id="rect2995"
       width="631.34534"
       height="667.71082"
       x="55.558392"
       y="187.6716"
       ry="1.0682799" />
    <path
       sodipodi:type="arc"
       style="opacity:0.02439025;fill:#d6d6d6;fill-opacity:1;stroke:#000000;stroke-width:6.68939734;stroke-linecap:round;stroke-linejoin:bevel;stroke-miterlimit:4;stroke-opacity:0.58928576;stroke-dasharray:none;stroke-dashoffset:0"
       id="path3033-1-4"
       sodipodi:cx="308.09653"
       sodipodi:cy="423.03714"
       sodipodi:rx="264.65997"
       sodipodi:ry="257.5889"
       d="m 572.7565,423.03714 a 264.65997,257.5889 0 1 1 -529.319946,0 264.65997,257.5889 0 1 1 529.319946,0 z"
       transform="matrix(0.8708565,0,0,0.92380838,93.918487,92.79028)"
       inkscape:export-xdpi="74.470001"
       inkscape:export-ydpi="74.470001"
       inkscape:export-filename="/tmp/transparent_netention_icon.png" />
    <path
       sodipodi:type="arc"
       style="opacity:0.06097562;fill:#d6d6d6;fill-opacity:1;stroke:#000000;stroke-width:9.93187904;stroke-linecap:round;stroke-linejoin:bevel;stroke-miterlimit:4;stroke-opacity:0.58928576;stroke-dasharray:none;stroke-dashoffset:0"
       id="path3033-1"
       sodipodi:cx="308.09653"
       sodipodi:cy="423.03714"
       sodipodi:rx="264.65997"
       sodipodi:ry="257.5889"
       d="m 572.7565,423.03714 a 264.65997,257.5889 0 1 1 -529.319946,0 264.65997,257.5889 0 1 1 529.319946,0 z"
       transform="matrix(0.82405469,0,0,0.87376103,109.95354,112.23792)"
       inkscape:export-xdpi="74.470001"
       inkscape:export-ydpi="74.470001"
       inkscape:export-filename="/tmp/transparent_netention_icon.png" />
    <text
       xml:space="preserve"
       style="font-size:108.3960495px;font-style:normal;font-weight:normal;line-height:125%;letter-spacing:0px;word-spacing:0px;fill:#888a85;fill-opacity:1;stroke:none;filter:url(#filter4000);font-family:Sans"
       x="29.888741"
       y="727.80536"
       id="text3978"
       sodipodi:linespacing="125%"
       transform="matrix(0.77108764,0,0,0.84366239,143.61405,165.03967)"
       inkscape:export-filename="/home/me/g39412.png"
       inkscape:export-xdpi="151.88"
       inkscape:export-ydpi="151.88"><tspan
         sodipodi:role="line"
         id="tspan3980"
         x="29.888741"
         y="727.80536">netention</tspan></text>
    <path
       sodipodi:type="arc"
       style="opacity:0.14634148;fill:#ffffff;fill-opacity:1;stroke:#000000;stroke-width:43.83098602;stroke-linecap:round;stroke-linejoin:bevel;stroke-miterlimit:4;stroke-opacity:0.58928576;stroke-dasharray:none;stroke-dashoffset:0"
       id="path3033"
       sodipodi:cx="308.09653"
       sodipodi:cy="423.03714"
       sodipodi:rx="264.65997"
       sodipodi:ry="257.5889"
       d="m 572.7565,423.03714 a 264.65997,257.5889 0 1 1 -529.319946,0 264.65997,257.5889 0 1 1 529.319946,0 z"
       transform="matrix(0.75336742,0,0,0.77458486,130.6917,153.01688)"
       inkscape:export-xdpi="74.470001"
       inkscape:export-ydpi="74.470001"
       inkscape:export-filename="/tmp/transparent_netention_icon.png" />
    <path
       style="fill:#6699cc;stroke:#000000;stroke-width:3.70000005;stroke-linecap:butt;stroke-linejoin:miter;stroke-miterlimit:4;stroke-opacity:0.66517861;stroke-dasharray:none"
       d="m 198.83179,599.70809 38.66023,42.03694 49.96716,29.19558 80.58884,16.83133 -58.10716,-48.98076 -23.25193,-73.3688 -3.57143,-132.50001 70.15844,2.55948 13.32633,100.99273 82.9797,-0.0167 -1.46447,-141.03552 c 0,0 -11.19,-54.67609 -27.14285,-76.42858 -13.40334,-18.2761 -54.88797,-41.29858 -54.88797,-41.29858 l -27.42525,1.9973 -33.40107,6.91332 -32.14065,12.42304 -30.7165,18.53635 -32.62996,29.9231 -28.58324,40.9199 -17.16457,47.18973 -5.02905,52.93717 11.43585,64.25851 z"
       id="path2996"
       inkscape:connector-curvature="0"
       sodipodi:nodetypes="cccccccccccsccccccccccc"
       inkscape:export-filename="/tmp/transparent_netention_icon.png"
       inkscape:export-xdpi="74.470001"
       inkscape:export-ydpi="74.470001" />
    <path
       style="fill:#98fc66;fill-opacity:1;stroke:#000000;stroke-width:3.70000005;stroke-linecap:butt;stroke-linejoin:miter;stroke-miterlimit:4;stroke-opacity:0.66517861;stroke-dasharray:none"
       d="M 537.14016,375.54492 508.24911,339.29489 468.791,307.7697 422.12684,286.03491 364.00652,277.94423 c 0,0 41.61532,21.02126 55.22122,38.98038 16.76373,22.1273 24.59725,50.92487 27.81833,78.49776 5.3392,45.70421 1.99492,139.28572 1.99492,139.28572 l -81.74981,1.26142 -4.23496,-107.05366 -80.653,0.79225 c 0,0 -3.92611,88.19158 3.21428,131.42856 4.55225,27.56506 9.25435,56.92122 25,80 13.93605,20.4264 57.85714,46.42856 57.85714,46.42856 l 56.42857,-9.2857 62.85715,-35 37.06736,-34.64224 25.66107,-46.30228 15.97383,-53.04012 -2.19319,-46.72965 -4.2702,-39.0611 z"
       id="path2996-0"
       inkscape:connector-curvature="0"
       sodipodi:nodetypes="cccccssccccssccccccccc"
       inkscape:export-filename="/tmp/transparent_netention_icon.png"
       inkscape:export-xdpi="74.470001"
       inkscape:export-ydpi="74.470001" />
    <rect
       style="fill:#ffffff;fill-opacity:1;stroke:none"
       id="rect3982"
       width="15.716519"
       height="18.858686"
       x="445.40305"
       y="702.84943"
       ry="0.5522294"
       inkscape:export-filename="/tmp/transparent_netention_icon.png"
       inkscape:export-xdpi="74.470001"
       inkscape:export-ydpi="74.470001" />
    <path
       sodipodi:type="arc"
       style="opacity:0.6951218;fill:none;stroke:#000000;stroke-width:6.30000019;stroke-linecap:round;stroke-linejoin:round;stroke-miterlimit:4;stroke-opacity:1;stroke-dasharray:none;stroke-dashoffset:0"
       id="path3006"
       sodipodi:cx="383.92856"
       sodipodi:cy="514.50507"
       sodipodi:rx="226.78572"
       sodipodi:ry="194.28572"
       d="m 610.71428,514.50507 a 226.78572,194.28572 0 1 1 -453.57144,0 226.78572,194.28572 0 1 1 453.57144,0 z"
       transform="matrix(0.89926103,0,0,1.0496889,18.026561,-57.987064)" />
    <path
       sodipodi:type="arc"
       style="fill:#6699cc;fill-opacity:1;stroke:#000000;stroke-width:3;stroke-linecap:round;stroke-linejoin:round;stroke-miterlimit:4;stroke-opacity:1;stroke-dasharray:none;stroke-dashoffset:0"
       id="path3776-2"
       sodipodi:cx="278.92856"
       sodipodi:cy="392.36218"
       sodipodi:rx="38.92857"
       sodipodi:ry="36.42857"
       d="m 317.85713,392.36218 a 38.92857,36.42857 0 1 1 -77.85714,0 38.92857,36.42857 0 1 1 77.85714,0 z"
       transform="matrix(-0.64771681,0.19000502,-0.20683757,-0.68973986,702.19728,821.11346)" />
    <path
       sodipodi:type="arc"
       style="fill:#6699cc;fill-opacity:1;stroke:#000000;stroke-width:3;stroke-linecap:round;stroke-linejoin:round;stroke-miterlimit:4;stroke-opacity:1;stroke-dasharray:none;stroke-dashoffset:0"
       id="path3776-2-4"
       sodipodi:cx="278.92856"
       sodipodi:cy="392.36218"
       sodipodi:rx="38.92857"
       sodipodi:ry="36.42857"
       d="m 317.85713,392.36218 a 38.92857,36.42857 0 1 1 -77.85714,0 38.92857,36.42857 0 1 1 77.85714,0 z"
       transform="matrix(-0.64771681,0.19000502,-0.20683757,-0.68973986,643.25053,820.70648)" />
    <path
       sodipodi:type="arc"
       style="fill:#98fc66;fill-opacity:1;stroke:#000000;stroke-width:3;stroke-linecap:round;stroke-linejoin:round;stroke-miterlimit:4;stroke-opacity:1;stroke-dasharray:none;stroke-dashoffset:0"
       id="path3776-2-0"
       sodipodi:cx="278.92856"
       sodipodi:cy="392.36218"
       sodipodi:rx="38.92857"
       sodipodi:ry="36.42857"
       d="m 317.85713,392.36218 a 38.92857,36.42857 0 1 1 -77.85714,0 38.92857,36.42857 0 1 1 77.85714,0 z"
       transform="matrix(-0.64771681,0.19000502,-0.20683757,-0.68973986,612.52384,582.2818)" />
    <path
       sodipodi:type="arc"
       style="fill:#98fc66;fill-opacity:1;stroke:#000000;stroke-width:3;stroke-linecap:round;stroke-linejoin:round;stroke-miterlimit:4;stroke-opacity:1;stroke-dasharray:none;stroke-dashoffset:0"
       id="path3776-2-4-3"
       sodipodi:cx="278.92856"
       sodipodi:cy="392.36218"
       sodipodi:rx="38.92857"
       sodipodi:ry="36.42857"
       d="m 317.85713,392.36218 a 38.92857,36.42857 0 1 1 -77.85714,0 38.92857,36.42857 0 1 1 77.85714,0 z"
       transform="matrix(-0.64771681,0.19000502,-0.20683757,-0.68973986,553.57709,581.87482)" />
  </g>
</svg>
