<?xml version="1.0" encoding="UTF-8" standalone="no"?>
<!-- Created with Inkscape (http://www.inkscape.org/) -->

<svg
   xmlns:dc="http://purl.org/dc/elements/1.1/"
   xmlns:cc="http://creativecommons.org/ns#"
   xmlns:rdf="http://www.w3.org/1999/02/22-rdf-syntax-ns#"
   xmlns:svg="http://www.w3.org/2000/svg"
   xmlns="http://www.w3.org/2000/svg"
   xmlns:sodipodi="http://sodipodi.sourceforge.net/DTD/sodipodi-0.dtd"
   xmlns:inkscape="http://www.inkscape.org/namespaces/inkscape"
   width="744.09448819"
   height="1052.3622047"
   id="svg2"
   version="1.1"
   inkscape:version="0.48.3.1 r9886"
   sodipodi:docname="netention_logo_1.svg"
   inkscape:export-filename="/home/me/netjs2/doc/netention_logo_1.png"
   inkscape:export-xdpi="151.88"
   inkscape:export-ydpi="151.88">
  <defs
     id="defs4" />
  <sodipodi:namedview
     id="base"
     pagecolor="#ffffff"
     bordercolor="#666666"
     borderopacity="1.0"
     inkscape:pageopacity="1"
     inkscape:pageshadow="2"
     inkscape:zoom="0.7"
     inkscape:cx="294.58238"
     inkscape:cy="551.63455"
     inkscape:document-units="px"
     inkscape:current-layer="layer1"
     showgrid="false"
     inkscape:window-width="1280"
     inkscape:window-height="937"
     inkscape:window-x="0"
     inkscape:window-y="27"
     inkscape:window-maximized="1" />
  <metadata
     id="metadata7">
    <rdf:RDF>
      <cc:Work
         rdf:about="">
        <dc:format>image/svg+xml</dc:format>
        <dc:type
           rdf:resource="http://purl.org/dc/dcmitype/StillImage" />
        <dc:title></dc:title>
      </cc:Work>
    </rdf:RDF>
  </metadata>
  <g
     inkscape:label="Layer 1"
     inkscape:groupmode="layer"
     id="layer1">
    <path
       style="fill:#6699cc;stroke:#000000;stroke-width:3.70000000000000018;stroke-linecap:butt;stroke-linejoin:miter;stroke-opacity:0.6651786;stroke-miterlimit:4;stroke-dasharray:none;opacity:1"
       d="M 85.714286,550.93361 185.71429,545.21933 187.14286,379.50504 250,376.6479 l 10,162.85714 105.71429,4.28571 -18.57143,-150 -28.57143,-94.28571 -31.42857,-32.85714 -58.57143,-2.85715 -64.28572,38.57143 -62.85714,88.57143 -14.285713,87.14286 z"
       id="path2996"
       inkscape:connector-curvature="0" />
    <path
       style="fill:#98fc66;stroke:#000000;stroke-width:3.70000000000000018;stroke-linecap:butt;stroke-linejoin:miter;stroke-opacity:0.6651786;stroke-miterlimit:4;stroke-dasharray:none;opacity:1"
       d="m 185.71429,543.79075 2.85714,-163.57143 67.14285,-2.85715 10.00001,158.57144 98.57142,7.85714 -17.14285,-149.28571 90,2.14286 13.57143,91.42857 L 440,569.50504 421.42857,642.36218 370.71429,700.21933 325,713.07647 258.57143,709.50504 210,669.50504 z"
       id="path2998"
       inkscape:connector-curvature="0"
       sodipodi:nodetypes="ccccccccccccccc" />
    <path
       sodipodi:type="arc"
       style="fill:#98fc66;fill-opacity:1;stroke:#000000;stroke-width:3.5;stroke-miterlimit:4;stroke-opacity:0.51785715;stroke-dasharray:none"
       id="path3768"
       sodipodi:cx="248.57143"
       sodipodi:cy="310.57648"
       sodipodi:rx="31.428572"
       sodipodi:ry="30.357143"
       d="m 280,310.57648 a 31.428572,30.357143 0 1 1 -62.85715,0 31.428572,30.357143 0 1 1 62.85715,0 z"
       transform="translate(-39.847712,14.95975)" />
    <path
       sodipodi:type="arc"
       style="fill:#98fc66;fill-opacity:1;stroke:#000000;stroke-width:3.5;stroke-miterlimit:4;stroke-opacity:0.51785715;stroke-dasharray:none"
       id="path3768-3"
       sodipodi:cx="248.57143"
       sodipodi:cy="310.57648"
       sodipodi:rx="31.428572"
       sodipodi:ry="30.357143"
       d="m 280,310.57648 a 31.428572,30.357143 0 1 1 -62.85715,0 31.428572,30.357143 0 1 1 62.85715,0 z"
       transform="translate(29.509794,19.296217)" />
    <path
       sodipodi:type="arc"
       style="fill:#6699cc;fill-opacity:1;stroke:#000000;stroke-width:3.5;stroke-miterlimit:4;stroke-opacity:0.51785715;stroke-dasharray:none"
       id="path3768-7"
       sodipodi:cx="248.57143"
       sodipodi:cy="310.57648"
       sodipodi:rx="31.428572"
       sodipodi:ry="30.357143"
       d="m 280,310.57648 a 31.428572,30.357143 0 1 1 -62.85715,0 31.428572,30.357143 0 1 1 62.85715,0 z"
       transform="translate(37.500005,292.00454)" />
    <path
       sodipodi:type="arc"
       style="fill:#6699cc;fill-opacity:1;stroke:#000000;stroke-width:3.5;stroke-miterlimit:4;stroke-opacity:0.51785715;stroke-dasharray:none"
       id="path3768-3-8"
       sodipodi:cx="248.57143"
       sodipodi:cy="310.57648"
       sodipodi:rx="31.428572"
       sodipodi:ry="30.357143"
       d="m 280,310.57648 a 31.428572,30.357143 0 1 1 -62.85715,0 31.428572,30.357143 0 1 1 62.85715,0 z"
       transform="translate(111.90826,299.25942)" />
  </g>
</svg>
