<?xml version="1.0" encoding="UTF-8" standalone="no"?>
<!-- Created with Inkscape (http://www.inkscape.org/) -->

<svg
   xmlns:dc="http://purl.org/dc/elements/1.1/"
   xmlns:cc="http://creativecommons.org/ns#"
   xmlns:rdf="http://www.w3.org/1999/02/22-rdf-syntax-ns#"
   xmlns:svg="http://www.w3.org/2000/svg"
   xmlns="http://www.w3.org/2000/svg"
   xmlns:sodipodi="http://sodipodi.sourceforge.net/DTD/sodipodi-0.dtd"
   xmlns:inkscape="http://www.inkscape.org/namespaces/inkscape"
   width="744.09448819"
   height="1052.3622047"
   id="svg2"
   version="1.1"
   inkscape:version="0.48.4 r9939"
   sodipodi:docname="view_icons.svg">
  <defs
     id="defs4" />
  <sodipodi:namedview
     id="base"
     pagecolor="#ffffff"
     bordercolor="#666666"
     borderopacity="1.0"
     inkscape:pageopacity="0.0"
     inkscape:pageshadow="2"
     inkscape:zoom="0.98994949"
     inkscape:cx="215.38738"
     inkscape:cy="689.83832"
     inkscape:document-units="px"
     inkscape:current-layer="layer1"
     showgrid="false"
     inkscape:window-width="1115"
     inkscape:window-height="920"
     inkscape:window-x="162"
     inkscape:window-y="73"
     inkscape:window-maximized="0" />
  <metadata
     id="metadata7">
    <rdf:RDF>
      <cc:Work
         rdf:about="">
        <dc:format>image/svg+xml</dc:format>
        <dc:type
           rdf:resource="http://purl.org/dc/dcmitype/StillImage" />
        <dc:title></dc:title>
      </cc:Work>
    </rdf:RDF>
  </metadata>
  <g
     inkscape:label="Layer 1"
     inkscape:groupmode="layer"
     id="layer1">
    <path
       style="fill:#ecda46;fill-opacity:1;stroke:none"
       d="M 45.71875 120.9375 L 45.71875 220.9375 L 145.71875 220.9375 L 145.71875 120.9375 L 45.71875 120.9375 z M 85.71875 128.625 L 102.5625 156.71875 L 134.875 150.59375 L 113.375 175.28125 L 129.1875 204.125 L 99.03125 191.3125 L 76.5 215.25 L 79.375 182.625 L 49.625 168.59375 L 81.5625 161.25 L 85.71875 128.625 z "
       id="rect2985"
       inkscape:export-filename="/tmp/icons.png"
       inkscape:export-xdpi="266.01999"
       inkscape:export-ydpi="266.01999" />
    <path
       style="fill:#f29018;fill-opacity:1;stroke:none"
       d="m 166.09375,121.53125 0,100 100,0 0,-100 z m 20.96875,7.84375 c 7.74186,0 14.03125,6.05401 14.03125,13.5 0,7.44598 -6.28939,13.46875 -14.03125,13.46875 -7.74184,0 -14,-6.02277 -14,-13.46875 0,-7.44599 6.25816,-13.5 14,-13.5 z m 60.71875,8.59375 c 7.74185,0 14,5.50893 14,12.3125 0,6.80356 -6.25815,12.34375 -14,12.34375 -7.74185,0 -14.03125,-5.54019 -14.03125,-12.34375 0,-6.80357 6.2894,-12.3125 14.03125,-12.3125 z m -30.4375,6.25 c 6.89214,0 12.46875,5.07488 12.46875,11.3125 0,6.23762 -5.57661,11.28125 -12.46875,11.28125 -6.89213,0 -12.46875,-5.04363 -12.46875,-11.28125 0,-6.23762 5.57662,-11.3125 12.46875,-11.3125 z M 186.625,157.75 c 7.77048,0 14.09149,6.44708 14.125,14.40625 9e-5,0.0212 0,0.0413 0,0.0625 l 0,44.21875 -28.34375,0 0,-44.28125 0.125,0 C 172.56459,164.19708 178.85452,157.75 186.625,157.75 z m 60.6875,6.125 c 7.73466,0 14.03406,5.83635 14.125,13.0625 l 0.15625,0 0,40.46875 -28.40625,0 0,-40.46875 0.0312,0 c 0.0905,-7.22615 6.35909,-13.0625 14.09375,-13.0625 z m -30.375,4.09375 c 6.93603,0 12.5625,5.433 12.5625,12.125 0,0.25085 -0.0157,0.50291 -0.0312,0.75 l 0.0937,0 -0.17857,36.20089 -24.74554,-0.35714 -0.35714,-35.84375 0.125,0 c -0.0156,-0.24709 -0.0312,-0.49915 -0.0312,-0.75 0,-6.692 5.62646,-12.125 12.5625,-12.125 z"
       id="rect2985-6"
       inkscape:connector-curvature="0"
       sodipodi:nodetypes="cccccsssssssssssssssscsccccssccccccsscccccccsscc"
       inkscape:export-filename="/tmp/icons.png"
       inkscape:export-xdpi="266.01999"
       inkscape:export-ydpi="266.01999" />
    <path
       style="fill:#8ae234;fill-opacity:1;stroke:none"
       d="M 292.15625 119.5 L 292.15625 219.5 L 392.15625 219.5 L 392.15625 119.5 L 292.15625 119.5 z M 342.3125 126.3125 C 366.51106 126.3125 386.125 145.76065 386.125 169.75 C 386.125 193.73935 366.51106 213.1875 342.3125 213.1875 C 318.11394 213.1875 298.5 193.73935 298.5 169.75 C 298.5 145.76065 318.11394 126.3125 342.3125 126.3125 z "
       id="rect2985-9"
       inkscape:export-filename="/tmp/icons.png"
       inkscape:export-xdpi="266.01999"
       inkscape:export-ydpi="266.01999" />
    <path
       style="fill:#8ae234;fill-opacity:1;stroke:none"
       d="m 305.68385,149.16365 c -1.44269,8.02053 -4.54482,18.50096 -1.86169,25.43353 6.06643,1.90671 9.78696,8.60082 15.49848,10.07672 6.41399,-1.67477 14.49884,-3.16025 15.93214,-12.84499 2.84335,-7.8669 4.29636,-20.66453 -4.86527,-21.73738 -6.83201,1.89237 -12.82806,-2.88175 -19.62328,-2.16923 -1.32665,0.34614 -4.91414,1.53154 -5.08038,1.24135 z"
       id="path4657"
       inkscape:connector-curvature="0"
       inkscape:transform-center-x="5.7748252"
       inkscape:transform-center-y="13.739783"
       inkscape:export-filename="/tmp/icons.png"
       inkscape:export-xdpi="266.01999"
       inkscape:export-ydpi="266.01999" />
    <path
       style="fill:#8ae234;fill-opacity:1;stroke:none"
       d="m 327.22213,189.55141 c -6.32531,3.38373 -8.03734,14.18499 -1.15531,17.90832 5.78349,3.60743 15.27822,3.21817 18.56533,-3.51899 2.61913,-6.39504 -3.84194,-12.89174 -10.29354,-12.13509 -2.49024,-0.21415 -5.12531,-0.6195 -7.11648,-2.25424 z"
       id="path4666"
       inkscape:connector-curvature="0"
       inkscape:export-filename="/tmp/icons.png"
       inkscape:export-xdpi="266.01999"
       inkscape:export-ydpi="266.01999" />
    <path
       style="fill:#8ae234;fill-opacity:1;stroke:none"
       d="m 342.70768,132.61818 c -3.9017,2.46999 -6.74773,7.98432 -3.944,12.35572 3.82312,7.11544 11.50496,10.5681 16.6206,16.47276 3.57743,7.27806 12.8064,9.66012 20.01995,7.51824 4.66032,-1.15346 7.92126,-7.1025 5.23861,-11.49312 -3.43823,-4.3421 -6.9101,-8.68259 -10.31828,-13.06409 -4.82438,-6.12202 -11.53369,-11.44536 -19.49007,-11.74051 -2.70319,-0.23216 -5.41978,-0.15368 -8.12681,-0.049 z"
       id="path4685"
       inkscape:connector-curvature="0"
       inkscape:export-filename="/tmp/icons.png"
       inkscape:export-xdpi="266.01999"
       inkscape:export-ydpi="266.01999" />
    <path
       style="fill:#8ae234;fill-opacity:1;stroke:none"
       d="m 328.19841,176.88142 c 2.10891,6.85651 12.38192,10.60663 17.35504,4.56564 4.64886,-4.98503 6.08627,-14.37839 0.10387,-18.89561 -5.77463,-3.79606 -13.38905,1.30032 -13.88273,7.77735 -0.68738,2.40305 -1.59018,4.91161 -3.57618,6.55262 z"
       id="path4666-6"
       inkscape:connector-curvature="0"
       inkscape:export-filename="/tmp/icons.png"
       inkscape:export-xdpi="266.01999"
       inkscape:export-ydpi="266.01999" />
    <path
       style="fill:#729fcf;fill-opacity:1;stroke:none"
       d="M 50.5 236.15625 L 50.5 336.15625 L 150.5 336.15625 L 150.5 236.15625 L 50.5 236.15625 z M 100.25 243.21875 C 124.09988 243.21875 143.4375 262.44585 143.4375 286.15625 C 143.4375 309.86665 124.09988 329.09375 100.25 329.09375 C 76.400123 329.09375 57.0625 309.86665 57.0625 286.15625 C 57.0625 262.44585 76.400123 243.21875 100.25 243.21875 z "
       id="rect4770"
       inkscape:export-filename="/tmp/icons.png"
       inkscape:export-xdpi="266.01999"
       inkscape:export-ydpi="266.01999" />
    <rect
       style="fill:#8ae234;fill-opacity:1;stroke:none"
       id="rect4770-9"
       width="100"
       height="100"
       x="-10.60405"
       y="-111.83607" />
    <path
       style="fill:#ad7fa8;fill-opacity:1;stroke:none"
       d="m 170.53125,236.52679 0,100 100,0 0,-100 -100,0 z M 185,254.80804 l 24.75,0 c 0.76393,0 1.375,0.61107 1.375,1.375 l 0,4.59375 46.53125,0 c 3.75124,0 6.78125,2.99876 6.78125,6.75 l 0,45.21875 c 0,3.75124 -3.03001,6.78125 -6.78125,6.78125 l -73.78125,0 c -3.75124,0 -6.75,-3.03001 -6.75,-6.78125 l 0,-45.21875 c 0,-3.66616 2.86833,-6.61819 6.5,-6.75 l 0,-4.59375 c 0,-0.76393 0.61107,-1.375 1.375,-1.375 z"
       id="rect4770-9-0"
       inkscape:connector-curvature="0"
       inkscape:export-filename="/tmp/icons.png"
       inkscape:export-xdpi="266.01999"
       inkscape:export-ydpi="266.01999" />
    <rect
       style="fill:#729fcf;fill-opacity:1;stroke:none"
       id="rect4829"
       width="8.2471008"
       height="38.021217"
       x="207.72531"
       y="181.50473"
       ry="3.5399065"
       transform="matrix(0.90968346,0.4153023,-0.4153023,0.90968346,0,0)"
       inkscape:export-filename="/tmp/icons.png"
       inkscape:export-xdpi="266.01999"
       inkscape:export-ydpi="266.01999" />
    <rect
       style="fill:#729fcf;fill-opacity:1;stroke:none"
       id="rect4829-1"
       width="9.0075731"
       height="27.315643"
       x="-196.88985"
       y="207.5762"
       ry="4.4741664"
       transform="matrix(0.52076141,-0.85370226,0.8467283,0.53202556,0,0)"
       inkscape:export-filename="/tmp/icons.png"
       inkscape:export-xdpi="266.01999"
       inkscape:export-ydpi="266.01999" />
    <path
       sodipodi:type="arc"
       style="fill:#729fcf;fill-opacity:1;stroke:none"
       id="path4849"
       sodipodi:cx="99.64286"
       sodipodi:cy="288.43362"
       sodipodi:rx="9.6428576"
       sodipodi:ry="10"
       d="m 109.28572,288.43362 a 9.6428576,10 0 1 1 -19.285717,0 9.6428576,10 0 1 1 19.285717,0 z"
       transform="translate(0.75761441,-0.50507627)"
       inkscape:export-filename="/tmp/icons.png"
       inkscape:export-xdpi="266.01999"
       inkscape:export-ydpi="266.01999" />
    <rect
       style="fill:#729fcf;fill-opacity:1;stroke:none"
       id="rect4851"
       width="5.9346461"
       height="7.5761442"
       x="97.100914"
       y="245.12402"
       ry="1.8287244"
       inkscape:export-filename="/tmp/icons.png"
       inkscape:export-xdpi="266.01999"
       inkscape:export-ydpi="266.01999" />
    <rect
       style="fill:#729fcf;fill-opacity:1;stroke:none"
       id="rect4851-2"
       width="5.9346461"
       height="7.5761442"
       x="97.164055"
       y="320.25409"
       ry="1.8287244"
       inkscape:export-filename="/tmp/icons.png"
       inkscape:export-xdpi="266.01999"
       inkscape:export-ydpi="266.01999" />
    <rect
       style="fill:#729fcf;fill-opacity:1;stroke:none"
       id="rect4851-2-6"
       width="5.9346461"
       height="7.5761442"
       x="283.44669"
       y="-66.164986"
       ry="1.8287244"
       transform="matrix(0,1,-1,0,0,0)"
       inkscape:export-filename="/tmp/icons.png"
       inkscape:export-xdpi="266.01999"
       inkscape:export-ydpi="266.01999" />
    <rect
       style="fill:#729fcf;fill-opacity:1;stroke:none"
       id="rect4851-2-7"
       width="5.9346461"
       height="7.5761442"
       x="284.57343"
       y="-141.82381"
       ry="1.8287244"
       transform="matrix(0,1,-1,0,0,0)"
       inkscape:export-filename="/tmp/icons.png"
       inkscape:export-xdpi="266.01999"
       inkscape:export-ydpi="266.01999" />
    <rect
       style="fill:#ad7fa8;fill-opacity:1;stroke:none"
       id="rect4916"
       width="92.85714"
       height="1.2373093"
       x="176.24104"
       y="267.38678"
       ry="0.61865467"
       inkscape:export-filename="/tmp/icons.png"
       inkscape:export-xdpi="266.01999"
       inkscape:export-ydpi="266.01999" />
    <path
       style="fill:#df902c;fill-opacity:1;stroke:none"
       d="M 290.9375 237.15625 L 290.9375 337.15625 L 390.9375 337.15625 L 390.9375 237.15625 L 290.9375 237.15625 z M 342.4375 250.8125 C 365.86896 250.8125 384.875 265.74582 384.875 284.15625 C 384.875 302.56668 365.86896 317.46875 342.4375 317.46875 C 333.85236 317.46875 325.8673 315.47187 319.1875 312.03125 L 296.71875 325.3125 L 307.15625 302.65625 C 302.64249 297.36355 300 291.00832 300 284.15625 C 300 265.74582 319.00604 250.8125 342.4375 250.8125 z "
       id="rect4770-9-4"
       inkscape:export-filename="/tmp/icons.png"
       inkscape:export-xdpi="266.01999"
       inkscape:export-ydpi="266.01999" />
    <rect
       style="fill:#e9b96e;fill-opacity:1;stroke:none"
       id="rect4944"
       width="62.376919"
       height="4.0406103"
       x="312.64221"
       y="269.99902"
       inkscape:export-filename="/tmp/icons.png"
       inkscape:export-xdpi="266.01999"
       inkscape:export-ydpi="266.01999" />
    <rect
       style="fill:#e9b96e;fill-opacity:1;stroke:none"
       id="rect4944-3"
       width="62.376919"
       height="4.0406103"
       x="312.51596"
       y="277.82773"
       inkscape:export-filename="/tmp/icons.png"
       inkscape:export-xdpi="266.01999"
       inkscape:export-ydpi="266.01999" />
    <rect
       style="fill:#e9b96e;fill-opacity:1;stroke:none"
       id="rect4944-2"
       width="62.376919"
       height="4.0406103"
       x="312.51593"
       y="285.40387"
       inkscape:export-filename="/tmp/icons.png"
       inkscape:export-xdpi="266.01999"
       inkscape:export-ydpi="266.01999" />
    <rect
       style="fill:#e9b96e;fill-opacity:1;stroke:none"
       id="rect4944-8"
       width="37.880718"
       height="4.0406103"
       x="312.51596"
       y="292.72748"
       inkscape:export-filename="/tmp/icons.png"
       inkscape:export-xdpi="266.01999"
       inkscape:export-ydpi="266.01999" />
    <path
       style="fill:#ef2995;fill-opacity:1;stroke:none"
       d="m 51.90292,346.7711 6.375,6.8125 c 1.197301,-0.64447 2.591046,-1 4.0625,-1 4.549792,0 8.21875,3.52009 8.21875,7.84375 0,4.32366 -3.668958,7.8125 -8.21875,7.8125 -4.549792,0 -8.25,-3.48884 -8.25,-7.8125 0,-1.65164 0.547754,-3.17181 1.46875,-4.4375 l -5.3125,-5.6875 0,78.53125 9.4375,0 c 0.598793,-3.72315 3.795804,-6.5625 7.625,-6.5625 1.68305,0 3.235623,0.5662 4.5,1.5 l 13,-13.34375 c -2.20868,-2.74239 -3.53125,-6.22342 -3.53125,-10.03125 0,-7.78294 5.533219,-14.235 12.84375,-15.625 l 0,-16.25 c -3.367697,-0.83682 -5.875,-3.91302 -5.875,-7.59375 0,-3.70046 2.53899,-6.78016 5.9375,-7.59375 l 0,-6.5625 -42.28125,0 z m 45.875,0 0,6.5625 c 3.37662,0.82464 5.875,3.90429 5.875,7.59375 0,3.70451 -2.53682,6.81211 -5.9375,7.625 l 0,15.9375 c 8.41066,0.34731 15.125,7.33144 15.125,15.90625 l 16.75,0 c 0.72953,-3.55245 3.85074,-6.21875 7.5625,-6.21875 3.78606,0 6.91842,2.77594 7.5625,6.4375 l 5.53125,0 0,-53.84375 -52.46875,0 z m 14.65625,57.21875 c -1.61246,7.0709 -7.88225,12.34375 -15.375,12.34375 -3.655551,0 -7.011932,-1.26705 -9.6875,-3.375 l -13.21875,13.5625 c 0.539749,1.07312 0.84375,2.30648 0.84375,3.59375 0,3.91305 -2.812413,7.14068 -6.5,7.71875 l 0,8.9375 81.75,0 0,-20.9375 -7.21875,7.71875 c 0.42244,0.96861 0.65625,2.0262 0.65625,3.15625 0,4.32366 -3.43357,7.84375 -7.6875,7.84375 -4.25393,0 -7.71875,-3.52009 -7.71875,-7.84375 0,-4.32366 3.46482,-7.8125 7.71875,-7.8125 1.82052,0 3.49731,0.6488 4.8125,1.71875 l 8.9375,-9.53125 0.5,0.46875 0,-1.71875 -9.96875,-10.6875 c -0.95685,0.43622 -2.00674,0.6875 -3.125,0.6875 -3.57882,0 -6.6039,-2.48178 -7.46875,-5.84375 l -17.25,0 z m 32.09375,0.21875 c -0.29047,1.01035 -0.8017,1.92202 -1.4375,2.71875 l 7.15625,7.625 0,-10.34375 -5.71875,0 z m -94.28125,28.21875 0,14.34375 14.65625,0 0,-9.25 c -2.353987,-0.78707 -4.193855,-2.69239 -4.9375,-5.09375 l -9.71875,0 z"
       id="rect4770-9-44"
       inkscape:connector-curvature="0"
       inkscape:export-filename="/tmp/icons.png"
       inkscape:export-xdpi="266.01999"
       inkscape:export-ydpi="266.01999" />
    <path
       style="fill:#f59a00;fill-opacity:1;stroke:none"
       d="M 168.34375 347.9375 L 168.34375 447.9375 L 268.34375 447.9375 L 268.34375 347.9375 L 168.34375 347.9375 z M 184.5 359 C 188.23083 359 191.25 361.99341 191.25 365.6875 C 191.25 369.38159 188.23083 372.40625 184.5 372.40625 C 180.76918 372.40625 177.75 369.38159 177.75 365.6875 C 177.75 361.99341 180.76918 359 184.5 359 z M 251.8125 359.5 C 255.54332 359.5 258.59375 362.49341 258.59375 366.1875 C 258.59375 369.88159 255.54332 372.875 251.8125 372.875 C 248.08167 372.875 245.0625 369.88159 245.0625 366.1875 C 245.0625 362.49341 248.08167 359.5 251.8125 359.5 z M 191.6875 373.15625 L 200.5625 386.75 C 205.71912 387.47956 211.27534 385.5706 216.125 388.0625 C 218.11127 392.29532 212.90522 392.66371 209.96875 392.21875 L 196.6875 391.90625 L 192.53125 384.65625 L 192.53125 393.90625 L 208.09375 393.90625 C 208.70725 393.90625 209.1875 394.55906 209.1875 395.375 L 209.1875 397 C 209.1875 397.81595 208.70725 398.46875 208.09375 398.46875 L 192.53125 398.46875 L 192.53125 405.03125 C 192.53125 405.21103 192.49446 405.3662 192.46875 405.53125 L 192.46875 437.09375 C 192.46875 439.03766 190.90074 440.59375 188.9375 440.59375 C 186.97426 440.59375 185.375 439.03766 185.375 437.09375 L 185.375 406.96875 L 182.0625 406.96875 L 182.0625 436.21875 C 182.0625 438.16266 180.49448 439.71875 178.53125 439.71875 C 176.56801 439.71875 174.96875 438.16266 174.96875 436.21875 L 174.96875 405.875 C 174.89641 405.61586 174.875 405.34045 174.875 405.03125 L 174.875 375.59375 C 174.875 374.51505 175.35523 373.65625 175.96875 373.65625 L 191.40625 373.65625 C 191.5085 373.65625 191.62488 373.67355 191.71875 373.71875 C 191.71288 373.53091 191.69337 373.34409 191.6875 373.15625 z M 244.625 373.625 C 244.61915 373.81229 244.5996 374.00021 244.59375 374.1875 C 244.69083 374.13888 244.80007 374.125 244.90625 374.125 L 260.34375 374.125 C 260.95727 374.125 261.46875 374.9838 261.46875 376.0625 L 261.46875 405.5 C 261.46875 405.80992 261.41641 406.08416 261.34375 406.34375 L 261.34375 436.6875 C 261.34375 438.63141 259.77574 440.1875 257.8125 440.1875 C 255.84927 440.1875 254.25 438.63141 254.25 436.6875 L 254.25 407.4375 L 250.9375 407.4375 L 250.9375 437.5625 C 250.9375 439.50641 249.36949 441.0625 247.40625 441.0625 C 245.44301 441.0625 243.84375 439.50641 243.84375 437.5625 L 243.84375 405.875 C 243.82905 405.74802 243.8125 405.63484 243.8125 405.5 L 243.8125 398.96875 L 228.25 398.96875 C 227.6365 398.96875 227.125 398.2847 227.125 397.46875 L 227.125 395.84375 C 227.125 395.02781 227.6365 394.375 228.25 394.375 L 243.8125 394.375 L 243.8125 385.09375 L 239.65625 392.375 L 226.34375 392.6875 C 223.40728 393.13246 218.20123 392.79532 220.1875 388.5625 C 225.03716 386.0706 230.62463 387.94831 235.78125 387.21875 L 244.625 373.625 z "
       id="rect4770-9-09"
       inkscape:export-filename="/tmp/icons.png"
       inkscape:export-xdpi="266.01999"
       inkscape:export-ydpi="266.01999" />
    <path
       inkscape:connector-curvature="0"
       id="rect5401-7"
       style="fill:#f57900;fill-opacity:1;stroke:none"
       d="m -194.19648,154.69968 14.88181,0 c 0.49464,0 0.89285,0.53488 0.89285,1.19927 l 0,1.3264 c 0,0.6644 -0.39821,1.19927 -0.89285,1.19927 l -14.88181,0 c -0.49464,0 -0.89285,-0.53487 -0.89285,-1.19927 l 0,-1.3264 c 0,-0.66439 0.39821,-1.19927 0.89285,-1.19927 z m 1.67259,-16.89106 c 2.38095,3.69048 4.7619,7.38095 7.14285,11.07143 4.15752,0.59406 8.64377,-0.95502 12.55381,1.07405 1.60143,3.44665 -2.58936,3.73846 -4.95689,3.37615 -3.57397,-0.0846 -7.14795,-0.16919 -10.72192,-0.25378 -1.25,-2.20238 -2.5,-4.40476 -3.75,-6.60714 -0.0893,-2.8869 -0.17857,-5.77381 -0.26785,-8.66071 z m -0.35715,-6.07144 c 0,3.00797 -2.43845,5.44643 -5.44643,5.44643 -3.00797,0 -5.44642,-2.43846 -5.44642,-5.44643 0,-3.00798 2.43845,-5.44642 5.44642,-5.44642 3.00798,0 5.44643,2.43844 5.44643,5.44642 z m -12.32587,6.46559 12.45667,0 c 0.49464,0 0.89285,0.70712 0.89285,1.58547 l 0,23.96106 c 0,0.87835 -0.39821,1.58547 -0.89285,1.58547 l -12.45667,0 c -0.49465,0 -0.89286,-0.70712 -0.89286,-1.58547 l 0,-23.96106 c 0,-0.87835 0.39821,-1.58547 0.89286,-1.58547 z m 10.45089,8.44513 c 1.58286,0 2.85715,1.27428 2.85715,2.85714 l 0,40.35713 c 0,1.58286 -1.27429,2.85715 -2.85715,2.85715 -1.58286,0 -2.85715,-1.27429 -2.85715,-2.85715 l 0,-40.35713 c 0,-1.58286 1.27429,-2.85714 2.85715,-2.85714 z m -8.39285,-0.71427 c 1.58286,0 2.85714,1.27429 2.85714,2.85715 l 0,40.35713 c 0,1.58286 -1.27428,2.85714 -2.85714,2.85714 -1.58286,0 -2.85715,-1.27428 -2.85715,-2.85714 l 0,-40.35713 c 0,-1.58286 1.27429,-2.85715 2.85715,-2.85715 z" />
    <path
       style="fill:#888a85;fill-opacity:1;stroke:none"
       d="M 289.40625 351.8125 L 289.40625 451.8125 L 389.40625 451.8125 L 389.40625 351.8125 L 289.40625 351.8125 z M 372.09375 361.59375 L 382.9375 361.59375 L 382.9375 369.0625 L 372.09375 369.0625 L 372.09375 361.59375 z M 372.09375 371.25 L 382.9375 371.25 L 382.9375 378.71875 L 372.09375 378.71875 L 372.09375 371.25 z M 341.3125 373.25 L 352.15625 373.25 L 352.15625 443.46875 L 341.3125 443.46875 L 341.3125 373.25 z M 354.875 380.0625 L 365.6875 380.0625 L 365.6875 443.34375 L 354.875 443.34375 L 354.875 380.0625 z M 372.28125 390.21875 L 383.09375 390.21875 L 383.09375 397.6875 L 372.28125 397.6875 L 372.28125 390.21875 z M 298 392.28125 L 308.8125 392.28125 L 308.8125 443.21875 L 298 443.21875 L 298 392.28125 z M 372.28125 399.875 L 383.09375 399.875 L 383.09375 407.34375 L 372.28125 407.34375 L 372.28125 399.875 z M 327.40625 400 L 338.21875 400 L 338.21875 443.21875 L 327.40625 443.21875 L 327.40625 400 z M 372.28125 409.125 L 383.09375 409.125 L 383.09375 416.59375 L 372.28125 416.59375 L 372.28125 409.125 z M 313.09375 409.25 L 323.90625 409.25 L 323.90625 443.21875 L 313.09375 443.21875 L 313.09375 409.25 z M 372.34375 418.46875 L 383.1875 418.46875 L 383.1875 425.90625 L 372.34375 425.90625 L 372.34375 418.46875 z M 372 436.28125 L 382.8125 436.28125 L 382.8125 443.75 L 372 443.75 L 372 436.28125 z "
       id="rect4770-9-1"
       inkscape:export-filename="/tmp/icons.png"
       inkscape:export-xdpi="266.01999"
       inkscape:export-ydpi="266.01999" />
    <path
       style="fill:#3465a4;fill-opacity:1;stroke:none"
       d="m 51.515229,461.91719 0,100 100.000001,0 0,-100 -100.000001,0 z m 16.9375,10.375 66.656251,0 c 3.73735,0 6.8125,3.07515 6.8125,6.8125 l 0,65.65625 c 0,3.73736 -3.07515,6.8125 -6.8125,6.8125 l -66.656251,0 c -3.737347,0 -6.8125,-3.07514 -6.8125,-6.8125 l 0,-65.65625 c 0,-3.73735 3.075149,-6.8125 6.8125,-6.8125 z m 0,3.5 c -1.858891,0 -3.3125,1.45361 -3.3125,3.3125 l 0,4.9375 c 0.355233,-0.10732 0.743,-0.15625 1.15625,-0.15625 l 8.96875,0 0,-7.1875 c 0,-0.31849 0.02843,-0.61996 0.09375,-0.90625 l -6.90625,0 z m 10.75,0 c 0.06532,0.28629 0.09375,0.58776 0.09375,0.90625 l 0,7.1875 13.375,0 0,-6.9375 c 0,-0.41325 0.04893,-0.80102 0.15625,-1.15625 l -13.625,0 z m 17.375,0 c 0.107317,0.35523 0.15625,0.743 0.15625,1.15625 l 0,6.9375 13.375001,0 0,-7.6875 c 0,-0.13778 0.0185,-0.27369 0.0312,-0.40625 l -13.562501,0 z m 17.531251,0 c 0.0128,0.13256 0.0312,0.26847 0.0312,0.40625 l 0,7.6875 11.125,0 0,-7.1875 c 0,-0.31849 0.0284,-0.61996 0.0937,-0.90625 l -11.25,0 z m 15.09375,0 c 0.0653,0.28629 0.0937,0.58776 0.0937,0.90625 l 0,7.1875 6.9375,0 c 0.8809,0 1.65575,0.29061 2.1875,0.71875 l 0,-5.5 c 0,-1.85889 -1.45361,-3.3125 -3.3125,-3.3125 l -5.90625,0 z m -64.062501,12 0,13.625 c 0.286292,-0.0653 0.587763,-0.0937 0.90625,-0.0937 l 9.21875,0 0,-13.375 -8.96875,0 c -0.41325,0 -0.801017,-0.0489 -1.15625,-0.15625 z m 14.15625,0.15625 0,0.0937 c 0.03787,-0.0355 0.08577,-0.0597 0.125,-0.0937 l -0.125,0 z m 17.4375,0 0,13.375 13.375001,0 0,-13.375 -13.375001,0 z m 17.406251,0 0,13.375 11.125,0 0,-13.375 -11.125,0 z m 24.28125,14.03125 c -0.0524,0.0391 -0.10195,0.0884 -0.15625,0.125 0.0514,0.046 0.11062,0.0759 0.15625,0.125 l 0,-0.25 z m 0,2.46875 c -0.51647,0.55529 -1.41201,0.90625 -2.4375,0.90625 l -6.6875,0 0,13.65625 7.71875,0 c 0.51381,0 0.98839,0.0884 1.40625,0.25 l 0,-14.8125 z m -73.281251,0.8125 0,14.25 c 0.509644,-0.30852 1.174501,-0.5 1.90625,-0.5 l 8.21875,0 0,-13.65625 -9.21875,0 c -0.318487,0 -0.619958,-0.0284 -0.90625,-0.0937 z m 14.15625,0.0937 0,13.65625 13.375,0 0,-13.65625 -13.375,0 z m 17.4375,0 0,13.65625 13.375001,0 0,-13.65625 -13.375001,0 z m 17.406251,0 0,13.65625 11.125,0 0,-13.65625 -11.125,0 z m -49.000001,17.1875 0,11.53125 c 0.355233,-0.10732 0.743,-0.1875 1.15625,-0.1875 l 8.96875,0 0,-10.84375 -8.21875,0 c -0.731749,0 -1.396606,-0.19147 -1.90625,-0.5 z m 73.281251,0.25 c -0.41786,0.16155 -0.89244,0.25 -1.40625,0.25 l -7.71875,0 0,10.84375 6.9375,0 c 0.8809,0 1.65575,0.29061 2.1875,0.71875 l 0,-11.8125 z m -59.125001,0.25 0,10.84375 13.375,0 0,-10.84375 -13.375,0 z m 17.4375,0 0,10.84375 13.375001,0 0,-10.84375 -13.375001,0 z m 41.687501,14.1875 c -0.53175,0.42814 -1.3066,0.71875 -2.1875,0.71875 l -6.9375,0 0,8.71875 c 0,0.51381 -0.0885,0.98839 -0.25,1.40625 l 6.0625,0 c 1.85889,0 3.3125,-1.4536 3.3125,-3.3125 l 0,-7.53125 z m -73.281251,0.5625 0,6.96875 c 0,1.8589 1.453605,3.3125 3.3125,3.3125 l 7.0625,0 c -0.161547,-0.41786 -0.25,-0.89244 -0.25,-1.40625 l 0,-8.71875 -8.96875,0 c -0.41325,0 -0.801017,-0.0489 -1.15625,-0.15625 z m 31.59375,0.15625 0,8.96875 c 0,0.41325 -0.04893,0.80102 -0.15625,1.15625 l 14.062501,0 c -0.32148,-0.51396 -0.53125,-1.18873 -0.53125,-1.9375 l 0,-8.1875 -13.375001,0 z m 17.406251,0 0,8.1875 c 0,0.74877 -0.20977,1.42354 -0.53125,1.9375 l 11.90625,0 c -0.16155,-0.41786 -0.25,-0.89244 -0.25,-1.40625 l 0,-8.71875 -11.125,0 z m -21.312501,10 c -0.0533,0.0443 -0.100139,0.0841 -0.15625,0.125 l 0.15625,0 c -0.01133,-0.0375 0.01025,-0.0867 0,-0.125 z"
       id="rect4770-9-18"
       inkscape:connector-curvature="0"
       inkscape:export-filename="/tmp/icons.png"
       inkscape:export-xdpi="266.01999"
       inkscape:export-ydpi="266.01999" />
    <g
       id="g5773"
       transform="matrix(0,1,-1,0,615.97629,438.69452)" />
    <path
       style="fill:#4e9a06;fill-opacity:1;stroke:none"
       d="M 170 462.375 L 170 562.375 L 270 562.375 L 270 462.375 L 170 462.375 z M 177.8125 493 L 188.25 493 L 188.25 494.5625 L 185.4375 494.5625 C 184.18922 494.56253 183.38636 494.7513 183 495.15625 C 182.64334 495.56126 182.46874 496.47307 182.46875 497.84375 L 182.46875 527.65625 C 182.46874 528.65313 182.60751 529.28222 182.875 529.59375 C 183.1722 529.93642 183.76615 530.12499 184.6875 530.125 L 188.25 530.125 L 188.25 531.65625 L 177.8125 531.65625 L 177.8125 493 z M 192.71875 493 L 203.15625 493 L 203.15625 494.5625 L 200.34375 494.5625 C 199.09547 494.56253 198.26136 494.7513 197.875 495.15625 C 197.51834 495.56126 197.34374 496.47307 197.34375 497.84375 L 197.34375 527.65625 C 197.34374 528.65313 197.48251 529.28222 197.75 529.59375 C 198.0472 529.93642 198.64115 530.12499 199.5625 530.125 L 203.15625 530.125 L 203.15625 531.65625 L 192.71875 531.65625 L 192.71875 493 z M 237.3125 493 L 247.71875 493 L 247.71875 531.65625 L 237.3125 531.65625 L 237.3125 530.125 L 240.875 530.125 C 241.79633 530.12499 242.38876 529.96777 242.65625 529.65625 C 242.95345 529.34472 243.09374 528.68428 243.09375 527.65625 L 243.09375 497.84375 C 243.09374 496.47307 242.88636 495.56126 242.5 495.15625 C 242.14335 494.7513 241.34201 494.56253 240.09375 494.5625 L 237.3125 494.5625 L 237.3125 493 z M 252.1875 493 L 262.625 493 L 262.625 531.65625 L 252.1875 531.65625 L 252.1875 530.125 L 255.75 530.125 C 256.67133 530.12499 257.26376 529.96777 257.53125 529.65625 C 257.82845 529.34472 257.96874 528.68428 257.96875 527.65625 L 257.96875 497.84375 C 257.96874 496.47307 257.79261 495.56126 257.40625 495.15625 C 257.0496 494.7513 256.24826 494.56253 255 494.5625 L 252.1875 494.5625 L 252.1875 493 z M 205 503.15625 L 214.90625 503.15625 L 214.90625 504.28125 C 213.77686 504.43703 213.21874 504.87726 213.21875 505.59375 C 213.21874 506.0299 213.56642 507.19356 214.25 509.125 C 214.96329 511.05647 215.51987 512.50304 215.90625 513.46875 L 216.96875 516.46875 L 220 508.46875 L 219.71875 507.59375 C 219.30265 506.0673 218.98775 505.15539 218.75 504.875 C 218.51222 504.5635 217.95564 504.37473 217.09375 504.28125 L 217.09375 503.15625 L 227.53125 503.15625 L 227.53125 504.28125 C 226.69905 504.34358 226.14094 504.43801 225.84375 504.59375 C 225.54652 504.74953 225.37498 505.03244 225.375 505.40625 C 225.37498 505.7801 225.47638 506.25187 225.625 506.84375 C 225.8033 507.40451 226.1182 508.56798 226.59375 510.3125 C 227.06926 512.05705 227.55876 514.03828 228.09375 516.28125 C 228.68814 514.50557 229.2775 512.93312 229.8125 511.53125 C 230.34745 510.09825 230.69818 509.12346 230.90625 508.625 C 231.14399 508.09542 231.31859 507.62375 231.4375 507.21875 C 231.55636 506.78263 231.62497 506.3424 231.625 505.90625 C 231.62497 505.37668 231.48468 504.99934 231.1875 504.78125 C 230.89027 504.53205 230.33215 504.37473 229.5 504.28125 L 229.5 503.15625 L 235.5 503.15625 L 235.5 504.28125 C 234.90556 504.40588 234.45343 504.59465 234.15625 504.875 C 233.88873 505.15539 233.60815 505.75275 233.28125 506.625 L 226.375 525.34375 L 225.34375 525.34375 L 220.78125 510.875 L 215.21875 525.34375 L 214.15625 525.34375 L 207.5625 507.875 C 206.96808 506.31739 206.51748 505.37395 206.25 505.03125 C 205.98251 504.65744 205.56469 504.40588 205 504.28125 L 205 503.15625 z "
       id="rect4770-9-3"
       inkscape:export-filename="/tmp/icons.png"
       inkscape:export-xdpi="266.01999"
       inkscape:export-ydpi="266.01999" />
  </g>
</svg>
