<?xml version="1.0" encoding="utf-8"?>
<!-- Generator: Adobe Illustrator 12.0.0, SVG Export Plug-In . SVG Version: 6.00 Build 51448)  -->
<!DOCTYPE svg PUBLIC "-//W3C//DTD SVG 1.1//EN" "http://www.w3.org/Graphics/SVG/1.1/DTD/svg11.dtd" >
<svg  version="1.1" id="Layer_1" xmlns="http://www.w3.org/2000/svg" xmlns:xlink="http://www.w3.org/1999/xlink" width="40.833" height="52.176"
	 viewBox="0 0 40.833 52.176" overflow="visible" enable-background="new 0 0 40.833 52.176" xml:space="preserve">
<path fill="#8CC63F" stroke="#006031" stroke-width="0.4831" d="M28.594,10.576c1.035-0.529,2.303-0.572,3.418-0.002
	c1.849,0.943,2.582,3.205,1.639,5.053c-0.943,1.846-3.204,2.579-5.053,1.637c-1.848-0.942-2.58-3.205-1.638-5.05
	c0.112-0.22-0.724-0.92-0.832-1.059c-0.332-0.427-0.53-0.67-0.6-1.261C25.137,6.554,28.062,10.839,28.594,10.576z"/>
<radialGradient id="XMLID_11_" cx="-517.8823" cy="25.4546" r="4.2567" gradientTransform="matrix(-0.9983 0.0576 -0.0576 -0.9983 -486.0571 68.2464)" gradientUnits="userSpaceOnUse">
	<stop  offset="0" style="stop-color:#FFF200"/>
	<stop  offset="1" style="stop-color:#006E3A"/>
</radialGradient>
<circle opacity="0.5" fill="url(#XMLID_11_)" enable-background="new    " cx="30.352" cy="13.914" r="3.159"/>
<path fill="#8CC63F" stroke="#006031" stroke-width="0.4831" d="M13.619,9.625c-0.778-0.864-1.946-1.356-3.191-1.222
	c-2.063,0.22-3.556,2.07-3.334,4.133c0.221,2.062,2.07,3.554,4.133,3.333c2.063-0.219,3.555-2.07,3.334-4.132
	c-0.036-0.345,3.729-1.736,1.539-2.557C15.505,8.958,14.037,10.085,13.619,9.625z"/>
<radialGradient id="XMLID_12_" cx="145.8081" cy="186.2803" r="4.2535" gradientTransform="matrix(0.9119 0.4105 0.4105 -0.9119 -197.5042 121.5909)" gradientUnits="userSpaceOnUse">
	<stop  offset="0" style="stop-color:#FFF200"/>
	<stop  offset="1" style="stop-color:#006E3A"/>
</radialGradient>
<circle opacity="0.5" fill="url(#XMLID_12_)" enable-background="new    " cx="10.784" cy="12.115" r="3.159"/>
<ellipse opacity="0.75" fill="#BCBEC0" enable-background="new    " cx="20.316" cy="49.074" rx="18.429" ry="2.184"/>
<path fill="#8CC63F" stroke="#006031" stroke-width="0.4831" d="M26.2,13.206l-0.184-0.459c0.436-0.667,0.804-1.69,0.794-2.502
	c-0.002-0.185-0.509-2.161-1.019-1.642c-0.581,0.592-0.663,3.586-1.106,3.771c-0.001,0-0.687,0.286-0.687,0.286
	c-1.039-0.188-2.109-0.286-3.203-0.286c-0.807,0-1.602,0.053-2.382,0.157l-0.653-0.317c-0.08-0.455-0.574-1.917-0.885-2.939
	c-0.821-0.634-1.444-0.273-1.989,0.476c0.438,0.927,1.074,2.439,1.383,2.838l-0.102,0.391C8.527,15.02,2.9,21.989,2.9,30.273
	c0,9.884,8.012,17.896,17.896,17.896c9.883,0,17.896-8.012,17.896-17.896C38.692,22.272,33.442,15.497,26.2,13.206z"/>
<radialGradient id="XMLID_13_" cx="25.1294" cy="815.9121" r="23.3576" gradientTransform="matrix(1 0 0 1 0.0752 -790.8232)" gradientUnits="userSpaceOnUse">
	<stop  offset="0" style="stop-color:#FFF200"/>
	<stop  offset="1" style="stop-color:#006E3A"/>
</radialGradient>
<circle fill="url(#XMLID_13_)" stroke="#28903A" stroke-width="0.4831" cx="20.716" cy="30.352" r="17.338"/>
<radialGradient id="XMLID_14_" cx="389.7974" cy="221.6191" r="5.6544" gradientTransform="matrix(0.7944 0.6074 -0.9008 1.1782 -85.7297 -473.4949)" gradientUnits="userSpaceOnUse">
	<stop  offset="0" style="stop-color:#787878"/>
	<stop  offset="1" style="stop-color:#000000"/>
</radialGradient>
<path fill="url(#XMLID_14_)" d="M26.473,24.814c0.932-0.404,1.866-0.727,2.55-0.983c0.735-0.276,1.82-0.811,2.615-0.771
	c0.991,0.05,0.847,0.943,0.781,2.031c-0.194,3.231-3.273,4.774-6.131,5.024c-1.552,0.136-4.104-1.221-3.036-3.027
	C23.815,26.138,25.139,25.393,26.473,24.814z"/>
<g>
	<g>
		<g>
			
				<radialGradient id="XMLID_15_" cx="-559.0645" cy="824.2988" r="8.6614" gradientTransform="matrix(-0.8442 0.0148 0.0175 0.9998 -465.1404 -777.8453)" gradientUnits="userSpaceOnUse">
				<stop  offset="0.0112" style="stop-color:#EDE9C8"/>
				<stop  offset="0.5562" style="stop-color:#FFFFFF"/>
				<stop  offset="1" style="stop-color:#CBCDCE"/>
			</radialGradient>
			<path fill="url(#XMLID_15_)" stroke="#F6921D" stroke-width="0.4215" stroke-linecap="round" d="M30.449,40.511
				c-0.556,0.655-1.361,1.157-2.157,1.154c-0.62-0.002-1.188-0.335-1.734-0.578c-0.731-0.325-1.427-0.666-2.2-0.906
				c-1.92-0.598-4.095-0.927-6.065-0.377c-1.408,0.394-2.69,1.229-4.166,1.388c-0.532,0.057-0.85,0.281-1.326-0.089
				c-0.365-0.283-0.561-0.75-0.882-1.077c-1.297-1.317,0.302-2.586,1.282-3.542c0.603-0.588,0.871-1.887,1.796-2.113
				c0.904-0.221,1.054,1.234,1.647,1.554c0.976,0.526,2.316,0.264,3.356,0.148c0.923-0.103,1.671-0.022,2.609,0.045
				c1.572,0.113,2.184-0.231,3.496-0.795c1.611-0.692,2.9-0.776,3.791,0.776c0.516,0.896,1.544,2.419,1.117,3.494
				C30.887,39.908,30.692,40.225,30.449,40.511z"/>
		</g>
		<g>
			
				<radialGradient id="XMLID_16_" cx="12.7188" cy="8.3638" r="8.2473" gradientTransform="matrix(0.9998 -0.0212 -0.0212 -0.9998 8.7061 45.5387)" gradientUnits="userSpaceOnUse">
				<stop  offset="0.0112" style="stop-color:#EDE9C8"/>
				<stop  offset="0.5562" style="stop-color:#FFFFFF"/>
				<stop  offset="1" style="stop-color:#CBCDCE"/>
			</radialGradient>
			<path fill="url(#XMLID_16_)" stroke="#F6921D" stroke-width="0.4587" stroke-linecap="round" d="M15.337,35.24
				c-0.828-0.415-1.526,1.31-1.738,1.816c-0.489,1.168-0.765,2.344-0.635,3.609c0.023,0.229,0.16,0.267,0.065,0.494
				c-0.385-0.178-0.7-0.812-0.925-1.167c-0.328-0.519-0.608-0.714-1.076-1.064c-1.678-1.256,0.093-3.264,1.154-4.179
				c1.425-1.228,3.173-1.835,5.048-1.835c2.157,0,4.279,0.023,6.435,0.139c2.028,0.108,4.169,0.236,6.021,1.107
				c0.539,0.254,1.044,0.66,1.467,1.068c0.643,0.62,1.144,1.448,1.015,2.38c-0.131,0.948-1.15,1.835-1.854,2.429
				c-0.199,0.168-0.521,0.477-0.805,0.473c-0.543,0.002-0.344-0.235-0.291-0.682c0.076-0.641-0.01-4.717-1.366-3.993
				c-0.351,0.187-0.571,0.761-0.791,1.078c-0.354,0.51-0.631,1.111-1.085,1.542c0.002-0.295,0.285-0.797,0.035-1.057
				c-0.18-0.187-0.865-0.105-1.117-0.119c-0.924-0.051-1.85-0.085-2.773-0.039c-1.792,0.089-3.584,0.005-5.372,0.184
				c-0.068,0.318,0.189,0.73,0.298,1.033c-0.155-0.481-0.46-0.91-0.709-1.353C16.098,36.681,15.783,35.464,15.337,35.24z"/>
			
				<radialGradient id="XMLID_17_" cx="13.0244" cy="10.5303" r="0.6245" gradientTransform="matrix(0.9998 -0.0212 -0.0212 -0.9998 8.7061 45.5387)" gradientUnits="userSpaceOnUse">
				<stop  offset="0.0112" style="stop-color:#EDE9C8"/>
				<stop  offset="0.5562" style="stop-color:#FFFFFF"/>
				<stop  offset="1" style="stop-color:#CBCDCE"/>
			</radialGradient>
			
				<line fill="url(#XMLID_17_)" stroke="#F6921D" stroke-width="0.4587" stroke-linecap="round" x1="21.493" y1="33.853" x2="21.53" y2="35.616"/>
			
				<radialGradient id="XMLID_18_" cx="17.3486" cy="10.6636" r="0.5044" gradientTransform="matrix(0.9998 -0.0212 -0.0212 -0.9998 8.7061 45.5387)" gradientUnits="userSpaceOnUse">
				<stop  offset="0.0112" style="stop-color:#EDE9C8"/>
				<stop  offset="0.5562" style="stop-color:#FFFFFF"/>
				<stop  offset="1" style="stop-color:#CBCDCE"/>
			</radialGradient>
			
				<line fill="url(#XMLID_18_)" stroke="#F6921D" stroke-width="0.4587" stroke-linecap="round" x1="25.819" y1="33.798" x2="25.85" y2="35.222"/>
			
				<radialGradient id="XMLID_19_" cx="8.189" cy="11.0947" r="0.5223" gradientTransform="matrix(0.9998 -0.0212 -0.0212 -0.9998 8.7061 45.5387)" gradientUnits="userSpaceOnUse">
				<stop  offset="0.0112" style="stop-color:#EDE9C8"/>
				<stop  offset="0.5562" style="stop-color:#FFFFFF"/>
				<stop  offset="1" style="stop-color:#CBCDCE"/>
			</radialGradient>
			
				<line fill="url(#XMLID_19_)" stroke="#F6921D" stroke-width="0.4587" stroke-linecap="round" x1="16.649" y1="33.535" x2="16.681" y2="35.011"/>
		</g>
	</g>
	<path fill="none" stroke="#1E3319" stroke-width="0.5797" d="M17.42,40.23c-0.443,0.188-0.879,0.396-1.338,0.529
		c-0.795,0.231-2.183,0.75-2.995,0.454c-0.75-0.273-1.05-1.197-1.545-1.74c-0.505-0.552-1.268-1.104-1.302-1.927
		c-0.036-0.835,0.691-1.71,1.259-2.265c0.79-0.771,1.747-1.318,2.762-1.733c2.034-0.831,3.979-0.571,6.107-0.571
		c1.337,0,2.677-0.008,4,0.063c1.837,0.098,3.785,0.262,5.447,1.119c0.849,0.438,1.627,1.18,2.098,2.011
		c0.623,1.103,0.036,2.222-0.722,3.05c-0.313,0.342-0.481,0.808-0.743,1.189c-0.517,0.753-1.21,1.287-2.164,1.232
		c-0.769-0.044-1.435-0.359-2.122-0.67c-0.564-0.254-1.225-0.425-1.821-0.619c-0.321-0.104-0.597-0.167-0.921-0.25
		c-1.837-0.471-3.331-0.675-5.173-0.17C17.964,40.01,17.691,40.116,17.42,40.23z"/>
</g>
<path fill="#005412" d="M18.232,43.48c1.017-0.804,3.37-1.201,4.12,0.18c-1.186-0.535-2.619-0.85-3.85-0.247
	c0.08-0.11,0.178-0.166,0.293-0.245"/>
<radialGradient id="XMLID_20_" cx="24.27" cy="23.6455" r="9.6182" gradientUnits="userSpaceOnUse">
	<stop  offset="0" style="stop-color:#787878"/>
	<stop  offset="1" style="stop-color:#000000"/>
</radialGradient>
<path fill="url(#XMLID_20_)" d="M13.984,24.156c2.24,0.989,5.415,2.578,5.137,4.397c-0.256,1.673-3.188,1.793-4.385,1.688
	c-1.969-0.175-3.806-0.464-4.786-2.425c-0.515-1.03-1.063-4.039,0.059-4.887c0.537-0.406,1.693,0.212,2.309,0.5
	C12.704,23.608,13.3,23.854,13.984,24.156z"/>
<path fill="#005412" d="M19.666,27.116c0.083-0.009,0.167-0.022,0.25-0.044c0.166-0.041,0.518-0.06,0.642-0.153
	c0.167-0.126,0.188-0.391,0.358-0.526c0.007-0.005,1.394,1.208,1.657,1.257c0.85,0.158,1.572-0.803,2.136-1.302
	c1.536-1.361,3.073-2.949,3.761-4.927c-0.943,1.35-2.109,2.669-3.422,3.669c-0.5,0.381-0.941,0.79-1.413,1.203
	c-0.658,0.577-0.977,0.356-1.219-0.39c-0.267-0.821-0.302-1.717-0.501-2.566c-0.128-0.541-0.048-1.229-0.265-1.729
	c-0.243,0.638-0.49,4.932-1.36,4.044c-0.468-0.477-0.28-1.744-0.502-2.354c-0.097,0.749,0.145,2.411-0.499,2.966
	c-0.354,0.307-0.875-0.133-1.248-0.423c-1.454-1.132-2.859-2.616-4.682-3.119c0.538,0.521,1.395,0.859,2.01,1.35
	C16.485,24.962,17.981,27.283,19.666,27.116z"/>
<path fill="#FFFFFF" d="M11.139,26.452c-0.725-0.582,0.023-1.746,0.779-1.794c-0.031-0.57-0.609-0.711-0.999-1.062
	C10.091,24.171,10.418,25.874,11.139,26.452z"/>
<path fill="#FFFFFF" d="M30.628,24.334c-0.813-0.328-2.821,0.239-3.377,0.873C28.409,26.234,29.675,23.95,30.628,24.334z"/>
</svg>
