<?xml version="1.0" encoding="UTF-8" standalone="no"?>
<!-- Generator: Adobe Illustrator 12.0.0, SVG Export Plug-In . SVG Version: 6.00 Build 51448)  -->
<svg
   xmlns:dc="http://purl.org/dc/elements/1.1/"
   xmlns:cc="http://creativecommons.org/ns#"
   xmlns:rdf="http://www.w3.org/1999/02/22-rdf-syntax-ns#"
   xmlns:svg="http://www.w3.org/2000/svg"
   xmlns="http://www.w3.org/2000/svg"
   xmlns:xlink="http://www.w3.org/1999/xlink"
   xmlns:sodipodi="http://sodipodi.sourceforge.net/DTD/sodipodi-0.dtd"
   xmlns:inkscape="http://www.inkscape.org/namespaces/inkscape"
   version="1.1"
   id="Layer_1"
   width="40.833"
   height="52.177"
   viewBox="0 0 40.833 52.177"
   overflow="visible"
   enable-background="new 0 0 40.833 52.177"
   xml:space="preserve"
   sodipodi:version="0.32"
   inkscape:version="0.46"
   sodipodi:docname="Smiley_green_alien_cry.svg"
   inkscape:output_extension="org.inkscape.output.svg.inkscape"><metadata
   id="metadata74"><rdf:RDF><cc:Work
       rdf:about=""><dc:format>image/svg+xml</dc:format><dc:type
         rdf:resource="http://purl.org/dc/dcmitype/StillImage" /></cc:Work></rdf:RDF></metadata><defs
   id="defs72"><radialGradient
     inkscape:collect="always"
     xlink:href="#XMLID_7_"
     id="radialGradient2449"
     gradientUnits="userSpaceOnUse"
     cx="25.204599"
     cy="25.0889"
     r="23.358601" /><radialGradient
     inkscape:collect="always"
     xlink:href="#XMLID_8_"
     id="radialGradient2451"
     gradientUnits="userSpaceOnUse"
     gradientTransform="matrix(0.9995,-3.18e-2,3.18e-2,0.9995,-0.3871,1.187)"
     cx="15.3877"
     cy="3.5913"
     r="4.2550998" /><radialGradient
     inkscape:collect="always"
     xlink:href="#XMLID_9_"
     id="radialGradient2453"
     gradientUnits="userSpaceOnUse"
     gradientTransform="matrix(0.9995,-3.18e-2,3.18e-2,0.9995,-0.3871,1.187)"
     cx="28.6992"
     cy="3.9849"
     r="4.2550998" /><radialGradient
     inkscape:collect="always"
     xlink:href="#XMLID_10_"
     id="radialGradient2455"
     gradientUnits="userSpaceOnUse"
     cx="24.9111"
     cy="21.637699"
     r="4.3038001" /><radialGradient
     inkscape:collect="always"
     xlink:href="#XMLID_11_"
     id="radialGradient2457"
     gradientUnits="userSpaceOnUse"
     cx="25.206499"
     cy="22.175301"
     r="3.9360001" /><radialGradient
     inkscape:collect="always"
     xlink:href="#XMLID_12_"
     id="radialGradient2459"
     gradientUnits="userSpaceOnUse"
     cx="17.779301"
     cy="42.290001"
     r="14.9211" /><radialGradient
     id="XMLID_7_"
     cx="25.204599"
     cy="25.0889"
     r="23.358601"
     gradientUnits="userSpaceOnUse">
			<stop
   offset="0"
   style="stop-color:#FFF200"
   id="stop16" />
			<stop
   offset="1"
   style="stop-color:#006E3A"
   id="stop18" />
		</radialGradient><radialGradient
     id="XMLID_8_"
     cx="15.3877"
     cy="3.5913"
     r="4.2550998"
     gradientTransform="matrix(0.9995,-3.18e-2,3.18e-2,0.9995,-0.3871,1.187)"
     gradientUnits="userSpaceOnUse">
			<stop
   offset="0"
   style="stop-color:#FFF200"
   id="stop23" />
			<stop
   offset="1"
   style="stop-color:#006E3A"
   id="stop25" />
		</radialGradient><radialGradient
     id="XMLID_9_"
     cx="28.6992"
     cy="3.9849"
     r="4.2550998"
     gradientTransform="matrix(0.9995,-3.18e-2,3.18e-2,0.9995,-0.3871,1.187)"
     gradientUnits="userSpaceOnUse">
			<stop
   offset="0"
   style="stop-color:#FFF200"
   id="stop30" />
			<stop
   offset="1"
   style="stop-color:#006E3A"
   id="stop32" />
		</radialGradient><radialGradient
     id="XMLID_10_"
     cx="24.9111"
     cy="21.637699"
     r="4.3038001"
     gradientUnits="userSpaceOnUse">
			<stop
   offset="0"
   style="stop-color:#565759"
   id="stop37" />
			<stop
   offset="1"
   style="stop-color:#000000"
   id="stop39" />
		</radialGradient><radialGradient
     id="XMLID_11_"
     cx="25.206499"
     cy="22.175301"
     r="3.9360001"
     gradientUnits="userSpaceOnUse">
			<stop
   offset="0"
   style="stop-color:#565759"
   id="stop44" />
			<stop
   offset="1"
   style="stop-color:#000000"
   id="stop46" />
		</radialGradient><radialGradient
     id="XMLID_12_"
     cx="17.779301"
     cy="42.290001"
     r="14.9211"
     gradientUnits="userSpaceOnUse">
			<stop
   offset="0"
   style="stop-color:#1E3319"
   id="stop51" />
			<stop
   offset="1"
   style="stop-color:#006E3A"
   id="stop53" />
		</radialGradient><radialGradient
     inkscape:collect="always"
     xlink:href="#XMLID_12_"
     id="radialGradient2487"
     gradientUnits="userSpaceOnUse"
     cx="17.779301"
     cy="42.290001"
     r="14.9211"
     gradientTransform="translate(0.2258745,0)" /><radialGradient
     inkscape:collect="always"
     xlink:href="#XMLID_11_"
     id="radialGradient2490"
     gradientUnits="userSpaceOnUse"
     cx="25.206499"
     cy="22.175301"
     r="3.9360001"
     gradientTransform="translate(0.2258745,0)" /><radialGradient
     inkscape:collect="always"
     xlink:href="#XMLID_10_"
     id="radialGradient2493"
     gradientUnits="userSpaceOnUse"
     cx="24.9111"
     cy="21.637699"
     r="4.3038001"
     gradientTransform="translate(0.2258745,0)" /></defs><sodipodi:namedview
   inkscape:window-height="669"
   inkscape:window-width="640"
   inkscape:pageshadow="2"
   inkscape:pageopacity="0.0"
   guidetolerance="10.0"
   gridtolerance="10.0"
   objecttolerance="10.0"
   borderopacity="1.0"
   bordercolor="#666666"
   pagecolor="#ffffff"
   id="base"
   showgrid="false"
   inkscape:zoom="9.2761182"
   inkscape:cx="20.4165"
   inkscape:cy="26.088499"
   inkscape:window-x="1372"
   inkscape:window-y="92"
   inkscape:current-layer="Layer_1" />
<g
   id="g2500"><ellipse
     transform="translate(0.2258745,0)"
     style="opacity:0.75;fill:#bcbec0"
     sodipodi:ry="2.184"
     sodipodi:rx="18.429001"
     sodipodi:cy="49.074001"
     sodipodi:cx="20.316"
     id="ellipse11"
     ry="2.184"
     rx="18.429001"
     cy="49.074001"
     cx="20.316" /><path
     style="fill:#8cc63f;stroke:#006031;stroke-width:0.4831"
     id="path13"
     d="M 26.424875,13.206 C 33.667875,15.497 38.917875,22.272 38.917875,30.273 C 38.917875,40.157 30.904874,48.169 21.021874,48.169 C 11.137875,48.169 3.1258745,40.156 3.1258745,30.273 C 3.1258745,21.989 8.7528745,15.02 16.393874,12.981 L 16.495874,12.59 C 16.041875,12.002 14.875875,9.003 14.683874,9.008 C 12.610874,9.074 10.876874,7.447 10.810875,5.374 C 10.744874,3.301 12.371875,1.568 14.443874,1.501 C 16.516875,1.435 18.251874,3.062 18.316875,5.136 C 18.356874,6.387 17.777874,7.516 16.858874,8.228 C 16.724874,8.331 17.862875,11.504 17.986874,12.215 L 18.639875,12.532 C 19.419874,12.428 20.214875,12.375 21.021874,12.375 C 22.114874,12.375 23.185875,12.473 24.223875,12.661 L 24.909875,12.375 C 24.981874,11.667 25.889875,8.414 25.750874,8.317 C 24.801875,7.664 24.165875,6.583 24.125874,5.343 C 24.060875,3.27 25.687874,1.536 27.759874,1.47 C 29.832874,1.404 31.566875,3.031 31.632874,5.103 C 31.698874,7.177 30.071874,8.91 27.998874,8.976 C 27.799875,8.982 26.680874,12.075 26.241874,12.747 L 26.424875,13.206 z" /><circle
     transform="translate(0.2258745,0)"
     sodipodi:ry="17.337999"
     sodipodi:rx="17.337999"
     sodipodi:cy="30.351999"
     sodipodi:cx="20.716"
     style="fill:url(#radialGradient2449);stroke:#28903a;stroke-width:0.4831"
     id="circle20"
     r="17.337999"
     cy="30.351999"
     cx="20.716" /><circle
     transform="translate(0.2258745,0)"
     sodipodi:ry="3.1589999"
     sodipodi:rx="3.1589999"
     sodipodi:cy="5.2719998"
     sodipodi:cx="14.32"
     style="opacity:0.5;fill:url(#radialGradient2451)"
     id="circle27"
     r="3.1589999"
     cy="5.2719998"
     cx="14.32" /><circle
     transform="translate(0.2258745,0)"
     sodipodi:ry="3.1589999"
     sodipodi:rx="3.1589999"
     sodipodi:cy="5.2420001"
     sodipodi:cx="27.636999"
     style="opacity:0.41000001;fill:url(#radialGradient2453)"
     id="circle34"
     r="3.1589999"
     cy="5.2420001"
     cx="27.636999" /><path
     style="fill:url(#radialGradient2493)"
     id="path41"
     d="M 15.987875,18.791 C 16.474874,18.514 16.930874,18.306 17.298875,18.203 C 18.138875,17.969 19.696874,18.1 19.127875,19.369 C 18.622874,20.494 16.939874,19.726 16.034875,20.03 C 14.699874,20.479 13.695875,21.592 12.413875,22.151 C 12.833875,21.049 14.541875,19.614 15.987875,18.791 z" /><path
     style="fill:url(#radialGradient2490)"
     id="path48"
     d="M 25.176875,17.952 C 27.062874,18.315 29.786874,20.426 29.690874,22.483 C 29.699874,22.3 28.101875,20.837 27.794874,20.655 C 26.888875,20.118 25.581875,20.155 24.588874,19.705 C 22.909875,18.942 23.331875,17.596 25.176875,17.952 z" /><path
     style="fill:url(#radialGradient2487);stroke:#1e3319;stroke-width:0.57969999"
     id="path55"
     d="M 15.078874,33.873 C 16.410874,31.421 18.495874,29.709 21.661874,29.36 C 27.850874,28.678 31.232875,35.91 29.941875,41.157 C 29.798875,41.737 29.430874,42.186 29.368875,42.78 C 28.509874,41.882 26.326874,41.597 25.180874,41.368 C 23.201874,40.972 21.077875,40.973 19.059874,41.001 C 17.913874,41.017 16.565874,40.978 15.430874,41.159 C 14.849875,41.252 14.055874,41.871 13.597874,41.463 C 12.765874,40.724 13.658874,37.712 13.893874,36.871 C 14.195875,35.791 14.585874,34.781 15.078874,33.873 z" /><path
     style="fill:#1e3319"
     id="path57"
     d="M 18.570874,38.313 C 17.553874,38.46 15.906874,39.699 15.281874,40.473 C 14.940874,40.896 14.834874,40.827 15.425874,41.171 C 15.707874,41.336 16.323874,41.394 16.629874,41.271 C 17.084875,41.088 17.371875,40.523 17.741875,40.152 C 18.121875,39.771 18.690874,39.087 19.315874,39.295 C 20.110875,39.56 19.819875,40.381 19.462874,40.883 C 20.015874,40.704 20.601875,40.105 20.609875,39.504 C 21.811874,39.663 22.205875,39.398 23.245874,38.811 C 22.583875,38.851 21.708875,38.987 20.915875,38.771 C 20.112875,38.55 19.448874,38.186 18.570874,38.313 z" /><path
     style="fill:#c3e9fb;stroke:#00adef;stroke-width:0.5"
     id="path59"
     d="M 10.558874,24.333 C 10.227875,24.677 6.4958745,28.346 9.0638745,28.345 C 10.468875,28.345 10.965874,25.104 10.558874,24.333" /><path
     style="fill:#c3e9fb;stroke:#00adef;stroke-width:0.5"
     id="path61"
     d="M 7.0588745,22.667 C 5.0908745,23.06 4.5188745,24.314 3.6888745,25.871 C 3.1118745,26.953 1.8068745,28.266 0.7378745,26.716 C 0.0318745,25.692 1.1198745,23.828 1.9088745,23.168 C 2.9338745,22.31 5.6828745,21.849 6.8918745,22.335" /><path
     style="fill:#c3e9fb;stroke:#00adef;stroke-width:0.5"
     id="path63"
     d="M 10.045875,19.975 C 8.9948745,18.101 6.9018745,16.009 4.5698745,16.181 C 2.4978745,16.334 1.8728745,19.876 3.8548745,19.512 C 4.6368745,19.368 4.5958745,18.449 5.5968745,18.335 C 6.5578745,18.227 7.3008745,18.823 8.0638745,19.293 C 8.0938745,19.312 10.226874,20.298 10.045875,19.975 z" /><path
     style="fill:#c3e9fb;stroke:#00adef;stroke-width:0.5"
     id="path65"
     d="M 31.892875,24 C 31.984875,24.438 32.078875,30.283 33.534875,27.669 C 34.323875,26.253 32.296875,24.504 31.392875,23.833" /><path
     style="fill:#c3e9fb;stroke:#00adef;stroke-width:0.5"
     id="path67"
     d="M 33.392875,23.167 C 34.920875,23.489 35.778875,24.186 36.680875,25.329 C 37.326875,26.147 38.046875,27.312 39.229875,26.679 C 40.321874,26.095 40.252875,24.295 39.567875,23.441 C 38.390875,21.974 34.430875,22.007 33.059875,23.167" /><path
     style="fill:#c3e9fb;stroke:#00adef;stroke-width:0.5"
     id="path69"
     d="M 35.751875,17.306 C 34.373875,17.625 31.775875,18.043 31.921875,19.471 C 32.849875,20.035 33.731875,19.011 34.584875,18.834 C 35.426875,18.659 36.566875,18.782 37.391875,19.041 C 38.357875,19.345 40.209875,20.182 39.688875,18.166 C 39.238875,16.429 37.592875,16.725 36.272875,17.166 C 36.134875,17.213 35.956875,17.258 35.751875,17.306 z" /></g>
</svg>